<svg id="GD001" height="512" viewBox="0 0 512 512" width="512" xmlns="http://www.w3.org/2000/svg" xmlns:xlink="http://www.w3.org/1999/xlink"><linearGradient id="New_Gradient_Swatch_2" gradientUnits="userSpaceOnUse" x1="256" x2="256" y1="40.326" y2="438.27"><stop offset="0" stop-color="#fc5c7d"/><stop offset=".129" stop-color="#f35e85"/><stop offset=".343" stop-color="#d9659b"/><stop offset=".616" stop-color="#b070bf"/><stop offset=".934" stop-color="#777ff0"/><stop offset="1" stop-color="#6a82fb"/></linearGradient><linearGradient id="New_Gradient_Swatch_2-2" gradientTransform="matrix(.866 .5 -.5 .866 90.304 -74.413)" x1="184" x2="184" xlink:href="#New_Gradient_Swatch_2" y1="40.326" y2="438.27"/><linearGradient id="New_Gradient_Swatch_2-3" gradientTransform="matrix(.5 .866 -.866 .5 474.396 -165.705)" x1="380.708" x2="380.708" xlink:href="#New_Gradient_Swatch_2" y1="40.326" y2="438.27"/><linearGradient id="New_Gradient_Swatch_2-4" x1="400" x2="400" xlink:href="#New_Gradient_Swatch_2" y1="40.326" y2="438.27"/><linearGradient id="New_Gradient_Swatch_2-5" gradientTransform="matrix(.866 .5 -.5 .866 143.015 -165.709)" x1="380.708" x2="380.708" xlink:href="#New_Gradient_Swatch_2" y1="40.326" y2="438.27"/><linearGradient id="New_Gradient_Swatch_2-6" gradientTransform="matrix(.5 .866 -.866 .5 277.703 -218.41)" x1="328" x2="328" xlink:href="#New_Gradient_Swatch_2" y1="40.326" y2="438.27"/><linearGradient id="New_Gradient_Swatch_2-7" x1="118.763" x2="118.763" xlink:href="#New_Gradient_Swatch_2" y1="40.326" y2="438.27"/><linearGradient id="New_Gradient_Swatch_2-8" x1="193.214" x2="193.214" xlink:href="#New_Gradient_Swatch_2" y1="40.326" y2="438.27"/><linearGradient id="New_Gradient_Swatch_2-9" x1="293.576" x2="293.576" xlink:href="#New_Gradient_Swatch_2" y1="40.326" y2="438.27"/><linearGradient id="New_Gradient_Swatch_2-10" x1="281.09" x2="281.09" xlink:href="#New_Gradient_Swatch_2" y1="40.326" y2="438.27"/><linearGradient id="New_Gradient_Swatch_2-11" x1="282.283" x2="282.283" xlink:href="#New_Gradient_Swatch_2" y1="40" y2="437.944"/><linearGradient id="New_Gradient_Swatch_2-12" x1="484.942" x2="484.942" xlink:href="#New_Gradient_Swatch_2" y1="40.326" y2="438.27"/><linearGradient id="New_Gradient_Swatch_2-13" x1="400.616" x2="400.616" xlink:href="#New_Gradient_Swatch_2" y1="40.326" y2="438.27"/><path d="m248 104h16v16h-16z" fill="url(#New_Gradient_Swatch_2)"/><path d="m176 123.292h15.999v16h-15.999z" fill="url(#New_Gradient_Swatch_2-2)" transform="matrix(.866 -.5 .5 .866 -40.996 109.596)"/><path d="m372.708 320h15.999v16h-15.999z" fill="url(#New_Gradient_Swatch_2-3)" transform="matrix(.5 -.866 .866 .5 -93.707 493.688)"/><path d="m392 248h16v16h-16z" fill="url(#New_Gradient_Swatch_2-4)"/><path d="m372.708 176h16v15.999h-16z" fill="url(#New_Gradient_Swatch_2-5)" transform="matrix(.866 -.5 .5 .866 -40.994 215.017)"/><path d="m320 123.293h16v15.999h-16z" fill="url(#New_Gradient_Swatch_2-6)" transform="matrix(.5 -.866 .866 .5 50.298 349.703)"/><path d="m39.718 315.969-13.818 8.064a429.137 429.137 0 0 0 66.717 87.35c31.292 31.294 68.892 58.217 111.756 80.023l7.255-14.26c-41.362-21.042-77.6-46.975-107.7-77.077a413.143 413.143 0 0 1 -64.21-84.1z" fill="url(#New_Gradient_Swatch_2-7)"/><path d="m334.231 368.642-48.77-10.842a30.163 30.163 0 0 0 -36.707 29.446v7.222a15.3 15.3 0 0 1 -18.444-.994c-16.615-13.92-46.956-39.743-63.5-56.288s-42.368-46.885-56.287-63.5a15.3 15.3 0 0 1 -.995-18.444h7.222a30.162 30.162 0 0 0 29.45-36.703l-10.838-48.77a46.211 46.211 0 0 0 -82.714-16.836l-28.51 39.913a43.579 43.579 0 0 0 -5.622 39.886c12.184 34.337 40.967 100.268 96.726 156.026s121.689 84.538 156.025 96.73a43.567 43.567 0 0 0 39.887-5.622l39.912-28.51a46.211 46.211 0 0 0 -16.835-82.714zm7.536 69.695-39.913 28.51a27.572 27.572 0 0 1 -25.234 3.563c-33.064-11.74-96.527-39.43-150.063-92.967s-81.227-116.999-92.967-150.063a27.572 27.572 0 0 1 3.563-25.234l28.51-39.914a30.212 30.212 0 0 1 54.076 11.007l10.838 48.771a14.162 14.162 0 0 1 -13.827 17.236h-10.95a8 8 0 0 0 -5.658 2.343 31.24 31.24 0 0 0 -1.887 42.377c17.209 20.541 41.109 48.411 57.236 64.539s44 40.027 64.539 57.237a31.24 31.24 0 0 0 42.377-1.888 8 8 0 0 0 2.343-5.658v-10.946a14.163 14.163 0 0 1 17.236-13.827l48.771 10.838a30.212 30.212 0 0 1 11.006 54.076z" fill="url(#New_Gradient_Swatch_2-8)"/><path d="m232 160v74.868a31.988 31.988 0 0 0 30.3 52.507l64.9 37.437a24.413 24.413 0 0 0 11.92 3.188 24.05 24.05 0 0 0 20.75-11.969 23.887 23.887 0 0 0 -8.749-32.8l-64.793-37.418a32.016 32.016 0 0 0 -6.328-10.945v-74.868a24.112 24.112 0 0 0 -24-24 24.028 24.028 0 0 0 -24 24zm8 96a16 16 0 1 1 16 16 16.019 16.019 0 0 1 -16-16zm106.876 45.931a7.89 7.89 0 0 1 -.842 6.065 8.016 8.016 0 0 1 -6.914 4 8.182 8.182 0 0 1 -4-1.09l-56.32-32.482a32 32 0 0 0 8.023-13.848l56.321 32.524a7.886 7.886 0 0 1 3.732 4.831zm-90.876-149.931a7.653 7.653 0 0 1 5.546 2.3l.155.154a7.657 7.657 0 0 1 2.299 5.546v65.013a32.1 32.1 0 0 0 -16 0v-65.013a8.009 8.009 0 0 1 8-8z" fill="url(#New_Gradient_Swatch_2-9)"/><path d="m424.466 330.105a182.7 182.7 0 0 0 15.534-74.105c0-101.458-82.542-184-184-184a183.506 183.506 0 0 0 -133.819 57.712l11.634 10.988a166.464 166.464 0 0 1 122.185-52.7c92.636 0 168 75.364 168 168a166.464 166.464 0 0 1 -52.7 122.185l10.984 11.634a183.39 183.39 0 0 0 42.182-59.714z" fill="url(#New_Gradient_Swatch_2-10)"/><path d="m256 40a215.958 215.958 0 0 0 -163.434 74.766l12.1 10.466a199.97 199.97 0 0 1 151.334-69.232c110.28 0 200 89.72 200 200a198.918 198.918 0 0 1 -76.926 157.659l9.856 12.606a216.007 216.007 0 0 0 -132.93-386.265z" fill="url(#New_Gradient_Swatch_2-11)"/><path d="m489.887 173.334-15.086 5.33c1.793 5.076 3.428 10.278 4.859 15.464l15.424-4.258c-1.531-5.545-3.279-11.108-5.197-16.536z" fill="url(#New_Gradient_Swatch_2-12)"/><path d="m468.7 163.2 14.66-6.4a248.589 248.589 0 0 0 -161.231-139.884l-4.258 15.424a232.591 232.591 0 0 1 150.829 130.86z" fill="url(#New_Gradient_Swatch_2-13)"/></svg>