<?xml version="1.0" encoding="utf-8"?><svg xmlns="http://www.w3.org/2000/svg" xmlns:xlink="http://www.w3.org/1999/xlink"><symbol viewBox="0 0 451.847 451.847" id="arrow-down-icon" xmlns="http://www.w3.org/2000/svg"><path d="M225.923 354.706c-8.098 0-16.195-3.092-22.369-9.263L9.27 151.157c-12.359-12.359-12.359-32.397 0-44.751 12.354-12.354 32.388-12.354 44.748 0l171.905 171.915 171.906-171.909c12.359-12.354 32.391-12.354 44.744 0 12.365 12.354 12.365 32.392 0 44.751L248.292 345.449c-6.177 6.172-14.274 9.257-22.369 9.257z"/></symbol><symbol viewBox="0 -16 512 512" id="cms-icon" xmlns="http://www.w3.org/2000/svg"><path d="M467 0H45C20.187 0 0 20.188 0 45v300c0 24.813 20.188 45 45 45h130.188l-20 60H106c-8.285 0-15 6.715-15 15s6.715 15 15 15h300c8.285 0 15-6.715 15-15s-6.715-15-15-15h-49.188l-20-60H467c24.813 0 45-20.188 45-45V45c0-24.813-20.188-45-45-45zM186.812 450l20-60h98.375l20 60zM482 345c0 8.27-6.73 15-15 15H45c-8.27 0-15-6.73-15-15v-15h452zM163.578 213.79l-13.644-13.642 21.21-21.214 13.645 13.644a14.999 14.999 0 0018.227 2.313c8.43-4.97 17.43-8.715 26.746-11.13A14.995 14.995 0 00241 169.243V150h30v19.242a14.995 14.995 0 0011.238 14.52c9.313 2.414 18.313 6.16 26.742 11.133a15.005 15.005 0 0018.227-2.317l13.645-13.644 21.214 21.214-13.644 13.645a14.994 14.994 0 00-2.313 18.223c4.973 8.433 8.715 17.433 11.13 26.746A14.995 14.995 0 00371.757 270H391v30h-61.516c1-4.914 1.516-9.941 1.516-15 0-41.355-33.645-75-75-75s-75 33.645-75 75c0 5.059.516 10.086 1.516 15H121v-30h19.242a15.003 15.003 0 0014.524-11.238c2.41-9.313 6.156-18.313 11.125-26.746a15.006 15.006 0 00-2.313-18.227zM301 285c0 5.137-.89 10.21-2.578 15h-84.844A45.163 45.163 0 01211 285c0-24.813 20.188-45 45-45s45 20.188 45 45zm181 15h-61v-45c0-8.285-6.715-15-15-15h-23.172a134.541 134.541 0 00-5.348-12.844l16.407-16.402c5.855-5.86 5.855-15.356-.004-21.215l-42.426-42.426a14.999 14.999 0 00-10.605-4.39 14.999 14.999 0 00-10.606 4.39l-16.402 16.407A133.508 133.508 0 00301 158.176V135c0-8.285-6.715-15-15-15h-60c-8.285 0-15 6.715-15 15v23.176a133.508 133.508 0 00-12.844 5.344l-16.402-16.407a15.008 15.008 0 00-21.215 0l-42.422 42.426c-5.86 5.86-5.86 15.356 0 21.215l16.403 16.406a134.023 134.023 0 00-5.344 12.84H106c-8.285 0-15 6.719-15 15v45H30V45c0-8.27 6.73-15 15-15h422c8.27 0 15 6.73 15 15zm0 0"/><path d="M406 60c-24.813 0-45 20.188-45 45s20.188 45 45 45 45-20.188 45-45-20.188-45-45-45zm0 60c-8.27 0-15-6.73-15-15s6.73-15 15-15 15 6.73 15 15-6.73 15-15 15zm0 0"/></symbol><symbol viewBox="-91 0 511 512" id="creativity-icon" xmlns="http://www.w3.org/2000/svg"><path d="M91.625 449.797C97.719 485.074 128.523 512 165.515 512s67.794-26.926 73.887-62.203c18.036-5.867 31.118-22.832 31.118-42.8v-66.634c0-26.367 9.386-52.84 27.144-76.55 21.496-28.7 32.856-62.875 32.856-98.825 0-103.957-95.137-183.25-200.348-161.324C65.98 17.043 14.984 69.554 3.282 134.332c-8.302 45.934 2.12 91.566 29.347 128.488 18.238 24.739 27.883 51.586 27.883 77.649v66.527c0 19.969 13.078 36.934 31.113 42.8zM165.515 482c-19.554 0-36.23-12.555-42.421-30.012h84.844C201.745 469.445 185.07 482 165.516 482zm75.005-75.004c0 8.27-6.73 15-15.004 15H105.512c-8.27 0-15-6.73-15-15v-17H240.52zM56.773 245.016C34.5 214.809 25.988 177.395 32.805 139.668c9.55-52.871 51.14-95.723 103.488-106.633C222.98 14.97 300.52 80.18 300.52 164.988c0 29.414-9.293 57.371-26.872 80.84-21.675 28.942-33.132 61.633-33.132 94.535v19.633H90.512V340.47c0-32.516-11.668-65.524-33.739-95.453zm0 0"/><path d="M98.805 178.406L145.39 201.7l-23.293 46.582a15.002 15.002 0 004.644 18.88c6.016 4.335 14.223 3.597 19.38-1.563l90.003-90.004a15.001 15.001 0 00-3.898-24.023l-46.586-23.294 23.293-46.586a15 15 0 00-4.649-18.875 14.992 14.992 0 00-19.375 1.563l-90.004 90a15.006 15.006 0 003.898 24.027zm52.664-38.16a14.925 14.925 0 007.34 8.156l41.386 20.696-20.632 20.629a14.965 14.965 0 00-7.34-8.157l-41.387-20.691zm29.047 174.746c0 8.285-6.715 15-15 15s-15-6.715-15-15 6.714-15 15-15 15 6.715 15 15zm0 0"/></symbol><symbol viewBox="0 0 512.001 512.001" id="instagram-icon" xmlns="http://www.w3.org/2000/svg"><path d="M373.406 0H138.594C62.172 0 0 62.172 0 138.594V373.41C0 449.828 62.172 512 138.594 512H373.41C449.828 512 512 449.828 512 373.41V138.594C512 62.172 449.828 0 373.406 0zM256 395.996c-77.195 0-139.996-62.8-139.996-139.996S178.804 116.004 256 116.004 395.996 178.804 395.996 256 333.196 395.996 256 395.996zM399.344 149.02c-22.813 0-41.367-18.555-41.367-41.368s18.554-41.37 41.367-41.37 41.37 18.558 41.37 41.37-18.558 41.368-41.37 41.368zm0 0"/><path d="M256 146.02c-60.64 0-109.98 49.335-109.98 109.98 0 60.64 49.34 109.98 109.98 109.98 60.645 0 109.98-49.34 109.98-109.98 0-60.645-49.335-109.98-109.98-109.98zM399.344 96.3c-6.258 0-11.352 5.095-11.352 11.352 0 6.258 5.094 11.352 11.352 11.352 6.261 0 11.355-5.09 11.355-11.352 0-6.261-5.094-11.351-11.355-11.351zm0 0"/></symbol><symbol viewBox="-91 0 512 512" id="mobile-app-icon" xmlns="http://www.w3.org/2000/svg"><path d="M285 512c24.813 0 45-20.188 45-45V45c0-24.813-20.188-45-45-45H45C20.187 0 0 20.188 0 45v422c0 24.813 20.188 45 45 45zM30 45c0-8.27 6.73-15 15-15h240c8.27 0 15 6.73 15 15v15H30zm0 45h270v332H30zm0 377v-15h270v15c0 8.27-6.73 15-15 15H45c-8.27 0-15-6.73-15-15zm0 0"/><path d="M165 121c-57.898 0-105 47.102-105 105 0 57.8 47.016 105 105 105 58.008 0 105-47.215 105-105 0-57.898-47.102-105-105-105zm0 180a74.508 74.508 0 01-37.398-10.031C135.828 278.71 149.773 271 165 271c15.223 0 29.172 7.71 37.398 19.969A74.508 74.508 0 01165 301zm-15-75c0-8.27 6.73-15 15-15s15 6.73 15 15-6.73 15-15 15-15-6.73-15-15zm74.977 44.977a75.275 75.275 0 00-22.594-19.957A44.727 44.727 0 00210 226c0-24.813-20.188-45-45-45s-45 20.188-45 45c0 9.254 2.809 17.86 7.617 25.02a75.282 75.282 0 00-22.594 19.957C95.593 258.437 90 242.859 90 226c0-41.355 33.645-75 75-75s75 33.645 75 75c0 16.86-5.594 32.438-15.023 44.977zM180 376c0 8.285-6.715 15-15 15s-15-6.715-15-15 6.715-15 15-15 15 6.715 15 15zm60 0c0 8.285-6.715 15-15 15s-15-6.715-15-15 6.715-15 15-15 15 6.715 15 15zm-120 0c0 8.285-6.715 15-15 15s-15-6.715-15-15 6.715-15 15-15 15 6.715 15 15zm0 0"/></symbol><symbol viewBox="0 0 97.75 97.75" id="vk-icon" xmlns="http://www.w3.org/2000/svg"><path d="M48.875 0C21.883 0 0 21.882 0 48.875S21.883 97.75 48.875 97.75 97.75 75.868 97.75 48.875 75.867 0 48.875 0zm24.792 54.161c2.278 2.225 4.688 4.319 6.733 6.774.906 1.086 1.76 2.209 2.41 3.472.928 1.801.09 3.776-1.522 3.883l-10.013-.002c-2.586.214-4.644-.829-6.379-2.597-1.385-1.409-2.67-2.914-4.004-4.371-.545-.598-1.119-1.161-1.803-1.604-1.365-.888-2.551-.616-3.333.81-.797 1.451-.979 3.059-1.055 4.674-.109 2.361-.821 2.978-3.19 3.089-5.062.237-9.865-.531-14.329-3.083-3.938-2.251-6.986-5.428-9.642-9.025-5.172-7.012-9.133-14.708-12.692-22.625-.801-1.783-.215-2.737 1.752-2.774 3.268-.063 6.536-.055 9.804-.003 1.33.021 2.21.782 2.721 2.037 1.766 4.345 3.931 8.479 6.644 12.313.723 1.021 1.461 2.039 2.512 2.76 1.16.796 2.044.533 2.591-.762.35-.823.501-1.703.577-2.585.26-3.021.291-6.041-.159-9.05-.28-1.883-1.339-3.099-3.216-3.455-.956-.181-.816-.535-.351-1.081.807-.944 1.563-1.528 3.074-1.528l11.313-.002c1.783.35 2.183 1.15 2.425 2.946l.01 12.572c-.021.695.349 2.755 1.597 3.21 1 .33 1.66-.472 2.258-1.105 2.713-2.879 4.646-6.277 6.377-9.794.764-1.551 1.423-3.156 2.063-4.764.476-1.189 1.216-1.774 2.558-1.754l10.894.013c.321 0 .647.003.965.058 1.836.314 2.339 1.104 1.771 2.895-.894 2.814-2.631 5.158-4.329 7.508-1.82 2.516-3.761 4.944-5.563 7.471-1.656 2.31-1.525 3.473.531 5.479z"/></symbol></svg>