<?xml version="1.0" standalone="no"?>
<!DOCTYPE svg PUBLIC "-//W3C//DTD SVG 1.1//EN" "http://www.w3.org/Graphics/SVG/1.1/DTD/svg11.dtd" >
<svg xmlns="http://www.w3.org/2000/svg" xmlns:xlink="http://www.w3.org/1999/xlink" version="1.1">
<metadata>
Created by FontForge 20190801 at Thu Nov  5 20:02:31 2015
 By Jimmy Wärting
Copyright (c) 2015 by Radomir Tinkov. All rights reserved.
</metadata>
<defs>
<font id="Qanelas-Medium" horiz-adv-x="523" >
  <font-face 
    font-family="Qanelas Medium"
    font-weight="500"
    font-stretch="normal"
    units-per-em="1000"
    panose-1="0 0 6 0 0 0 0 0 0 0"
    ascent="800"
    descent="-200"
    x-height="500"
    cap-height="700"
    bbox="-350 -248 1075 965"
    underline-thickness="50"
    underline-position="-100"
    unicode-range="U+0020-FB02"
  />
<missing-glyph horiz-adv-x="500" 
d="M410 -200h-317v1000h317v-1000zM168 733v-33h65v-37h-66v-33h166v33h-66v37h66v33h-165zM167 604v-104h166v34h-66v70h-100zM233 534h-33v36h33v-36zM167 473v-33h66v-37h-66v-33h100v70h66v33h-166zM300 413v-66h-133v-34h166v100h-33zM233 291v-56h34v23h33v-47h-100
v80h-33v-113h166v113h-100zM167 118v-113h166v113h-166zM300 38h-100v47h100v-47zM167 -18v-33h70l-70 -47v-33h166v33h-102l70 47h32v33h-166z" />
    <glyph glyph-name="f_f" unicode="ff" horiz-adv-x="586" 
d="M565 640q-55 0 -82.5 -28t-27.5 -87v-25h131v-84h-131v-416h-87v416h-80h-105v-416h-87v416h-81v84h81v15q0 95 49.5 147t143.5 52q17 0 25 -1v-84q-7 1 -21 1q-55 0 -82.5 -28t-27.5 -87v-15h131h54v25q0 95 49.5 147t143.5 52q17 0 25 -1v-84q-7 1 -21 1z" />
    <glyph glyph-name="f_f_i" unicode="ffi" horiz-adv-x="793" 
d="M727 0h-87v416h-185v-416h-87v416h-80h-105v-416h-87v416h-81v84h81v15q0 95 49.5 147t143.5 52q17 0 25 -1v-84q-7 1 -21 1q-55 0 -82.5 -28t-27.5 -87v-15h131h54v25q0 99 55.5 148.5t162.5 49.5q42 0 104 -13v-79q-61 8 -104 8q-67 0 -99 -25.5t-32 -88.5v-25h272
v-500z" />
    <glyph glyph-name="f_f_l" unicode="ffl" horiz-adv-x="793" 
d="M727 708v-708h-87v643q-36 2 -54 2q-66 0 -98.5 -28t-32.5 -92v-25h104v-84h-104v-416h-87v416h-80h-105v-416h-87v416h-81v84h81v15q0 95 49.5 147t143.5 52q17 0 25 -1v-84q-7 1 -21 1q-55 0 -82.5 -28t-27.5 -87v-15h131h54v25q0 99 55.5 148.5t162.5 49.5
q61 0 141 -15z" />
    <glyph glyph-name="fi" unicode="fi" horiz-adv-x="521" 
d="M455 0h-87v416h-185v-416h-87v416h-81v84h81v15q0 198 218 198q41 0 103 -13v-79q-59 8 -103 8q-68 0 -99.5 -25.5t-31.5 -88.5v-15h272v-500z" />
    <glyph glyph-name="fl" unicode="fl" horiz-adv-x="521" 
d="M455 698v-698h-87v633q-38 2 -54 2q-67 0 -99 -28t-32 -92v-15h103v-84h-103v-416h-87v416h-81v84h81v15q0 198 218 198q59 0 141 -15z" />
    <glyph glyph-name=".notdef" horiz-adv-x="500" 
d="M410 -200h-317v1000h317v-1000zM168 733v-33h65v-37h-66v-33h166v33h-66v37h66v33h-165zM167 604v-104h166v34h-66v70h-100zM233 534h-33v36h33v-36zM167 473v-33h66v-37h-66v-33h100v70h66v33h-166zM300 413v-66h-133v-34h166v100h-33zM233 291v-56h34v23h33v-47h-100
v80h-33v-113h166v113h-100zM167 118v-113h166v113h-166zM300 38h-100v47h100v-47zM167 -18v-33h70l-70 -47v-33h166v33h-102l70 47h32v33h-166z" />
    <glyph glyph-name="space" unicode=" " horiz-adv-x="250" 
 />
    <glyph glyph-name="A" unicode="A" horiz-adv-x="638" 
d="M475 157h-312l-56 -157h-99l258 700h105l259 -700h-99zM443 244l-124 347l-125 -347h249z" />
    <glyph glyph-name="Aacute" unicode="&#xc1;" horiz-adv-x="638" 
d="M475 157h-312l-56 -157h-99l258 700h105l259 -700h-99zM443 244l-124 347l-125 -347h249zM343 768l101 132h-105l-80 -132h84z" />
    <glyph glyph-name="Abreve" unicode="&#x102;" horiz-adv-x="638" 
d="M475 157h-312l-56 -157h-99l258 700h105l259 -700h-99zM443 244l-124 347l-125 -347h249zM210 792.5q-40 35.5 -40 99.5h81q0 -34 17 -49.5t51 -15.5t51 15.5t17 49.5h81q0 -64 -39.5 -99.5t-109.5 -35.5q-69 0 -109 35.5z" />
    <glyph glyph-name="Acircumflex" unicode="&#xc2;" horiz-adv-x="638" 
d="M475 157h-312l-56 -157h-99l258 700h105l259 -700h-99zM443 244l-124 347l-125 -347h249zM379 765l-61 81l-61 -81h-93l106 135h89h7l106 -135h-93z" />
    <glyph glyph-name="Adieresis" unicode="&#xc4;" horiz-adv-x="638" 
d="M475 157h-312l-56 -157h-99l258 700h105l259 -700h-99zM443 244l-124 347l-125 -347h249zM175 866h93v-92h-93v92zM370 866h93v-92h-93v92z" />
    <glyph glyph-name="Agrave" unicode="&#xc0;" horiz-adv-x="638" 
d="M475 157h-312l-56 -157h-99l258 700h105l259 -700h-99zM443 244l-124 347l-125 -347h249zM291 900h-105l101 -132h84z" />
    <glyph glyph-name="Amacron" unicode="&#x100;" horiz-adv-x="638" 
d="M475 157h-312l-56 -157h-99l258 700h105l259 -700h-99zM443 244l-124 347l-125 -347h249zM184 848h270v-73h-270v73z" />
    <glyph glyph-name="Aogonek" unicode="&#x104;" horiz-adv-x="638" 
d="M630 -136v-64q-31 -13 -66 -13q-40 0 -63.5 21.5t-23.5 58.5q0 30 18.5 64.5t51.5 68.5h-16l-56 157h-312l-56 -157h-99l258 700h105l259 -700q-31 -30 -49.5 -60.5t-18.5 -53.5q0 -30 31 -30q20 0 37 8zM443 244l-124 347l-125 -347h249z" />
    <glyph glyph-name="Aring" unicode="&#xc5;" horiz-adv-x="638" 
d="M475 157h-312l-56 -157h-99l258 700h105l259 -700h-99zM443 244l-124 347l-125 -347h249zM237.5 776.5q-31.5 30.5 -31.5 76.5t31.5 76t81.5 30t81.5 -30t31.5 -76t-31.5 -76.5t-81.5 -30.5t-81.5 30.5zM354.5 820q12.5 13 12.5 33t-12.5 32.5t-35.5 12.5
q-22 0 -34.5 -12.5t-12.5 -32.5t12.5 -33t34.5 -13q23 0 35.5 13z" />
    <glyph glyph-name="Atilde" unicode="&#xc3;" horiz-adv-x="638" 
d="M475 157h-312l-56 -157h-99l258 700h105l259 -700h-99zM443 244l-124 347l-125 -347h249zM191 868.5q22 31.5 58 31.5t75 -28q16 -11 30 -19.5t21 -8.5q11 0 15.5 12t4.5 39h74q0 -63 -22 -94.5t-57 -31.5q-36 0 -75 28q-38 28 -52 28q-20 0 -20 -52h-74q0 64 22 95.5z
" />
    <glyph glyph-name="AE" unicode="&#xc6;" horiz-adv-x="880" 
d="M843 88v-88h-358h-35v157h-251l-94 -157h-105l424 700h61h56h297v-88h-297v-215h279v-87h-279v-222h302zM450 244v328l-198 -328h198z" />
    <glyph glyph-name="B" unicode="B" horiz-adv-x="685" 
d="M617.5 354q35.5 -56 35.5 -126q0 -62 -29 -114.5t-79.5 -83t-112.5 -30.5h-339h-18v700h93h190q55 0 98.5 -23.5t67.5 -64t24 -89.5q0 -47 -25 -86q59 -27 94.5 -83zM168 613v-155h263q24 26 24 63q0 40 -26 66t-71 26h-190zM521.5 128q38.5 41 38.5 102q0 62 -38 102.5
t-102 40.5h-252v-286h251q64 0 102.5 41z" />
    <glyph glyph-name="C" unicode="C" horiz-adv-x="761" 
d="M215.5 35.5q-83.5 48.5 -130.5 131.5t-47 183t47 183t130.5 131.5t188.5 48.5q78 0 147 -31t117.5 -86.5t67.5 -125.5h-99q-25 68 -89 110.5t-144 42.5t-142.5 -36t-97 -98t-34.5 -139q0 -76 34.5 -138t97 -98t142.5 -36t144 42t89 110h99q-19 -70 -67.5 -125.5
t-117.5 -86.5t-147 -31q-105 0 -188.5 48.5z" />
    <glyph glyph-name="Cacute" unicode="&#x106;" horiz-adv-x="761" 
d="M215.5 35.5q-83.5 48.5 -130.5 131.5t-47 183t47 183t130.5 131.5t188.5 48.5q78 0 147 -31t117.5 -86.5t67.5 -125.5h-99q-25 68 -89 110.5t-144 42.5t-142.5 -36t-97 -98t-34.5 -139q0 -76 34.5 -138t97 -98t142.5 -36t144 42t89 110h99q-19 -70 -67.5 -125.5
t-117.5 -86.5t-147 -31q-105 0 -188.5 48.5zM428 771l101 132h-105l-80 -132h84z" />
    <glyph glyph-name="Ccaron" unicode="&#x10c;" horiz-adv-x="761" 
d="M215.5 35.5q-83.5 48.5 -130.5 131.5t-47 183t47 183t130.5 131.5t188.5 48.5q78 0 147 -31t117.5 -86.5t67.5 -125.5h-99q-25 68 -89 110.5t-144 42.5t-142.5 -36t-97 -98t-34.5 -139q0 -76 34.5 -138t97 -98t142.5 -36t144 42t89 110h99q-19 -70 -67.5 -125.5
t-117.5 -86.5t-147 -31q-105 0 -188.5 48.5zM557 903l-106 -135h-89h-7l-106 135h93l61 -81l61 81h93z" />
    <glyph glyph-name="Ccedilla" unicode="&#xc7;" horiz-adv-x="761" 
d="M548 120q64 42 89 110h99q-27 -98 -107.5 -164t-187.5 -77v-34q38 -8 61.5 -29t23.5 -51q0 -92 -167 -92q-28 0 -43 1v66q32 -2 44 -2q45 0 67.5 9t22.5 24q0 17 -21 25.5t-62 10.5v72q-95 8 -170 58t-117 129.5t-42 173.5q0 100 47 183t130.5 131.5t188.5 48.5
q78 0 147 -31t117.5 -86.5t67.5 -125.5h-99q-25 68 -89 110.5t-144 42.5t-142.5 -36t-97 -98t-34.5 -139q0 -76 34.5 -138t97 -98t142.5 -36t144 42z" />
    <glyph glyph-name="Cdotaccent" unicode="&#x10a;" horiz-adv-x="761" 
d="M215.5 35.5q-83.5 48.5 -130.5 131.5t-47 183t47 183t130.5 131.5t188.5 48.5q78 0 147 -31t117.5 -86.5t67.5 -125.5h-99q-25 68 -89 110.5t-144 42.5t-142.5 -36t-97 -98t-34.5 -139q0 -76 34.5 -138t97 -98t142.5 -36t144 42t89 110h99q-19 -70 -67.5 -125.5
t-117.5 -86.5t-147 -31q-105 0 -188.5 48.5zM351 881h105v-105h-105v105z" />
    <glyph glyph-name="D" unicode="D" horiz-adv-x="738" 
d="M538.5 653.5q75.5 -46.5 118.5 -127t43 -176.5t-43 -176.5t-118.5 -127t-170.5 -46.5h-258h-35v700h93h200q95 0 170.5 -46.5zM494 122.5q55 34.5 86 94t31 133.5t-31 133.5t-86 94t-126 34.5h-200v-524h200q71 0 126 34.5z" />
    <glyph glyph-name="Eth" unicode="&#xd0;" horiz-adv-x="763" 
d="M563.5 653.5q75.5 -46.5 118.5 -127t43 -176.5t-43 -176.5t-118.5 -127t-170.5 -46.5h-258h-35v306h-72v84h72v310h93h200q95 0 170.5 -46.5zM519 122.5q55 34.5 86 94t31 133.5t-31 133.5t-86 94t-126 34.5h-200v-222h200v-84h-200v-218h200q71 0 126 34.5z" />
    <glyph glyph-name="Dcaron" unicode="&#x10e;" horiz-adv-x="738" 
d="M538.5 653.5q75.5 -46.5 118.5 -127t43 -176.5t-43 -176.5t-118.5 -127t-170.5 -46.5h-258h-35v700h93h200q95 0 170.5 -46.5zM494 122.5q55 34.5 86 94t31 133.5t-31 133.5t-86 94t-126 34.5h-200v-524h200q71 0 126 34.5zM498 900l-106 -135h-89h-7l-106 135h93l61 -81
l61 81h93z" />
    <glyph glyph-name="Dcroat" unicode="&#x110;" horiz-adv-x="763" 
d="M563.5 653.5q75.5 -46.5 118.5 -127t43 -176.5t-43 -176.5t-118.5 -127t-170.5 -46.5h-258h-35v306h-72v84h72v310h93h200q95 0 170.5 -46.5zM519 122.5q55 34.5 86 94t31 133.5t-31 133.5t-86 94t-126 34.5h-200v-222h200v-84h-200v-218h200q71 0 126 34.5z" />
    <glyph glyph-name="E" unicode="E" horiz-adv-x="518" 
d="M480 88v-88h-370h-35v700h93h307v-88h-307v-215h282v-87h-282v-222h312z" />
    <glyph glyph-name="Eacute" unicode="&#xc9;" horiz-adv-x="518" 
d="M480 88v-88h-370h-35v700h93h307v-88h-307v-215h282v-87h-282v-222h312zM300 768l101 132h-105l-80 -132h84z" />
    <glyph glyph-name="Ecaron" unicode="&#x11a;" horiz-adv-x="518" 
d="M480 88v-88h-370h-35v700h93h307v-88h-307v-215h282v-87h-282v-222h312zM429 900l-106 -135h-89h-7l-106 135h93l61 -81l61 81h93z" />
    <glyph glyph-name="Ecircumflex" unicode="&#xca;" horiz-adv-x="518" 
d="M480 88v-88h-370h-35v700h93h307v-88h-307v-215h282v-87h-282v-222h312zM336 765l-61 81l-61 -81h-93l106 135h89h7l106 -135h-93z" />
    <glyph glyph-name="Edieresis" unicode="&#xcb;" horiz-adv-x="518" 
d="M480 88v-88h-370h-35v700h93h307v-88h-307v-215h282v-87h-282v-222h312zM132 866h93v-92h-93v92zM327 866h93v-92h-93v92z" />
    <glyph glyph-name="Edotaccent" unicode="&#x116;" horiz-adv-x="518" 
d="M480 88v-88h-370h-35v700h93h307v-88h-307v-215h282v-87h-282v-222h312zM223 878h105v-105h-105v105z" />
    <glyph glyph-name="Egrave" unicode="&#xc8;" horiz-adv-x="518" 
d="M480 88v-88h-370h-35v700h93h307v-88h-307v-215h282v-87h-282v-222h312zM248 900h-105l101 -132h84z" />
    <glyph glyph-name="Emacron" unicode="&#x112;" horiz-adv-x="518" 
d="M480 88v-88h-370h-35v700h93h307v-88h-307v-215h282v-87h-282v-222h312zM141 848h270v-73h-270v73z" />
    <glyph glyph-name="Eogonek" unicode="&#x118;" horiz-adv-x="518" 
d="M480 88v-88h-370h-35v700h93h307v-88h-307v-215h282v-87h-282v-222h312zM350 -191.5q-23 21.5 -23 58.5q0 30 18 64.5t52 68.5h83q-31 -30 -49.5 -60.5t-18.5 -53.5q-1 -30 31 -30q20 0 37 8v-64q-33 -13 -66 -13q-41 0 -64 21.5z" />
    <glyph glyph-name="F" unicode="F" horiz-adv-x="498" 
d="M168 612v-245h295v-88h-295v-279h-93v700h93h307v-88h-307z" />
    <glyph glyph-name="G" unicode="G" horiz-adv-x="792" 
d="M414 361h318v-85v-276h-90v101q-38 -56 -103 -85t-144 -29q-101 0 -182.5 48.5t-128 131.5t-46.5 183t47 183t129.5 131.5t185.5 48.5q78 0 146.5 -31t117.5 -85t68 -122h-99q-25 65 -89.5 106.5t-143.5 41.5q-78 0 -139.5 -36t-96 -98t-34.5 -139t34.5 -140t96 -99
t139.5 -36q65 0 118.5 22.5t86 66t35.5 104.5h2v8h-228v85z" />
    <glyph glyph-name="Gbreve" unicode="&#x11e;" horiz-adv-x="792" 
d="M414 361h318v-85v-276h-90v101q-38 -56 -103 -85t-144 -29q-101 0 -182.5 48.5t-128 131.5t-46.5 183t47 183t129.5 131.5t185.5 48.5q78 0 146.5 -31t117.5 -85t68 -122h-99q-25 65 -89.5 106.5t-143.5 41.5q-78 0 -139.5 -36t-96 -98t-34.5 -139t34.5 -140t96 -99
t139.5 -36q65 0 118.5 22.5t86 66t35.5 104.5h2v8h-228v85zM284 795.5q-40 35.5 -40 99.5h81q0 -34 17 -49.5t51 -15.5t51 15.5t17 49.5h81q0 -64 -39.5 -99.5t-109.5 -35.5q-69 0 -109 35.5z" />
    <glyph glyph-name="Gcommaaccent" unicode="&#x122;" horiz-adv-x="792" 
d="M414 361h318v-85v-276h-90v101q-38 -56 -103 -85t-144 -29q-101 0 -182.5 48.5t-128 131.5t-46.5 183t47 183t129.5 131.5t185.5 48.5q78 0 146.5 -31t117.5 -85t68 -122h-99q-25 65 -89.5 106.5t-143.5 41.5q-78 0 -139.5 -36t-96 -98t-34.5 -139t34.5 -140t96 -99
t139.5 -36q65 0 118.5 22.5t86 66t35.5 104.5h2v8h-228v85zM464 -68h-85l-10 -180h65z" />
    <glyph glyph-name="Gdotaccent" unicode="&#x120;" horiz-adv-x="792" 
d="M414 361h318v-85v-276h-90v101q-38 -56 -103 -85t-144 -29q-101 0 -182.5 48.5t-128 131.5t-46.5 183t47 183t129.5 131.5t185.5 48.5q78 0 146.5 -31t117.5 -85t68 -122h-99q-25 65 -89.5 106.5t-143.5 41.5q-78 0 -139.5 -36t-96 -98t-34.5 -139t34.5 -140t96 -99
t139.5 -36q65 0 118.5 22.5t86 66t35.5 104.5h2v8h-228v85zM340 881h105v-105h-105v105z" />
    <glyph glyph-name="H" unicode="H" horiz-adv-x="633" 
d="M558 700v-700h-93v316h-297v-316h-93v700h93v-296h297v296h93z" />
    <glyph glyph-name="Hbar" unicode="&#x126;" horiz-adv-x="680" 
d="M645 508h-64v-508h-92v309h-298v-309h-92v508h-64v71h64v121h92v-121h298v121h92v-121h64v-71zM489 508h-298v-111h298v111z" />
    <glyph glyph-name="I" unicode="I" horiz-adv-x="243" 
d="M168 700v-700h-93v700h93z" />
    <glyph glyph-name="Iacute" unicode="&#xcd;" horiz-adv-x="243" 
d="M168 700v-700h-93v700h93zM145 768l101 132h-105l-80 -132h84z" />
    <glyph glyph-name="Icircumflex" unicode="&#xce;" horiz-adv-x="243" 
d="M168 700v-700h-93v700h93zM181 765l-61 81l-61 -81h-93l106 135h89h7l106 -135h-93z" />
    <glyph glyph-name="Idieresis" unicode="&#xcf;" horiz-adv-x="243" 
d="M168 700v-700h-93v700h93zM-23 866h93v-92h-93v92zM172 866h93v-92h-93v92z" />
    <glyph glyph-name="Idotaccent" unicode="&#x130;" horiz-adv-x="243" 
d="M168 700v-700h-93v700h93zM69 878h105v-105h-105v105z" />
    <glyph glyph-name="Igrave" unicode="&#xcc;" horiz-adv-x="243" 
d="M168 700v-700h-93v700h93zM94 900h-105l101 -132h84z" />
    <glyph glyph-name="Imacron" unicode="&#x12a;" horiz-adv-x="243" 
d="M168 700v-700h-93v700h93zM-14 848h270v-73h-270v73z" />
    <glyph glyph-name="Iogonek" unicode="&#x12e;" horiz-adv-x="243" 
d="M195 -136v-64q-32 -13 -67 -13q-40 0 -63 21.5t-23 58.5q0 58 41 133h-8v700h93v-700q-22 -39 -32 -64t-10 -50q0 -30 31 -30q21 0 38 8z" />
    <glyph glyph-name="J" unicode="J" horiz-adv-x="533" 
d="M131.5 11q-51.5 24 -82.5 72t-31 118v13h92v-13q0 -62 36.5 -92.5t96.5 -30.5q59 0 95.5 30.5t36.5 92.5v499h93v-499q0 -70 -31.5 -118t-82.5 -72t-111 -24t-111.5 24z" />
    <glyph glyph-name="K" unicode="K" horiz-adv-x="592" 
d="M470 0l-302 336v-336h-93v700h93v-317l292 317h114l-309 -341l319 -359h-114z" />
    <glyph glyph-name="Kcommaaccent" unicode="&#x136;" horiz-adv-x="592" 
d="M470 0l-302 336v-336h-93v700h93v-317l292 317h114l-309 -341l319 -359h-114zM353 -68h-85l-10 -180h65z" />
    <glyph glyph-name="L" unicode="L" horiz-adv-x="485" 
d="M468 88v-88h-393v700h93v-612h300z" />
    <glyph glyph-name="Lacute" unicode="&#x139;" horiz-adv-x="485" 
d="M468 88v-88h-393v700h93v-612h300zM161 768l101 132h-105l-80 -132h84z" />
    <glyph glyph-name="Lcaron" unicode="&#x13d;" horiz-adv-x="485" 
d="M468 88v-88h-393v700h93v-612h300zM327 525h-67l10 175h87z" />
    <glyph glyph-name="Lcommaaccent" unicode="&#x13b;" horiz-adv-x="485" 
d="M468 88v-88h-393v700h93v-612h300zM327 -68h-85l-10 -180h65z" />
    <glyph glyph-name="Lslash" unicode="&#x141;" horiz-adv-x="508" 
d="M488 88v-88h-393v235l-57 -37v88l57 37v377h93v-316l160 105v-88l-160 -105v-208h300z" />
    <glyph glyph-name="M" unicode="M" horiz-adv-x="805" 
d="M730 0h-92v547l-195 -429h-80l-195 429v-547h-93v700h93h18l217 -476l216 476h111v-700z" />
    <glyph glyph-name="N" unicode="N" horiz-adv-x="635" 
d="M560 700v-700h-75l-317 518v-518h-93v700h75l318 -517v517h92z" />
    <glyph glyph-name="Nacute" unicode="&#x143;" horiz-adv-x="635" 
d="M560 700v-700h-75l-317 518v-518h-93v700h75l318 -517v517h92zM342 768l101 132h-105l-80 -132h84z" />
    <glyph glyph-name="Ncaron" unicode="&#x147;" horiz-adv-x="635" 
d="M560 700v-700h-75l-317 518v-518h-93v700h75l318 -517v517h92zM471 900l-106 -135h-89h-7l-106 135h93l61 -81l61 81h93z" />
    <glyph glyph-name="Ncommaaccent" unicode="&#x145;" horiz-adv-x="635" 
d="M560 700v-700h-75l-317 518v-518h-93v700h75l318 -517v517h92zM363 -68h-85l-10 -180h65z" />
    <glyph glyph-name="Eng" unicode="&#x14a;" horiz-adv-x="635" 
d="M560 700v-700q0 -106 -58 -153t-159 -47v86q62 0 93.5 24t31.5 90v29l-300 489v-518h-93v700h75l318 -517v517h92z" />
    <glyph glyph-name="Ntilde" unicode="&#xd1;" horiz-adv-x="635" 
d="M560 700v-700h-75l-317 518v-518h-93v700h75l318 -517v517h92zM190 868.5q22 31.5 58 31.5t75 -28q16 -11 30 -19.5t21 -8.5q11 0 15.5 12t4.5 39h74q0 -63 -22 -94.5t-57 -31.5q-36 0 -75 28q-38 28 -52 28q-20 0 -20 -52h-74q0 64 22 95.5z" />
    <glyph glyph-name="O" unicode="O" horiz-adv-x="800" 
d="M217 35.5q-83 48.5 -131 132t-48 182.5q0 100 48 183t131 131.5t183 48.5t183 -48.5t131.5 -132t48.5 -182.5t-48.5 -182.5t-131.5 -132t-183 -48.5t-183 48.5zM537 114q62 36 97.5 98.5t35.5 137.5q0 76 -35.5 138.5t-97.5 98.5t-137 36t-137 -36t-97.5 -98.5
t-35.5 -138.5q0 -75 35.5 -137.5t97.5 -98.5t137 -36t137 36z" />
    <glyph glyph-name="Oacute" unicode="&#xd3;" horiz-adv-x="800" 
d="M217 35.5q-83 48.5 -131 132t-48 182.5q0 100 48 183t131 131.5t183 48.5t183 -48.5t131.5 -132t48.5 -182.5t-48.5 -182.5t-131.5 -132t-183 -48.5t-183 48.5zM537 114q62 36 97.5 98.5t35.5 137.5q0 76 -35.5 138.5t-97.5 98.5t-137 36t-137 -36t-97.5 -98.5
t-35.5 -138.5q0 -75 35.5 -137.5t97.5 -98.5t137 -36t137 36zM424 771l101 132h-105l-80 -132h84z" />
    <glyph glyph-name="Ocircumflex" unicode="&#xd4;" horiz-adv-x="800" 
d="M217 35.5q-83 48.5 -131 132t-48 182.5q0 100 48 183t131 131.5t183 48.5t183 -48.5t131.5 -132t48.5 -182.5t-48.5 -182.5t-131.5 -132t-183 -48.5t-183 48.5zM537 114q62 36 97.5 98.5t35.5 137.5q0 76 -35.5 138.5t-97.5 98.5t-137 36t-137 -36t-97.5 -98.5
t-35.5 -138.5q0 -75 35.5 -137.5t97.5 -98.5t137 -36t137 36zM460 768l-61 81l-61 -81h-93l106 135h89h7l106 -135h-93z" />
    <glyph glyph-name="Odieresis" unicode="&#xd6;" horiz-adv-x="800" 
d="M217 35.5q-83 48.5 -131 132t-48 182.5q0 100 48 183t131 131.5t183 48.5t183 -48.5t131.5 -132t48.5 -182.5t-48.5 -182.5t-131.5 -132t-183 -48.5t-183 48.5zM537 114q62 36 97.5 98.5t35.5 137.5q0 76 -35.5 138.5t-97.5 98.5t-137 36t-137 -36t-97.5 -98.5
t-35.5 -138.5q0 -75 35.5 -137.5t97.5 -98.5t137 -36t137 36zM256 869h93v-92h-93v92zM451 869h93v-92h-93v92z" />
    <glyph glyph-name="Ograve" unicode="&#xd2;" horiz-adv-x="800" 
d="M217 35.5q-83 48.5 -131 132t-48 182.5q0 100 48 183t131 131.5t183 48.5t183 -48.5t131.5 -132t48.5 -182.5t-48.5 -182.5t-131.5 -132t-183 -48.5t-183 48.5zM537 114q62 36 97.5 98.5t35.5 137.5q0 76 -35.5 138.5t-97.5 98.5t-137 36t-137 -36t-97.5 -98.5
t-35.5 -138.5q0 -75 35.5 -137.5t97.5 -98.5t137 -36t137 36zM373 903h-105l101 -132h84z" />
    <glyph glyph-name="Ohungarumlaut" unicode="&#x150;" horiz-adv-x="800" 
d="M217 35.5q-83 48.5 -131 132t-48 182.5q0 100 48 183t131 131.5t183 48.5t183 -48.5t131.5 -132t48.5 -182.5t-48.5 -182.5t-131.5 -132t-183 -48.5t-183 48.5zM537 114q62 36 97.5 98.5t35.5 137.5q0 76 -35.5 138.5t-97.5 98.5t-137 36t-137 -36t-97.5 -98.5
t-35.5 -138.5q0 -75 35.5 -137.5t97.5 -98.5t137 -36t137 36zM353 768l79 133h-94l-73 -133h88zM506 768l89 133h-94l-83 -133h88z" />
    <glyph glyph-name="Omacron" unicode="&#x14c;" horiz-adv-x="800" 
d="M217 35.5q-83 48.5 -131 132t-48 182.5q0 100 48 183t131 131.5t183 48.5t183 -48.5t131.5 -132t48.5 -182.5t-48.5 -182.5t-131.5 -132t-183 -48.5t-183 48.5zM537 114q62 36 97.5 98.5t35.5 137.5q0 76 -35.5 138.5t-97.5 98.5t-137 36t-137 -36t-97.5 -98.5
t-35.5 -138.5q0 -75 35.5 -137.5t97.5 -98.5t137 -36t137 36zM265 851h270v-73h-270v73z" />
    <glyph glyph-name="Oslash" unicode="&#xd8;" horiz-adv-x="809" 
d="M743 491.5q28 -66.5 28 -141.5q0 -99 -48 -182.5t-131 -132t-183 -48.5q-116 0 -212 67l-45 -54h-80l79 94q-50 50 -77.5 116t-27.5 140q0 99 48.5 182.5t131.5 132t183 48.5q58 0 111 -17t97 -48l44 52h80l-77 -91q51 -51 79 -117.5zM157.5 248q18.5 -48 52.5 -84
l349 415q-66 44 -150 44q-75 0 -137 -36t-97.5 -98.5t-35.5 -138.5q0 -54 18.5 -102zM546 114q62 36 97.5 98.5t35.5 137.5q0 55 -19 104t-54 86l-350 -416q68 -46 153 -46q75 0 137 36z" />
    <glyph glyph-name="Otilde" unicode="&#xd5;" horiz-adv-x="800" 
d="M217 35.5q-83 48.5 -131 132t-48 182.5q0 100 48 183t131 131.5t183 48.5t183 -48.5t131.5 -132t48.5 -182.5t-48.5 -182.5t-131.5 -132t-183 -48.5t-183 48.5zM537 114q62 36 97.5 98.5t35.5 137.5q0 76 -35.5 138.5t-97.5 98.5t-137 36t-137 -36t-97.5 -98.5
t-35.5 -138.5q0 -75 35.5 -137.5t97.5 -98.5t137 -36t137 36zM272 871.5q22 31.5 58 31.5t75 -28q16 -11 30 -19.5t21 -8.5q11 0 15.5 12t4.5 39h74q0 -63 -22 -94.5t-57 -31.5q-36 0 -75 28q-38 28 -52 28q-20 0 -20 -52h-74q0 64 22 95.5z" />
    <glyph glyph-name="OE" unicode="&#x152;" horiz-adv-x="915" 
d="M878 88v-88h-358h-35q-47 -13 -95 -13q-99 0 -179.5 48.5t-126.5 131.5t-46 183t45.5 183t126 131.5t180.5 48.5q48 0 95 -13h93h295v-88h-295v-215h277v-87h-277v-222h300zM485 608q-43 15 -95 15q-75 0 -134.5 -36t-92.5 -98.5t-33 -138.5t33 -138t92.5 -98t134.5 -36
q55 0 95 15v515z" />
    <glyph glyph-name="P" unicode="P" horiz-adv-x="583" 
d="M439 671q50 -29 79.5 -79t29.5 -109t-29.5 -109t-80 -79.5t-109.5 -29.5h-161v-265h-93v700h93h161q60 0 110 -29zM392 369.5q29 17.5 46 48t17 65.5t-17 65t-46 47.5t-63 17.5h-161v-261h161q34 0 63 17.5z" />
    <glyph glyph-name="Thorn" unicode="&#xde;" horiz-adv-x="583" 
d="M439 538.5q50 -29.5 79.5 -79.5t29.5 -109t-29.5 -108.5t-79.5 -79t-109 -29.5h-162v-133h-93v700h93v-132h162q59 0 109 -29.5zM392.5 237.5q28.5 17.5 45.5 47.5t17 65q0 36 -17 66t-45.5 47.5t-62.5 17.5h-162v-261h162q34 0 62.5 17.5z" />
    <glyph glyph-name="Q" unicode="Q" horiz-adv-x="805" 
d="M737 215q-26 -64 -73 -114l88 -99l-67 -55l-87 99q-91 -59 -198 -59q-98 0 -181.5 48.5t-132 132t-48.5 182.5t48.5 182.5t132 132t181.5 48.5q99 0 182 -48.5t132 -132t49 -182.5q0 -71 -26 -135zM537 114l-94 107l67 55l94 -107q31 37 48.5 83.5t17.5 97.5
q0 76 -36 138.5t-98 98.5t-136 36t-136 -36t-98 -98.5t-36 -138.5q0 -75 36 -137.5t98 -98.5t136 -36t137 36z" />
    <glyph glyph-name="R" unicode="R" horiz-adv-x="630" 
d="M300 268h-132v-268h-93v700h93h162q59 0 109 -29t79.5 -79t29.5 -109q0 -69 -41 -125t-105 -78l241 -280h-113zM168 352h162q34 0 62.5 17.5t45.5 48t17 65.5t-17 65t-45.5 47.5t-62.5 17.5h-162v-261z" />
    <glyph glyph-name="Racute" unicode="&#x154;" horiz-adv-x="630" 
d="M300 268h-132v-268h-93v700h93h162q59 0 109 -29t79.5 -79t29.5 -109q0 -69 -41 -125t-105 -78l241 -280h-113zM168 352h162q34 0 62.5 17.5t45.5 48t17 65.5t-17 65t-45.5 47.5t-62.5 17.5h-162v-261zM304 768l101 132h-105l-80 -132h84z" />
    <glyph glyph-name="Rcaron" unicode="&#x158;" horiz-adv-x="630" 
d="M300 268h-132v-268h-93v700h93h162q59 0 109 -29t79.5 -79t29.5 -109q0 -69 -41 -125t-105 -78l241 -280h-113zM168 352h162q34 0 62.5 17.5t45.5 48t17 65.5t-17 65t-45.5 47.5t-62.5 17.5h-162v-261zM433 900l-106 -135h-89h-7l-106 135h93l61 -81l61 81h93z" />
    <glyph glyph-name="Rcommaaccent" unicode="&#x156;" horiz-adv-x="630" 
d="M300 268h-132v-268h-93v700h93h162q59 0 109 -29t79.5 -79t29.5 -109q0 -69 -41 -125t-105 -78l241 -280h-113zM168 352h162q34 0 62.5 17.5t45.5 48t17 65.5t-17 65t-45.5 47.5t-62.5 17.5h-162v-261zM396 -68h-85l-10 -180h65z" />
    <glyph glyph-name="S" unicode="S" horiz-adv-x="549" 
d="M158.5 12.5q-56.5 25.5 -90 75t-33.5 119.5h93q0 -62 42 -95.5t114 -33.5q61 0 99 28.5t38 75.5q0 45 -36.5 71.5t-108.5 53.5q-76 28 -118 49t-73.5 61.5t-31.5 105.5q0 59 30 102t79.5 65.5t106.5 22.5q61 0 112.5 -24t82 -71.5t30.5 -113.5h-93q0 57 -36 88t-96 31
q-54 0 -89 -27t-35 -73q0 -48 34.5 -74.5t105.5 -53.5l19 -7q68 -26 109.5 -48t71 -60.5t29.5 -97.5t-31.5 -103.5t-84 -68t-114.5 -23.5q-69 0 -125.5 25.5z" />
    <glyph glyph-name="Sacute" unicode="&#x15a;" horiz-adv-x="549" 
d="M158.5 12.5q-56.5 25.5 -90 75t-33.5 119.5h93q0 -62 42 -95.5t114 -33.5q61 0 99 28.5t38 75.5q0 45 -36.5 71.5t-108.5 53.5q-76 28 -118 49t-73.5 61.5t-31.5 105.5q0 59 30 102t79.5 65.5t106.5 22.5q61 0 112.5 -24t82 -71.5t30.5 -113.5h-93q0 57 -36 88t-96 31
q-54 0 -89 -27t-35 -73q0 -48 34.5 -74.5t105.5 -53.5l19 -7q68 -26 109.5 -48t71 -60.5t29.5 -97.5t-31.5 -103.5t-84 -68t-114.5 -23.5q-69 0 -125.5 25.5zM295 771l101 132h-105l-80 -132h84z" />
    <glyph glyph-name="Scaron" unicode="&#x160;" horiz-adv-x="549" 
d="M158.5 12.5q-56.5 25.5 -90 75t-33.5 119.5h93q0 -62 42 -95.5t114 -33.5q61 0 99 28.5t38 75.5q0 45 -36.5 71.5t-108.5 53.5q-76 28 -118 49t-73.5 61.5t-31.5 105.5q0 59 30 102t79.5 65.5t106.5 22.5q61 0 112.5 -24t82 -71.5t30.5 -113.5h-93q0 57 -36 88t-96 31
q-54 0 -89 -27t-35 -73q0 -48 34.5 -74.5t105.5 -53.5l19 -7q68 -26 109.5 -48t71 -60.5t29.5 -97.5t-31.5 -103.5t-84 -68t-114.5 -23.5q-69 0 -125.5 25.5zM424 903l-106 -135h-89h-7l-106 135h93l61 -81l61 81h93z" />
    <glyph glyph-name="Scedilla" unicode="&#x15e;" horiz-adv-x="549" 
d="M458 49.5q-56 -51.5 -141 -60.5v-34q38 -8 61.5 -29t23.5 -51q0 -92 -167 -92q-28 0 -43 1v66q32 -2 44 -2q45 0 67.5 9t22.5 24q0 17 -21 25.5t-62 10.5v73q-91 11 -149.5 67.5t-58.5 149.5h93q0 -62 42 -95.5t114 -33.5q61 0 99 28.5t38 75.5q0 45 -36.5 71.5
t-108.5 53.5q-76 28 -118 49t-73.5 61.5t-31.5 105.5q0 59 30 102t79.5 65.5t106.5 22.5q61 0 112.5 -24t82 -71.5t30.5 -113.5h-93q0 57 -36 88t-96 31q-54 0 -89 -27t-35 -73q0 -48 34.5 -74.5t105.5 -53.5l19 -7q68 -26 109.5 -48t71 -60.5t29.5 -97.5q0 -81 -56 -132.5z
" />
    <glyph glyph-name="Scommaaccent" unicode="&#x218;" horiz-adv-x="549" 
d="M158.5 12.5q-56.5 25.5 -90 75t-33.5 119.5h93q0 -62 42 -95.5t114 -33.5q61 0 99 28.5t38 75.5q0 45 -36.5 71.5t-108.5 53.5q-76 28 -118 49t-73.5 61.5t-31.5 105.5q0 59 30 102t79.5 65.5t106.5 22.5q61 0 112.5 -24t82 -71.5t30.5 -113.5h-93q0 57 -36 88t-96 31
q-54 0 -89 -27t-35 -73q0 -48 34.5 -74.5t105.5 -53.5l19 -7q68 -26 109.5 -48t71 -60.5t29.5 -97.5t-31.5 -103.5t-84 -68t-114.5 -23.5q-69 0 -125.5 25.5zM336 -68h-85l-10 -180h65z" />
    <glyph glyph-name="T" unicode="T" horiz-adv-x="500" 
d="M483 612h-187v-612h-92v612h-186v88h278h187v-88z" />
    <glyph glyph-name="Tbar" unicode="&#x166;" horiz-adv-x="500" 
d="M296 612v-222h137v-84h-137v-306h-92v306h-136v84h136v222h-186v88h278h187v-88h-187z" />
    <glyph glyph-name="Tcaron" unicode="&#x164;" horiz-adv-x="500" 
d="M483 612h-187v-612h-92v612h-186v88h278h187v-88zM403 900l-106 -135h-89h-7l-106 135h93l61 -81l61 81h93z" />
    <glyph glyph-name="uni0162" unicode="&#x162;" horiz-adv-x="500" 
d="M483 612h-187v-612h-92v612h-186v88h278h187v-88zM296 -68h-85l-10 -180h65z" />
    <glyph glyph-name="uni021A" unicode="&#x21a;" horiz-adv-x="500" 
d="M483 612h-187v-612h-92v612h-186v88h278h187v-88zM296 -68h-85l-10 -180h65z" />
    <glyph glyph-name="U" unicode="U" horiz-adv-x="620" 
d="M185.5 13q-55.5 26 -88 76.5t-32.5 120.5v490h93v-486q0 -66 40 -101t112 -35t112.5 35t40.5 101v486h92v-490q0 -70 -32.5 -120.5t-88 -76.5t-124.5 -26t-124.5 26z" />
    <glyph glyph-name="Uacute" unicode="&#xda;" horiz-adv-x="620" 
d="M185.5 13q-55.5 26 -88 76.5t-32.5 120.5v490h93v-486q0 -66 40 -101t112 -35t112.5 35t40.5 101v486h92v-490q0 -70 -32.5 -120.5t-88 -76.5t-124.5 -26t-124.5 26zM334 768l101 132h-105l-80 -132h84z" />
    <glyph glyph-name="Ucircumflex" unicode="&#xdb;" horiz-adv-x="620" 
d="M185.5 13q-55.5 26 -88 76.5t-32.5 120.5v490h93v-486q0 -66 40 -101t112 -35t112.5 35t40.5 101v486h92v-490q0 -70 -32.5 -120.5t-88 -76.5t-124.5 -26t-124.5 26zM370 765l-61 81l-61 -81h-93l106 135h89h7l106 -135h-93z" />
    <glyph glyph-name="Udieresis" unicode="&#xdc;" horiz-adv-x="620" 
d="M185.5 13q-55.5 26 -88 76.5t-32.5 120.5v490h93v-486q0 -66 40 -101t112 -35t112.5 35t40.5 101v486h92v-490q0 -70 -32.5 -120.5t-88 -76.5t-124.5 -26t-124.5 26zM166 866h93v-92h-93v92zM361 866h93v-92h-93v92z" />
    <glyph glyph-name="Ugrave" unicode="&#xd9;" horiz-adv-x="620" 
d="M185.5 13q-55.5 26 -88 76.5t-32.5 120.5v490h93v-486q0 -66 40 -101t112 -35t112.5 35t40.5 101v486h92v-490q0 -70 -32.5 -120.5t-88 -76.5t-124.5 -26t-124.5 26zM283 900h-105l101 -132h84z" />
    <glyph glyph-name="Uhungarumlaut" unicode="&#x170;" horiz-adv-x="620" 
d="M185.5 13q-55.5 26 -88 76.5t-32.5 120.5v490h93v-486q0 -66 40 -101t112 -35t112.5 35t40.5 101v486h92v-490q0 -70 -32.5 -120.5t-88 -76.5t-124.5 -26t-124.5 26zM263 765l79 133h-94l-73 -133h88zM416 765l89 133h-94l-83 -133h88z" />
    <glyph glyph-name="Umacron" unicode="&#x16a;" horiz-adv-x="620" 
d="M185.5 13q-55.5 26 -88 76.5t-32.5 120.5v490h93v-486q0 -66 40 -101t112 -35t112.5 35t40.5 101v486h92v-490q0 -70 -32.5 -120.5t-88 -76.5t-124.5 -26t-124.5 26zM175 848h270v-73h-270v73z" />
    <glyph glyph-name="Uogonek" unicode="&#x172;" horiz-adv-x="620" 
d="M555 700v-490q0 -105 -73 -167q-63 -58 -88.5 -92t-25.5 -65q0 -30 31 -30q21 0 38 8v-64q-32 -13 -67 -13q-40 0 -63 21.5t-23 58.5q0 28 15.5 59.5t43.5 62.5q-22 -2 -33 -2q-69 0 -124.5 26t-88 76.5t-32.5 120.5v490h93v-486q0 -66 40 -101t112 -35t112.5 35
t40.5 101v486h92z" />
    <glyph glyph-name="Uring" unicode="&#x16e;" horiz-adv-x="620" 
d="M185.5 13q-55.5 26 -88 76.5t-32.5 120.5v490h93v-486q0 -66 40 -101t112 -35t112.5 35t40.5 101v486h92v-490q0 -70 -32.5 -120.5t-88 -76.5t-124.5 -26t-124.5 26zM228.5 776.5q-31.5 30.5 -31.5 76.5t31.5 76t81.5 30t81.5 -30t31.5 -76t-31.5 -76.5t-81.5 -30.5
t-81.5 30.5zM345.5 820q12.5 13 12.5 33t-12.5 32.5t-35.5 12.5q-22 0 -34.5 -12.5t-12.5 -32.5t12.5 -33t34.5 -13q23 0 35.5 13z" />
    <glyph glyph-name="V" unicode="V" horiz-adv-x="616" 
d="M8 700h99l201 -588l201 588h100l-248 -700h-105z" />
    <glyph glyph-name="W" unicode="W" horiz-adv-x="870" 
d="M863 700l-212 -700h-112l-104 343l-104 -343h-112l-211 700h93l177 -594l114 378l-65 216h88l177 -594l178 594h93z" />
    <glyph glyph-name="Wacute" unicode="&#x1e82;" horiz-adv-x="870" 
d="M863 700l-212 -700h-112l-104 343l-104 -343h-112l-211 700h93l177 -594l114 378l-65 216h88l177 -594l178 594h93zM459 768l101 132h-105l-80 -132h84z" />
    <glyph glyph-name="Wcircumflex" unicode="&#x174;" horiz-adv-x="870" 
d="M863 700l-212 -700h-112l-104 343l-104 -343h-112l-211 700h93l177 -594l114 378l-65 216h88l177 -594l178 594h93zM495 765l-61 81l-61 -81h-93l106 135h89h7l106 -135h-93z" />
    <glyph glyph-name="Wdieresis" unicode="&#x1e84;" horiz-adv-x="870" 
d="M863 700l-212 -700h-112l-104 343l-104 -343h-112l-211 700h93l177 -594l114 378l-65 216h88l177 -594l178 594h93zM291 866h93v-92h-93v92zM486 866h93v-92h-93v92z" />
    <glyph glyph-name="Wgrave" unicode="&#x1e80;" horiz-adv-x="870" 
d="M863 700l-212 -700h-112l-104 343l-104 -343h-112l-211 700h93l177 -594l114 378l-65 216h88l177 -594l178 594h93zM408 900h-105l101 -132h84z" />
    <glyph glyph-name="X" unicode="X" horiz-adv-x="580" 
d="M459 0l-169 277l-169 -277h-103l220 361l-207 339h104l155 -254l156 254h103l-207 -339l221 -361h-104z" />
    <glyph glyph-name="Y" unicode="Y" horiz-adv-x="584" 
d="M338 320v-320h-93v322l-237 378h104l180 -291l180 291h104z" />
    <glyph glyph-name="Yacute" unicode="&#xdd;" horiz-adv-x="584" 
d="M338 320v-320h-93v322l-237 378h104l180 -291l180 291h104zM313 768l101 132h-105l-80 -132h84z" />
    <glyph glyph-name="Ycircumflex" unicode="&#x176;" horiz-adv-x="584" 
d="M338 320v-320h-93v322l-237 378h104l180 -291l180 291h104zM349 765l-61 81l-61 -81h-93l106 135h89h7l106 -135h-93z" />
    <glyph glyph-name="Ydieresis" unicode="&#x178;" horiz-adv-x="584" 
d="M338 320v-320h-93v322l-237 378h104l180 -291l180 291h104zM146 866h93v-92h-93v92zM341 866h93v-92h-93v92z" />
    <glyph glyph-name="Ygrave" unicode="&#x1ef2;" horiz-adv-x="584" 
d="M338 320v-320h-93v322l-237 378h104l180 -291l180 291h104zM262 900h-105l101 -132h84z" />
    <glyph glyph-name="Z" unicode="Z" horiz-adv-x="525" 
d="M496 88v-88h-457v81l338 531h-329v88h440v-80l-339 -532h347z" />
    <glyph glyph-name="Zacute" unicode="&#x179;" horiz-adv-x="525" 
d="M496 88v-88h-457v81l338 531h-329v88h440v-80l-339 -532h347zM292 768l101 132h-105l-80 -132h84z" />
    <glyph glyph-name="Zcaron" unicode="&#x17d;" horiz-adv-x="525" 
d="M496 88v-88h-457v81l338 531h-329v88h440v-80l-339 -532h347zM421 900l-106 -135h-89h-7l-106 135h93l61 -81l61 81h93z" />
    <glyph glyph-name="Zdotaccent" unicode="&#x17b;" horiz-adv-x="525" 
d="M496 88v-88h-457v81l338 531h-329v88h440v-80l-339 -532h347zM215 878h105v-105h-105v105z" />
    <glyph glyph-name="a" unicode="a" horiz-adv-x="502" 
d="M393.5 462q54.5 -51 54.5 -139v-323h-86v52q-49 -65 -149 -65q-47 0 -87 18t-64 54.5t-24 87.5t24 87.5t64 54.5t87 18q48 0 86 -15t63 -43v71q0 56 -30.5 83t-78.5 27q-46 0 -77 -23.5t-31 -66.5h-86q0 51 25 90t69.5 61t99.5 22q86 0 140.5 -51zM327.5 85
q34.5 24 34.5 62q0 40 -34.5 63.5t-89.5 23.5q-56 0 -84.5 -24t-28.5 -63t28.5 -62.5t84.5 -23.5q55 0 89.5 24z" />
    <glyph glyph-name="aacute" unicode="&#xe1;" horiz-adv-x="502" 
d="M393.5 462q54.5 -51 54.5 -139v-323h-86v52q-49 -65 -149 -65q-47 0 -87 18t-64 54.5t-24 87.5t24 87.5t64 54.5t87 18q48 0 86 -15t63 -43v71q0 56 -30.5 83t-78.5 27q-46 0 -77 -23.5t-31 -66.5h-86q0 51 25 90t69.5 61t99.5 22q86 0 140.5 -51zM327.5 85
q34.5 24 34.5 62q0 40 -34.5 63.5t-89.5 23.5q-56 0 -84.5 -24t-28.5 -63t28.5 -62.5t84.5 -23.5q55 0 89.5 24zM279 571l101 132h-105l-80 -132h84z" />
    <glyph glyph-name="abreve" unicode="&#x103;" horiz-adv-x="502" 
d="M393.5 462q54.5 -51 54.5 -139v-323h-86v52q-49 -65 -149 -65q-47 0 -87 18t-64 54.5t-24 87.5t24 87.5t64 54.5t87 18q48 0 86 -15t63 -43v71q0 56 -30.5 83t-78.5 27q-46 0 -77 -23.5t-31 -66.5h-86q0 51 25 90t69.5 61t99.5 22q86 0 140.5 -51zM327.5 85
q34.5 24 34.5 62q0 40 -34.5 63.5t-89.5 23.5q-56 0 -84.5 -24t-28.5 -63t28.5 -62.5t84.5 -23.5q55 0 89.5 24zM146 595.5q-40 35.5 -40 99.5h81q0 -34 17 -49.5t51 -15.5t51 15.5t17 49.5h81q0 -64 -39.5 -99.5t-109.5 -35.5q-69 0 -109 35.5z" />
    <glyph glyph-name="acircumflex" unicode="&#xe2;" horiz-adv-x="502" 
d="M393.5 462q54.5 -51 54.5 -139v-323h-86v52q-49 -65 -149 -65q-47 0 -87 18t-64 54.5t-24 87.5t24 87.5t64 54.5t87 18q48 0 86 -15t63 -43v71q0 56 -30.5 83t-78.5 27q-46 0 -77 -23.5t-31 -66.5h-86q0 51 25 90t69.5 61t99.5 22q86 0 140.5 -51zM327.5 85
q34.5 24 34.5 62q0 40 -34.5 63.5t-89.5 23.5q-56 0 -84.5 -24t-28.5 -63t28.5 -62.5t84.5 -23.5q55 0 89.5 24zM315 568l-61 81l-61 -81h-93l106 135h89h7l106 -135h-93z" />
    <glyph glyph-name="adieresis" unicode="&#xe4;" horiz-adv-x="502" 
d="M393.5 462q54.5 -51 54.5 -139v-323h-86v52q-49 -65 -149 -65q-47 0 -87 18t-64 54.5t-24 87.5t24 87.5t64 54.5t87 18q48 0 86 -15t63 -43v71q0 56 -30.5 83t-78.5 27q-46 0 -77 -23.5t-31 -66.5h-86q0 51 25 90t69.5 61t99.5 22q86 0 140.5 -51zM327.5 85
q34.5 24 34.5 62q0 40 -34.5 63.5t-89.5 23.5q-56 0 -84.5 -24t-28.5 -63t28.5 -62.5t84.5 -23.5q55 0 89.5 24zM111 669h93v-92h-93v92zM306 669h93v-92h-93v92z" />
    <glyph glyph-name="agrave" unicode="&#xe0;" horiz-adv-x="502" 
d="M393.5 462q54.5 -51 54.5 -139v-323h-86v52q-49 -65 -149 -65q-47 0 -87 18t-64 54.5t-24 87.5t24 87.5t64 54.5t87 18q48 0 86 -15t63 -43v71q0 56 -30.5 83t-78.5 27q-46 0 -77 -23.5t-31 -66.5h-86q0 51 25 90t69.5 61t99.5 22q86 0 140.5 -51zM327.5 85
q34.5 24 34.5 62q0 40 -34.5 63.5t-89.5 23.5q-56 0 -84.5 -24t-28.5 -63t28.5 -62.5t84.5 -23.5q55 0 89.5 24zM227 703h-105l101 -132h84z" />
    <glyph glyph-name="amacron" unicode="&#x101;" horiz-adv-x="502" 
d="M393.5 462q54.5 -51 54.5 -139v-323h-86v52q-49 -65 -149 -65q-47 0 -87 18t-64 54.5t-24 87.5t24 87.5t64 54.5t87 18q48 0 86 -15t63 -43v71q0 56 -30.5 83t-78.5 27q-46 0 -77 -23.5t-31 -66.5h-86q0 51 25 90t69.5 61t99.5 22q86 0 140.5 -51zM327.5 85
q34.5 24 34.5 62q0 40 -34.5 63.5t-89.5 23.5q-56 0 -84.5 -24t-28.5 -63t28.5 -62.5t84.5 -23.5q55 0 89.5 24zM120 651h270v-73h-270v73z" />
    <glyph glyph-name="aogonek" unicode="&#x105;" horiz-adv-x="502" 
d="M397.5 -61q-18.5 -31 -18.5 -53q0 -30 31 -30q21 0 38 8v-64q-32 -13 -67 -13q-40 0 -63 21.5t-23 58.5q0 28 17 63.5t50 72.5v49q-49 -65 -149 -65q-47 0 -87 18t-64 54.5t-24 87.5t24 87.5t64 54.5t87 18q48 0 86 -15t63 -43v71q0 56 -30.5 83t-78.5 27
q-46 0 -77 -23.5t-31 -66.5h-86q0 51 25 90t69.5 61t99.5 22q86 0 140.5 -51t54.5 -139v-323q-32 -30 -50.5 -61zM327.5 85q34.5 24 34.5 62q0 40 -34.5 63.5t-89.5 23.5q-56 0 -84.5 -24t-28.5 -63t28.5 -62.5t84.5 -23.5q55 0 89.5 24z" />
    <glyph glyph-name="aring" unicode="&#xe5;" horiz-adv-x="502" 
d="M393.5 462q54.5 -51 54.5 -139v-323h-86v52q-49 -65 -149 -65q-47 0 -87 18t-64 54.5t-24 87.5t24 87.5t64 54.5t87 18q48 0 86 -15t63 -43v71q0 56 -30.5 83t-78.5 27q-46 0 -77 -23.5t-31 -66.5h-86q0 51 25 90t69.5 61t99.5 22q86 0 140.5 -51zM327.5 85
q34.5 24 34.5 62q0 40 -34.5 63.5t-89.5 23.5q-56 0 -84.5 -24t-28.5 -63t28.5 -62.5t84.5 -23.5q55 0 89.5 24zM173.5 579.5q-31.5 30.5 -31.5 76.5t31.5 76t81.5 30t81.5 -30t31.5 -76t-31.5 -76.5t-81.5 -30.5t-81.5 30.5zM290.5 623q12.5 13 12.5 33t-12.5 32.5
t-35.5 12.5q-22 0 -34.5 -12.5t-12.5 -32.5t12.5 -33t34.5 -13q23 0 35.5 13z" />
    <glyph glyph-name="atilde" unicode="&#xe3;" horiz-adv-x="502" 
d="M393.5 462q54.5 -51 54.5 -139v-323h-86v52q-49 -65 -149 -65q-47 0 -87 18t-64 54.5t-24 87.5t24 87.5t64 54.5t87 18q48 0 86 -15t63 -43v71q0 56 -30.5 83t-78.5 27q-46 0 -77 -23.5t-31 -66.5h-86q0 51 25 90t69.5 61t99.5 22q86 0 140.5 -51zM327.5 85
q34.5 24 34.5 62q0 40 -34.5 63.5t-89.5 23.5q-56 0 -84.5 -24t-28.5 -63t28.5 -62.5t84.5 -23.5q55 0 89.5 24zM127 671.5q22 31.5 58 31.5t75 -28q16 -11 30 -19.5t21 -8.5q11 0 15.5 12t4.5 39h74q0 -63 -22 -94.5t-57 -31.5q-36 0 -75 28q-38 28 -52 28q-20 0 -20 -52
h-74q0 64 22 95.5z" />
    <glyph glyph-name="ae" unicode="&#xe6;" horiz-adv-x="838" 
d="M496 103.5q37 -37.5 98 -37.5q42 0 69.5 20t37.5 53h91q-14 -68 -67 -109.5t-128 -41.5q-62 0 -107 25t-71 71q-22 -46 -70 -71.5t-115 -25.5q-86 0 -141 42t-55 118q0 51 24 87.5t64 54.5t87 18q46 0 84.5 -14t64.5 -37v64l24 1l-24 -1q0 56 -30.5 83t-78.5 27
q-46 0 -77 -23.5t-31 -66.5h-86q0 50 25 89.5t68 61.5t96 22q59 0 104 -25.5t68 -72.5q28 46 72 72t102 26q69 0 117.5 -36t73 -96t24.5 -132q0 -19 -3 -39h-355q8 -69 45 -106.5zM722 287q-6 71 -41 107.5t-88 36.5q-63 0 -99 -38.5t-44 -105.5h272zM329.5 85
q32.5 24 32.5 62q0 40 -34.5 63.5t-89.5 23.5q-56 0 -84.5 -24t-28.5 -63t30.5 -62.5t85.5 -23.5q56 0 88.5 24z" />
    <glyph glyph-name="b" unicode="b" horiz-adv-x="633" 
d="M469 478q58 -35 92 -95t34 -133t-34 -133t-92 -95t-127 -35q-62 0 -110 26t-79 72v-85h-87v700h87v-285q31 46 79 72t110 26q69 0 127 -35zM420.5 94.5q40.5 23.5 64 64.5t23.5 91t-23.5 91t-64 64.5t-89.5 23.5q-50 0 -90.5 -23.5t-64 -64.5t-23.5 -91t23.5 -91
t64 -64.5t90.5 -23.5q49 0 89.5 23.5z" />
    <glyph glyph-name="c" unicode="c" horiz-adv-x="571" 
d="M456.5 37.5q-67.5 -50.5 -155.5 -50.5q-74 0 -134 34.5t-94.5 95t-34.5 133.5t34.5 133.5t94.5 95t134 34.5q88 0 155.5 -50t87.5 -130h-92q-17 43 -58 69t-93 26q-49 0 -89 -23.5t-63.5 -64t-23.5 -90.5q0 -49 23.5 -89.5t63.5 -64t89 -23.5q52 0 93 26t58 69h92
q-20 -80 -87.5 -130.5z" />
    <glyph glyph-name="cacute" unicode="&#x107;" horiz-adv-x="571" 
d="M456.5 37.5q-67.5 -50.5 -155.5 -50.5q-74 0 -134 34.5t-94.5 95t-34.5 133.5t34.5 133.5t94.5 95t134 34.5q88 0 155.5 -50t87.5 -130h-92q-17 43 -58 69t-93 26q-49 0 -89 -23.5t-63.5 -64t-23.5 -90.5q0 -49 23.5 -89.5t63.5 -64t89 -23.5q52 0 93 26t58 69h92
q-20 -80 -87.5 -130.5zM317 568l101 132h-105l-80 -132h84z" />
    <glyph glyph-name="ccaron" unicode="&#x10d;" horiz-adv-x="571" 
d="M456.5 37.5q-67.5 -50.5 -155.5 -50.5q-74 0 -134 34.5t-94.5 95t-34.5 133.5t34.5 133.5t94.5 95t134 34.5q88 0 155.5 -50t87.5 -130h-92q-17 43 -58 69t-93 26q-49 0 -89 -23.5t-63.5 -64t-23.5 -90.5q0 -49 23.5 -89.5t63.5 -64t89 -23.5q52 0 93 26t58 69h92
q-20 -80 -87.5 -130.5zM446 700l-106 -135h-89h-7l-106 135h93l61 -81l61 81h93z" />
    <glyph glyph-name="ccedilla" unicode="&#xe7;" horiz-adv-x="571" 
d="M394 99q41 26 58 69h92q-17 -71 -73.5 -119t-132.5 -59v-35q38 -8 61.5 -29t23.5 -51q0 -92 -167 -92q-28 0 -43 1v66q32 -2 44 -2q45 0 67.5 9t22.5 24q0 17 -21 25.5t-62 10.5v73q-65 8 -116.5 44t-80.5 92.5t-29 123.5q0 73 34.5 133.5t94.5 95t134 34.5
q88 0 155.5 -50t87.5 -130h-92q-17 43 -58 69t-93 26q-49 0 -89 -23.5t-63.5 -64t-23.5 -90.5q0 -49 23.5 -89.5t63.5 -64t89 -23.5q52 0 93 26z" />
    <glyph glyph-name="cdotaccent" unicode="&#x10b;" horiz-adv-x="571" 
d="M456.5 37.5q-67.5 -50.5 -155.5 -50.5q-74 0 -134 34.5t-94.5 95t-34.5 133.5t34.5 133.5t94.5 95t134 34.5q88 0 155.5 -50t87.5 -130h-92q-17 43 -58 69t-93 26q-49 0 -89 -23.5t-63.5 -64t-23.5 -90.5q0 -49 23.5 -89.5t63.5 -64t89 -23.5q52 0 93 26t58 69h92
q-20 -80 -87.5 -130.5zM241 678h105v-105h-105v105z" />
    <glyph glyph-name="d" unicode="d" horiz-adv-x="633" 
d="M567 700v-700h-87v85q-31 -46 -79 -72t-110 -26q-68 0 -126 35t-92.5 95t-34.5 133t34.5 133t92.5 95t126 35q62 0 110 -26t79 -72v285h87zM392.5 94.5q40.5 23.5 64 64.5t23.5 91t-23.5 91t-64 64.5t-90.5 23.5q-49 0 -89.5 -23.5t-64 -64.5t-23.5 -91t23.5 -91
t64 -64.5t89.5 -23.5q50 0 90.5 23.5z" />
    <glyph glyph-name="eth" unicode="&#xf0;" horiz-adv-x="581" 
d="M544 230q0 -72 -34.5 -127t-92.5 -85t-126 -30t-126 30t-92.5 85t-34.5 127q0 66 32 119t86 83t117 30q13 0 20 -1q14 -1 38 -5l-75 101l-118 -66v70l82 46l-69 93h101l39 -53l114 66v-70l-78 -45l171 -228q46 -65 46 -140zM374 90.5q38 19.5 60.5 55.5t22.5 84
q0 56 -27 92q-48 63 -138 63q-73 0 -120 -42.5t-47 -112.5q0 -48 22.5 -84t60.5 -55.5t83 -19.5t83 19.5z" />
    <glyph glyph-name="dcaron" unicode="&#x10f;" horiz-adv-x="713" 
d="M480 700h87v-700h-87v85q-31 -46 -79 -72t-110 -26q-68 0 -126 35t-92.5 95t-34.5 133t34.5 133t92.5 95t126 35q62 0 110 -26t79 -72v285zM723 700l-30 -180h-64l10 180h84zM392.5 94.5q40.5 23.5 64 64.5t23.5 91t-23.5 91t-64 64.5t-90.5 23.5q-49 0 -89.5 -23.5
t-64 -64.5t-23.5 -91t23.5 -91t64 -64.5t89.5 -23.5q50 0 90.5 23.5z" />
    <glyph glyph-name="dcroat" unicode="&#x111;" horiz-adv-x="642" 
d="M634 569h-67v-569h-87v85q-31 -46 -79 -72t-110 -26q-69 0 -127 35t-92 95t-34 133t34 133t92 95t127 35q62 0 110 -26t79 -72v154h-173v64h173v67h87v-67h67v-64zM392.5 94.5q40.5 23.5 64 64.5t23.5 91t-23.5 91t-64 64.5t-90.5 23.5q-49 0 -89.5 -23.5t-64 -64.5
t-23.5 -91t23.5 -91t64 -64.5t89.5 -23.5q50 0 90.5 23.5z" />
    <glyph glyph-name="e" unicode="e" horiz-adv-x="571" 
d="M184.5 104q46.5 -38 114.5 -38q46 0 82.5 20.5t52.5 52.5h91q-22 -69 -83 -110.5t-144 -41.5q-77 0 -136 34t-91.5 94t-32.5 135q0 74 32.5 134t91.5 94.5t135 34.5q73 0 129 -36t86 -96.5t30 -131.5q0 -19 -3 -39h-412q11 -68 57.5 -106zM453 287q-9 70 -53 107t-104 37
q-69 0 -113.5 -39t-55.5 -105h326z" />
    <glyph glyph-name="eacute" unicode="&#xe9;" horiz-adv-x="571" 
d="M184.5 104q46.5 -38 114.5 -38q46 0 82.5 20.5t52.5 52.5h91q-22 -69 -83 -110.5t-144 -41.5q-77 0 -136 34t-91.5 94t-32.5 135q0 74 32.5 134t91.5 94.5t135 34.5q73 0 129 -36t86 -96.5t30 -131.5q0 -19 -3 -39h-412q11 -68 57.5 -106zM453 287q-9 70 -53 107t-104 37
q-69 0 -113.5 -39t-55.5 -105h326zM320 569l101 132h-105l-80 -132h84z" />
    <glyph glyph-name="ecaron" unicode="&#x11b;" horiz-adv-x="571" 
d="M184.5 104q46.5 -38 114.5 -38q46 0 82.5 20.5t52.5 52.5h91q-22 -69 -83 -110.5t-144 -41.5q-77 0 -136 34t-91.5 94t-32.5 135q0 74 32.5 134t91.5 94.5t135 34.5q73 0 129 -36t86 -96.5t30 -131.5q0 -19 -3 -39h-412q11 -68 57.5 -106zM453 287q-9 70 -53 107t-104 37
q-69 0 -113.5 -39t-55.5 -105h326zM449 701l-106 -135h-89h-7l-106 135h93l61 -81l61 81h93z" />
    <glyph glyph-name="ecircumflex" unicode="&#xea;" horiz-adv-x="571" 
d="M184.5 104q46.5 -38 114.5 -38q46 0 82.5 20.5t52.5 52.5h91q-22 -69 -83 -110.5t-144 -41.5q-77 0 -136 34t-91.5 94t-32.5 135q0 74 32.5 134t91.5 94.5t135 34.5q73 0 129 -36t86 -96.5t30 -131.5q0 -19 -3 -39h-412q11 -68 57.5 -106zM453 287q-9 70 -53 107t-104 37
q-69 0 -113.5 -39t-55.5 -105h326zM356 566l-61 81l-61 -81h-93l106 135h89h7l106 -135h-93z" />
    <glyph glyph-name="edieresis" unicode="&#xeb;" horiz-adv-x="571" 
d="M184.5 104q46.5 -38 114.5 -38q46 0 82.5 20.5t52.5 52.5h91q-22 -69 -83 -110.5t-144 -41.5q-77 0 -136 34t-91.5 94t-32.5 135q0 74 32.5 134t91.5 94.5t135 34.5q73 0 129 -36t86 -96.5t30 -131.5q0 -19 -3 -39h-412q11 -68 57.5 -106zM453 287q-9 70 -53 107t-104 37
q-69 0 -113.5 -39t-55.5 -105h326zM153 667h93v-92h-93v92zM348 667h93v-92h-93v92z" />
    <glyph glyph-name="edotaccent" unicode="&#x117;" horiz-adv-x="571" 
d="M184.5 104q46.5 -38 114.5 -38q46 0 82.5 20.5t52.5 52.5h91q-22 -69 -83 -110.5t-144 -41.5q-77 0 -136 34t-91.5 94t-32.5 135q0 74 32.5 134t91.5 94.5t135 34.5q73 0 129 -36t86 -96.5t30 -131.5q0 -19 -3 -39h-412q11 -68 57.5 -106zM453 287q-9 70 -53 107t-104 37
q-69 0 -113.5 -39t-55.5 -105h326zM244 679h105v-105h-105v105z" />
    <glyph glyph-name="egrave" unicode="&#xe8;" horiz-adv-x="571" 
d="M184.5 104q46.5 -38 114.5 -38q46 0 82.5 20.5t52.5 52.5h91q-22 -69 -83 -110.5t-144 -41.5q-77 0 -136 34t-91.5 94t-32.5 135q0 74 32.5 134t91.5 94.5t135 34.5q73 0 129 -36t86 -96.5t30 -131.5q0 -19 -3 -39h-412q11 -68 57.5 -106zM453 287q-9 70 -53 107t-104 37
q-69 0 -113.5 -39t-55.5 -105h326zM269 701h-105l101 -132h84z" />
    <glyph glyph-name="emacron" unicode="&#x113;" horiz-adv-x="571" 
d="M184.5 104q46.5 -38 114.5 -38q46 0 82.5 20.5t52.5 52.5h91q-22 -69 -83 -110.5t-144 -41.5q-77 0 -136 34t-91.5 94t-32.5 135q0 74 32.5 134t91.5 94.5t135 34.5q73 0 129 -36t86 -96.5t30 -131.5q0 -19 -3 -39h-412q11 -68 57.5 -106zM453 287q-9 70 -53 107t-104 37
q-69 0 -113.5 -39t-55.5 -105h326zM161 649h270v-73h-270v73z" />
    <glyph glyph-name="eogonek" unicode="&#x119;" horiz-adv-x="571" 
d="M184.5 104q46.5 -38 114.5 -38q46 0 82.5 20.5t52.5 52.5h91q-21 -64 -75 -104q-88 -98 -88 -149q0 -30 31 -30q21 0 37 8v-64q-31 -13 -66 -13q-40 0 -63 21.5t-23 58.5q0 27 15.5 59.5t46.5 64.5q-28 -4 -42 -4q-77 0 -136 34t-91.5 94t-32.5 135q0 74 32.5 134
t91.5 94.5t135 34.5q73 0 129 -36t86 -96.5t30 -131.5q0 -19 -3 -39h-412q11 -68 57.5 -106zM453 287q-9 70 -53 107t-104 37q-69 0 -113.5 -39t-55.5 -105h326z" />
    <glyph glyph-name="f" unicode="f" horiz-adv-x="314" 
d="M293 630q-55 0 -82.5 -28t-27.5 -87v-15h131v-84h-131v-416h-87v416h-81v84h81v15q0 95 49.5 147t143.5 52q17 0 25 -1v-84q-7 1 -21 1z" />
    <glyph glyph-name="g" unicode="g" horiz-adv-x="632" 
d="M567 500v-479q0 -75 -35 -128t-92.5 -79.5t-125.5 -26.5q-62 0 -118 24.5t-90 68.5t-34 99h87q0 -26 18.5 -52t54 -42.5t82.5 -16.5q80 0 123.5 41t43.5 112v70q-31 -46 -79.5 -72.5t-110.5 -26.5q-69 0 -127 35t-92 94.5t-34 131.5q0 71 34 131t92 94.5t127 34.5
q62 0 110.5 -26.5t79.5 -72.5v86h86zM393.5 98.5q40.5 23.5 64 64t23.5 90.5q0 49 -23.5 89.5t-64 64t-90.5 23.5t-90.5 -23.5t-64 -64t-23.5 -89.5q0 -50 23.5 -90.5t64 -64t90.5 -23.5t90.5 23.5z" />
    <glyph glyph-name="gbreve" unicode="&#x11f;" horiz-adv-x="632" 
d="M567 500v-479q0 -75 -35 -128t-92.5 -79.5t-125.5 -26.5q-62 0 -118 24.5t-90 68.5t-34 99h87q0 -26 18.5 -52t54 -42.5t82.5 -16.5q80 0 123.5 41t43.5 112v70q-31 -46 -79.5 -72.5t-110.5 -26.5q-69 0 -127 35t-92 94.5t-34 131.5q0 71 34 131t92 94.5t127 34.5
q62 0 110.5 -26.5t79.5 -72.5v86h86zM393.5 98.5q40.5 23.5 64 64t23.5 90.5q0 49 -23.5 89.5t-64 64t-90.5 23.5t-90.5 -23.5t-64 -64t-23.5 -89.5q0 -50 23.5 -90.5t64 -64t90.5 -23.5t90.5 23.5zM196 595.5q-40 35.5 -40 99.5h81q0 -34 17 -49.5t51 -15.5t51 15.5
t17 49.5h81q0 -64 -39.5 -99.5t-109.5 -35.5q-69 0 -109 35.5z" />
    <glyph glyph-name="gcommaaccent" unicode="&#x123;" horiz-adv-x="632" 
d="M567 500v-479q0 -75 -35 -128t-92.5 -79.5t-125.5 -26.5q-62 0 -118 24.5t-90 68.5t-34 99h87q0 -26 18.5 -52t54 -42.5t82.5 -16.5q80 0 123.5 41t43.5 112v70q-31 -46 -79.5 -72.5t-110.5 -26.5q-69 0 -127 35t-92 94.5t-34 131.5q0 71 34 131t92 94.5t127 34.5
q62 0 110.5 -26.5t79.5 -72.5v86h86zM393.5 98.5q40.5 23.5 64 64t23.5 90.5q0 49 -23.5 89.5t-64 64t-90.5 23.5t-90.5 -23.5t-64 -64t-23.5 -89.5q0 -50 23.5 -90.5t64 -64t90.5 -23.5t90.5 23.5zM256 587h85l10 180h-65z" />
    <glyph glyph-name="gdotaccent" unicode="&#x121;" horiz-adv-x="632" 
d="M567 500v-479q0 -75 -35 -128t-92.5 -79.5t-125.5 -26.5q-62 0 -118 24.5t-90 68.5t-34 99h87q0 -26 18.5 -52t54 -42.5t82.5 -16.5q80 0 123.5 41t43.5 112v70q-31 -46 -79.5 -72.5t-110.5 -26.5q-69 0 -127 35t-92 94.5t-34 131.5q0 71 34 131t92 94.5t127 34.5
q62 0 110.5 -26.5t79.5 -72.5v86h86zM393.5 98.5q40.5 23.5 64 64t23.5 90.5q0 49 -23.5 89.5t-64 64t-90.5 23.5t-90.5 -23.5t-64 -64t-23.5 -89.5q0 -50 23.5 -90.5t64 -64t90.5 -23.5t90.5 23.5zM252 681h105v-105h-105v105z" />
    <glyph glyph-name="h" unicode="h" 
d="M386 490q38 -23 60.5 -65.5t22.5 -99.5v-325h-87v321q0 52 -28.5 80.5t-75.5 28.5q-52 0 -88.5 -35.5t-36.5 -109.5v-285h-87v700h87v-262q49 75 148 75q47 0 85 -23z" />
    <glyph glyph-name="hbar" unicode="&#x127;" horiz-adv-x="532" 
d="M395 490q38 -23 60.5 -65.5t22.5 -99.5v-325h-87v321q0 52 -28.5 80.5t-75.5 28.5q-52 0 -88.5 -35.5t-36.5 -109.5v-285h-87v569h-67v64h67v67h87v-67h143v-64h-143v-131q49 75 148 75q47 0 85 -23z" />
    <glyph glyph-name="i" unicode="i" horiz-adv-x="220" 
d="M66 700h87v-110h-87v110zM66 500h87v-500h-87v500z" />
    <glyph glyph-name="dotlessi" unicode="&#x131;" horiz-adv-x="220" 
d="M66 500h87v-500h-87v500z" />
    <glyph glyph-name="iacute" unicode="&#xed;" horiz-adv-x="220" 
d="M153 565l66 135h-103l-47 -135h84zM66 500h87v-500h-87v500z" />
    <glyph glyph-name="icircumflex" unicode="&#xee;" horiz-adv-x="220" 
d="M246 565h-92l-44 69l-44 -69h-93l89 135h89h7zM66 500h87v-500h-87v500z" />
    <glyph glyph-name="idieresis" unicode="&#xef;" horiz-adv-x="220" 
d="M-12 666h93v-92h-93v92zM139 666h92v-92h-92v92zM66 500h87v-500h-87v500z" />
    <glyph glyph-name="i.loclTRK" horiz-adv-x="220" 
d="M66 500h87v-500h-87v500zM57 678h105v-105h-105v105z" />
    <glyph glyph-name="igrave" unicode="&#xec;" horiz-adv-x="220" 
d="M103 700h-102l66 -135h84zM66 0v500h87v-500h-87z" />
    <glyph glyph-name="imacron" unicode="&#x12b;" horiz-adv-x="220" 
d="M5 651h210v-76h-210v76zM66 500h87v-500h-87v500z" />
    <glyph glyph-name="iogonek" unicode="&#x12f;" horiz-adv-x="220" 
d="M153 590h-87v110h87v-110zM183 -136v-64q-33 -13 -66 -13q-40 0 -63.5 25t-23.5 63q0 27 8.5 56t30.5 69h-3v500h87v-500q-38 -62 -38 -107q-1 -15 7.5 -26t23.5 -11q20 0 37 8z" />
    <glyph glyph-name="j" unicode="j" horiz-adv-x="241" 
d="M175 700v-110h-87v110h87zM88 500h87v-530q0 -91 -43.5 -137.5t-126.5 -46.5q-15 0 -23 1v84q6 -1 18 -1q45 0 66.5 23.5t21.5 76.5v530z" />
    <glyph glyph-name="k" unicode="k" horiz-adv-x="502" 
d="M378 0l-225 236v-236h-87v700h87v-422l215 222h109l-237 -242l247 -258h-109z" />
    <glyph glyph-name="kcommaaccent" unicode="&#x137;" horiz-adv-x="502" 
d="M378 0l-225 236v-236h-87v700h87v-422l215 222h109l-237 -242l247 -258h-109zM316 -68h-85l-10 -180h65z" />
    <glyph glyph-name="l" unicode="l" horiz-adv-x="220" 
d="M66 720h87v-720h-87v720z" />
    <glyph glyph-name="lacute" unicode="&#x13a;" horiz-adv-x="220" 
d="M66 720h87v-720h-87v720zM150 768l101 132h-105l-80 -132h84z" />
    <glyph glyph-name="lcaron" unicode="&#x13e;" horiz-adv-x="299" 
d="M66 720h87v-720h-87v720zM309 720h-84l-10 -180h64z" />
    <glyph glyph-name="lcommaaccent" unicode="&#x13c;" horiz-adv-x="220" 
d="M66 720h87v-720h-87v720zM154 -68h-85l-10 -180h65z" />
    <glyph glyph-name="lslash" unicode="&#x142;" horiz-adv-x="248" 
d="M230 387l-63 -43v-344h-87v284l-62 -42v83l62 42v353h87v-293l63 43v-83z" />
    <glyph glyph-name="m" unicode="m" horiz-adv-x="768" 
d="M669.5 466.5q44.5 -46.5 44.5 -129.5v-337h-87v334q0 49 -24.5 72.5t-62.5 23.5q-41 0 -73.5 -29.5t-32.5 -95.5v-305h-87v334q0 49 -25 72.5t-63 23.5q-41 0 -73.5 -29.5t-32.5 -95.5v-305h-87v500h87v-55q46 68 130 68q41 0 75 -20.5t54 -58.5q50 79 145 79
q68 0 112.5 -46.5z" />
    <glyph glyph-name="n" unicode="n" 
d="M386 490q38 -23 60.5 -65.5t22.5 -99.5v-325h-87v321q0 52 -28.5 80.5t-75.5 28.5q-52 0 -88.5 -35.5t-36.5 -109.5v-285h-87v500h87v-62q49 75 148 75q47 0 85 -23z" />
    <glyph glyph-name="nacute" unicode="&#x144;" 
d="M386 490q38 -23 60.5 -65.5t22.5 -99.5v-325h-87v321q0 52 -28.5 80.5t-75.5 28.5q-52 0 -88.5 -35.5t-36.5 -109.5v-285h-87v500h87v-62q49 75 148 75q47 0 85 -23zM291 571l101 132h-105l-80 -132h84z" />
    <glyph glyph-name="ncaron" unicode="&#x148;" 
d="M386 490q38 -23 60.5 -65.5t22.5 -99.5v-325h-87v321q0 52 -28.5 80.5t-75.5 28.5q-52 0 -88.5 -35.5t-36.5 -109.5v-285h-87v500h87v-62q49 75 148 75q47 0 85 -23zM420 703l-106 -135h-89h-7l-106 135h93l61 -81l61 81h93z" />
    <glyph glyph-name="ncommaaccent" unicode="&#x146;" 
d="M386 490q38 -23 60.5 -65.5t22.5 -99.5v-325h-87v321q0 52 -28.5 80.5t-75.5 28.5q-52 0 -88.5 -35.5t-36.5 -109.5v-285h-87v500h87v-62q49 75 148 75q47 0 85 -23zM316 -68h-85l-10 -180h65z" />
    <glyph glyph-name="eng" unicode="&#x14b;" 
d="M386 490q38 -23 60.5 -65.5t22.5 -99.5v-355q0 -88 -43 -136t-124 -48q-15 0 -23 1v84q7 -1 19 -1q43 0 63.5 24t20.5 76v351q0 52 -28.5 80.5t-75.5 28.5q-52 0 -88.5 -35.5t-36.5 -109.5v-285h-87v500h87v-62q49 75 148 75q47 0 85 -23z" />
    <glyph glyph-name="ntilde" unicode="&#xf1;" 
d="M386 490q38 -23 60.5 -65.5t22.5 -99.5v-325h-87v321q0 52 -28.5 80.5t-75.5 28.5q-52 0 -88.5 -35.5t-36.5 -109.5v-285h-87v500h87v-62q49 75 148 75q47 0 85 -23zM139 671.5q22 31.5 58 31.5t75 -28q16 -11 30 -19.5t21 -8.5q11 0 15.5 12t4.5 39h74q0 -63 -22 -94.5
t-57 -31.5q-36 0 -75 28q-38 28 -52 28q-20 0 -20 -52h-74q0 64 22 95.5z" />
    <glyph glyph-name="o" unicode="o" horiz-adv-x="602" 
d="M168.5 22q-60.5 35 -95.5 95t-35 133t35 133t95.5 95t132.5 35t132.5 -35t96 -95t35.5 -133t-35.5 -133t-96 -95t-132.5 -35t-132.5 35zM390.5 95.5q40.5 23.5 64 64t23.5 90.5t-23.5 90.5t-64 64t-89.5 23.5t-89 -23.5t-63.5 -64t-23.5 -90.5t23.5 -90.5t63.5 -64
t89 -23.5t89.5 23.5z" />
    <glyph glyph-name="oacute" unicode="&#xf3;" horiz-adv-x="602" 
d="M168.5 22q-60.5 35 -95.5 95t-35 133t35 133t95.5 95t132.5 35t132.5 -35t96 -95t35.5 -133t-35.5 -133t-96 -95t-132.5 -35t-132.5 35zM390.5 95.5q40.5 23.5 64 64t23.5 90.5t-23.5 90.5t-64 64t-89.5 23.5t-89 -23.5t-63.5 -64t-23.5 -90.5t23.5 -90.5t63.5 -64
t89 -23.5t89.5 23.5zM325 571l101 132h-105l-80 -132h84z" />
    <glyph glyph-name="ocircumflex" unicode="&#xf4;" horiz-adv-x="602" 
d="M168.5 22q-60.5 35 -95.5 95t-35 133t35 133t95.5 95t132.5 35t132.5 -35t96 -95t35.5 -133t-35.5 -133t-96 -95t-132.5 -35t-132.5 35zM390.5 95.5q40.5 23.5 64 64t23.5 90.5t-23.5 90.5t-64 64t-89.5 23.5t-89 -23.5t-63.5 -64t-23.5 -90.5t23.5 -90.5t63.5 -64
t89 -23.5t89.5 23.5zM361 568l-61 81l-61 -81h-93l106 135h89h7l106 -135h-93z" />
    <glyph glyph-name="odieresis" unicode="&#xf6;" horiz-adv-x="602" 
d="M168.5 22q-60.5 35 -95.5 95t-35 133t35 133t95.5 95t132.5 35t132.5 -35t96 -95t35.5 -133t-35.5 -133t-96 -95t-132.5 -35t-132.5 35zM390.5 95.5q40.5 23.5 64 64t23.5 90.5t-23.5 90.5t-64 64t-89.5 23.5t-89 -23.5t-63.5 -64t-23.5 -90.5t23.5 -90.5t63.5 -64
t89 -23.5t89.5 23.5zM157 669h93v-92h-93v92zM352 669h93v-92h-93v92z" />
    <glyph glyph-name="ograve" unicode="&#xf2;" horiz-adv-x="602" 
d="M168.5 22q-60.5 35 -95.5 95t-35 133t35 133t95.5 95t132.5 35t132.5 -35t96 -95t35.5 -133t-35.5 -133t-96 -95t-132.5 -35t-132.5 35zM390.5 95.5q40.5 23.5 64 64t23.5 90.5t-23.5 90.5t-64 64t-89.5 23.5t-89 -23.5t-63.5 -64t-23.5 -90.5t23.5 -90.5t63.5 -64
t89 -23.5t89.5 23.5zM274 703h-105l101 -132h84z" />
    <glyph glyph-name="ohungarumlaut" unicode="&#x151;" horiz-adv-x="602" 
d="M168.5 22q-60.5 35 -95.5 95t-35 133t35 133t95.5 95t132.5 35t132.5 -35t96 -95t35.5 -133t-35.5 -133t-96 -95t-132.5 -35t-132.5 35zM390.5 95.5q40.5 23.5 64 64t23.5 90.5t-23.5 90.5t-64 64t-89.5 23.5t-89 -23.5t-63.5 -64t-23.5 -90.5t23.5 -90.5t63.5 -64
t89 -23.5t89.5 23.5zM254 568l79 133h-94l-73 -133h88zM407 568l89 133h-94l-83 -133h88z" />
    <glyph glyph-name="omacron" unicode="&#x14d;" horiz-adv-x="602" 
d="M168.5 22q-60.5 35 -95.5 95t-35 133t35 133t95.5 95t132.5 35t132.5 -35t96 -95t35.5 -133t-35.5 -133t-96 -95t-132.5 -35t-132.5 35zM390.5 95.5q40.5 23.5 64 64t23.5 90.5t-23.5 90.5t-64 64t-89.5 23.5t-89 -23.5t-63.5 -64t-23.5 -90.5t23.5 -90.5t63.5 -64
t89 -23.5t89.5 23.5zM166 651h270v-73h-270v73z" />
    <glyph glyph-name="oslash" unicode="&#xf8;" horiz-adv-x="602" 
d="M545 352q20 -48 20 -102q0 -73 -35.5 -133t-96 -95t-132.5 -35q-84 0 -151 47l-28 -34h-68l57 67q-35 36 -54 83t-19 100q0 73 35 133t95.5 95t132.5 35q80 0 148 -45l27 32h67l-54 -64q36 -36 56 -84zM166 133l228 270q-42 25 -93 25q-49 0 -89 -23.5t-63.5 -64
t-23.5 -90.5q0 -68 41 -117zM390.5 95.5q40.5 23.5 64 64t23.5 90.5q0 35 -12 65.5t-33 54.5l-228 -271q44 -27 96 -27q49 0 89.5 23.5z" />
    <glyph glyph-name="otilde" unicode="&#xf5;" horiz-adv-x="602" 
d="M168.5 22q-60.5 35 -95.5 95t-35 133t35 133t95.5 95t132.5 35t132.5 -35t96 -95t35.5 -133t-35.5 -133t-96 -95t-132.5 -35t-132.5 35zM390.5 95.5q40.5 23.5 64 64t23.5 90.5t-23.5 90.5t-64 64t-89.5 23.5t-89 -23.5t-63.5 -64t-23.5 -90.5t23.5 -90.5t63.5 -64
t89 -23.5t89.5 23.5zM173 671.5q22 31.5 58 31.5t75 -28q16 -11 30 -19.5t21 -8.5q11 0 15.5 12t4.5 39h74q0 -63 -22 -94.5t-57 -31.5q-36 0 -75 28q-38 28 -52 28q-20 0 -20 -52h-74q0 64 22 95.5z" />
    <glyph glyph-name="oe" unicode="&#x153;" horiz-adv-x="1011" 
d="M624.5 104q46.5 -38 114.5 -38q46 0 82.5 20.5t52.5 52.5h91q-22 -69 -83.5 -110.5t-144.5 -41.5q-78 0 -134 35.5t-84 97.5q-31 -61 -88.5 -97t-130.5 -36q-74 0 -134 34.5t-94 95t-34 133.5t34 133.5t94 95t134 34.5q73 0 130.5 -36t88.5 -97q29 62 84.5 97.5
t132.5 35.5q74 0 130 -36t86 -96.5t30 -131.5q0 -19 -3 -39h-412q11 -68 57.5 -106zM893 287q-9 70 -53 107t-104 37q-69 0 -113.5 -39t-55.5 -105h326zM390.5 95.5q40.5 23.5 64 64t23.5 90.5t-23.5 90.5t-64 64t-89.5 23.5q-51 0 -91 -23.5t-62.5 -64t-22.5 -90.5
t22.5 -90.5t62.5 -64t91 -23.5q49 0 89.5 23.5z" />
    <glyph glyph-name="p" unicode="p" horiz-adv-x="633" 
d="M469 478q58 -35 92 -95t34 -133t-34 -133t-92 -95t-127 -35q-62 0 -110 26t-79 72v-285h-87v700h87v-85q31 46 79 72t110 26q69 0 127 -35zM420.5 94.5q40.5 23.5 64 64.5t23.5 91t-23.5 91t-64 64.5t-89.5 23.5q-50 0 -90.5 -23.5t-64 -64.5t-23.5 -91t23.5 -91
t64 -64.5t90.5 -23.5q49 0 89.5 23.5z" />
    <glyph glyph-name="thorn" unicode="&#xfe;" horiz-adv-x="633" 
d="M469 478q58 -35 92 -95t34 -133t-34 -133t-92 -95t-127 -35q-62 0 -110 26t-79 72v-285h-87v900h87v-285q31 46 79 72t110 26q69 0 127 -35zM420.5 94.5q40.5 23.5 64 64.5t23.5 91t-23.5 91t-64 64.5t-89.5 23.5q-50 0 -90.5 -23.5t-64 -64.5t-23.5 -91t23.5 -91
t64 -64.5t90.5 -23.5q49 0 89.5 23.5z" />
    <glyph glyph-name="q" unicode="q" horiz-adv-x="633" 
d="M567 500v-700h-87v285q-31 -46 -79 -72t-110 -26q-68 0 -126 35t-92.5 95t-34.5 133t34.5 133t92.5 95t126 35q62 0 110 -26t79 -72v85h87zM392.5 94.5q40.5 23.5 64 64.5t23.5 91t-23.5 91t-64 64.5t-90.5 23.5q-49 0 -89.5 -23.5t-64 -64.5t-23.5 -91t23.5 -91
t64 -64.5t89.5 -23.5q50 0 90.5 23.5z" />
    <glyph glyph-name="r" unicode="r" horiz-adv-x="322" 
d="M304 509v-91q-63 3 -107 -33.5t-44 -116.5v-268h-87v500h87v-75q47 84 151 84z" />
    <glyph glyph-name="racute" unicode="&#x155;" horiz-adv-x="322" 
d="M304 509v-91q-63 3 -107 -33.5t-44 -116.5v-268h-87v500h87v-75q47 84 151 84zM210 568l101 132h-105l-80 -132h84z" />
    <glyph glyph-name="rcaron" unicode="&#x159;" horiz-adv-x="322" 
d="M304 509v-91q-63 3 -107 -33.5t-44 -116.5v-268h-87v500h87v-75q47 84 151 84zM339 700l-106 -135h-89h-7l-106 135h93l61 -81l61 81h93z" />
    <glyph glyph-name="rcommaaccent" unicode="&#x157;" horiz-adv-x="322" 
d="M304 509v-91q-63 3 -107 -33.5t-44 -116.5v-268h-87v500h87v-75q47 84 151 84zM154 -68h-85l-10 -180h65z" />
    <glyph glyph-name="s" unicode="s" horiz-adv-x="467" 
d="M166.5 315.5q28.5 -15.5 87.5 -29.5q54 -14 88 -27.5t58 -43t24 -79.5q0 -67 -53.5 -108t-137.5 -41t-137 43.5t-53 119.5h86q0 -42 28.5 -62t75.5 -20q46 0 75 17t29 51q0 23 -15 37.5t-38 22.5t-63 19q-54 14 -88 27.5t-58 43t-24 78.5q0 44 24 78t65.5 52.5t92.5 18.5
q78 0 129.5 -44t51.5 -119h-86q0 42 -27.5 62t-67.5 20t-67.5 -17.5t-27.5 -50.5t28.5 -48.5z" />
    <glyph glyph-name="sacute" unicode="&#x15b;" horiz-adv-x="467" 
d="M166.5 315.5q28.5 -15.5 87.5 -29.5q54 -14 88 -27.5t58 -43t24 -79.5q0 -67 -53.5 -108t-137.5 -41t-137 43.5t-53 119.5h86q0 -42 28.5 -62t75.5 -20q46 0 75 17t29 51q0 23 -15 37.5t-38 22.5t-63 19q-54 14 -88 27.5t-58 43t-24 78.5q0 44 24 78t65.5 52.5t92.5 18.5
q78 0 129.5 -44t51.5 -119h-86q0 42 -27.5 62t-67.5 20t-67.5 -17.5t-27.5 -50.5t28.5 -48.5zM257 571l101 132h-105l-80 -132h84z" />
    <glyph glyph-name="scaron" unicode="&#x161;" horiz-adv-x="467" 
d="M166.5 315.5q28.5 -15.5 87.5 -29.5q54 -14 88 -27.5t58 -43t24 -79.5q0 -67 -53.5 -108t-137.5 -41t-137 43.5t-53 119.5h86q0 -42 28.5 -62t75.5 -20q46 0 75 17t29 51q0 23 -15 37.5t-38 22.5t-63 19q-54 14 -88 27.5t-58 43t-24 78.5q0 44 24 78t65.5 52.5t92.5 18.5
q78 0 129.5 -44t51.5 -119h-86q0 42 -27.5 62t-67.5 20t-67.5 -17.5t-27.5 -50.5t28.5 -48.5zM386 703l-106 -135h-89h-7l-106 135h93l61 -81l61 81h93z" />
    <glyph glyph-name="scedilla" unicode="&#x15f;" horiz-adv-x="467" 
d="M383 39q-41 -39 -109 -49v-35q38 -8 61.5 -29t23.5 -51q0 -92 -167 -92q-28 0 -43 1v66q32 -2 44 -2q45 0 67.5 9t22.5 24q0 17 -21 25.5t-62 10.5v72q-72 8 -114.5 50.5t-42.5 110.5h86q0 -42 28.5 -62t75.5 -20q46 0 75 17t29 51q0 23 -15 37.5t-38 22.5t-63 19
q-54 14 -88 27.5t-58 43t-24 78.5q0 44 24 78t65.5 52.5t92.5 18.5q78 0 129.5 -44t51.5 -119h-86q0 42 -27.5 62t-67.5 20t-67.5 -17.5t-27.5 -50.5t28.5 -48.5t87.5 -29.5q54 -14 88 -27.5t58 -43t24 -79.5q0 -58 -41 -97z" />
    <glyph glyph-name="scommaaccent" unicode="&#x219;" horiz-adv-x="467" 
d="M166.5 315.5q28.5 -15.5 87.5 -29.5q54 -14 88 -27.5t58 -43t24 -79.5q0 -67 -53.5 -108t-137.5 -41t-137 43.5t-53 119.5h86q0 -42 28.5 -62t75.5 -20q46 0 75 17t29 51q0 23 -15 37.5t-38 22.5t-63 19q-54 14 -88 27.5t-58 43t-24 78.5q0 44 24 78t65.5 52.5t92.5 18.5
q78 0 129.5 -44t51.5 -119h-86q0 42 -27.5 62t-67.5 20t-67.5 -17.5t-27.5 -50.5t28.5 -48.5zM293 -68h-85l-10 -180h65z" />
    <glyph glyph-name="germandbls" unicode="&#xdf;" horiz-adv-x="502" 
d="M276 74q7 -1 21 -1q48 0 74 19.5t26 57.5q0 29 -17.5 56.5t-51.5 66.5q-33 37 -49.5 62t-16.5 52q0 18 9 34t28 41q22 28 33 48.5t11 46.5q0 37 -24.5 55.5t-62.5 18.5q-43 0 -73 -24.5t-30 -83.5v-523h-87v523q0 90 53.5 140t138.5 50q79 0 125.5 -41.5t46.5 -107.5
q0 -37 -14 -63t-40 -59q-15 -19 -22 -30.5t-7 -22.5q0 -18 12 -35.5t40 -46.5q41 -46 63 -81.5t22 -83.5q0 -66 -45 -106.5t-131 -40.5q-21 0 -32 1v78z" />
    <glyph glyph-name="t" unicode="t" horiz-adv-x="321" 
d="M303 416h-98v-416h-87v416h-99v84h99v160h87v-160h98v-84z" />
    <glyph glyph-name="tbar" unicode="&#x167;" horiz-adv-x="321" 
d="M205 416v-92h72v-70h-72v-254h-87v254h-76v70h76v92h-99v84h99v160h87v-160h98v-84h-98z" />
    <glyph glyph-name="tcaron" unicode="&#x165;" horiz-adv-x="346" 
d="M351 725l-30 -167h-65l10 167h85zM205 500h98v-84h-98v-416h-87v416h-99v84h99v160h87v-160z" />
    <glyph glyph-name="uni0163" unicode="&#x163;" horiz-adv-x="321" 
d="M303 416h-98v-416h-87v416h-99v84h99v160h87v-160h98v-84zM206 -68h-85l-10 -180h65z" />
    <glyph glyph-name="uni021B" unicode="&#x21b;" horiz-adv-x="321" 
d="M303 416h-98v-416h-87v416h-99v84h99v160h87v-160h98v-84zM206 -68h-85l-10 -180h65z" />
    <glyph glyph-name="u" unicode="u" 
d="M457 500v-500h-87v62q-49 -75 -148 -75q-47 0 -85 23t-60.5 66t-22.5 100v324h87v-321q0 -52 28.5 -80.5t75.5 -28.5q53 0 89 35.5t36 110.5v284h87z" />
    <glyph glyph-name="uacute" unicode="&#xfa;" 
d="M457 500v-500h-87v62q-49 -75 -148 -75q-47 0 -85 23t-60.5 66t-22.5 100v324h87v-321q0 -52 28.5 -80.5t75.5 -28.5q53 0 89 35.5t36 110.5v284h87zM281 568l101 132h-105l-80 -132h84z" />
    <glyph glyph-name="ucircumflex" unicode="&#xfb;" 
d="M457 500v-500h-87v62q-49 -75 -148 -75q-47 0 -85 23t-60.5 66t-22.5 100v324h87v-321q0 -52 28.5 -80.5t75.5 -28.5q53 0 89 35.5t36 110.5v284h87zM317 565l-61 81l-61 -81h-93l106 135h89h7l106 -135h-93z" />
    <glyph glyph-name="udieresis" unicode="&#xfc;" 
d="M457 500v-500h-87v62q-49 -75 -148 -75q-47 0 -85 23t-60.5 66t-22.5 100v324h87v-321q0 -52 28.5 -80.5t75.5 -28.5q53 0 89 35.5t36 110.5v284h87zM113 666h93v-92h-93v92zM308 666h93v-92h-93v92z" />
    <glyph glyph-name="ugrave" unicode="&#xf9;" 
d="M457 500v-500h-87v62q-49 -75 -148 -75q-47 0 -85 23t-60.5 66t-22.5 100v324h87v-321q0 -52 28.5 -80.5t75.5 -28.5q53 0 89 35.5t36 110.5v284h87zM230 700h-105l101 -132h84z" />
    <glyph glyph-name="uhungarumlaut" unicode="&#x171;" 
d="M457 500v-500h-87v62q-49 -75 -148 -75q-47 0 -85 23t-60.5 66t-22.5 100v324h87v-321q0 -52 28.5 -80.5t75.5 -28.5q53 0 89 35.5t36 110.5v284h87zM210 565l79 133h-94l-73 -133h88zM363 565l89 133h-94l-83 -133h88z" />
    <glyph glyph-name="umacron" unicode="&#x16b;" 
d="M457 500v-500h-87v62q-49 -75 -148 -75q-47 0 -85 23t-60.5 66t-22.5 100v324h87v-321q0 -52 28.5 -80.5t75.5 -28.5q53 0 89 35.5t36 110.5v284h87zM122 648h270v-73h-270v73z" />
    <glyph glyph-name="uogonek" unicode="&#x173;" 
d="M457 500v-500q-32 -30 -50.5 -61t-18.5 -53q0 -30 31 -30q21 0 38 8v-64q-32 -13 -67 -13q-40 0 -63 21.5t-23 58.5q0 56 66 134v61q-49 -75 -148 -75q-47 0 -85 23t-60.5 66t-22.5 100v324h87v-321q0 -52 28.5 -80.5t75.5 -28.5q53 0 89 35.5t36 110.5v284h87z" />
    <glyph glyph-name="uring" unicode="&#x16f;" 
d="M457 500v-500h-87v62q-49 -75 -148 -75q-47 0 -85 23t-60.5 66t-22.5 100v324h87v-321q0 -52 28.5 -80.5t75.5 -28.5q53 0 89 35.5t36 110.5v284h87zM175.5 576.5q-31.5 30.5 -31.5 76.5t31.5 76t81.5 30t81.5 -30t31.5 -76t-31.5 -76.5t-81.5 -30.5t-81.5 30.5z
M292.5 620q12.5 13 12.5 33t-12.5 32.5t-35.5 12.5q-22 0 -34.5 -12.5t-12.5 -32.5t12.5 -33t34.5 -13q23 0 35.5 13z" />
    <glyph glyph-name="v" unicode="v" horiz-adv-x="480" 
d="M473 500l-184 -500h-83h-15l-183 500h92l140 -401l140 401h93z" />
    <glyph glyph-name="w" unicode="w" horiz-adv-x="695" 
d="M685 500l-170 -500h-81h-8l-78 227l-78 -227h-76h-13l-171 500h93l126 -398l80 239l-54 159h85l128 -393l125 393h92z" />
    <glyph glyph-name="wacute" unicode="&#x1e83;" horiz-adv-x="695" 
d="M685 500l-170 -500h-81h-8l-78 227l-78 -227h-76h-13l-171 500h93l126 -398l80 239l-54 159h85l128 -393l125 393h92zM372 568l101 132h-105l-80 -132h84z" />
    <glyph glyph-name="wcircumflex" unicode="&#x175;" horiz-adv-x="695" 
d="M685 500l-170 -500h-81h-8l-78 227l-78 -227h-76h-13l-171 500h93l126 -398l80 239l-54 159h85l128 -393l125 393h92zM408 565l-61 81l-61 -81h-93l106 135h89h7l106 -135h-93z" />
    <glyph glyph-name="wdieresis" unicode="&#x1e85;" horiz-adv-x="695" 
d="M685 500l-170 -500h-81h-8l-78 227l-78 -227h-76h-13l-171 500h93l126 -398l80 239l-54 159h85l128 -393l125 393h92zM204 666h93v-92h-93v92zM399 666h93v-92h-93v92z" />
    <glyph glyph-name="wgrave" unicode="&#x1e81;" horiz-adv-x="695" 
d="M685 500l-170 -500h-81h-8l-78 227l-78 -227h-76h-13l-171 500h93l126 -398l80 239l-54 159h85l128 -393l125 393h92zM320 700h-105l101 -132h84z" />
    <glyph glyph-name="x" unicode="x" horiz-adv-x="460" 
d="M349 0l-120 186l-120 -186h-94l167 259l-156 241h94l109 -168l108 168h94l-155 -241l167 -259h-94z" />
    <glyph glyph-name="y" unicode="y" horiz-adv-x="480" 
d="M473 500l-245 -700h-93l72 205l-199 495h92l150 -374l130 374h93z" />
    <glyph glyph-name="yacute" unicode="&#xfd;" horiz-adv-x="480" 
d="M473 500l-245 -700h-93l72 205l-199 495h92l150 -374l130 374h93zM264 568l101 132h-105l-80 -132h84z" />
    <glyph glyph-name="ycircumflex" unicode="&#x177;" horiz-adv-x="480" 
d="M473 500l-245 -700h-93l72 205l-199 495h92l150 -374l130 374h93zM300 565l-61 81l-61 -81h-93l106 135h89h7l106 -135h-93z" />
    <glyph glyph-name="ydieresis" unicode="&#xff;" horiz-adv-x="480" 
d="M473 500l-245 -700h-93l72 205l-199 495h92l150 -374l130 374h93zM96 666h93v-92h-93v92zM291 666h93v-92h-93v92z" />
    <glyph glyph-name="ygrave" unicode="&#x1ef3;" horiz-adv-x="480" 
d="M473 500l-245 -700h-93l72 205l-199 495h92l150 -374l130 374h93zM213 700h-105l101 -132h84z" />
    <glyph glyph-name="z" unicode="z" horiz-adv-x="451" 
d="M423 83v-83h-385v58l255 359h-245v83h365v-58l-256 -359h266z" />
    <glyph glyph-name="zacute" unicode="&#x17a;" horiz-adv-x="451" 
d="M423 83v-83h-385v58l255 359h-245v83h365v-58l-256 -359h266zM256 568l101 132h-105l-80 -132h84z" />
    <glyph glyph-name="zcaron" unicode="&#x17e;" horiz-adv-x="451" 
d="M423 83v-83h-385v58l255 359h-245v83h365v-58l-256 -359h266zM385 700l-106 -135h-89h-7l-106 135h93l61 -81l61 81h93z" />
    <glyph glyph-name="zdotaccent" unicode="&#x17c;" horiz-adv-x="451" 
d="M423 83v-83h-385v58l255 359h-245v83h365v-58l-256 -359h266zM179 678h105v-105h-105v105z" />
    <glyph glyph-name="a.ss01" horiz-adv-x="633" 
d="M567 500v-500h-87v85q-31 -46 -79 -72t-110 -26q-69 0 -127 35t-92 95t-34 133t34 133t92 95t127 35q62 0 110 -26t79 -72v85h87zM392.5 94.5q40.5 23.5 64 64.5t23.5 91t-23.5 91t-64 64.5t-90.5 23.5q-49 0 -89.5 -23.5t-64 -64.5t-23.5 -91t23.5 -91t64 -64.5
t89.5 -23.5q50 0 90.5 23.5z" />
    <glyph glyph-name="aacute.ss01" horiz-adv-x="633" 
d="M567 500v-500h-87v85q-31 -46 -79 -72t-110 -26q-69 0 -127 35t-92 95t-34 133t34 133t92 95t127 35q62 0 110 -26t79 -72v85h87zM392.5 94.5q40.5 23.5 64 64.5t23.5 91t-23.5 91t-64 64.5t-90.5 23.5q-49 0 -89.5 -23.5t-64 -64.5t-23.5 -91t23.5 -91t64 -64.5
t89.5 -23.5q50 0 90.5 23.5zM327 568l101 132h-105l-80 -132h84z" />
    <glyph glyph-name="abreve.ss01" horiz-adv-x="633" 
d="M567 500v-500h-87v85q-31 -46 -79 -72t-110 -26q-69 0 -127 35t-92 95t-34 133t34 133t92 95t127 35q62 0 110 -26t79 -72v85h87zM392.5 94.5q40.5 23.5 64 64.5t23.5 91t-23.5 91t-64 64.5t-90.5 23.5q-49 0 -89.5 -23.5t-64 -64.5t-23.5 -91t23.5 -91t64 -64.5
t89.5 -23.5q50 0 90.5 23.5zM194 592.5q-40 35.5 -40 99.5h81q0 -34 17 -49.5t51 -15.5t51 15.5t17 49.5h81q0 -64 -39.5 -99.5t-109.5 -35.5q-69 0 -109 35.5z" />
    <glyph glyph-name="acircumflex.ss01" horiz-adv-x="633" 
d="M567 500v-500h-87v85q-31 -46 -79 -72t-110 -26q-69 0 -127 35t-92 95t-34 133t34 133t92 95t127 35q62 0 110 -26t79 -72v85h87zM392.5 94.5q40.5 23.5 64 64.5t23.5 91t-23.5 91t-64 64.5t-90.5 23.5q-49 0 -89.5 -23.5t-64 -64.5t-23.5 -91t23.5 -91t64 -64.5
t89.5 -23.5q50 0 90.5 23.5zM363 565l-61 81l-61 -81h-93l106 135h89h7l106 -135h-93z" />
    <glyph glyph-name="adieresis.ss01" horiz-adv-x="633" 
d="M567 500v-500h-87v85q-31 -46 -79 -72t-110 -26q-69 0 -127 35t-92 95t-34 133t34 133t92 95t127 35q62 0 110 -26t79 -72v85h87zM392.5 94.5q40.5 23.5 64 64.5t23.5 91t-23.5 91t-64 64.5t-90.5 23.5q-49 0 -89.5 -23.5t-64 -64.5t-23.5 -91t23.5 -91t64 -64.5
t89.5 -23.5q50 0 90.5 23.5zM159 666h93v-92h-93v92zM354 666h93v-92h-93v92z" />
    <glyph glyph-name="agrave.ss01" horiz-adv-x="633" 
d="M567 500v-500h-87v85q-31 -46 -79 -72t-110 -26q-69 0 -127 35t-92 95t-34 133t34 133t92 95t127 35q62 0 110 -26t79 -72v85h87zM392.5 94.5q40.5 23.5 64 64.5t23.5 91t-23.5 91t-64 64.5t-90.5 23.5q-49 0 -89.5 -23.5t-64 -64.5t-23.5 -91t23.5 -91t64 -64.5
t89.5 -23.5q50 0 90.5 23.5zM275 700h-105l101 -132h84z" />
    <glyph glyph-name="amacron.ss01" horiz-adv-x="633" 
d="M567 500v-500h-87v85q-31 -46 -79 -72t-110 -26q-69 0 -127 35t-92 95t-34 133t34 133t92 95t127 35q62 0 110 -26t79 -72v85h87zM392.5 94.5q40.5 23.5 64 64.5t23.5 91t-23.5 91t-64 64.5t-90.5 23.5q-49 0 -89.5 -23.5t-64 -64.5t-23.5 -91t23.5 -91t64 -64.5
t89.5 -23.5q50 0 90.5 23.5zM168 648h270v-73h-270v73z" />
    <glyph glyph-name="aogonek.ss01" horiz-adv-x="633" 
d="M516.5 -61q-18.5 -31 -18.5 -53q0 -30 31 -30q21 0 38 8v-64q-32 -13 -67 -13q-40 0 -63 21.5t-23 58.5q0 60 66 135v83q-31 -46 -79 -72t-110 -26q-69 0 -127 35t-92 95t-34 133t34 133t92 95t127 35q62 0 110 -26t79 -72v85h87v-500q-32 -30 -50.5 -61zM392.5 94.5
q40.5 23.5 64 64.5t23.5 91t-23.5 91t-64 64.5t-90.5 23.5q-49 0 -89.5 -23.5t-64 -64.5t-23.5 -91t23.5 -91t64 -64.5t89.5 -23.5q50 0 90.5 23.5z" />
    <glyph glyph-name="aring.ss01" horiz-adv-x="633" 
d="M567 500v-500h-87v85q-31 -46 -79 -72t-110 -26q-69 0 -127 35t-92 95t-34 133t34 133t92 95t127 35q62 0 110 -26t79 -72v85h87zM392.5 94.5q40.5 23.5 64 64.5t23.5 91t-23.5 91t-64 64.5t-90.5 23.5q-49 0 -89.5 -23.5t-64 -64.5t-23.5 -91t23.5 -91t64 -64.5
t89.5 -23.5q50 0 90.5 23.5zM221.5 576.5q-31.5 30.5 -31.5 76.5t31.5 76t81.5 30t81.5 -30t31.5 -76t-31.5 -76.5t-81.5 -30.5t-81.5 30.5zM338.5 620q12.5 13 12.5 33t-12.5 32.5t-35.5 12.5q-22 0 -34.5 -13t-12.5 -32q0 -20 12.5 -33t34.5 -13q23 0 35.5 13z" />
    <glyph glyph-name="atilde.ss01" horiz-adv-x="633" 
d="M567 500v-500h-87v85q-31 -46 -79 -72t-110 -26q-69 0 -127 35t-92 95t-34 133t34 133t92 95t127 35q62 0 110 -26t79 -72v85h87zM392.5 94.5q40.5 23.5 64 64.5t23.5 91t-23.5 91t-64 64.5t-90.5 23.5q-49 0 -89.5 -23.5t-64 -64.5t-23.5 -91t23.5 -91t64 -64.5
t89.5 -23.5q50 0 90.5 23.5zM175 668.5q22 31.5 58 31.5q35 0 74 -28q22 -15 33 -21.5t19 -6.5q11 0 15.5 12t4.5 39h73q0 -64 -21.5 -95t-57.5 -31q-35 0 -75 28q-39 28 -52 28q-20 0 -20 -52h-73q0 64 22 95.5z" />
    <glyph glyph-name="ae.ss01" horiz-adv-x="1014" 
d="M627.5 104q46.5 -38 113.5 -38q47 0 83 20.5t52 52.5h91q-22 -70 -77.5 -111t-137.5 -41q-63 0 -110.5 25t-77.5 71v-83h-84v85q-31 -46 -79 -72t-110 -26q-69 0 -127 35t-92 95t-34 133t34 133t92 95t127 35q62 0 110 -26t79 -72v85h84v-85q30 46 76.5 72t107.5 26
q73 0 126.5 -36t81.5 -96.5t28 -131.5q0 -19 -3 -39h-411q11 -68 57.5 -106zM896 287q-9 70 -53 107t-104 37q-69 0 -114 -39.5t-55 -104.5h326zM392.5 94.5q40.5 23.5 64 64.5t23.5 91t-23.5 91t-64 64.5t-90.5 23.5q-49 0 -89.5 -23.5t-64 -64.5t-23.5 -91t23.5 -91
t64 -64.5t89.5 -23.5q50 0 90.5 23.5z" />
    <glyph glyph-name="y.ss01" 
d="M457 500v-523q0 -90 -54.5 -140t-141.5 -50q-55 0 -99.5 21t-69.5 59t-25 88h86q0 -42 30.5 -65t77.5 -23q48 0 78.5 27t30.5 83v85q-49 -75 -148 -75q-47 0 -85 23t-60.5 66t-22.5 100v324h87v-321q0 -52 28.5 -80.5t75.5 -28.5q53 0 89 35.5t36 110.5v284h87z" />
    <glyph glyph-name="yacute.ss01" 
d="M457 500v-523q0 -90 -54.5 -140t-141.5 -50q-55 0 -99.5 21t-69.5 59t-25 88h86q0 -42 30.5 -65t77.5 -23q48 0 78.5 27t30.5 83v85q-49 -75 -148 -75q-47 0 -85 23t-60.5 66t-22.5 100v324h87v-321q0 -52 28.5 -80.5t75.5 -28.5q53 0 89 35.5t36 110.5v284h87zM279 568
l101 132h-105l-80 -132h84z" />
    <glyph glyph-name="ycircumflex.ss01" 
d="M457 500v-523q0 -90 -54.5 -140t-141.5 -50q-55 0 -99.5 21t-69.5 59t-25 88h86q0 -42 30.5 -65t77.5 -23q48 0 78.5 27t30.5 83v85q-49 -75 -148 -75q-47 0 -85 23t-60.5 66t-22.5 100v324h87v-321q0 -52 28.5 -80.5t75.5 -28.5q53 0 89 35.5t36 110.5v284h87zM315 565
l-61 81l-61 -81h-93l106 135h89h7l106 -135h-93z" />
    <glyph glyph-name="ydieresis.ss01" 
d="M457 500v-523q0 -90 -54.5 -140t-141.5 -50q-55 0 -99.5 21t-69.5 59t-25 88h86q0 -42 30.5 -65t77.5 -23q48 0 78.5 27t30.5 83v85q-49 -75 -148 -75q-47 0 -85 23t-60.5 66t-22.5 100v324h87v-321q0 -52 28.5 -80.5t75.5 -28.5q53 0 89 35.5t36 110.5v284h87zM112 666
h93v-92h-93v92zM307 666h93v-92h-93v92z" />
    <glyph glyph-name="ygrave.ss01" 
d="M457 500v-523q0 -90 -54.5 -140t-141.5 -50q-55 0 -99.5 21t-69.5 59t-25 88h86q0 -42 30.5 -65t77.5 -23q48 0 78.5 27t30.5 83v85q-49 -75 -148 -75q-47 0 -85 23t-60.5 66t-22.5 100v324h87v-321q0 -52 28.5 -80.5t75.5 -28.5q53 0 89 35.5t36 110.5v284h87zM228 700
h-105l101 -132h84z" />
    <glyph glyph-name="f_f_j" horiz-adv-x="793" 
d="M727 -30q0 -91 -43 -137.5t-126 -46.5q-15 0 -23 1v84q6 -1 18 -1q45 0 66 23.5t21 76.5v446h-185v-416h-87v416h-80h-105v-416h-87v416h-81v84h81v15q0 95 49.5 147t143.5 52q17 0 25 -1v-84q-7 1 -21 1q-55 0 -82.5 -28t-27.5 -87v-15h131h54v25q0 99 55.5 148.5
t162.5 49.5q42 0 104 -13v-79q-61 8 -104 8q-67 0 -99 -25.5t-32 -88.5v-25h272v-530z" />
    <glyph glyph-name="f_j" horiz-adv-x="521" 
d="M455 -30q0 -91 -43.5 -137.5t-126.5 -46.5q-15 0 -23 1v84q6 -1 18 -1q45 0 66.5 23.5t21.5 76.5v446h-185v-416h-87v416h-81v84h81v15q0 198 218 198q41 0 103 -13v-79q-59 8 -103 8q-68 0 -99.5 -25.5t-31.5 -88.5v-15h272v-530z" />
    <glyph glyph-name="ordfeminine" unicode="&#xaa;" horiz-adv-x="278" 
d="M212 687.5q28 -25.5 28 -69.5v-162h-55v24q-24 -30 -73 -30q-35 0 -59.5 22t-24.5 58q0 37 24.5 58.5t59.5 21.5q46 0 73 -27v34q0 20 -12 31t-34 11t-34 -8.5t-12 -23.5h-55q0 39 28 62.5t73 23.5t73 -25.5zM167 504q18 9 18 26q0 18 -17.5 26.5t-39.5 8.5
q-21 0 -33 -9.5t-12 -25.5q0 -15 12 -25t33 -10t39 9z" />
    <glyph glyph-name="ordmasculine" unicode="&#xba;" horiz-adv-x="319" 
d="M66 487.5q-38 37.5 -38 93.5t38 94t94 38t93.5 -38t37.5 -94q0 -55 -37.5 -93t-93.5 -38t-94 37.5zM214.5 525q20.5 21 20.5 56t-20.5 56t-54.5 21t-55 -21t-21 -56q0 -34 21 -55.5t55 -21.5t54.5 21z" />
    <glyph glyph-name="uni0410" unicode="&#x410;" horiz-adv-x="638" 
d="M475 157h-312l-56 -157h-99l258 700h105l259 -700h-99zM443 244l-124 347l-125 -347h249z" />
    <glyph glyph-name="uni0411" unicode="&#x411;" horiz-adv-x="585" 
d="M447.5 397q49.5 -28 78.5 -76.5t29 -107.5q0 -60 -28.5 -108.5t-78.5 -76.5t-110 -28h-228h-35v700h93h327v-88h-327v-187h170q60 0 109.5 -28zM426.5 123q36.5 36 36.5 90q0 53 -36.5 89t-88.5 36h-170v-251h170q52 0 88.5 36z" />
    <glyph glyph-name="uni0412" unicode="&#x412;" horiz-adv-x="685" 
d="M617.5 354q35.5 -56 35.5 -126q0 -62 -29 -114.5t-79.5 -83t-112.5 -30.5h-339h-18v700h93h190q55 0 98.5 -23.5t67.5 -64t24 -89.5q0 -47 -25 -86q59 -27 94.5 -83zM168 613v-155h263q24 26 24 63q0 40 -26 66t-71 26h-190zM521.5 128q38.5 41 38.5 102q0 62 -38 102.5
t-102 40.5h-252v-286h251q64 0 102.5 41z" />
    <glyph glyph-name="uni0413" unicode="&#x413;" horiz-adv-x="485" 
d="M468 612h-300v-612h-93v700h393v-88z" />
    <glyph glyph-name="uni0403" unicode="&#x403;" horiz-adv-x="485" 
d="M468 612h-300v-612h-93v700h393v-88zM298 767l101 132h-105l-80 -132h84z" />
    <glyph glyph-name="uni0490" unicode="&#x490;" horiz-adv-x="485" 
d="M468 820v-162v-46h-300v-612h-93v700h300v120h93z" />
    <glyph glyph-name="uni0414" unicode="&#x414;" horiz-adv-x="668" 
d="M635 87v-87v-144h-92v144h-435v-144h-93v180v51h60q32 38 49 96t17 151v366h419v-613h75zM468 87v526h-234v-281q0 -158 -54 -245h288z" />
    <glyph glyph-name="uni0415" unicode="&#x415;" horiz-adv-x="518" 
d="M480 88v-88h-370h-35v700h93h307v-88h-307v-215h282v-87h-282v-222h312z" />
    <glyph glyph-name="uni0401" unicode="&#x401;" horiz-adv-x="518" 
d="M480 88v-88h-370h-35v700h93h307v-88h-307v-215h282v-87h-282v-222h312zM132 866h93v-92h-93v92zM327 866h93v-92h-93v92z" />
    <glyph glyph-name="uni0416" unicode="&#x416;" horiz-adv-x="868" 
d="M745 0l-265 335v-335h-92v335l-265 -335h-105l281 358l-271 342h105l255 -320v320h92v-320l255 320h106l-272 -342l282 -358h-106z" />
    <glyph glyph-name="uni0417" unicode="&#x417;" horiz-adv-x="535" 
d="M489.5 333q28.5 -51 28.5 -114q0 -65 -30.5 -118t-87 -83.5t-132.5 -30.5t-132.5 31t-87 85t-30.5 119h92q0 -63 41.5 -105t116.5 -42t116 40.5t41 103.5q0 62 -39.5 103.5t-106.5 41.5h-51v84h51q21 0 40 -3q26 19 37.5 42.5t11.5 45.5q0 41 -28 67t-79 26
q-52 0 -79.5 -26t-27.5 -67h-93q0 51 24.5 92t70 64.5t105.5 23.5t105 -23.5t69.5 -64t24.5 -89.5q0 -32 -12.5 -63.5t-37.5 -58.5q51 -30 79.5 -81z" />
    <glyph glyph-name="uni0418" unicode="&#x418;" horiz-adv-x="635" 
d="M468 518l-318 -518h-75v700h93v-517l317 517h75v-700h-92v518z" />
    <glyph glyph-name="uni0419" unicode="&#x419;" horiz-adv-x="635" 
d="M468 518l-318 -518h-75v700h93v-517l317 517h75v-700h-92v518zM193 851h270v-76h-270v76z" />
    <glyph glyph-name="uni041A" unicode="&#x41a;" horiz-adv-x="592" 
d="M470 0l-302 336v-336h-93v700h93v-317l292 317h114l-309 -341l319 -359h-114z" />
    <glyph glyph-name="uni040C" unicode="&#x40c;" horiz-adv-x="592" 
d="M470 0l-302 336v-336h-93v700h93v-317l292 317h114l-309 -341l319 -359h-114zM318 767l101 132h-105l-80 -132h84z" />
    <glyph glyph-name="uni041B" unicode="&#x41b;" horiz-adv-x="644" 
d="M14 83q16 -2 23 -2q58 0 86.5 50.5t28.5 171.5v397h417v-700h-93v612h-231v-309q0 -167 -53 -236t-147 -69q-21 0 -31 1v84z" />
    <glyph glyph-name="uni041C" unicode="&#x41c;" horiz-adv-x="805" 
d="M730 0h-92v547l-195 -429h-80l-195 429v-547h-93v700h93h18l217 -476l216 476h111v-700z" />
    <glyph glyph-name="uni041D" unicode="&#x41d;" horiz-adv-x="633" 
d="M558 700v-700h-93v316h-297v-316h-93v700h93v-296h297v296h93z" />
    <glyph glyph-name="uni041E" unicode="&#x41e;" horiz-adv-x="800" 
d="M217 35.5q-83 48.5 -131 132t-48 182.5q0 100 48 183t131 131.5t183 48.5t183 -48.5t131.5 -132t48.5 -182.5t-48.5 -182.5t-131.5 -132t-183 -48.5t-183 48.5zM537 114q62 36 97.5 98.5t35.5 137.5q0 76 -35.5 138.5t-97.5 98.5t-137 36t-137 -36t-97.5 -98.5
t-35.5 -138.5q0 -75 35.5 -137.5t97.5 -98.5t137 -36t137 36z" />
    <glyph glyph-name="uni041F" unicode="&#x41f;" horiz-adv-x="633" 
d="M558 0h-93v612h-297v-612h-93v700h93h390v-700z" />
    <glyph glyph-name="uni0420" unicode="&#x420;" horiz-adv-x="583" 
d="M439 671q50 -29 79.5 -79t29.5 -109t-29.5 -109t-80 -79.5t-109.5 -29.5h-161v-265h-93v700h93h161q60 0 110 -29zM392 369.5q29 17.5 46 48t17 65.5t-17 65t-46 47.5t-63 17.5h-161v-261h161q34 0 63 17.5z" />
    <glyph glyph-name="uni0421" unicode="&#x421;" horiz-adv-x="761" 
d="M215.5 35.5q-83.5 48.5 -130.5 131.5t-47 183t47 183t130.5 131.5t188.5 48.5q78 0 147 -31t117.5 -86.5t67.5 -125.5h-99q-25 68 -89 110.5t-144 42.5t-142.5 -36t-97 -98t-34.5 -139q0 -76 34.5 -138t97 -98t142.5 -36t144 42t89 110h99q-19 -70 -67.5 -125.5
t-117.5 -86.5t-147 -31q-105 0 -188.5 48.5z" />
    <glyph glyph-name="uni0422" unicode="&#x422;" horiz-adv-x="500" 
d="M483 612h-187v-612h-92v612h-186v88h278h187v-88z" />
    <glyph glyph-name="uni0423" unicode="&#x423;" horiz-adv-x="580" 
d="M570 700l-225 -534q-36 -85 -90 -126t-131 -41l-20 1v86q8 -1 23 -1q47 0 78.5 23.5t52.5 73.5l6 16l-236 502h94l185 -400l169 400h94z" />
    <glyph glyph-name="uni040E" unicode="&#x40e;" horiz-adv-x="580" 
d="M570 700l-225 -534q-36 -85 -90 -126t-131 -41l-20 1v86q8 -1 23 -1q47 0 78.5 23.5t52.5 73.5l6 16l-236 502h94l185 -400l169 400h94zM154 850h270v-76h-270v76z" />
    <glyph glyph-name="uni0424" unicode="&#x424;" horiz-adv-x="809" 
d="M691.5 156q-90.5 -72 -241.5 -82v-79h-91v79q-150 10 -240.5 82t-90.5 194t90.5 194t240.5 82v79h91v-79q151 -10 241.5 -82t90.5 -194t-90.5 -194zM183 214.5q63 -47.5 176 -55.5v382q-113 -8 -176 -55.5t-63 -135.5t63 -135.5zM626 214.5q63 47.5 63 135.5t-63 135.5
t-176 55.5v-382q113 8 176 55.5z" />
    <glyph glyph-name="uni0425" unicode="&#x425;" horiz-adv-x="580" 
d="M459 0l-169 277l-169 -277h-103l220 361l-207 339h104l155 -254l156 254h103l-207 -339l221 -361h-104z" />
    <glyph glyph-name="uni0427" unicode="&#x427;" horiz-adv-x="609" 
d="M534 700v-700h-93v274q-70 -31 -153 -31q-68 0 -119.5 26t-80 73t-28.5 108v250h93v-244q0 -57 36 -91t100 -34q83 0 152 31v338h93z" />
    <glyph glyph-name="uni0426" unicode="&#x426;" horiz-adv-x="665" 
d="M633 88v-232h-93v144h-465v700h93v-612h297v612h93v-612h75z" />
    <glyph glyph-name="uni0428" unicode="&#x428;" horiz-adv-x="908" 
d="M833 700v-700h-758v700h93v-612h240v612h92v-612h240v612h93z" />
    <glyph glyph-name="uni0429" unicode="&#x429;" horiz-adv-x="940" 
d="M908 88v-232h-93v144h-740v700h93v-612h240v612h92v-612h240v612h93v-612h75z" />
    <glyph glyph-name="uni040F" unicode="&#x40f;" horiz-adv-x="633" 
d="M558 700v-700h-93h-102v-144h-93v144h-160h-35v700h93v-612h297v612h93z" />
    <glyph glyph-name="uni042C" unicode="&#x42c;" horiz-adv-x="583" 
d="M438.5 405.5q50.5 -29.5 80 -79t29.5 -108.5t-29.5 -109.5t-79.5 -79.5t-110 -29h-219h-35v700h93v-265h161q59 0 109.5 -29.5zM392 104.5q29 17.5 46 47.5t17 66q0 35 -17 65t-46 47.5t-63 17.5h-161v-261h161q34 0 63 17.5z" />
    <glyph glyph-name="uni042A" unicode="&#x42a;" horiz-adv-x="690" 
d="M183 612h-183v88h275v-265h161q60 0 110 -29.5t79.5 -79t29.5 -108.5q0 -60 -29.5 -110t-79.5 -79t-110 -29h-253v612zM436 87q34 0 63.5 17.5t46.5 47.5t17 66q0 35 -17 65t-46.5 47.5t-63.5 17.5h-161v-261h161z" />
    <glyph glyph-name="uni042B" unicode="&#x42b;" horiz-adv-x="786" 
d="M75 700h93v-265h161q59 0 109.5 -29.5t80 -79t29.5 -108.5t-29.5 -109.5t-79.5 -79.5t-110 -29h-254v700zM619 700h92v-700h-92v700zM329 87q34 0 63 17.5t46 47.5t17 66q0 35 -17 65t-46 47.5t-63 17.5h-161v-261h161z" />
    <glyph glyph-name="uni0409" unicode="&#x409;" horiz-adv-x="944" 
d="M800.5 386q50.5 -27 79.5 -74t29 -106t-29 -106t-79 -73.5t-111 -26.5h-199h-35v612h-211v-309q0 -167 -53 -236t-147 -69q-21 0 -31 1v84q16 -2 23 -2q58 0 86.5 50.5t28.5 171.5v397h397v-287h141q60 0 110.5 -27zM780 120q36 33 36 86t-36 86.5t-90 33.5h-141v-239
h141q54 0 90 33z" />
    <glyph glyph-name="uni040A" unicode="&#x40a;" horiz-adv-x="933" 
d="M789 386q50 -27 79.5 -74t29.5 -106t-29.5 -106t-79.5 -73.5t-110 -26.5h-199h-35v326h-277v-326h-93v700h93v-287h277v287h93v-287h141q60 0 110 -27zM769 120q36 33 36 86t-36 86.5t-90 33.5h-141v-239h141q54 0 90 33z" />
    <glyph glyph-name="uni0405" unicode="&#x405;" horiz-adv-x="549" 
d="M158.5 12.5q-56.5 25.5 -90 75t-33.5 119.5h93q0 -62 42 -95.5t114 -33.5q61 0 99 28.5t38 75.5q0 45 -36.5 71.5t-108.5 53.5q-76 28 -118 49t-73.5 61.5t-31.5 105.5q0 59 30 102t79.5 65.5t106.5 22.5q61 0 112.5 -24t82 -71.5t30.5 -113.5h-93q0 57 -36 88t-96 31
q-54 0 -89 -27t-35 -73q0 -48 34.5 -74.5t105.5 -53.5l19 -7q68 -26 109.5 -48t71 -60.5t29.5 -97.5t-31.5 -103.5t-84 -68t-114.5 -23.5q-69 0 -125.5 25.5z" />
    <glyph glyph-name="uni0404" unicode="&#x404;" horiz-adv-x="753" 
d="M541 119q62 41 87 111h99q-19 -71 -66 -126t-116.5 -86t-153.5 -31q-103 0 -183.5 48.5t-125 131.5t-44.5 183q0 101 44.5 184t125 131t183.5 48q84 0 153.5 -31t116.5 -86t66 -126h-99q-25 70 -87 111.5t-150 41.5q-70 0 -125.5 -29.5t-89.5 -81.5t-43 -118h360v-87
h-360q9 -66 42.5 -118t89 -81.5t126.5 -29.5q88 0 150 41z" />
    <glyph glyph-name="uni042D" unicode="&#x42d;" horiz-adv-x="753" 
d="M545.5 665q80.5 -48 125.5 -131t45 -184q0 -100 -45 -183t-125.5 -131.5t-183.5 -48.5q-84 0 -153.5 31t-116.5 86t-66 126h99q25 -70 87 -111t150 -41q70 0 125.5 29.5t89.5 81.5t43 118h-360v87h360q-9 66 -43 118t-89.5 81.5t-125.5 29.5q-88 0 -150 -41.5t-87 -111.5
h-99q19 71 66 126t116.5 86t153.5 31q103 0 183.5 -48z" />
    <glyph glyph-name="uni0406" unicode="&#x406;" horiz-adv-x="243" 
d="M168 700v-700h-93v700h93z" />
    <glyph glyph-name="uni0407" unicode="&#x407;" horiz-adv-x="243" 
d="M168 700v-700h-93v700h93zM-23 866h93v-92h-93v92zM172 866h93v-92h-93v92z" />
    <glyph glyph-name="uni0408" unicode="&#x408;" horiz-adv-x="533" 
d="M131.5 11q-51.5 24 -82.5 72t-31 118v13h92v-13q0 -62 36.5 -92.5t96.5 -30.5q59 0 95.5 30.5t36.5 92.5v499h93v-499q0 -70 -31.5 -118t-82.5 -72t-111 -24t-111.5 24z" />
    <glyph glyph-name="uni040B" unicode="&#x40b;" horiz-adv-x="665" 
d="M558 418.5q52 -49.5 52 -142.5v-276h-93v271q0 58 -27.5 85.5t-77.5 27.5q-57 0 -123 -29v-355h-93v612h-178v88h271h216v-88h-216v-175q68 31 132 31q85 0 137 -49.5z" />
    <glyph glyph-name="uni042E" unicode="&#x42e;" horiz-adv-x="1045" 
d="M828 664.5q83 -48.5 131.5 -132t48.5 -182.5t-48.5 -182.5t-131.5 -132t-183 -48.5q-94 0 -173 43.5t-127.5 118.5t-56.5 167h-120v-316h-93v700h93v-296h122q12 87 61.5 157.5t126 111t167.5 40.5q100 0 183 -48.5zM782 114q62 36 97.5 98.5t35.5 137.5
q0 76 -35.5 138.5t-97.5 98.5t-137 36t-137 -36t-97.5 -98.5t-35.5 -138.5q0 -75 35.5 -137.5t97.5 -98.5t137 -36t137 36z" />
    <glyph glyph-name="uni042F" unicode="&#x42f;" horiz-adv-x="625" 
d="M550 0h-92v268h-99l-230 -268h-114l236 272q-49 10 -88.5 40.5t-62 75t-22.5 95.5q0 59 29 109t79.5 79t109.5 29h254v-700zM458 352v261h-160q-34 0 -63.5 -17.5t-47 -47.5t-17.5 -65t17.5 -65.5t47 -48t63.5 -17.5h160z" />
    <glyph glyph-name="uni0402" unicode="&#x402;" horiz-adv-x="660" 
d="M558 418.5q52 -49.5 52 -142.5v-102q0 -91 -43.5 -137.5t-126.5 -46.5q-15 0 -23 1v86q7 -1 20 -1q43 0 61.5 23t18.5 75v97q0 58 -27.5 85.5t-77.5 27.5q-57 0 -123 -29v-355h-93v612h-178v88h271h216v-88h-216v-175q68 31 132 31q85 0 137 -49.5z" />
    <glyph glyph-name="uni0414.loclBGR" horiz-adv-x="710" 
d="M688 87v-87v-144h-93v144h-435h-45v-144h-92v180v51h69l211 613h105l210 -613h70zM521 87l-166 503l-166 -503h332z" />
    <glyph glyph-name="uni041B.loclBGR" horiz-adv-x="616" 
d="M361 700l248 -700h-100l-201 589l-201 -589h-99l248 700h105z" />
    <glyph glyph-name="uni0424.loclBGR" horiz-adv-x="849" 
d="M769.5 170.5q-42.5 -78.5 -120 -125.5t-179.5 -55v-90h-90v90q-102 8 -179.5 55t-120 125.5t-42.5 179.5t42.5 179.5t120 125.5t179.5 55v90h90v-90q102 -8 179.5 -55t120 -125.5t42.5 -179.5t-42.5 -179.5zM196.5 160q66.5 -73 183.5 -85v550q-117 -12 -183.5 -85
t-66.5 -190t66.5 -190zM652.5 160q66.5 73 66.5 190t-66.5 190t-182.5 85v-550q116 12 182.5 85z" />
    <glyph glyph-name="uni0414.ss01" horiz-adv-x="668" 
d="M635 87v-87h-167h-453v87h60q32 38 49 96t17 151v366h419v-613h75zM468 87v526h-234v-281q0 -158 -54 -245h288z" />
    <glyph glyph-name="uni0426.ss01" horiz-adv-x="665" 
d="M633 88v-88h-558v700h93v-612h297v612h93v-612h75z" />
    <glyph glyph-name="uni0429.ss01" horiz-adv-x="940" 
d="M908 88v-88h-833v700h93v-612h240v612h92v-612h240v612h93v-612h75z" />
    <glyph glyph-name="uni0414.loclBGR.ss01" horiz-adv-x="710" 
d="M688 87v-87h-138h-488h-39v87h69l211 613h105l210 -613h70zM521 87l-166 503l-166 -503h332z" />
    <glyph glyph-name="uni0430" unicode="&#x430;" horiz-adv-x="502" 
d="M393.5 462q54.5 -51 54.5 -139v-323h-86v52q-49 -65 -149 -65q-47 0 -87 18t-64 54.5t-24 87.5t24 87.5t64 54.5t87 18q48 0 86 -15t63 -43v71q0 56 -30.5 83t-78.5 27q-46 0 -77 -23.5t-31 -66.5h-86q0 51 25 90t69.5 61t99.5 22q86 0 140.5 -51zM327.5 85
q34.5 24 34.5 62q0 40 -34.5 63.5t-89.5 23.5q-56 0 -84.5 -24t-28.5 -63t28.5 -62.5t84.5 -23.5q55 0 89.5 24z" />
    <glyph glyph-name="uni0431" unicode="&#x431;" horiz-adv-x="566" 
d="M162 20q-58 33 -91 92t-33 135q0 87 34 150t80.5 102t116.5 84q59 38 85.5 62.5t26.5 54.5h91q0 -43 -20.5 -74t-50.5 -52.5t-82 -50.5q-64 -36 -103.5 -66t-63.5 -74q64 68 155 68q62 0 115.5 -29t85.5 -81.5t32 -118.5q0 -67 -32 -120.5t-88.5 -84t-127.5 -30.5
q-72 0 -130 33zM375 90.5q37 19.5 57.5 54t20.5 77.5t-21.5 78t-59.5 54.5t-85 19.5q-40 0 -77 -17.5t-60 -51t-23 -78.5t22 -80.5t59.5 -55.5t83.5 -20t83 19.5z" />
    <glyph glyph-name="uni0432" unicode="&#x432;" horiz-adv-x="525" 
d="M481.5 244.5q22.5 -36.5 22.5 -82.5q0 -70 -46.5 -116t-133.5 -46h-258v247v253h85h125q73 0 116.5 -39.5t43.5 -98.5q0 -33 -18 -62q41 -19 63.5 -55.5zM151 320h173l17 -1q11 20 11 37q0 33 -23 51.5t-59 16.5h-119v-104zM392.5 100q25.5 23 25.5 63t-25.5 62t-72.5 22
h-169v-170h169q47 0 72.5 23z" />
    <glyph glyph-name="uni0433" unicode="&#x433;" horiz-adv-x="378" 
d="M374 416h-221v-416h-87v500h308v-84z" />
    <glyph glyph-name="uni0453" unicode="&#x453;" horiz-adv-x="378" 
d="M374 416h-221v-416h-87v500h308v-84zM223 568l101 132h-105l-80 -132h84z" />
    <glyph glyph-name="uni0491" unicode="&#x491;" horiz-adv-x="378" 
d="M374 603v-187h-221v-416h-87v500h222v103h86z" />
    <glyph glyph-name="uni0434" unicode="&#x434;" horiz-adv-x="573" 
d="M545 82v-82v-144h-86v144h-355v-144h-86v180v46h60q24 33 36.5 75.5t12.5 110.5v232h86h216h47v-418h69zM390 82v337h-177v-151q0 -111 -35 -186h212z" />
    <glyph glyph-name="uni0435" unicode="&#x435;" horiz-adv-x="571" 
d="M184.5 104q46.5 -38 114.5 -38q46 0 82.5 20.5t52.5 52.5h91q-22 -69 -83 -110.5t-144 -41.5q-77 0 -136 34t-91.5 94t-32.5 135q0 74 32.5 134t91.5 94.5t135 34.5q73 0 129 -36t86 -96.5t30 -131.5q0 -19 -3 -39h-412q11 -68 57.5 -106zM453 287q-9 70 -53 107t-104 37
q-69 0 -113.5 -39t-55.5 -105h326z" />
    <glyph glyph-name="uni0451" unicode="&#x451;" horiz-adv-x="571" 
d="M184.5 104q46.5 -38 114.5 -38q46 0 82.5 20.5t52.5 52.5h91q-22 -69 -83 -110.5t-144 -41.5q-77 0 -136 34t-91.5 94t-32.5 135q0 74 32.5 134t91.5 94.5t135 34.5q73 0 129 -36t86 -96.5t30 -131.5q0 -19 -3 -39h-412q11 -68 57.5 -106zM453 287q-9 70 -53 107t-104 37
q-69 0 -113.5 -39t-55.5 -105h326zM153 667h93v-92h-93v92zM348 667h93v-92h-93v92z" />
    <glyph glyph-name="uni0436" unicode="&#x436;" horiz-adv-x="698" 
d="M579 0l-187 236v-236h-86v236l-187 -236h-101l209 258l-199 242h101l177 -221v221h86v-221l177 221h102l-200 -242l210 -258h-102z" />
    <glyph glyph-name="uni0437" unicode="&#x437;" horiz-adv-x="425" 
d="M388 227q18 -33 18 -74q0 -45 -23 -83t-66.5 -60.5t-103.5 -22.5q-61 0 -104.5 22.5t-66.5 60.5t-23 84h86q0 -39 29.5 -62t78.5 -23t78 23t29 63q0 39 -29.5 62t-77.5 23h-39v73h40q22 0 40 -3q32 23 32 56q0 32 -22.5 49.5t-57.5 17.5t-57 -17.5t-22 -53.5h-86
q0 68 45 109.5t122 41.5q50 0 87 -19t56.5 -52t19.5 -72q0 -51 -35 -88q34 -22 52 -55z" />
    <glyph glyph-name="uni0438" unicode="&#x438;" horiz-adv-x="535" 
d="M469 500v-500h-86v350l-247 -350h-70v500h86v-350l247 350h70z" />
    <glyph glyph-name="uni0439" unicode="&#x439;" horiz-adv-x="535" 
d="M469 500v-500h-86v350l-247 -350h-70v500h86v-350l247 350h70zM133 651h270v-76h-270v76z" />
    <glyph glyph-name="uni043A" unicode="&#x43a;" horiz-adv-x="502" 
d="M378 0l-225 236v-236h-87v500h87v-222l215 222h109l-237 -242l247 -258h-109z" />
    <glyph glyph-name="uni045C" unicode="&#x45c;" horiz-adv-x="502" 
d="M378 0l-225 236v-236h-87v500h87v-222l215 222h109l-237 -242l247 -258h-109zM275 568l101 132h-105l-80 -132h84z" />
    <glyph glyph-name="uni043B" unicode="&#x43b;" horiz-adv-x="526" 
d="M460 0h-87v416h-174v-204q0 -115 -43.5 -165t-123.5 -50q-15 0 -22 1v82q6 -1 17 -1q42 0 63.5 31t21.5 104v286h87h261v-500z" />
    <glyph glyph-name="uni043C" unicode="&#x43c;" horiz-adv-x="638" 
d="M571 0h-85v363l-138 -264h-58l-138 264v-363h-86v500h86h10l157 -301l156 301h96v-500z" />
    <glyph glyph-name="uni043D" unicode="&#x43d;" horiz-adv-x="536" 
d="M469 500v-500h-87v209h-229v-209h-87v500h87v-208h229v208h87z" />
    <glyph glyph-name="uni043E" unicode="&#x43e;" horiz-adv-x="602" 
d="M168.5 22q-60.5 35 -95.5 95t-35 133t35 133t95.5 95t132.5 35t132.5 -35t96 -95t35.5 -133t-35.5 -133t-96 -95t-132.5 -35t-132.5 35zM390.5 95.5q40.5 23.5 64 64t23.5 90.5t-23.5 90.5t-64 64t-89.5 23.5t-89 -23.5t-63.5 -64t-23.5 -90.5t23.5 -90.5t63.5 -64
t89 -23.5t89.5 23.5z" />
    <glyph glyph-name="uni043F" unicode="&#x43f;" horiz-adv-x="535" 
d="M469 0h-87v417h-229v-417h-87v500h87h316v-500z" />
    <glyph glyph-name="uni0440" unicode="&#x440;" horiz-adv-x="633" 
d="M469 478q58 -35 92 -95t34 -133t-34 -133t-92 -95t-127 -35q-62 0 -110 26t-79 72v-285h-87v700h87v-85q31 46 79 72t110 26q69 0 127 -35zM420.5 94.5q40.5 23.5 64 64.5t23.5 91t-23.5 91t-64 64.5t-89.5 23.5q-50 0 -90.5 -23.5t-64 -64.5t-23.5 -91t23.5 -91
t64 -64.5t90.5 -23.5q49 0 89.5 23.5z" />
    <glyph glyph-name="uni0441" unicode="&#x441;" horiz-adv-x="571" 
d="M456.5 37.5q-67.5 -50.5 -155.5 -50.5q-74 0 -134 34.5t-94.5 95t-34.5 133.5t34.5 133.5t94.5 95t134 34.5q88 0 155.5 -50t87.5 -130h-92q-17 43 -58 69t-93 26q-49 0 -89 -23.5t-63.5 -64t-23.5 -90.5q0 -49 23.5 -89.5t63.5 -64t89 -23.5q52 0 93 26t58 69h92
q-20 -80 -87.5 -130.5z" />
    <glyph glyph-name="uni0442" unicode="&#x442;" horiz-adv-x="408" 
d="M398 417h-150v-417h-87v417h-151v83h238h150v-83z" />
    <glyph glyph-name="uni0443" unicode="&#x443;" horiz-adv-x="485" 
d="M478 500l-186 -531q-30 -85 -89 -129.5t-134 -39.5v81q49 -4 82.5 22.5t51.5 77.5l9 22l-199 497h92l151 -380l129 380h93z" />
    <glyph glyph-name="uni045E" unicode="&#x45e;" horiz-adv-x="485" 
d="M478 500l-186 -531q-30 -85 -89 -129.5t-134 -39.5v81q49 -4 82.5 22.5t51.5 77.5l9 22l-199 497h92l151 -380l129 380h93zM109 651h270v-76h-270v76z" />
    <glyph glyph-name="uni0444" unicode="&#x444;" horiz-adv-x="675" 
d="M606.5 126q-31.5 -56 -89.5 -92t-136 -44v-190h-86v190q-78 8 -136 44t-89.5 92t-31.5 124t31.5 124t89.5 92t136 44v190h86v-190q78 -8 136 -44t89.5 -92t31.5 -124t-31.5 -124zM169.5 133q45.5 -48 125.5 -59v352q-80 -11 -125.5 -59t-45.5 -117t45.5 -117zM506 133
q45 48 45 117t-45 117t-125 59v-352q80 11 125 59z" />
    <glyph glyph-name="uni0445" unicode="&#x445;" horiz-adv-x="460" 
d="M349 0l-120 186l-120 -186h-94l167 259l-156 241h94l109 -168l108 168h94l-155 -241l167 -259h-94z" />
    <glyph glyph-name="uni0447" unicode="&#x447;" horiz-adv-x="504" 
d="M438 500v-500h-87v179q-56 -25 -125 -25q-84 0 -132.5 44t-48.5 126v176h87v-171q0 -94 101 -94q60 0 118 26v239h87z" />
    <glyph glyph-name="uni0446" unicode="&#x446;" horiz-adv-x="565" 
d="M538 83v-227h-86v144h-386v500h87v-417h216v417h87v-417h82z" />
    <glyph glyph-name="uni0448" unicode="&#x448;" horiz-adv-x="758" 
d="M691 500v-500h-87h-269h-226h-43v500h87v-417h182v417h87v-417h182v417h87z" />
    <glyph glyph-name="uni0449" unicode="&#x449;" horiz-adv-x="783" 
d="M755 83v-83v-144h-86v144h-249h-267h-87v500h87v-417h180v417h87v-417h179v417h87v-417h69z" />
    <glyph glyph-name="uni045F" unicode="&#x45f;" horiz-adv-x="535" 
d="M469 500v-500h-87h-71v-144h-86v144h-116h-43v500h87v-417h229v417h87z" />
    <glyph glyph-name="uni044C" unicode="&#x44c;" horiz-adv-x="479" 
d="M366 300q40 -20 62.5 -56.5t22.5 -83.5t-22.5 -83.5t-62.5 -56.5t-89 -20h-178h-33v500h87v-180h124q49 0 89 -20zM339.5 102.5q25.5 21.5 25.5 57.5t-25.5 58t-62.5 22h-124v-159h124q37 0 62.5 21.5z" />
    <glyph glyph-name="uni044A" unicode="&#x44a;" horiz-adv-x="551" 
d="M438.5 299.5q39.5 -20.5 62.5 -56.5t23 -83t-23 -83t-62.5 -56.5t-88.5 -20.5h-178h-33v417h-139v83h180h46v-180h124q49 0 88.5 -20.5zM412.5 102.5q25.5 21.5 25.5 57.5t-25.5 58t-62.5 22h-124v-159h124q37 0 62.5 21.5z" />
    <glyph glyph-name="uni044B" unicode="&#x44b;" horiz-adv-x="670" 
d="M366 300q40 -20 62.5 -56.5t22.5 -83.5t-22.5 -83.5t-62.5 -56.5t-89 -20h-178h-33v500h87v-180h124q49 0 89 -20zM339.5 102.5q25.5 21.5 25.5 57.5t-25.5 58t-62.5 22h-124v-159h124q37 0 62.5 21.5zM516 500h87v-500h-87v500z" />
    <glyph glyph-name="uni0459" unicode="&#x459;" horiz-adv-x="753" 
d="M679.5 262q46.5 -41 46.5 -111q0 -69 -47 -110t-118 -41h-165h-33v416h-164v-204q0 -115 -43.5 -165t-123.5 -50q-15 0 -22 1v82q6 -1 17 -1q42 0 63.5 31t21.5 104v286h87h204h47v-197h111q72 0 118.5 -41zM617.5 98.5q22.5 17.5 22.5 52.5t-22.5 53t-55.5 18h-112v-141
h112q33 0 55.5 17.5z" />
    <glyph glyph-name="uni045A" unicode="&#x45a;" horiz-adv-x="759" 
d="M685.5 262q46.5 -41 46.5 -111q0 -69 -47 -110t-117 -41h-166h-33v220h-218v-220h-87v500h87v-197h218v197h87v-197h112q71 0 117.5 -41zM624 98.5q22 17.5 22 52.5t-22 53t-56 18h-112v-141h112q34 0 56 17.5z" />
    <glyph glyph-name="uni0455" unicode="&#x455;" horiz-adv-x="467" 
d="M166.5 315.5q28.5 -15.5 87.5 -29.5q54 -14 88 -27.5t58 -43t24 -79.5q0 -67 -53.5 -108t-137.5 -41t-137 43.5t-53 119.5h86q0 -42 28.5 -62t75.5 -20q46 0 75 17t29 51q0 23 -15 37.5t-38 22.5t-63 19q-54 14 -88 27.5t-58 43t-24 78.5q0 44 24 78t65.5 52.5t92.5 18.5
q78 0 129.5 -44t51.5 -119h-86q0 42 -27.5 62t-67.5 20t-67.5 -17.5t-27.5 -50.5t28.5 -48.5z" />
    <glyph glyph-name="uni0454" unicode="&#x454;" horiz-adv-x="567" 
d="M391.5 97q42.5 27 59.5 71h91q-13 -53 -48.5 -94t-87 -64t-110.5 -23q-74 0 -132.5 34.5t-92 95t-33.5 133.5t33.5 133.5t92 95t132.5 34.5q89 0 157.5 -50t88.5 -130h-91q-17 44 -60 70.5t-97 26.5q-63 0 -108.5 -38.5t-58.5 -100.5h224v-82h-224q13 -62 58.5 -100.5
t108.5 -38.5q55 0 97.5 27z" />
    <glyph glyph-name="uni044D" unicode="&#x44d;" horiz-adv-x="567" 
d="M404 478.5q59 -34.5 92.5 -95t33.5 -133.5t-33.5 -133.5t-92.5 -95t-133 -34.5q-59 0 -110.5 23t-87 64t-48.5 94h91q17 -44 59.5 -71t97.5 -27q63 0 108.5 38.5t58.5 100.5h-223v82h223q-13 62 -58.5 100.5t-108.5 38.5q-54 0 -97 -26.5t-60 -70.5h-91q20 80 88.5 130
t157.5 50q74 0 133 -34.5z" />
    <glyph glyph-name="uni0456" unicode="&#x456;" horiz-adv-x="220" 
d="M66 700h87v-110h-87v110zM66 500h87v-500h-87v500z" />
    <glyph glyph-name="uni0457" unicode="&#x457;" horiz-adv-x="220" 
d="M66 500h87v-500h-87v500zM-34 666h93v-92h-93v92zM161 666h93v-92h-93v92z" />
    <glyph glyph-name="uni0458" unicode="&#x458;" horiz-adv-x="241" 
d="M175 700v-110h-87v110h87zM88 500h87v-530q0 -91 -43.5 -137.5t-126.5 -46.5q-15 0 -23 1v84q6 -1 18 -1q45 0 66.5 23.5t21.5 76.5v530z" />
    <glyph glyph-name="uni045B" unicode="&#x45b;" horiz-adv-x="532" 
d="M395 490q38 -23 60.5 -65.5t22.5 -99.5v-325h-87v321q0 52 -28.5 80.5t-75.5 28.5q-52 0 -88.5 -35.5t-36.5 -109.5v-285h-87v569h-67v64h67v67h87v-67h143v-64h-143v-131q49 75 148 75q47 0 85 -23z" />
    <glyph glyph-name="uni044E" unicode="&#x44e;" horiz-adv-x="804" 
d="M635.5 478q60.5 -35 95.5 -95t35 -133t-35 -133t-95.5 -95t-132.5 -35q-65 0 -120.5 28.5t-91.5 79.5t-45 114h-93v-209h-87v500h87v-208h93q9 63 45 113.5t91.5 79t120.5 28.5q72 0 132.5 -35zM592 95.5q40 23.5 63.5 64t23.5 90.5t-23.5 90.5t-63.5 64t-89 23.5
t-89.5 -23.5t-64 -64t-23.5 -90.5t23.5 -90.5t64 -64t89.5 -23.5t89 23.5z" />
    <glyph glyph-name="uni044F" unicode="&#x44f;" horiz-adv-x="506" 
d="M440 0h-86v180h-78l-155 -180h-106l163 186q-55 14 -89 55.5t-34 97.5q0 45 22.5 82t61.5 58t88 21h213v-500zM354 258v161h-124q-37 0 -63 -22t-26 -59q0 -36 26 -58t63 -22h124z" />
    <glyph glyph-name="uni0452" unicode="&#x452;" horiz-adv-x="528" 
d="M395 490q38 -23 60.5 -65.5t22.5 -99.5v-355q0 -91 -43.5 -137.5t-126.5 -46.5q-15 0 -23 1v84q6 -1 18 -1q45 0 66.5 23.5t21.5 76.5v351q0 52 -28.5 80.5t-75.5 28.5q-52 0 -88.5 -35.5t-36.5 -109.5v-285h-87v569h-67v64h67v67h87v-67h143v-64h-143v-131q49 75 148 75
q47 0 85 -23z" />
    <glyph glyph-name="uni0432.loclBGR" horiz-adv-x="569" 
d="M498.5 331q32.5 -51 32.5 -126q0 -103 -61.5 -160.5t-170.5 -57.5t-171 65t-62 178v236q0 75 27 130.5t77 86t117 30.5q85 0 136 -47t51 -123q0 -77 -68 -140q60 -21 92.5 -72zM189 585.5q-36 -44.5 -36 -119.5v-74l85 18q42 8 75 8q75 54 75 120q0 40 -27 66t-74 26
q-62 0 -98 -44.5zM405.5 107q38.5 35 38.5 98q0 62 -38 96t-105 34q-32 0 -63 -7l-85 -17v-81q0 -74 39 -116t107 -42t106.5 35z" />
    <glyph glyph-name="uni0433.loclBGR" horiz-adv-x="452" 
d="M417 150q0 -76 -53.5 -119.5t-137.5 -43.5q-88 0 -139.5 38t-51.5 107q0 50 24 79.5t57 44t88 29.5q59 17 87 32.5t28 48.5t-26.5 49.5t-63.5 16.5q-42 0 -71 -20.5t-29 -62.5h-86q0 75 53 119.5t133 44.5q75 0 126 -40.5t51 -106.5q0 -49 -24 -79t-57.5 -44.5
t-87.5 -29.5q-59 -17 -87 -32.5t-28 -48.5q0 -35 26.5 -49.5t77.5 -14.5q46 0 75.5 20t29.5 62h86z" />
    <glyph glyph-name="uni0434.loclBGR" horiz-adv-x="632" 
d="M567 500v-479q0 -75 -35 -128t-92.5 -79.5t-125.5 -26.5q-62 0 -118 24.5t-90 68.5t-34 99h87q0 -26 18.5 -52t54 -42.5t82.5 -16.5q80 0 123.5 41t43.5 112v70q-31 -46 -79.5 -72.5t-110.5 -26.5q-69 0 -127 35t-92 94.5t-34 131.5q0 71 34 131t92 94.5t127 34.5
q62 0 110.5 -26.5t79.5 -72.5v86h86zM393.5 98.5q40.5 23.5 64 64t23.5 90.5q0 49 -23.5 89.5t-64 64t-90.5 23.5t-90.5 -23.5t-64 -64t-23.5 -89.5q0 -50 23.5 -90.5t64 -64t90.5 -23.5t90.5 23.5z" />
    <glyph glyph-name="uni0436.loclBGR" horiz-adv-x="698" 
d="M579 0l-187 235v-235h-86v235l-187 -235h-101l209 258l-199 242h101l177 -220v420h86v-420l177 220h102l-200 -242l210 -258h-102z" />
    <glyph glyph-name="uni0438.loclBGR" 
d="M457 500v-500h-87v62q-49 -75 -148 -75q-47 0 -85 23t-60.5 66t-22.5 100v324h87v-321q0 -52 28.5 -80.5t75.5 -28.5q53 0 89 35.5t36 110.5v284h87z" />
    <glyph glyph-name="uni0439.loclBGR" 
d="M457 500v-500h-87v62q-49 -75 -148 -75q-47 0 -85 23t-60.5 66t-22.5 100v324h87v-321q0 -52 28.5 -80.5t75.5 -28.5q53 0 89 35.5t36 110.5v284h87zM125 651h270v-76h-270v76z" />
    <glyph glyph-name="uni043A.loclBGR" horiz-adv-x="502" 
d="M378 0l-225 236v-236h-87v700h87v-422l215 222h109l-237 -242l247 -258h-109z" />
    <glyph glyph-name="uni043B.loclBGR" horiz-adv-x="480" 
d="M380 0l-140 401l-140 -401h-92l183 500h84h14l184 -500h-93z" />
    <glyph glyph-name="uni043F.loclBGR" 
d="M386 490q38 -23 60.5 -65.5t22.5 -99.5v-325h-87v321q0 52 -28.5 80.5t-75.5 28.5q-52 0 -88.5 -35.5t-36.5 -109.5v-285h-87v500h87v-62q49 75 148 75q47 0 85 -23z" />
    <glyph glyph-name="uni0442.loclBGR" horiz-adv-x="768" 
d="M669.5 466.5q44.5 -46.5 44.5 -129.5v-337h-87v334q0 49 -24.5 72.5t-62.5 23.5q-41 0 -73.5 -29.5t-32.5 -95.5v-305h-87v334q0 49 -25 72.5t-63 23.5q-41 0 -73.5 -29.5t-32.5 -95.5v-305h-87v500h87v-55q46 68 130 68q41 0 75 -20.5t54 -58.5q50 79 145 79
q68 0 112.5 -46.5z" />
    <glyph glyph-name="uni0446.loclBGR" horiz-adv-x="560" 
d="M532 83v-83v-144h-86v148q-49 13 -67 57q-27 -40 -65.5 -57t-88.5 -17q-48 0 -87 23t-61.5 66t-22.5 100v324h87v-321q0 -52 28.5 -80.5t75.5 -28.5q53 0 89 35.5t36 110.5v284h87v-382q0 -16 9.5 -25.5t25.5 -9.5h40z" />
    <glyph glyph-name="uni0448.loclBGR" horiz-adv-x="768" 
d="M702 500v-500h-87v55q-46 -68 -129 -68q-42 0 -76 20.5t-54 58.5q-50 -79 -144 -79q-69 0 -113.5 46.5t-44.5 129.5v337h87v-334q0 -49 25 -72.5t63 -23.5q41 0 73.5 30t32.5 96v304h87v-334q0 -49 24.5 -72.5t62.5 -23.5q41 0 73.5 30t32.5 96v304h87z" />
    <glyph glyph-name="uni0449.loclBGR" horiz-adv-x="805" 
d="M777 83v-83v-144h-86v148q-46 12 -66 55q-48 -72 -140 -72q-41 0 -75.5 20.5t-53.5 58.5q-50 -79 -145 -79q-68 0 -112.5 46.5t-44.5 129.5v337h87v-334q0 -49 24.5 -72.5t62.5 -23.5q41 0 73.5 30t32.5 96v304h87v-334q0 -49 25 -72.5t63 -23.5q41 0 73.5 30t32.5 96
v304h87v-382q0 -16 9.5 -25.5t25.5 -9.5h40z" />
    <glyph glyph-name="uni044C.loclBGR" horiz-adv-x="482" 
d="M402.5 300q51.5 -46 51.5 -128q0 -50 -25 -92.5t-71 -67.5t-104 -25q-62 0 -107 24t-69 66.5t-24 96.5v326h86v-154h117q94 0 145.5 -46zM313 85.5q26 14.5 40.5 38t14.5 48.5q0 44 -29.5 68.5t-81.5 24.5h-117v-91q0 -43 31 -73t83 -30q33 0 59 14.5z" />
    <glyph glyph-name="uni044A.loclBGR" horiz-adv-x="568" 
d="M487 300q52 -46 52 -128q0 -50 -25 -92.5t-71 -67.5t-104 -25q-62 0 -107 24t-69 66.5t-24 96.5v243h-139v83h180h45v-154h116q94 0 146 -46zM398 85.5q26 14.5 40.5 38t14.5 48.5q0 44 -29.5 68.5t-82.5 24.5h-116v-91q0 -43 31 -73t83 -30q33 0 59 14.5z" />
    <glyph glyph-name="uni044E.loclBGR" horiz-adv-x="804" 
d="M635.5 478q60.5 -35 95.5 -95t35 -133t-35 -133t-95.5 -95t-132.5 -35q-65 0 -120.5 28.5t-91.5 79.5t-45 114h-93v-209h-87v700h87v-408h93q9 63 45 113.5t91.5 79t120.5 28.5q72 0 132.5 -35zM592 95.5q40 23.5 63.5 64t23.5 90.5t-23.5 90.5t-63.5 64t-89 23.5
t-89.5 -23.5t-64 -64t-23.5 -90.5t23.5 -90.5t64 -64t89.5 -23.5t89 23.5z" />
    <glyph glyph-name="uni0430.ss01" horiz-adv-x="633" 
d="M567 500v-500h-87v85q-31 -46 -79 -72t-110 -26q-69 0 -127 35t-92 95t-34 133t34 133t92 95t127 35q62 0 110 -26t79 -72v85h87zM392.5 94.5q40.5 23.5 64 64.5t23.5 91t-23.5 91t-64 64.5t-90.5 23.5q-49 0 -89.5 -23.5t-64 -64.5t-23.5 -91t23.5 -91t64 -64.5
t89.5 -23.5q50 0 90.5 23.5z" />
    <glyph glyph-name="uni0443.ss01" 
d="M457 500v-523q0 -90 -54.5 -140t-141.5 -50q-55 0 -99.5 21t-69.5 59t-25 88h86q0 -42 30.5 -65t77.5 -23q48 0 78.5 27t30.5 83v85q-49 -75 -148 -75q-47 0 -85 23t-60.5 66t-22.5 100v324h87v-321q0 -52 28.5 -80.5t75.5 -28.5q53 0 89 35.5t36 110.5v284h87z" />
    <glyph glyph-name="uni0394" unicode="&#x394;" horiz-adv-x="638" 
d="M630 0h-99h-446h-77l258 700h105zM500 87l-181 504l-181 -504h362z" />
    <glyph glyph-name="uni03A9" unicode="&#x3a9;" horiz-adv-x="795" 
d="M724 202.5q-36 -69.5 -99 -114.5h123v-88h-275v88q86 24 140.5 96t54.5 166q0 76 -35.5 138.5t-97.5 98.5t-137 36t-137 -36t-97.5 -98.5t-35.5 -138.5q0 -95 53.5 -166.5t140.5 -95.5v-88h-274v88h122q-63 45 -99 114.5t-36 152.5q0 98 48 180t131.5 130t183.5 48
t183 -48t131 -130t48 -180q0 -83 -36 -152.5z" />
    <glyph glyph-name="pi" unicode="&#x3c0;" horiz-adv-x="625" 
d="M598 417h-82v-417h-87v417h-229v-417h-87v417h-85v83h172h316h82v-83z" />
    <glyph glyph-name="zero" unicode="0" horiz-adv-x="630" 
d="M169 32.5q-61 45.5 -92.5 127.5t-31.5 190t31.5 190t92.5 127.5t146 45.5t146 -45.5t92.5 -127t31.5 -190.5t-31.5 -190.5t-92.5 -127t-146 -45.5t-146 45.5zM446.5 149q46.5 71 46.5 201t-46.5 201.5t-131.5 71.5t-131 -71t-46 -202q0 -130 46 -201t131 -71t131.5 71z
" />
    <glyph glyph-name="one" unicode="1" horiz-adv-x="355" 
d="M278 700v-700h-93v603l-171 -93v97l171 93h93z" />
    <glyph glyph-name="two" unicode="2" horiz-adv-x="528" 
d="M38 76l247 250q46 46 72.5 88t26.5 84q0 59 -35.5 92t-87.5 33q-58 0 -94.5 -31.5t-36.5 -94.5h-92q0 71 31 119.5t81.5 72.5t109.5 24q55 0 105 -25t81 -73.5t31 -116.5q0 -60 -33.5 -116.5t-90.5 -113.5l-180 -178h317v-90h-452v76z" />
    <glyph glyph-name="three" unicode="3" horiz-adv-x="535" 
d="M446.5 344q51.5 -53 51.5 -137q0 -68 -33 -118t-88 -76t-119 -26t-119 26t-88 76t-33 118h92q0 -61 41 -95t107 -34q65 0 106 34t41 95t-41 95.5t-106 34.5h-59v61l159 215h-311v87h420v-82l-152 -206q80 -15 131.5 -68z" />
    <glyph glyph-name="four" unicode="4" horiz-adv-x="575" 
d="M561 133h-85v-133h-93v133h-359v87l251 480h100l-250 -480h258v198h93v-198h85v-87z" />
    <glyph glyph-name="five" unicode="5" horiz-adv-x="553" 
d="M397 401.5q54 -25.5 86.5 -75.5t32.5 -119q0 -68 -33 -118t-88 -76t-119 -26t-119 26t-88 76t-33 118h93q0 -61 41 -95t106 -34q66 0 107 34t41 95t-41 95.5t-107 34.5h-206l26 363h393v-87h-307l-13 -186h110q64 0 118 -25.5z" />
    <glyph glyph-name="six" unicode="6" horiz-adv-x="538" 
d="M393 428q55 -30 86 -83.5t31 -121.5q0 -69 -31 -122.5t-86 -83.5t-124 -30q-70 0 -124.5 30t-85.5 83.5t-31 122.5q0 81 42 140l225 337h106l-166 -244q22 2 34 2q69 0 124 -30zM376.5 116.5q41.5 40.5 41.5 106.5t-41.5 106t-107.5 40q-67 0 -108 -40t-41 -106
t41.5 -106.5t107.5 -40.5t107.5 40.5z" />
    <glyph glyph-name="seven" unicode="7" horiz-adv-x="490" 
d="M455 700v-83l-255 -617h-97l253 612h-338v88h437z" />
    <glyph glyph-name="eight" unicode="8" horiz-adv-x="555" 
d="M488 292q29 -44 29 -100q0 -64 -31 -110.5t-85.5 -70.5t-123.5 -24t-123 24t-85 70.5t-31 110.5q0 56 29 100t80 70q-40 25 -63 64t-23 89q0 64 30 109t79.5 67t106.5 22q58 0 107.5 -22t79.5 -67t30 -109q0 -50 -23 -89t-63 -64q51 -26 80 -70zM188.5 596
q-35.5 -28 -35.5 -83q0 -53 36 -82.5t88 -29.5t88 29.5t36 82.5q0 55 -35 83t-89 28q-53 0 -88.5 -28zM384.5 107.5q40.5 31.5 40.5 90.5q0 58 -40.5 89.5t-107.5 31.5q-66 0 -106.5 -31.5t-40.5 -89.5q0 -59 40.5 -90.5t106.5 -31.5q67 0 107.5 31.5z" />
    <glyph glyph-name="nine" unicode="9" horiz-adv-x="538" 
d="M467 337h1l-226 -337h-105l165 244q-11 -1 -33 -1q-70 0 -124.5 30t-85.5 83t-31 122t31 122t85.5 83t124.5 30t124.5 -30t85.5 -83t31 -122q0 -83 -43 -141zM161.5 371.5q41.5 -40.5 107.5 -40.5t107.5 40.5t41.5 106.5t-41 106t-108 40q-66 0 -107.5 -40t-41.5 -106
t41.5 -106.5z" />
    <glyph glyph-name="zero.sinf" horiz-adv-x="410" 
d="M75.5 -115q-47.5 58 -47.5 155t47.5 155t129.5 58t129.5 -58t47.5 -155t-47.5 -155t-129.5 -58t-129.5 58zM278 -62q26 35 26 102t-26 102t-73 35t-73 -35t-26 -102t26 -102t73 -35t73 35z" />
    <glyph glyph-name="one.sinf" horiz-adv-x="254" 
d="M198 240v-400h-77v319l-103 -56v81l103 56h77z" />
    <glyph glyph-name="two.sinf" horiz-adv-x="345" 
d="M30 -103l162 153q19 18 29.5 38t10.5 39q0 24 -16.5 38.5t-44.5 14.5q-31 0 -48 -15.5t-17 -43.5h-77q0 61 40 96.5t102 35.5q61 0 99.5 -35t38.5 -90q0 -66 -64 -125l-100 -91h172v-72h-287v57z" />
    <glyph glyph-name="three.sinf" horiz-adv-x="351" 
d="M292.5 33q26.5 -31 26.5 -75q0 -60 -40.5 -95.5t-108.5 -35.5t-108.5 35.5t-40.5 95.5h78q0 -28 18 -43.5t53 -15.5t53.5 16t18.5 43t-19.5 43.5t-52.5 16.5h-43v51l82 99h-171v72h264v-66l-83 -100q47 -10 73.5 -41z" />
    <glyph glyph-name="four.sinf" horiz-adv-x="355" 
d="M336 -89h-47v-71h-76v71h-199v71l142 258h83l-140 -258h114v88h76v-88h47v-71z" />
    <glyph glyph-name="five.sinf" horiz-adv-x="339" 
d="M272.5 54.5q38.5 -35.5 38.5 -97.5q0 -60 -39 -95t-105 -35t-105 35t-39 96h74q0 -27 18.5 -43.5t51.5 -16.5t51.5 16.5t18.5 43.5q0 28 -18.5 45.5t-51.5 17.5h-128l16 219h239v-71h-171l-5 -79h52q64 0 102.5 -35.5z" />
    <glyph glyph-name="six.sinf" horiz-adv-x="337" 
d="M276 68q42 -40 42 -100t-42.5 -100.5t-107.5 -40.5t-107 40.5t-42 100.5q0 39 19 71l1 1q0 1 2 5l124 195h87l-89 -132h5q66 0 108 -40zM223 -83.5q21 19.5 21 51.5t-21 51t-55 19t-54.5 -19.5t-20.5 -50.5q0 -32 20.5 -51.5t54.5 -19.5t55 19.5z" />
    <glyph glyph-name="seven.sinf" horiz-adv-x="296" 
d="M277 240v-61l-141 -339h-81l138 328h-185v72h269z" />
    <glyph glyph-name="eight.sinf" horiz-adv-x="340" 
d="M300.5 7.5q16.5 -26.5 16.5 -60.5q0 -55 -40 -87.5t-107 -32.5t-107 32.5t-40 87.5q0 34 16.5 60.5t46.5 42.5q-23 15 -36.5 37t-13.5 50q0 53 38.5 84.5t95.5 31.5t95.5 -31.5t38.5 -84.5q0 -28 -13.5 -50t-36.5 -37q30 -16 46.5 -42.5zM124 170.5q-16 -13.5 -16 -36.5
q0 -24 16 -38.5t46 -14.5q29 0 45.5 14.5t16.5 38.5q0 23 -16.5 36.5t-45.5 13.5q-30 0 -46 -13.5zM223 -86q19 16 19 43t-19.5 43t-52.5 16q-34 0 -53 -15.5t-19 -43.5q0 -27 19 -43t53 -16t53 16z" />
    <glyph glyph-name="nine.sinf" horiz-adv-x="337" 
d="M298 40l-3 -5l-123 -195h-87l89 132h-5q-66 0 -108 40t-42 100t42.5 100.5t107.5 40.5t107 -40.5t42 -100.5q0 -39 -19 -71zM114 61q21 -19 55 -19t54.5 19.5t20.5 50.5q0 32 -20.5 51.5t-54.5 19.5t-55 -19.5t-21 -51.5t21 -51z" />
    <glyph glyph-name="zero.tf" horiz-adv-x="573" 
d="M140 32.5q-61 45.5 -92.5 127.5t-31.5 190t31.5 190t92.5 127.5t146 45.5t146 -45.5t92.5 -127t31.5 -190.5t-31.5 -190.5t-92.5 -127t-146 -45.5t-146 45.5zM417.5 148.5q46.5 70.5 46.5 201.5t-46.5 202t-131.5 71t-131 -71t-46 -202q0 -130 46 -201t131 -71
t131.5 70.5z" />
    <glyph glyph-name="one.tf" horiz-adv-x="573" 
d="M546 88v-88h-280h-230v88h230v515l-193 -108v96l193 109h93v-612h187z" />
    <glyph glyph-name="two.tf" horiz-adv-x="573" 
d="M43 76l253 223q64 54 98 98.5t34 90.5q0 62 -39 98.5t-104 36.5q-62 0 -106 -36t-44 -100h-92q0 71 35 122t90 77.5t116 26.5q64 0 118 -27t86 -78t32 -120q0 -66 -42 -127.5t-118 -122.5l-182 -148h356v-90h-491v76z" />
    <glyph glyph-name="three.tf" horiz-adv-x="573" 
d="M490 347.5q54 -53.5 54 -138.5q0 -69 -34 -119.5t-93 -76.5t-132 -26t-131.5 26t-93 76.5t-34.5 119.5h93q0 -63 44 -97t122 -34t122 34t44 97q0 62 -44.5 96.5t-121.5 34.5h-58v61l173 212h-344v87h457v-82l-165 -203q88 -14 142 -67.5z" />
    <glyph glyph-name="four.tf" horiz-adv-x="573" 
d="M554 133h-85v-133h-93v133h-360v87l251 480h100l-251 -480h260v183h93v-183h85v-87z" />
    <glyph glyph-name="five.tf" horiz-adv-x="573" 
d="M414 401.5q56 -25.5 89 -75.5t33 -119t-33.5 -118.5t-90.5 -75.5t-126 -26t-126 26t-90.5 75.5t-33.5 118.5h93q0 -61 42.5 -95t114.5 -34t115 34t43 95q0 62 -42.5 96t-115.5 34h-216l26 363h413v-87h-327l-13 -186h120q69 0 125 -25.5z" />
    <glyph glyph-name="six.tf" horiz-adv-x="573" 
d="M416 430.5q59 -29.5 91 -83t32 -123.5t-32 -123.5t-91 -83.5t-137 -30q-79 0 -138 30t-90.5 83.5t-31.5 123.5q0 83 45 142l238 334h109l-174 -242q28 2 42 2q78 0 137 -29.5zM402 116q44 40 44 108t-44 108t-123 40t-123.5 -40t-44.5 -108t44.5 -108t123.5 -40t123 40z
" />
    <glyph glyph-name="seven.tf" horiz-adv-x="573" 
d="M535 700v-83l-278 -617h-97l275 612h-400v88h500z" />
    <glyph glyph-name="eight.tf" horiz-adv-x="573" 
d="M513.5 291.5q29.5 -44.5 29.5 -99.5q0 -96 -69.5 -150.5t-187.5 -54.5q-117 0 -186.5 54.5t-69.5 150.5q0 55 29.5 99.5t82.5 70.5q-42 25 -65 64t-23 89q0 63 30.5 108t83.5 67.5t118 22.5q66 0 119 -22.5t83.5 -67.5t30.5 -108q0 -50 -23 -89t-65 -64
q53 -26 82.5 -70.5zM183.5 596q-37.5 -28 -37.5 -83q0 -53 38 -82.5t102 -29.5q65 0 103 29.5t38 82.5q0 55 -37.5 83t-103.5 28q-65 0 -102.5 -28zM408 108q43 32 43 90t-43 89.5t-122 31.5t-121.5 -31.5t-42.5 -89.5t42.5 -90t121.5 -32t122 32z" />
    <glyph glyph-name="nine.tf" horiz-adv-x="573" 
d="M509 334l-239 -334h-108l173 242q-26 -2 -41 -2q-78 0 -137 29.5t-91 83t-32 123.5t32 124t91 83.5t137 29.5t137 -29.5t91 -83.5t32 -124q0 -83 -45 -142zM170.5 368.5q44.5 -39.5 123.5 -39.5t123 39.5t44 107.5q0 69 -44 108.5t-123 39.5t-123.5 -40t-44.5 -108
t44.5 -107.5z" />
    <glyph glyph-name="fraction" unicode="&#x2044;" horiz-adv-x="210" 
d="M-130 0l400 700h70l-400 -700h-70z" />
    <glyph glyph-name="onehalf" unicode="&#xbd;" horiz-adv-x="809" 
d="M198 700v-400h-77v319l-103 -56v81l103 56h77zM124 0l400 700h70l-400 -700h-70zM494 58l162 152q19 18 29.5 38t10.5 39q0 24 -16.5 38.5t-44.5 14.5q-31 0 -48 -15.5t-17 -43.5h-77q0 61 40 96.5t102 35.5q61 0 99.5 -35t38.5 -90q0 -66 -64 -125l-100 -90h172v-73
h-287v58z" />
    <glyph glyph-name="onequarter" unicode="&#xbc;" horiz-adv-x="819" 
d="M198 700v-400h-77v319l-103 -56v81l103 56h77zM124 0l400 700h70l-400 -700h-70zM800 72h-47v-72h-76v72h-199v71l142 257h83l-140 -257h114v87h76v-87h47v-71z" />
    <glyph glyph-name="threequarters" unicode="&#xbe;" horiz-adv-x="916" 
d="M292.5 493q26.5 -30 26.5 -75q0 -60 -40.5 -95t-108.5 -35t-108.5 35t-40.5 95h78q0 -27 18.5 -43t52.5 -16t53 16t19 43t-19.5 43.5t-52.5 16.5h-43v51l83 99h-172v72h264v-66l-83 -100q47 -11 73.5 -41zM221 0l400 700h70l-400 -700h-70zM897 72h-47v-72h-76v72h-199
v71l142 257h83l-140 -257h114v87h76v-87h47v-71z" />
    <glyph glyph-name="oneeighth" unicode="&#x215b;" horiz-adv-x="804" 
d="M198 700v-400h-77v319l-103 -56v81l103 56h77zM124 0l400 700h70l-400 -700h-70zM764.5 168q16.5 -27 16.5 -61q0 -55 -40 -87.5t-107 -32.5t-107 32.5t-40 87.5q0 34 16.5 61t46.5 43q-23 14 -36.5 36t-13.5 50q0 53 38.5 84.5t95.5 31.5t95.5 -31.5t38.5 -84.5
q0 -28 -13.5 -50t-36.5 -36q30 -16 46.5 -43zM588 330.5q-16 -13.5 -16 -36.5q0 -24 16 -38.5t46 -14.5q29 0 45.5 14.5t16.5 38.5q0 23 -16.5 36.5t-45.5 13.5q-30 0 -46 -13.5zM687 74q19 16 19 43t-19.5 43t-52.5 16q-34 0 -53 -15.5t-19 -43.5q0 -27 19 -43t53 -16
t53 16z" />
    <glyph glyph-name="threeeighths" unicode="&#x215c;" horiz-adv-x="900" 
d="M292.5 493q26.5 -30 26.5 -75q0 -60 -40.5 -95t-108.5 -35t-108.5 35t-40.5 95h78q0 -27 18.5 -43t52.5 -16t53 16t19 43t-19.5 43.5t-52.5 16.5h-43v51l83 99h-172v72h264v-66l-83 -100q47 -11 73.5 -41zM221 0l400 700h70l-400 -700h-70zM861.5 168q16.5 -27 16.5 -61
q0 -55 -40 -87.5t-107 -32.5t-107 32.5t-40 87.5q0 34 16.5 61t46.5 43q-23 14 -36.5 36t-13.5 50q0 53 38.5 84.5t95.5 31.5t95.5 -31.5t38.5 -84.5q0 -28 -13.5 -50t-36.5 -36q30 -16 46.5 -43zM685 330.5q-16 -13.5 -16 -36.5q0 -24 16 -38.5t46 -14.5q29 0 45.5 14.5
t16.5 38.5q0 23 -16.5 36.5t-45.5 13.5q-30 0 -46 -13.5zM784 74q19 16 19 43t-19.5 43t-52.5 16q-34 0 -53 -15.5t-19 -43.5q0 -27 19 -43t53 -16t53 16z" />
    <glyph glyph-name="fiveeighths" unicode="&#x215d;" horiz-adv-x="889" 
d="M269 514.5q39 -35.5 39 -97.5q0 -60 -39.5 -94.5t-105.5 -34.5t-105 35t-39 95h74q0 -27 19 -43.5t51 -16.5q34 0 52 16.5t18 43.5q0 29 -18.5 46t-51.5 17h-127l15 219h239v-71h-171l-5 -79h52q64 0 103 -35.5zM209 0l400 700h70l-400 -700h-70zM849.5 168
q16.5 -27 16.5 -61q0 -55 -40 -87.5t-107 -32.5t-107 32.5t-40 87.5q0 34 16.5 61t46.5 43q-23 14 -36.5 36t-13.5 50q0 53 38.5 84.5t95.5 31.5t95.5 -31.5t38.5 -84.5q0 -28 -13.5 -50t-36.5 -36q30 -16 46.5 -43zM673 330.5q-16 -13.5 -16 -36.5q0 -24 16 -38.5t46 -14.5
q29 0 45.5 14.5t16.5 38.5q0 23 -16.5 36.5t-45.5 13.5q-30 0 -46 -13.5zM772 74q19 16 19 43t-19.5 43t-52.5 16q-34 0 -53 -15.5t-19 -43.5q0 -27 19 -43t53 -16t53 16z" />
    <glyph glyph-name="seveneighths" unicode="&#x215e;" horiz-adv-x="846" 
d="M277 700v-61l-141 -339h-81l138 328h-185v72h269zM166 0l400 700h70l-400 -700h-70zM806.5 168q16.5 -27 16.5 -61q0 -55 -40 -87.5t-107 -32.5t-107 32.5t-40 87.5q0 34 16.5 61t46.5 43q-23 14 -36.5 36t-13.5 50q0 53 38.5 84.5t95.5 31.5t95.5 -31.5t38.5 -84.5
q0 -28 -13.5 -50t-36.5 -36q30 -16 46.5 -43zM630 330.5q-16 -13.5 -16 -36.5q0 -24 16 -38.5t46 -14.5q29 0 45.5 14.5t16.5 38.5q0 23 -16.5 36.5t-45.5 13.5q-30 0 -46 -13.5zM729 74q19 16 19 43t-19.5 43t-52.5 16q-34 0 -53 -15.5t-19 -43.5q0 -27 19 -43t53 -16
t53 16z" />
    <glyph glyph-name="zero.dnom" horiz-adv-x="410" 
d="M75.5 45q-47.5 58 -47.5 155t47.5 155t129.5 58t129.5 -58t47.5 -155t-47.5 -155t-129.5 -58t-129.5 58zM278 98q26 35 26 102t-26 102t-73 35t-73 -35t-26 -102t26 -102t73 -35t73 35z" />
    <glyph glyph-name="one.dnom" horiz-adv-x="254" 
d="M198 400v-400h-77v319l-103 -56v81l103 56h77z" />
    <glyph glyph-name="two.dnom" horiz-adv-x="345" 
d="M30 58l162 152q19 18 29.5 38t10.5 39q0 24 -16.5 38.5t-44.5 14.5q-31 0 -48 -15.5t-17 -43.5h-77q0 61 40 96.5t102 35.5q61 0 99.5 -35t38.5 -90q0 -66 -64 -125l-100 -90h172v-73h-287v58z" />
    <glyph glyph-name="three.dnom" horiz-adv-x="351" 
d="M292.5 193q26.5 -31 26.5 -75q0 -60 -40.5 -95.5t-108.5 -35.5t-108.5 35.5t-40.5 95.5h78q0 -28 18 -43.5t53 -15.5t53.5 16t18.5 43t-19.5 43.5t-52.5 16.5h-43v51l82 99h-171v72h264v-66l-83 -100q47 -10 73.5 -41z" />
    <glyph glyph-name="four.dnom" horiz-adv-x="355" 
d="M336 72h-47v-72h-76v72h-199v71l142 257h83l-140 -257h114v87h76v-87h47v-71z" />
    <glyph glyph-name="five.dnom" horiz-adv-x="339" 
d="M268.5 214.5q38.5 -35.5 38.5 -97.5q0 -60 -39 -95t-105 -35t-105 35t-39 96h74q0 -27 18.5 -43.5t51.5 -16.5t51.5 16.5t18.5 43.5q0 28 -18.5 45.5t-51.5 17.5h-128l16 219h239v-71h-171l-5 -79h52q64 0 102.5 -35.5z" />
    <glyph glyph-name="six.dnom" horiz-adv-x="337" 
d="M276 228q42 -40 42 -100t-42.5 -100.5t-107.5 -40.5t-107 40.5t-42 100.5q0 39 19 71l1 1q0 1 2 5l124 195h87l-89 -132h5q66 0 108 -40zM223 76.5q21 19.5 21 51.5t-21 51t-55 19t-54.5 -19.5t-20.5 -50.5q0 -32 20.5 -51.5t54.5 -19.5t55 19.5z" />
    <glyph glyph-name="seven.dnom" horiz-adv-x="296" 
d="M277 400v-61l-141 -339h-81l138 328h-185v72h269z" />
    <glyph glyph-name="eight.dnom" horiz-adv-x="340" 
d="M300.5 168q16.5 -27 16.5 -61q0 -55 -40 -87.5t-107 -32.5t-107 32.5t-40 87.5q0 34 16.5 61t46.5 43q-23 14 -36.5 36t-13.5 50q0 53 38.5 84.5t95.5 31.5t95.5 -31.5t38.5 -84.5q0 -28 -13.5 -50t-36.5 -36q30 -16 46.5 -43zM124 330.5q-16 -13.5 -16 -36.5
q0 -24 16 -38.5t46 -14.5q29 0 45.5 14.5t16.5 38.5q0 23 -16.5 36.5t-45.5 13.5q-30 0 -46 -13.5zM223 74q19 16 19 43t-19.5 43t-52.5 16q-34 0 -53 -15.5t-19 -43.5q0 -27 19 -43t53 -16t53 16z" />
    <glyph glyph-name="nine.dnom" horiz-adv-x="337" 
d="M298 200l-3 -5l-123 -195h-87l89 132h-5q-66 0 -108 40t-42 100t42.5 100.5t107.5 40.5t107 -40.5t42 -100.5q0 -39 -19 -71zM114 221q21 -19 55 -19t54.5 19.5t20.5 50.5q0 32 -20.5 51.5t-54.5 19.5t-55 -19.5t-21 -51.5t21 -51z" />
    <glyph glyph-name="zero.numr" horiz-adv-x="410" 
d="M75.5 345q-47.5 58 -47.5 155t47.5 155t129.5 58t129.5 -58t47.5 -155t-47.5 -155t-129.5 -58t-129.5 58zM278 398q26 35 26 102t-26 102t-73 35t-73 -35t-26 -102t26 -102t73 -35t73 35z" />
    <glyph glyph-name="one.numr" horiz-adv-x="254" 
d="M198 700v-400h-77v319l-103 -56v81l103 56h77z" />
    <glyph glyph-name="two.numr" horiz-adv-x="345" 
d="M30 357l162 153q19 18 29.5 38t10.5 39q0 24 -16.5 38.5t-44.5 14.5q-31 0 -48 -15.5t-17 -43.5h-77q0 61 40 96.5t102 35.5q61 0 99.5 -35t38.5 -90q0 -66 -64 -125l-100 -91h172v-72h-287v57z" />
    <glyph glyph-name="three.numr" horiz-adv-x="351" 
d="M292.5 493q26.5 -30 26.5 -75q0 -60 -40.5 -95t-108.5 -35t-108.5 35t-40.5 95h78q0 -27 18.5 -43t52.5 -16t53 16t19 43t-19.5 43.5t-52.5 16.5h-43v51l83 99h-172v72h264v-66l-83 -100q47 -11 73.5 -41z" />
    <glyph glyph-name="four.numr" horiz-adv-x="355" 
d="M336 371h-47v-71h-76v71h-199v71l142 258h83l-140 -258h114v88h76v-88h47v-71z" />
    <glyph glyph-name="five.numr" horiz-adv-x="339" 
d="M269 514.5q39 -35.5 39 -97.5q0 -60 -39.5 -94.5t-105.5 -34.5t-105 35t-39 95h74q0 -27 19 -43.5t51 -16.5q34 0 52 16.5t18 43.5q0 29 -18.5 46t-51.5 17h-127l15 219h239v-71h-171l-5 -79h52q64 0 103 -35.5z" />
    <glyph glyph-name="six.numr" horiz-adv-x="337" 
d="M276 528q42 -40 42 -100t-42.5 -100.5t-107.5 -40.5t-107 40.5t-42 100.5q0 39 19 71l1 1q0 1 2 5l124 195h87l-89 -132h5q66 0 108 -40zM223 376.5q21 19.5 21 51.5t-21 51t-55 19t-54.5 -19.5t-20.5 -50.5q0 -32 20.5 -51.5t54.5 -19.5t55 19.5z" />
    <glyph glyph-name="seven.numr" horiz-adv-x="296" 
d="M277 700v-61l-141 -339h-81l138 328h-185v72h269z" />
    <glyph glyph-name="eight.numr" horiz-adv-x="340" 
d="M300.5 467.5q16.5 -26.5 16.5 -60.5q0 -55 -40 -87.5t-107 -32.5t-107 32.5t-40 87.5q0 34 16.5 60.5t46.5 42.5q-23 15 -36.5 37t-13.5 50q0 53 38.5 84.5t95.5 31.5t95.5 -31.5t38.5 -84.5q0 -28 -13.5 -50t-36.5 -37q30 -16 46.5 -42.5zM124 630.5
q-16 -13.5 -16 -36.5q0 -24 16 -38.5t46 -14.5q29 0 45.5 14.5t16.5 38.5q0 23 -16.5 36.5t-45.5 13.5q-30 0 -46 -13.5zM223 374q19 16 19 43t-19.5 43t-52.5 16q-34 0 -53 -15.5t-19 -43.5q0 -27 19 -43t53 -16t53 16z" />
    <glyph glyph-name="nine.numr" horiz-adv-x="337" 
d="M298 500l-3 -5l-123 -195h-87l89 132h-5q-66 0 -108 40t-42 100t42.5 100.5t107.5 40.5t107 -40.5t42 -100.5q0 -39 -19 -71zM114 521q21 -19 55 -19t54.5 19.5t20.5 50.5q0 32 -20.5 51.5t-54.5 19.5t-55 -19.5t-21 -51.5t21 -51z" />
    <glyph glyph-name="zero.sups" horiz-adv-x="410" 
d="M75.5 505q-47.5 58 -47.5 155t47.5 155t129.5 58t129.5 -58t47.5 -155t-47.5 -155t-129.5 -58t-129.5 58zM278 558q26 35 26 102t-26 102t-73 35t-73 -35t-26 -102t26 -102t73 -35t73 35z" />
    <glyph glyph-name="one.sups" horiz-adv-x="254" 
d="M198 860v-400h-77v319l-103 -56v81l103 56h77z" />
    <glyph glyph-name="two.sups" horiz-adv-x="345" 
d="M30 517l162 153q19 18 29.5 38t10.5 39q0 24 -16.5 38.5t-44.5 14.5q-31 0 -48 -15.5t-17 -43.5h-77q0 61 40 96.5t102 35.5q61 0 99.5 -35t38.5 -90q0 -66 -64 -125l-100 -91h172v-72h-287v57z" />
    <glyph glyph-name="three.sups" horiz-adv-x="351" 
d="M292.5 653q26.5 -31 26.5 -75q0 -60 -40.5 -95.5t-108.5 -35.5t-108.5 35.5t-40.5 95.5h78q0 -28 18 -43.5t53 -15.5t53.5 16t18.5 43t-19.5 43.5t-52.5 16.5h-43v51l82 99h-171v72h264v-66l-83 -100q47 -10 73.5 -41z" />
    <glyph glyph-name="four.sups" horiz-adv-x="355" 
d="M336 531h-47v-71h-76v71h-199v71l142 258h83l-140 -258h114v88h76v-88h47v-71z" />
    <glyph glyph-name="five.sups" horiz-adv-x="339" 
d="M268.5 674.5q38.5 -35.5 38.5 -97.5q0 -60 -39 -95t-105 -35t-105 35t-39 96h74q0 -27 18.5 -43.5t51.5 -16.5t51.5 16.5t18.5 43.5q0 28 -18.5 45.5t-51.5 17.5h-128l16 219h239v-71h-171l-5 -79h52q64 0 102.5 -35.5z" />
    <glyph glyph-name="six.sups" horiz-adv-x="337" 
d="M276 688q42 -40 42 -100t-42.5 -100.5t-107.5 -40.5t-107 40.5t-42 100.5q0 39 19 71l1 1q0 1 2 5l124 195h87l-89 -132h5q66 0 108 -40zM223 536.5q21 19.5 21 51.5t-21 51t-55 19t-54.5 -19.5t-20.5 -50.5q0 -32 20.5 -51.5t54.5 -19.5t55 19.5z" />
    <glyph glyph-name="seven.sups" horiz-adv-x="296" 
d="M277 860v-61l-141 -339h-81l138 328h-185v72h269z" />
    <glyph glyph-name="eight.sups" horiz-adv-x="340" 
d="M300.5 627.5q16.5 -26.5 16.5 -60.5q0 -55 -40 -87.5t-107 -32.5t-107 32.5t-40 87.5q0 34 16.5 60.5t46.5 42.5q-23 15 -36.5 37t-13.5 50q0 53 38.5 84.5t95.5 31.5t95.5 -31.5t38.5 -84.5q0 -28 -13.5 -50t-36.5 -37q30 -16 46.5 -42.5zM124 790.5
q-16 -13.5 -16 -36.5q0 -24 16 -38.5t46 -14.5q29 0 45.5 14.5t16.5 38.5q0 23 -16.5 36.5t-45.5 13.5q-30 0 -46 -13.5zM223 534q19 16 19 43t-19.5 43t-52.5 16q-34 0 -53 -15.5t-19 -43.5q0 -27 19 -43t53 -16t53 16z" />
    <glyph glyph-name="nine.sups" horiz-adv-x="337" 
d="M298 660l-3 -5l-123 -195h-87l89 132h-5q-66 0 -108 40t-42 100t42.5 100.5t107.5 40.5t107 -40.5t42 -100.5q0 -39 -19 -71zM114 681q21 -19 55 -19t54.5 19.5t20.5 50.5q0 32 -20.5 51.5t-54.5 19.5t-55 -19.5t-21 -51.5t21 -51z" />
    <glyph glyph-name="asterisk" unicode="*" horiz-adv-x="394" 
d="M337 546l-91 4l53 -73l-57 -34l-45 82l-45 -82l-56 34l52 73l-90 -4v64l90 -5l-52 74l56 34l45 -82l45 82l57 -34l-53 -74l91 5v-64z" />
    <glyph glyph-name="backslash" unicode="\" horiz-adv-x="528" 
d="M38 800h52l400 -900h-52z" />
    <glyph glyph-name="periodcentered" unicode="&#xb7;" horiz-adv-x="243" 
d="M68 403h107v-108h-107v108z" />
    <glyph glyph-name="bullet" unicode="&#x2022;" horiz-adv-x="320" 
d="M81 271q-33 33 -33 80t33 79.5t80 32.5t79.5 -32.5t32.5 -79.5t-32.5 -80t-79.5 -33t-80 33z" />
    <glyph glyph-name="colon" unicode=":" horiz-adv-x="243" 
d="M68 108h107v-108h-107v108zM68 501h107v-108h-107v108z" />
    <glyph glyph-name="comma" unicode="," horiz-adv-x="243" 
d="M175 108v-108q0 -58 -27.5 -93t-79.5 -40v46q26 6 39 24.5t13 62.5h-52v108h107z" />
    <glyph glyph-name="ellipsis" unicode="&#x2026;" horiz-adv-x="648" 
d="M68 108h107v-108h-107v108zM271 108h107v-108h-107v108zM473 108h107v-108h-107v108z" />
    <glyph glyph-name="exclam" unicode="!" horiz-adv-x="243" 
d="M69 500v200h105v-200l-19 -295h-67zM68 108h107v-108h-107v108z" />
    <glyph glyph-name="exclamdown" unicode="&#xa1;" horiz-adv-x="243" 
d="M175 500v-107h-107v107h107zM155 295l19 -295v-200h-105v200l19 295h67z" />
    <glyph glyph-name="numbersign" unicode="#" horiz-adv-x="605" 
d="M449 405l-18 -110h117l-12 -72h-117l-29 -173h-76l29 173h-122l-29 -173h-77l29 173h-116l12 72h116l18 110h-117l12 73h118l28 172h77l-29 -172h122l29 172h76l-28 -172h115l-12 -73h-116zM373 405h-122l-18 -110h122z" />
    <glyph glyph-name="period" unicode="." horiz-adv-x="243" 
d="M68 108h107v-108h-107v108z" />
    <glyph glyph-name="question" unicode="?" horiz-adv-x="541" 
d="M221 277.5q14 32.5 34.5 56t53.5 54.5q42 39 62 67t20 65q0 51 -34 77t-90 26q-61 0 -99 -30.5t-38 -88.5h-92q0 67 31.5 114.5t84 71t115.5 23.5q57 0 106 -22t79 -64.5t30 -102.5q0 -38 -13.5 -68.5t-33.5 -53.5t-52 -54q-43 -42 -64 -72.5t-21 -70.5h-93q0 40 14 72.5
zM200 108h107v-108h-107v108z" />
    <glyph glyph-name="questiondown" unicode="&#xbf;" horiz-adv-x="539" 
d="M339 393h-107v107h107v-107zM318 222.5q-14 -32.5 -34.5 -56t-53.5 -54.5q-42 -39 -62 -67t-20 -65q0 -51 34 -77t90 -26q61 0 99 30.5t38 88.5h92q0 -67 -31.5 -114.5t-84 -71t-115.5 -23.5q-57 0 -106 22t-79 64.5t-30 102.5q0 38 13.5 68.5t33.5 53.5t52 54
q43 42 64 72.5t21 70.5h93q0 -40 -14 -72.5z" />
    <glyph glyph-name="quotedbl" unicode="&#x22;" horiz-adv-x="333" 
d="M48 700h87l-12 -210h-63zM198 700h87l-12 -210h-63z" />
    <glyph glyph-name="quotesingle" unicode="'" horiz-adv-x="183" 
d="M48 700h87l-12 -210h-63z" />
    <glyph glyph-name="semicolon" unicode=";" horiz-adv-x="243" 
d="M175 108v-108q0 -58 -27.5 -93t-79.5 -40v46q26 6 39 24.5t13 62.5h-52v108h107zM68 501h107v-108h-107v108z" />
    <glyph glyph-name="slash" unicode="/" horiz-adv-x="528" 
d="M38 -100l400 900h52l-400 -900h-52z" />
    <glyph glyph-name="underscore" unicode="_" horiz-adv-x="520" 
d="M38 -67h445v-84h-445v84z" />
    <glyph glyph-name="braceleft" unicode="{" horiz-adv-x="353" 
d="M309 -109q-80 0 -121.5 43t-41.5 128v161q0 37 -11 56t-31 25t-54 5v84q51 -1 73.5 16t22.5 70v161q0 85 41 128t122 43q18 0 27 -1v-84q-9 1 -26 1q-40 0 -58.5 -19.5t-18.5 -67.5v-161q0 -53 -18 -83.5t-54 -44.5q36 -13 54 -44t18 -84v-161q0 -48 18.5 -67.5
t58.5 -19.5q17 0 26 1v-84q-9 -1 -27 -1z" />
    <glyph glyph-name="braceright" unicode="}" horiz-adv-x="353" 
d="M18 -24q9 -1 25 -1q40 0 59 19.5t19 67.5v161q0 53 18 84t53 44q-36 14 -53.5 44.5t-17.5 83.5v161q0 48 -18.5 67.5t-58.5 19.5q-17 0 -26 -1v84q9 1 27 1q80 0 121.5 -43t41.5 -128v-161q0 -53 22.5 -70t72.5 -16v-84q-34 1 -54 -5t-30.5 -25t-10.5 -56v-161
q0 -84 -41.5 -127.5t-122.5 -43.5q-17 0 -26 1v84z" />
    <glyph glyph-name="bracketleft" unicode="[" horiz-adv-x="270" 
d="M145 716v-732h125v-84h-187h-25v900h87h125v-84h-125z" />
    <glyph glyph-name="bracketright" unicode="]" horiz-adv-x="270" 
d="M213 -100h-87h-126v84h126v732h-126v84h213v-900z" />
    <glyph glyph-name="parenleft" unicode="(" horiz-adv-x="280" 
d="M58 350q0 230 110 450h87q-110 -220 -110 -450t110 -450h-87q-110 220 -110 450z" />
    <glyph glyph-name="parenright" unicode=")" horiz-adv-x="280" 
d="M25 -100q110 220 110 450t-110 450h87q110 -220 110 -450t-110 -450h-87z" />
    <glyph glyph-name="emdash" unicode="&#x2014;" horiz-adv-x="755" 
d="M75 349h605v-84h-605v84z" />
    <glyph glyph-name="endash" unicode="&#x2013;" horiz-adv-x="655" 
d="M75 349h505v-84h-505v84z" />
    <glyph glyph-name="hyphen" unicode="-" horiz-adv-x="515" 
d="M75 349h365v-84h-365v84z" />
    <glyph glyph-name="guillemotleft" unicode="&#xab;" horiz-adv-x="510" 
d="M162 309l110 -182h-94l-110 182l110 183h94zM332 309l110 -182h-94l-110 182l110 183h94z" />
    <glyph glyph-name="guillemotright" unicode="&#xbb;" horiz-adv-x="510" 
d="M272 309l-110 -182h-94l110 182l-110 183h94zM442 309l-110 -182h-94l110 182l-110 183h94z" />
    <glyph glyph-name="guilsinglleft" unicode="&#x2039;" horiz-adv-x="340" 
d="M162 309l110 -182h-94l-110 182l110 183h94z" />
    <glyph glyph-name="guilsinglright" unicode="&#x203a;" horiz-adv-x="340" 
d="M272 309l-110 -182h-94l110 182l-110 183h94z" />
    <glyph glyph-name="quotedblbase" unicode="&#x201e;" horiz-adv-x="398" 
d="M175 108v-108q0 -58 -27.5 -93t-79.5 -40v46q26 6 39 24.5t13 62.5h-52v108h107zM330 108v-108q0 -58 -27.5 -93t-79.5 -40v46q26 6 39 24.5t13 62.5h-52v108h107z" />
    <glyph glyph-name="quotedblleft" unicode="&#x201c;" horiz-adv-x="398" 
d="M96 665q28 35 80 40v-46q-26 -6 -39.5 -24.5t-13.5 -62.5h53v-107h-108v107q0 58 28 93zM291.5 634.5q-13.5 -18.5 -13.5 -62.5h53v-107h-108v107q0 58 28 93t80 40v-46q-26 -6 -39.5 -24.5z" />
    <glyph glyph-name="quotedblright" unicode="&#x201d;" horiz-adv-x="398" 
d="M175 701v-108q0 -58 -27.5 -93t-79.5 -40v46q26 6 39 24.5t13 62.5h-52v108h107zM330 701v-108q0 -58 -27.5 -93t-79.5 -40v46q26 6 39 24.5t13 62.5h-52v108h107z" />
    <glyph glyph-name="quoteleft" unicode="&#x2018;" horiz-adv-x="243" 
d="M136 635.5q-13 -18.5 -13 -63.5h52v-107h-107v107q0 58 27.5 93.5t79.5 39.5v-46q-26 -5 -39 -23.5z" />
    <glyph glyph-name="quoteright" unicode="&#x2019;" horiz-adv-x="243" 
d="M175 701v-108q0 -58 -27.5 -93t-79.5 -40v46q26 6 39 24.5t13 62.5h-52v108h107z" />
    <glyph glyph-name="quotesinglbase" unicode="&#x201a;" horiz-adv-x="243" 
d="M175 108v-108q0 -58 -27.5 -93t-79.5 -40v46q26 6 39 24.5t13 62.5h-52v108h107z" />
    <glyph glyph-name="cent" unicode="&#xa2;" horiz-adv-x="571" 
d="M394 199q41 26 58 69h92q-19 -80 -86.5 -130t-156.5 -50q-33 0 -68 8l-31 -96h-52l36 113q-68 31 -108 94t-40 143q0 73 34.5 133.5t94.5 95t134 34.5q26 0 45 -4l30 91h52l-33 -104q55 -20 95 -63.5t54 -99.5h-92q-11 28 -33 49t-51 33l-109 -337q23 -5 42 -5
q52 0 93 26zM149 260q24 -41 64 -64l107 331q-6 1 -19 1q-49 0 -89 -23.5t-63.5 -64t-23.5 -90.5q0 -49 24 -90z" />
    <glyph glyph-name="currency" unicode="&#xa4;" horiz-adv-x="549" 
d="M442 217l70 -70l-34 -34l-71 70q-57 -44 -132 -44q-76 0 -133 44l-70 -70l-34 34l69 70q-46 57 -46 133t46 133l-69 70l34 34l70 -70q58 45 133 45q74 0 132 -45l71 70l34 -34l-70 -70q46 -57 46 -133t-46 -133zM365.5 259q36.5 37 36.5 91q0 55 -36.5 91.5t-90.5 36.5
q-55 0 -91 -36.5t-36 -91.5q0 -54 36.5 -91t90.5 -37t90.5 37z" />
    <glyph glyph-name="dollar" unicode="$" horiz-adv-x="548" 
d="M485 81q-28 -42 -75 -65.5t-104 -27.5v-88h-63v90q-91 10 -149.5 66.5t-58.5 150.5h93q0 -53 30.5 -85.5t84.5 -40.5v238q-59 22 -99.5 46t-67 63.5t-26.5 98.5q0 79 56 128t137 56v89h63v-90q83 -10 138.5 -64t55.5 -142h-92q0 48 -27.5 77.5t-74.5 38.5v-233
q64 -24 106.5 -47.5t71.5 -63t29 -98.5q0 -55 -28 -97zM168 460.5q26 -26.5 75 -48.5v209q-45 -6 -73 -30.5t-28 -63.5q0 -40 26 -66.5zM389.5 110q31.5 26 31.5 68q0 41 -30 68t-85 49v-216q52 5 83.5 31z" />
    <glyph glyph-name="Euro" unicode="&#x20ac;" horiz-adv-x="628" 
d="M601 239q-14 -117 -80 -184.5t-171 -67.5q-110 0 -178 74t-86 202h-73v65h67v22q0 20 1 31h-68v64h74q19 125 87 196.5t176 71.5q104 0 169 -65.5t80 -178.5h-94q-10 74 -50.5 114t-104.5 40q-68 0 -111.5 -46t-58.5 -132h238v-64h-245v-31v-22h245v-65h-239
q14 -89 57.5 -137t113.5 -48q66 0 106.5 41.5t50.5 119.5h94z" />
    <glyph glyph-name="florin" unicode="&#x192;" horiz-adv-x="440" 
d="M394 628q-31 0 -51.5 -19t-26.5 -55l-28 -161h107v-84h-121l-63 -369q-12 -75 -52 -112.5t-98 -37.5q-29 0 -61 9v85q27 -10 46 -10q30 0 51 19.5t27 54.5l61 361h-100v84h115l29 169q12 76 52 113.5t98 37.5q29 0 61 -9v-86q-24 10 -46 10z" />
    <glyph glyph-name="uni20BD" unicode="&#x20bd;" horiz-adv-x="594" 
d="M195 268v-81h248v-68h-248v-119h-92v119h-85v68h85v81h-85v84h85v348h92h161q60 0 110 -29t79.5 -79t29.5 -109t-29 -108.5t-79.5 -78t-110.5 -28.5h-161zM195 352h161q34 0 63.5 17.5t46.5 48t17 65.5t-17 65t-46.5 47.5t-63.5 17.5h-161v-261z" />
    <glyph glyph-name="sterling" unicode="&#xa3;" horiz-adv-x="585" 
d="M570 90v-90h-532v90h87v182h-70v81h70v146q0 70 30 118t78 72t102 24q52 0 100.5 -24t79 -72.5t30.5 -117.5v-29h-93v29q0 61 -34.5 92.5t-82.5 31.5q-51 0 -84.5 -31t-33.5 -93v-146h217v-81h-217v-182h353z" />
    <glyph glyph-name="yen" unicode="&#xa5;" horiz-adv-x="584" 
d="M358 352h154v-65h-174v-55h174v-66h-174v-166h-93v166h-173v66h173v55h-173v65h154l-218 348h104l180 -291l180 291h104z" />
    <glyph glyph-name="cent.tf" horiz-adv-x="573" 
d="M397 199q41 26 58 69h92q-19 -80 -86.5 -130t-156.5 -50q-33 0 -68 8l-31 -96h-52l36 113q-68 31 -108 94t-40 143q0 73 34.5 133.5t94.5 95t134 34.5q26 0 45 -4l30 91h52l-33 -104q55 -20 95 -63.5t54 -99.5h-92q-11 28 -33 49t-51 33l-109 -337q23 -5 42 -5
q52 0 93 26zM152 260q24 -41 64 -64l107 331q-6 1 -19 1q-49 0 -89 -23.5t-63.5 -64t-23.5 -90.5q0 -49 24 -90z" />
    <glyph glyph-name="dollar.tf" horiz-adv-x="573" 
d="M473.5 45q-61.5 -51 -155.5 -57v-88h-62v89q-98 10 -158 66.5t-60 151.5h92q0 -54 33 -86.5t93 -40.5v237q-64 23 -106.5 46.5t-70.5 63t-28 98.5q0 81 58.5 130.5t146.5 55.5v89h62v-89q89 -10 145.5 -64t56.5 -143h-91q0 49 -29.5 78.5t-81.5 37.5v-231q70 -25 114 -48
t73.5 -62.5t29.5 -99.5q0 -83 -61.5 -134zM171.5 459.5q28.5 -25.5 84.5 -47.5v209q-52 -5 -82.5 -30t-30.5 -66q0 -40 28.5 -65.5zM409.5 109.5q33.5 26.5 33.5 69.5q0 40 -32 66.5t-93 49.5v-217q58 5 91.5 31.5z" />
    <glyph glyph-name="Euro.tf" horiz-adv-x="573" 
d="M553 239q-5 -76 -36.5 -133t-83 -88t-117.5 -31q-104 0 -167.5 74t-79.5 202h-64v65h59q-1 7 -1 22q0 20 1 31h-59v64h65q18 125 81.5 196.5t164.5 71.5q64 0 115 -30t82.5 -85t37.5 -129h-94q-4 72 -44 113t-97 41q-62 0 -101 -46t-53 -132h222v-64h-228v-31v-22h228
v-65h-223q13 -90 52.5 -137.5t102.5 -47.5q59 0 99 42.5t44 118.5h94z" />
    <glyph glyph-name="florin.tf" horiz-adv-x="573" 
d="M493 628q-66 0 -85 -74l-41 -161h141v-84h-163l-94 -369q-19 -75 -60 -112.5t-100 -37.5q-30 0 -63 9v85q32 -10 52 -10q66 0 84 74l92 361h-139v84h161l43 169q19 76 60 113.5t101 37.5q30 0 63 -9v-86q-27 10 -52 10z" />
    <glyph glyph-name="uni20BD.tf" horiz-adv-x="573" 
d="M188 268v-81h225v-68h-225v-119h-93v119h-85v68h85v81h-85v84h85v348h93h138q60 0 110 -29t79.5 -79t29.5 -109t-29 -108.5t-79.5 -78t-110.5 -28.5h-138zM188 352h138q34 0 63.5 17.5t46.5 48t17 65.5t-17 65t-46.5 47.5t-63.5 17.5h-138v-261z" />
    <glyph glyph-name="sterling.tf" horiz-adv-x="573" 
d="M538 90v-90h-535v90h87v182h-70v81h70v146q0 70 30 118t78.5 72t102.5 24q53 0 101.5 -24t79 -72.5t30.5 -117.5v-29h-92v29q0 61 -35 92.5t-84 31.5q-51 0 -85 -31t-34 -93v-146h219v-81h-219v-182h356z" />
    <glyph glyph-name="yen.tf" horiz-adv-x="573" 
d="M352 352h155v-65h-174v-55h174v-66h-174v-166h-93v166h-173v66h173v55h-173v65h154l-215 348h103l178 -292l177 292h103z" />
    <glyph glyph-name="approxequal" unicode="&#x2248;" horiz-adv-x="586" 
d="M190 428q-24 0 -40 -14.5t-27 -43.5l-68 28q17 57 50 87.5t79 30.5q53 0 117 -38q56 -33 92 -33q25 0 39.5 16t23.5 49l75 -35q-16 -57 -49 -87.5t-81 -30.5q-52 0 -117 37q-58 34 -94 34zM55 225q16 57 49 87.5t81 30.5q52 0 116 -37q58 -34 95 -34q24 0 40 15t27 43
l68 -28q-17 -57 -49.5 -87.5t-79.5 -30.5q-50 0 -118 38q-59 33 -91 33q-24 0 -39.5 -16.5t-23.5 -48.5z" />
    <glyph glyph-name="asciitilde" unicode="~" horiz-adv-x="596" 
d="M541 388q-17 -57 -50.5 -87.5t-81.5 -30.5q-54 0 -120 38q-61 34 -94 34q-25 0 -40 -16t-25 -50l-75 35q17 57 51 88t82 31q51 0 118 -38q61 -35 96 -35q24 0 39 16.5t25 50.5z" />
    <glyph glyph-name="divide" unicode="&#xf7;" horiz-adv-x="575" 
d="M242.5 494.5q-18.5 18.5 -18.5 45.5t18.5 45t45.5 18t45 -18t18 -45t-18 -45.5t-45 -18.5t-45.5 18.5zM55 392h465v-83h-465v83zM242.5 115.5q-18.5 18.5 -18.5 45.5t18.5 45t45.5 18t45 -18t18 -45t-18 -45.5t-45 -18.5t-45.5 18.5z" />
    <glyph glyph-name="emptyset" unicode="&#x2205;" horiz-adv-x="804" 
d="M735 491q29 -67 29 -141q0 -98 -48.5 -181.5t-132 -132t-181.5 -48.5q-113 0 -204 63l-58 -71h-82l91 111q-51 51 -80 118t-29 141q0 98 48.5 181.5t132 132t181.5 48.5q113 0 204 -63l58 71h83l-92 -111q51 -51 80 -118zM131.5 237.5q21.5 -53.5 60.5 -93.5l371 452
q-74 48 -161 48q-80 0 -147 -39t-106 -106.5t-39 -148.5q0 -59 21.5 -112.5zM549 95.5q67 39.5 106 107t39 147.5q0 59 -21.5 112.5t-60.5 93.5l-371 -452q74 -48 161 -48q80 0 147 39.5z" />
    <glyph glyph-name="equal" unicode="=" horiz-adv-x="535" 
d="M55 493h425v-83h-425v83zM55 290h425v-83h-425v83z" />
    <glyph glyph-name="greater" unicode="&#x3e;" 
d="M468 393v-85l-413 -180v94l314 128l-314 129v94z" />
    <glyph glyph-name="greaterequal" unicode="&#x2265;" 
d="M468 458v-82l-413 -159v94l308 106l-308 107v94zM55 168h413v-83h-413v83z" />
    <glyph glyph-name="infinity" unicode="&#x221e;" horiz-adv-x="803" 
d="M666.5 494q38.5 -21 60.5 -59t22 -85t-22 -85t-60.5 -59t-85.5 -21q-94 0 -179 101q-40 -45 -83.5 -73t-96.5 -28q-47 0 -85.5 21t-60.5 59t-22 85t22 85t60.5 59t85.5 21q53 0 96.5 -28t83.5 -73q85 101 179 101q47 0 85.5 -21zM333 361q-58 65 -108 65
q-33 0 -53.5 -20.5t-20.5 -51.5q0 -36 21 -58t55 -22q10 0 15 1q46 9 91 86zM632.5 405q-20.5 21 -53.5 21q-51 0 -109 -65q22 -36 43.5 -58.5t48.5 -27.5q5 -1 15 -1q34 0 55 22t21 57q0 31 -20.5 52z" />
    <glyph glyph-name="integral" unicode="&#x222b;" horiz-adv-x="440" 
d="M0 -117q24 -10 46 -10q29 0 48.5 19t25.5 55l104 614q13 76 51.5 113t99.5 37q30 0 65 -9v-85q-32 10 -50 10q-32 0 -52.5 -19t-26.5 -55l-104 -614q-13 -76 -51 -113.5t-96 -37.5q-28 0 -60 9v86z" />
    <glyph glyph-name="less" unicode="&#x3c;" 
d="M468 479l-314 -129l314 -128v-94l-413 180v85l413 180v-94z" />
    <glyph glyph-name="lessequal" unicode="&#x2264;" 
d="M468 524l-308 -107l308 -106v-94l-413 159v82l413 160v-94zM55 168h413v-83h-413v83z" />
    <glyph glyph-name="logicalnot" unicode="&#xac;" horiz-adv-x="530" 
d="M475 392v-83v-117h-87v117h-333v83h420z" />
    <glyph glyph-name="uni00B5" unicode="&#xb5;" horiz-adv-x="570" 
d="M542 83v-83h-51q-35 0 -61 16t-38 44q-26 -39 -62.5 -56t-83.5 -17q-53 0 -93 29v-216h-87v700h87v-321q0 -52 28.5 -80.5t75.5 -28.5q53 0 89 35.5t36 110.5v284h87v-382q0 -16 9.5 -25.5t25.5 -9.5h38z" />
    <glyph glyph-name="minus" unicode="&#x2212;" horiz-adv-x="545" 
d="M58 392h430v-83h-430v83z" />
    <glyph glyph-name="multiply" unicode="&#xd7;" horiz-adv-x="485" 
d="M300 350l135 -135l-59 -56l-134 134l-133 -134l-59 56l135 135l-135 135l59 56l133 -134l134 134l59 -56z" />
    <glyph glyph-name="notequal" unicode="&#x2260;" horiz-adv-x="535" 
d="M324 410l-53 -120h209v-83h-246l-64 -142h-60l64 142h-119v83h156l53 120h-209v83h246l64 142h60l-64 -142h119v-83h-156z" />
    <glyph glyph-name="partialdiff" unicode="&#x2202;" horiz-adv-x="579" 
d="M380 668q66 -45 105 -128t39 -190q0 -115 -35 -197t-95 -124t-136 -42q-65 0 -112.5 28t-72.5 76.5t-25 108.5q0 68 27 120t78.5 81.5t122.5 29.5q41 0 82 -12t77 -36q-7 107 -60.5 176t-145.5 70q-68 0 -125 -34v82q56 36 131 36q79 0 145 -45zM380 132q46 61 55 169
q-34 26 -74 38t-79 12q-67 0 -107 -39t-40 -111q0 -57 32 -93.5t93 -36.5q74 0 120 61z" />
    <glyph glyph-name="percent" unicode="%" horiz-adv-x="765" 
d="M132 423.5q-36 20.5 -56.5 56t-20.5 78.5q0 42 20.5 77.5t56.5 56.5t81 21t81 -20.5t56.5 -56t20.5 -78.5t-20 -78.5t-56 -56t-82 -20.5q-45 0 -81 20.5zM582 700h93l-492 -700h-92zM270.5 500q22.5 24 22.5 58t-22.5 57.5t-57.5 23.5t-57.5 -23.5t-22.5 -57.5
q0 -35 22.5 -58.5t57.5 -23.5t57.5 24zM471 8.5q-36 20.5 -56.5 56t-20.5 78.5t20.5 78.5t56.5 56t81 20.5t81 -20.5t56.5 -56t20.5 -78.5t-20.5 -78.5t-56.5 -56t-81 -20.5t-81 20.5zM609.5 85.5q22.5 23.5 22.5 57.5t-22.5 57.5t-57.5 23.5t-57.5 -23.5t-22.5 -57.5
t22.5 -57.5t57.5 -23.5t57.5 23.5z" />
    <glyph glyph-name="perthousand" unicode="&#x2030;" horiz-adv-x="1113" 
d="M132 423.5q-36 20.5 -56.5 56t-20.5 78.5q0 42 20.5 77.5t56.5 56.5t81 21t81 -21t56.5 -56.5t20.5 -77.5q0 -43 -20 -78.5t-56 -56t-82 -20.5q-45 0 -81 20.5zM582 700h93l-492 -700h-92zM270.5 500q22.5 24 22.5 58t-22.5 57.5t-57.5 23.5t-57.5 -23.5t-22.5 -57.5
q0 -35 22.5 -58.5t57.5 -23.5t57.5 24zM471 8.5q-36 20.5 -56.5 56t-20.5 78.5t20.5 78.5t56.5 56t81 20.5t81 -20.5t56.5 -56t20.5 -78.5t-20.5 -78.5t-56.5 -56t-81 -20.5t-81 20.5zM836 8.5q-36 20.5 -56.5 56t-20.5 78.5t20.5 78.5t56.5 56t81 20.5t81 -20.5t56.5 -56
t20.5 -78.5t-20.5 -78.5t-56.5 -56t-81 -20.5t-81 20.5zM609.5 85.5q22.5 23.5 22.5 57.5t-22.5 57.5t-57.5 23.5t-57.5 -23.5t-22.5 -57.5t22.5 -57.5t57.5 -23.5t57.5 23.5zM974.5 85.5q22.5 23.5 22.5 57.5t-22.5 57.5t-57.5 23.5t-57.5 -23.5t-22.5 -57.5t22.5 -57.5
t57.5 -23.5t57.5 23.5z" />
    <glyph glyph-name="plus" unicode="+" horiz-adv-x="545" 
d="M488 309h-174v-174h-83v174h-173v83h173v173h83v-173h174v-83z" />
    <glyph glyph-name="plusminus" unicode="&#xb1;" horiz-adv-x="545" 
d="M488 465v-83h-174v-157h-83v157h-173v83h173v158h83v-158h174zM58 161h430v-83h-430v83z" />
    <glyph glyph-name="product" unicode="&#x220f;" horiz-adv-x="640" 
d="M75 700h490v-900h-87v816h-316v-816h-87v900z" />
    <glyph glyph-name="radical" unicode="&#x221a;" horiz-adv-x="655" 
d="M148 224h-93v84h143l118 -205l233 697h91l-272 -800h-88z" />
    <glyph glyph-name="summation" unicode="&#x2211;" horiz-adv-x="548" 
d="M45 -120l231 380l-216 359v81h440v-84h-339l215 -356l-229 -376h368v-84h-470v80z" />
    <glyph glyph-name="arrowup" unicode="&#x2191;" horiz-adv-x="710" 
d="M655 283l-256 257v-540h-87v540l-257 -257v117l300 300l300 -300v-117z" />
    <glyph glyph-name="uni2197" unicode="&#x2197;" horiz-adv-x="640" 
d="M585 596v-424l-82 -82v363l-387 -387l-61 61l387 387h-363l82 82h424z" />
    <glyph glyph-name="arrowright" unicode="&#x2192;" horiz-adv-x="813" 
d="M758 350l-300 -300h-117l258 258h-544v84h544l-258 258h117z" />
    <glyph glyph-name="uni2198" unicode="&#x2198;" horiz-adv-x="640" 
d="M585 508v-424h-424l-82 82h363l-387 387l61 60l387 -387v364z" />
    <glyph glyph-name="arrowdown" unicode="&#x2193;" horiz-adv-x="710" 
d="M655 417v-117l-300 -300l-300 300v117l257 -256v539h87v-539z" />
    <glyph glyph-name="uni2199" unicode="&#x2199;" horiz-adv-x="640" 
d="M198 166h363l-82 -82h-424v424l82 82v-364l387 387l61 -60z" />
    <glyph glyph-name="arrowleft" unicode="&#x2190;" horiz-adv-x="813" 
d="M758 308h-544l258 -258h-117l-300 300l300 300h117l-258 -258h544v-84z" />
    <glyph glyph-name="uni2196" unicode="&#x2196;" horiz-adv-x="640" 
d="M524 66l-387 387v-363l-82 82v424h424l82 -82h-363l387 -387z" />
    <glyph glyph-name="arrowboth" unicode="&#x2194;" horiz-adv-x="1055" 
d="M1000 350l-257 -257h-116l214 215h-628l215 -215h-116l-257 257l257 258h116l-215 -216h629l-215 216h116z" />
    <glyph glyph-name="arrowupdn" unicode="&#x2195;" horiz-adv-x="625" 
d="M356 663v-626l214 213v-116l-257 -257l-258 257v116l214 -213v626l-214 -213v116l258 257l257 -257v-116z" />
    <glyph glyph-name="lozenge" unicode="&#x25ca;" horiz-adv-x="545" 
d="M48 350l186 350h78l186 -350l-186 -350h-78zM404 350l-131 246l-132 -246l132 -246z" />
    <glyph glyph-name="bar" unicode="|" horiz-adv-x="237" 
d="M75 720h87v-920h-87v920z" />
    <glyph glyph-name="brokenbar" unicode="&#xa6;" horiz-adv-x="237" 
d="M75 720h87v-370h-87v370zM75 170h87v-370h-87v370z" />
    <glyph glyph-name="at" unicode="@" horiz-adv-x="789" 
d="M588 562.5q80 -49.5 122 -128.5t42 -164q0 -71 -21 -119.5t-55 -71.5t-73 -23q-45 0 -76.5 21.5t-42.5 62.5q-19 -24 -46.5 -37.5t-60.5 -13.5q-45 0 -80.5 21t-56 58t-20.5 82t20.5 82t56 58t80.5 21q62 0 101 -44v36h77v-221q0 -39 14.5 -63.5t48.5 -24.5
q44 0 72.5 43.5t28.5 132.5q0 87 -42 158.5t-114.5 112.5t-160.5 41q-91 0 -167 -43.5t-120.5 -119.5t-44.5 -169q0 -95 45.5 -170.5t125.5 -118.5t179 -43t170 28v-32q-70 -26 -170 -26q-108 0 -195 46.5t-137 129.5t-50 186q0 99 47.5 182t131 131.5t185.5 48.5
q106 0 186 -49.5zM452.5 185.5q25.5 24.5 25.5 64.5t-25.5 64.5t-63.5 24.5t-64.5 -24.5t-26.5 -64.5t26.5 -64.5t64.5 -24.5t63.5 24.5z" />
    <glyph glyph-name="ampersand" unicode="&#x26;" horiz-adv-x="676" 
d="M538 0l-47 47q-82 -60 -201 -60q-69 0 -124 25.5t-86.5 72.5t-31.5 110q0 58 28.5 107t80.5 83q-24 29 -37 61t-13 73q0 58 29 102t78 68t107 24t108.5 -23.5t81.5 -71t31 -114.5h-93q0 58 -36.5 88.5t-91.5 30.5q-52 0 -87 -29t-35 -78q0 -30 17 -57t48 -59l221 -225
q34 62 34 154h92q0 -59 -15 -116t-46 -103l108 -110h-120zM427 111l-211 212q-38 -22 -56.5 -54.5t-18.5 -69.5q0 -56 42 -90t111 -34q82 0 133 36z" />
    <glyph glyph-name="paragraph" unicode="&#xb6;" horiz-adv-x="610" 
d="M568 621h-61v-821h-83v821h-101v-821h-83v490q-56 0 -103 27.5t-74.5 74.5t-27.5 103t27.5 103t74.5 74.5t103 27.5h83h184h61v-79z" />
    <glyph glyph-name="copyright" unicode="&#xa9;" horiz-adv-x="799" 
d="M218.5 36.5q-83.5 48.5 -132 132t-48.5 181.5t48.5 181.5t132 132t181.5 48.5t181.5 -48.5t132 -132t48.5 -181.5t-48.5 -181.5t-132 -132t-181.5 -48.5t-181.5 48.5zM564.5 62.5q75.5 44.5 120 121t44.5 166.5t-44.5 166.5t-120 121t-164.5 44.5q-90 0 -165.5 -44.5
t-120 -121t-44.5 -166.5t44.5 -166.5t120 -121t165.5 -44.5q89 0 164.5 44.5zM304 183q-45 26 -71 70t-26 97t26 97t71 70t99 26q68 0 120 -41t65 -105h-84q-9 32 -37.5 50t-64.5 18q-51 0 -82.5 -34t-31.5 -81t31.5 -81t82.5 -34q36 0 64.5 18t37.5 51h84
q-13 -65 -64.5 -106t-120.5 -41q-54 0 -99 26z" />
    <glyph glyph-name="registered" unicode="&#xae;" horiz-adv-x="799" 
d="M581.5 663.5q83.5 -48.5 132 -132t48.5 -181.5t-48.5 -181.5t-132 -132t-181.5 -48.5t-181.5 48.5t-132 132t-48.5 181.5t48.5 181.5t132 132t181.5 48.5t181.5 -48.5zM564.5 62.5q75.5 44.5 120 121t44.5 166.5t-44.5 166.5t-120 121t-164.5 44.5q-90 0 -165.5 -44.5
t-120 -121t-44.5 -166.5t44.5 -166.5t120 -121t165.5 -44.5q89 0 164.5 44.5zM533 346q-17 -29 -49 -44l103 -137h-86l-92 122h-51v-122h-77v370h77h52q64 0 102 -35t38 -86q0 -39 -17 -68zM358 357h48q32 0 49.5 14.5t17.5 38.5q0 25 -17.5 39t-49.5 14h-48v-106z" />
    <glyph glyph-name="section" unicode="&#xa7;" horiz-adv-x="522" 
d="M457 198.5q-17 -32.5 -48 -56.5q42 -44 42 -103q0 -69 -51.5 -110t-135.5 -41q-86 0 -140 45t-54 127h86q0 -49 30 -70.5t78 -21.5q46 0 73 18t27 53q0 34 -31 56t-95 51l-35 16q-73 34 -114 72.5t-41 99.5q0 39 18.5 71.5t50.5 55.5q-39 42 -39 102q0 67 50.5 108.5
t128.5 41.5q79 0 131.5 -45.5t52.5 -127.5h-86q0 48 -28.5 70t-69.5 22q-40 0 -66 -17.5t-26 -51.5q0 -27 20.5 -47t46 -33.5t85.5 -40.5q75 -35 116 -73t41 -100q0 -38 -17 -70.5zM161.5 280q26.5 -23 77.5 -46q9 -4 17 -7.5t15 -6.5q47 -19 75 -34q41 32 41 78
q0 35 -27.5 58.5t-81.5 47.5q-7 3 -13.5 6t-12.5 5q-50 22 -74 34q-43 -30 -43 -78q0 -34 26.5 -57z" />
    <glyph glyph-name="trademark" unicode="&#x2122;" horiz-adv-x="465" 
d="M196 657h-56v-157h-46v157h-56v43h158v-43zM427 500h-47v120l-39 -77h-36l-41 79v-122h-46v200h46h7l52 -106l52 106h52v-200z" />
    <glyph glyph-name="degree" unicode="&#xb0;" horiz-adv-x="391" 
d="M115 521q-36 21 -56.5 56.5t-20.5 77.5q0 43 20.5 78.5t56.5 56t81 20.5t81 -20.5t56.5 -56t20.5 -78.5q0 -42 -20 -77.5t-56.5 -56.5t-81.5 -21t-81 21zM253 598q22 23 22 57t-22 57t-57 23t-57 -23t-22 -57t22 -57t57 -23t57 23z" />
    <glyph glyph-name="estimated" unicode="&#x212e;" horiz-adv-x="810" 
d="M597.5 662q84.5 -48 131 -130.5t46.5 -181.5q0 -15 -15 -15h-560q-15 0 -15 -15v-192q0 -11 7 -19q84 -89 233 -89q73 0 131.5 25t99.5 72q8 9 18 9h37q6 0 10 -2.5t4 -6.5q0 -5 -5 -10q-52 -55 -127 -86t-168 -31q-117 0 -205.5 48t-136.5 130t-48 182q0 99 46.5 181.5
t131 130.5t192.5 48t192.5 -48zM618 591q-41 43 -95.5 66t-117.5 23t-117.5 -23t-95.5 -66q-7 -8 -7 -19v-192q0 -15 15 -15h410q15 0 15 15v192q0 11 -7 19z" />
    <glyph glyph-name="uni2116" unicode="&#x2116;" horiz-adv-x="979" 
d="M702 423.5q-36 20.5 -56.5 56t-20.5 78.5q0 42 20.5 77.5t56.5 56.5t81 21t81 -21t56.5 -56.5t20.5 -77.5q0 -43 -20 -78.5t-56 -56t-82 -20.5q-45 0 -81 20.5zM560 700v-700h-75l-317 518v-518h-93v700h75l318 -517v517h92zM840 501q22 23 22 57t-22 57t-57 23t-57 -23
t-22 -57t22 -57t57 -23t57 23zM638 338h292v-83h-292v83z" />
    <glyph glyph-name="asciicircum" unicode="^" horiz-adv-x="520" 
d="M480 390h-98l-122 212l-122 -212h-98l181 310h78z" />
    <glyph glyph-name="dagger" unicode="&#x2020;" horiz-adv-x="480" 
d="M425 461h-141v-461h-87v461h-142v84h142v155h87v-155h141v-84z" />
    <glyph glyph-name="daggerdbl" unicode="&#x2021;" horiz-adv-x="480" 
d="M284 461v-222h141v-84h-141v-155h-87v155h-142v84h142v222h-142v84h142v155h87v-155h141v-84h-141z" />
    <glyph glyph-name="uni0308" unicode="&#x308;" horiz-adv-x="0" 
d="M-308 666h93v-92h-93v92zM-113 666h93v-92h-93v92z" />
    <glyph glyph-name="uni0307" unicode="&#x307;" horiz-adv-x="0" 
d="M-129 678h105v-105h-105v105z" />
    <glyph glyph-name="gravecomb" unicode="&#x300;" horiz-adv-x="0" 
d="M-100 700h-105l101 -132h84z" />
    <glyph glyph-name="acutecomb" unicode="&#x301;" horiz-adv-x="0" 
d="M-121 568l101 132h-105l-80 -132h84z" />
    <glyph glyph-name="uni030B" unicode="&#x30b;" horiz-adv-x="0" 
d="M-262 565l79 133h-94l-73 -133h88zM-109 565l89 133h-94l-83 -133h88z" />
    <glyph glyph-name="uni0302" unicode="&#x302;" horiz-adv-x="0" 
d="M-113 565l-61 81l-61 -81h-93l106 135h89h7l106 -135h-93z" />
    <glyph glyph-name="uni030C" unicode="&#x30c;" horiz-adv-x="0" 
d="M-20 700l-106 -135h-89h-7l-106 135h93l61 -81l61 81h93z" />
    <glyph glyph-name="uni0306" unicode="&#x306;" horiz-adv-x="0" 
d="M-278 592.5q-40 35.5 -40 99.5h81q0 -34 17 -49.5t51 -15.5t51 15.5t17 49.5h81q0 -64 -39.5 -99.5t-109.5 -35.5q-69 0 -109 35.5z" />
    <glyph glyph-name="uni030A" unicode="&#x30a;" horiz-adv-x="0" 
d="M-215.5 576.5q-31.5 30.5 -31.5 76.5t31.5 76t81.5 30t81.5 -30t31.5 -76t-31.5 -76.5t-81.5 -30.5t-81.5 30.5zM-98.5 620q12.5 13 12.5 33t-12.5 32.5t-35.5 12.5q-22 0 -34.5 -13t-12.5 -32q0 -20 12.5 -33t34.5 -13q23 0 35.5 13z" />
    <glyph glyph-name="tildecomb" unicode="&#x303;" horiz-adv-x="0" 
d="M-295 668.5q22 31.5 58 31.5q35 0 74 -28q22 -15 33 -21.5t19 -6.5q11 0 15.5 12t4.5 39h73q0 -64 -21.5 -95t-57.5 -31q-35 0 -75 28q-39 28 -52 28q-20 0 -20 -52h-73q0 64 22 95.5z" />
    <glyph glyph-name="uni0304" unicode="&#x304;" horiz-adv-x="0" 
d="M-290 648h270v-73h-270v73z" />
    <glyph glyph-name="uni0312" unicode="&#x312;" horiz-adv-x="0" 
d="M-115 785h85l10 180h-65z" />
    <glyph glyph-name="uni0326" unicode="&#x326;" horiz-adv-x="0" 
d="M-20 -68h-85l-10 -180h65z" />
    <glyph glyph-name="uni0327" unicode="&#x327;" horiz-adv-x="0" 
d="M-43.5 -74q23.5 -21 23.5 -51q0 -92 -167 -92q-28 0 -43 1v66q32 -2 44 -2q45 0 67.5 9t22.5 24q0 17 -21 25.5t-62 10.5v83h74v-45q38 -8 61.5 -29z" />
    <glyph glyph-name="uni0328" unicode="&#x328;" horiz-adv-x="0" 
d="M-152 -191.5q-23 21.5 -23 58.5q0 30 18 64.5t52 68.5h83q-31 -30 -49.5 -60.5t-18.5 -53.5q-1 -30 31 -30q20 0 37 8v-64q-33 -13 -66 -13q-41 0 -64 21.5z" />
    <glyph glyph-name="acute" unicode="&#xb4;" horiz-adv-x="225" 
d="M104 568l101 132h-105l-80 -132h84z" />
    <glyph glyph-name="breve" unicode="&#x2d8;" horiz-adv-x="338" 
d="M60 592.5q-40 35.5 -40 99.5h81q0 -34 17 -49.5t51 -15.5t51 15.5t17 49.5h81q0 -64 -39.5 -99.5t-109.5 -35.5q-69 0 -109 35.5z" />
    <glyph glyph-name="caron" unicode="&#x2c7;" horiz-adv-x="348" 
d="M328 700l-106 -135h-89h-7l-106 135h93l61 -81l61 81h93z" />
    <glyph glyph-name="cedilla" unicode="&#xb8;" horiz-adv-x="250" 
d="M206.5 -74q23.5 -21 23.5 -51q0 -92 -167 -92q-28 0 -43 1v66q32 -2 44 -2q45 0 67.5 9t22.5 24q0 17 -21 25.5t-62 10.5v83h74v-45q38 -8 61.5 -29z" />
    <glyph glyph-name="circumflex" unicode="&#x2c6;" horiz-adv-x="348" 
d="M235 565l-61 81l-61 -81h-93l106 135h89h7l106 -135h-93z" />
    <glyph glyph-name="dieresis" unicode="&#xa8;" horiz-adv-x="328" 
d="M20 666h93v-92h-93v92zM215 666h93v-92h-93v92z" />
    <glyph glyph-name="dotaccent" unicode="&#x2d9;" horiz-adv-x="145" 
d="M20 678h105v-105h-105v105z" />
    <glyph glyph-name="grave" unicode="`" horiz-adv-x="225" 
d="M125 700h-105l101 -132h84z" />
    <glyph glyph-name="hungarumlaut" unicode="&#x2dd;" horiz-adv-x="370" 
d="M108 565l79 133h-94l-73 -133h88zM261 565l89 133h-94l-83 -133h88z" />
    <glyph glyph-name="macron" unicode="&#xaf;" horiz-adv-x="310" 
d="M20 648h270v-73h-270v73z" />
    <glyph glyph-name="ogonek" unicode="&#x2db;" horiz-adv-x="193" 
d="M43 -191.5q-23 21.5 -23 58.5q0 30 18 64.5t52 68.5h83q-31 -30 -49.5 -60.5t-18.5 -53.5q-1 -30 31 -30q20 0 37 8v-64q-33 -13 -66 -13q-41 0 -64 21.5z" />
    <glyph glyph-name="ring" unicode="&#x2da;" horiz-adv-x="266" 
d="M51.5 576.5q-31.5 30.5 -31.5 76.5t31.5 76t81.5 30t81.5 -30t31.5 -76t-31.5 -76.5t-81.5 -30.5t-81.5 30.5zM168.5 620q12.5 13 12.5 33t-12.5 32.5t-35.5 12.5q-22 0 -34.5 -12.5t-12.5 -32.5t12.5 -33t34.5 -13q23 0 35.5 13z" />
    <glyph glyph-name="tilde" unicode="&#x2dc;" horiz-adv-x="340" 
d="M42 668.5q22 31.5 58 31.5t75 -28q16 -11 30 -19.5t21 -8.5q11 0 15.5 12t4.5 39h74q0 -63 -22 -94.5t-57 -31.5q-36 0 -75 28q-38 28 -52 28q-20 0 -20 -52h-74q0 64 22 95.5z" />
    <glyph glyph-name="brevecy" horiz-adv-x="320" 
d="M25 651h270v-76h-270v76z" />
    </font>
</defs>
</svg>
