<?xml version="1.0" standalone="no"?>
<!DOCTYPE svg PUBLIC "-//W3C//DTD SVG 1.1//EN" "http://www.w3.org/Graphics/SVG/1.1/DTD/svg11.dtd" >
<svg xmlns="http://www.w3.org/2000/svg" xmlns:xlink="http://www.w3.org/1999/xlink" version="1.1">
<metadata>
Created by FontForge 20190801 at Thu Nov  5 20:02:31 2015
 By Jimmy Wärting
Copyright (c) 2015 by Radomir Tinkov. All rights reserved.
</metadata>
<defs>
<font id="Qanelas-Regular" horiz-adv-x="630" >
  <font-face 
    font-family="Qanelas"
    font-weight="400"
    font-stretch="normal"
    units-per-em="1000"
    panose-1="0 0 5 0 0 0 0 0 0 0"
    ascent="800"
    descent="-200"
    x-height="500"
    cap-height="700"
    bbox="-317 -240 1049 960"
    underline-thickness="50"
    underline-position="-100"
    unicode-range="U+0020-FB02"
  />
<missing-glyph horiz-adv-x="500" 
d="M410 -200h-317v1000h317v-1000zM168 733v-33h65v-37h-66v-33h166v33h-66v37h66v33h-165zM167 604v-104h166v34h-66v70h-100zM233 534h-33v36h33v-36zM167 473v-33h66v-37h-66v-33h100v70h66v33h-166zM300 413v-66h-133v-34h166v100h-33zM233 291v-56h34v23h33v-47h-100
v80h-33v-113h166v113h-100zM167 118v-113h166v113h-166zM300 38h-100v47h100v-47zM167 -18v-33h70l-70 -47v-33h166v33h-102l70 47h32v33h-166z" />
    <glyph glyph-name="f_f" unicode="ff" horiz-adv-x="585" 
d="M562 659q-61 0 -91 -31.5t-30 -97.5v-30h144v-64h-144v-436h-66v436h-85h-119v-436h-66v436h-85v64h85v20q0 92 48 142.5t138 50.5q16 0 24 -1v-64q-8 1 -23 1q-61 0 -91 -31.5t-30 -97.5v-20h144h60v30q0 92 48 142.5t138 50.5q16 0 24 -1v-64q-8 1 -23 1z" />
    <glyph glyph-name="f_f_i" unicode="ffi" horiz-adv-x="781" 
d="M711 0h-66v436h-204v-436h-66v436h-85h-119v-436h-66v436h-85v64h85v20q0 92 48 142.5t138 50.5q16 0 24 -1v-64q-8 1 -23 1q-61 0 -91 -31.5t-30 -97.5v-20h144h60v30q0 96 53.5 144t156.5 48q42 0 96 -12v-60q-47 8 -96 8q-75 0 -109.5 -29t-34.5 -99v-30h270v-500z
" />
    <glyph glyph-name="f_f_l" unicode="ffl" horiz-adv-x="781" 
d="M711 710v-710h-66v659q-31 3 -60 3q-74 0 -109 -30.5t-35 -101.5v-30h114v-64h-114v-436h-66v436h-85h-119v-436h-66v436h-85v64h85v20q0 92 48 142.5t138 50.5q16 0 24 -1v-64q-8 1 -23 1q-61 0 -91 -31.5t-30 -97.5v-20h144h60v30q0 96 53.5 144t156.5 48q58 0 126 -12
z" />
    <glyph glyph-name="fi" unicode="fi" horiz-adv-x="511" 
d="M441 0h-66v436h-204v-436h-66v436h-85v64h85v20q0 96 53.5 144t156.5 48q42 0 96 -12v-60q-47 8 -96 8q-75 0 -109.5 -29t-34.5 -99v-20h270v-500z" />
    <glyph glyph-name="fl" unicode="fl" horiz-adv-x="511" 
d="M441 700v-700h-66v649q-32 3 -60 3q-74 0 -109 -30.5t-35 -101.5v-20h114v-64h-114v-436h-66v436h-85v64h85v20q0 96 53.5 144t156.5 48q58 0 126 -12z" />
    <glyph glyph-name=".notdef" horiz-adv-x="500" 
d="M410 -200h-317v1000h317v-1000zM168 733v-33h65v-37h-66v-33h166v33h-66v37h66v33h-165zM167 604v-104h166v34h-66v70h-100zM233 534h-33v36h33v-36zM167 473v-33h66v-37h-66v-33h100v70h66v33h-166zM300 413v-66h-133v-34h166v100h-33zM233 291v-56h34v23h33v-47h-100
v80h-33v-113h166v113h-100zM167 118v-113h166v113h-166zM300 38h-100v47h100v-47zM167 -18v-33h70l-70 -47v-33h166v33h-102l70 47h32v33h-166z" />
    <glyph glyph-name="space" unicode=" " horiz-adv-x="250" 
 />
    <glyph glyph-name="A" unicode="A" 
d="M481 172h-332l-65 -172h-74l269 700h72l269 -700h-74zM456 238l-141 375l-141 -375h282z" />
    <glyph glyph-name="Aacute" unicode="&#xc1;" 
d="M481 172h-332l-65 -172h-74l269 700h72l269 -700h-74zM456 238l-141 375l-141 -375h282zM329 770l96 130h-80l-80 -130h64z" />
    <glyph glyph-name="Abreve" unicode="&#x102;" 
d="M481 172h-332l-65 -172h-74l269 700h72l269 -700h-74zM456 238l-141 375l-141 -375h282zM213 796.5q-38 34.5 -38 95.5h64q0 -38 19 -55t57 -17t57 17t19 55h64q0 -62 -37.5 -96t-102.5 -34q-64 0 -102 34.5z" />
    <glyph glyph-name="Acircumflex" unicode="&#xc2;" 
d="M481 172h-332l-65 -172h-74l269 700h72l269 -700h-74zM456 238l-141 375l-141 -375h282zM385 770l-70 87l-70 -87h-75l106 130h74h4l106 -130h-75z" />
    <glyph glyph-name="Adieresis" unicode="&#xc4;" 
d="M481 172h-332l-65 -172h-74l269 700h72l269 -700h-74zM456 238l-141 375l-141 -375h282zM175 860h80v-80h-80v80zM375 860h80v-80h-80v80z" />
    <glyph glyph-name="Agrave" unicode="&#xc0;" 
d="M481 172h-332l-65 -172h-74l269 700h72l269 -700h-74zM456 238l-141 375l-141 -375h282zM275 900h-80l96 -130h64z" />
    <glyph glyph-name="Amacron" unicode="&#x100;" 
d="M481 172h-332l-65 -172h-74l269 700h72l269 -700h-74zM456 238l-141 375l-141 -375h282zM185 838h260v-58h-260v58z" />
    <glyph glyph-name="Aogonek" unicode="&#x104;" 
d="M578 -155q21 0 42 9v-55q-27 -11 -59 -11q-39 0 -60.5 21t-21.5 55q0 31 18.5 66.5t53.5 69.5h-5l-65 172h-332l-65 -172h-74l269 700h72l269 -700q-34 -31 -55 -65t-21 -59q0 -31 34 -31zM456 238l-141 375l-141 -375h282z" />
    <glyph glyph-name="Aring" unicode="&#xc5;" 
d="M481 172h-332l-65 -172h-74l269 700h72l269 -700h-74zM456 238l-141 375l-141 -375h282zM238.5 778.5q-29.5 28.5 -29.5 71.5t29.5 71.5t76.5 28.5t76.5 -28.5t29.5 -71.5t-29.5 -71.5t-76.5 -28.5t-76.5 28.5zM353.5 814.5q13.5 13.5 13.5 35.5t-13.5 35.5t-38.5 13.5
q-24 0 -37.5 -13.5t-13.5 -35.5t13.5 -35.5t37.5 -13.5q25 0 38.5 13.5z" />
    <glyph glyph-name="Atilde" unicode="&#xc3;" 
d="M481 172h-332l-65 -172h-74l269 700h72l269 -700h-74zM456 238l-141 375l-141 -375h282zM194.5 866q19.5 29 51.5 29q33 0 70 -28q23 -17 36.5 -25t22.5 -8q11 0 16.5 13t5.5 43h58q0 -57 -19 -86t-51 -29q-33 0 -70 28q-23 17 -36.5 25t-23.5 8q-22 0 -22 -56h-58
q0 57 19.5 86z" />
    <glyph glyph-name="AE" unicode="&#xc6;" horiz-adv-x="880" 
d="M840 66v-66h-360h-30v172h-265l-105 -172h-80l145 237v1h1l283 462h51h40h315v-66h-315v-248h300v-66h-300v-254h320zM450 238v369l-225 -369h225z" />
    <glyph glyph-name="B" unicode="B" horiz-adv-x="685" 
d="M613.5 359.5q36.5 -57.5 36.5 -129.5q0 -62 -29 -115t-79.5 -84t-112.5 -31h-339h-10v700h70h209q54 0 95 -23t63.5 -62t22.5 -86q0 -46 -24 -86q61 -26 97.5 -83.5zM150 634v-174h280h15q25 28 25 69q0 45 -29.5 75t-81.5 30h-209zM503.5 88q36.5 22 56.5 59.5t20 82.5
q0 46 -19.5 83t-56 59t-84.5 22h-270v-328h269q48 0 84.5 22z" />
    <glyph glyph-name="C" unicode="C" horiz-adv-x="765" 
d="M218 36.5q-84 48.5 -131 131.5t-47 182t47 182t131 131.5t189 48.5q76 0 143.5 -29.5t115.5 -82.5t69 -120h-76q-28 73 -97 118.5t-155 45.5t-154 -39t-105.5 -106.5t-37.5 -148.5t37.5 -148.5t105.5 -106.5t154 -39t155 45.5t97 118.5h76q-21 -67 -69 -120t-115.5 -82.5
t-143.5 -29.5q-105 0 -189 48.5z" />
    <glyph glyph-name="Cacute" unicode="&#x106;" horiz-adv-x="765" 
d="M218 36.5q-84 48.5 -131 131.5t-47 182t47 182t131 131.5t189 48.5q76 0 143.5 -29.5t115.5 -82.5t69 -120h-76q-28 73 -97 118.5t-155 45.5t-154 -39t-105.5 -106.5t-37.5 -148.5t37.5 -148.5t105.5 -106.5t154 -39t155 45.5t97 118.5h76q-21 -67 -69 -120t-115.5 -82.5
t-143.5 -29.5q-105 0 -189 48.5zM421 770l96 130h-80l-80 -130h64z" />
    <glyph glyph-name="Ccaron" unicode="&#x10c;" horiz-adv-x="765" 
d="M218 36.5q-84 48.5 -131 131.5t-47 182t47 182t131 131.5t189 48.5q76 0 143.5 -29.5t115.5 -82.5t69 -120h-76q-28 73 -97 118.5t-155 45.5t-154 -39t-105.5 -106.5t-37.5 -148.5t37.5 -148.5t105.5 -106.5t154 -39t155 45.5t97 118.5h76q-21 -67 -69 -120t-115.5 -82.5
t-143.5 -29.5q-105 0 -189 48.5zM552 900l-106 -130h-74h-4l-106 130h75l70 -87l70 87h75z" />
    <glyph glyph-name="Ccedilla" unicode="&#xc7;" horiz-adv-x="765" 
d="M562 101.5q69 45.5 97 118.5h76q-30 -96 -112.5 -160t-188.5 -71v-34q43 -8 68 -29t25 -52q0 -91 -164 -91q-26 0 -41 1v54q36 -2 48 -2q49 0 74 10t25 28q0 20 -23.5 29.5t-69.5 11.5v74q-97 7 -173.5 57t-119.5 130t-43 174q0 99 47 182t131 131.5t189 48.5
q76 0 143.5 -29.5t115.5 -82.5t69 -120h-76q-28 73 -97 118.5t-155 45.5t-154 -39t-105.5 -106.5t-37.5 -148.5t37.5 -148.5t105.5 -106.5t154 -39t155 45.5z" />
    <glyph glyph-name="Cdotaccent" unicode="&#x10a;" horiz-adv-x="765" 
d="M218 36.5q-84 48.5 -131 131.5t-47 182t47 182t131 131.5t189 48.5q76 0 143.5 -29.5t115.5 -82.5t69 -120h-76q-28 73 -97 118.5t-155 45.5t-154 -39t-105.5 -106.5t-37.5 -148.5t37.5 -148.5t105.5 -106.5t154 -39t155 45.5t97 118.5h76q-21 -67 -69 -120t-115.5 -82.5
t-143.5 -29.5q-105 0 -189 48.5zM362 870h90v-90h-90v90z" />
    <glyph glyph-name="D" unicode="D" horiz-adv-x="740" 
d="M539.5 653q75.5 -47 118 -127t42.5 -176t-42.5 -176t-118 -127t-169.5 -47h-260h-30v700h70h220q94 0 169.5 -47zM506 104q60 38 93 103t33 143t-33 143t-93 103t-136 38h-220v-568h220q76 0 136 38z" />
    <glyph glyph-name="Eth" unicode="&#xd0;" horiz-adv-x="760" 
d="M559.5 653q75.5 -47 118 -127t42.5 -176t-42.5 -176t-118 -127t-169.5 -47h-260h-30v318h-70v64h70v318h70h220q94 0 169.5 -47zM526 104q60 38 93 103t33 143t-33 143t-93 103t-136 38h-220v-252h220v-64h-220v-252h220q76 0 136 38z" />
    <glyph glyph-name="Dcaron" unicode="&#x10e;" horiz-adv-x="740" 
d="M539.5 653q75.5 -47 118 -127t42.5 -176t-42.5 -176t-118 -127t-169.5 -47h-260h-30v700h70h220q94 0 169.5 -47zM506 104q60 38 93 103t33 143t-33 143t-93 103t-136 38h-220v-568h220q76 0 136 38zM495 900l-106 -130h-74h-4l-106 130h75l70 -87l70 87h75z" />
    <glyph glyph-name="Dcroat" unicode="&#x110;" horiz-adv-x="760" 
d="M559.5 653q75.5 -47 118 -127t42.5 -176t-42.5 -176t-118 -127t-169.5 -47h-260h-30v318h-70v64h70v318h70h220q94 0 169.5 -47zM526 104q60 38 93 103t33 143t-33 143t-93 103t-136 38h-220v-252h220v-64h-220v-252h220q76 0 136 38z" />
    <glyph glyph-name="E" unicode="E" horiz-adv-x="520" 
d="M480 66v-66h-370h-30v700h70h325v-66h-325v-248h300v-66h-300v-254h330z" />
    <glyph glyph-name="Eacute" unicode="&#xc9;" horiz-adv-x="520" 
d="M480 66v-66h-370h-30v700h70h325v-66h-325v-248h300v-66h-300v-254h330zM292 770l96 130h-80l-80 -130h64z" />
    <glyph glyph-name="Ecaron" unicode="&#x11a;" horiz-adv-x="520" 
d="M480 66v-66h-370h-30v700h70h325v-66h-325v-248h300v-66h-300v-254h330zM423 900l-106 -130h-74h-4l-106 130h75l70 -87l70 87h75z" />
    <glyph glyph-name="Ecircumflex" unicode="&#xca;" horiz-adv-x="520" 
d="M480 66v-66h-370h-30v700h70h325v-66h-325v-248h300v-66h-300v-254h330zM348 770l-70 87l-70 -87h-75l106 130h74h4l106 -130h-75z" />
    <glyph glyph-name="Edieresis" unicode="&#xcb;" horiz-adv-x="520" 
d="M480 66v-66h-370h-30v700h70h325v-66h-325v-248h300v-66h-300v-254h330zM138 860h80v-80h-80v80zM338 860h80v-80h-80v80z" />
    <glyph glyph-name="Edotaccent" unicode="&#x116;" horiz-adv-x="520" 
d="M480 66v-66h-370h-30v700h70h325v-66h-325v-248h300v-66h-300v-254h330zM233 870h90v-90h-90v90z" />
    <glyph glyph-name="Egrave" unicode="&#xc8;" horiz-adv-x="520" 
d="M480 66v-66h-370h-30v700h70h325v-66h-325v-248h300v-66h-300v-254h330zM238 900h-80l96 -130h64z" />
    <glyph glyph-name="Emacron" unicode="&#x112;" horiz-adv-x="520" 
d="M480 66v-66h-370h-30v700h70h325v-66h-325v-248h300v-66h-300v-254h330zM148 838h260v-58h-260v58z" />
    <glyph glyph-name="Eogonek" unicode="&#x118;" horiz-adv-x="520" 
d="M480 66v-66h-370h-30v700h70h325v-66h-325v-248h300v-66h-300v-254h330zM360.5 -191q-21.5 21 -21.5 55q0 31 18.5 66.5t53.5 69.5h69q-34 -31 -55 -65t-21 -59q0 -31 34 -31q21 0 42 9v-55q-27 -11 -59 -11q-39 0 -60.5 21z" />
    <glyph glyph-name="F" unicode="F" horiz-adv-x="495" 
d="M150 634v-278h310v-66h-310v-290h-70v700h70h325v-66h-325z" />
    <glyph glyph-name="G" unicode="G" horiz-adv-x="795" 
d="M420 353h310v-66v-287h-70v108q-39 -59 -108 -89.5t-150 -30.5q-103 0 -185.5 48.5t-129.5 131.5t-47 182t47 182t129.5 131.5t185.5 48.5q76 0 143.5 -29.5t115.5 -82.5t69 -120h-76q-28 73 -97 118.5t-155 45.5q-84 0 -150.5 -39t-104 -106.5t-37.5 -148.5t37.5 -148.5
t104 -106.5t150.5 -39q71 0 129.5 25t93.5 73.5t35 115.5v17h-240v66z" />
    <glyph glyph-name="Gbreve" unicode="&#x11e;" horiz-adv-x="795" 
d="M420 353h310v-66v-287h-70v108q-39 -59 -108 -89.5t-150 -30.5q-103 0 -185.5 48.5t-129.5 131.5t-47 182t47 182t129.5 131.5t185.5 48.5q76 0 143.5 -29.5t115.5 -82.5t69 -120h-76q-28 73 -97 118.5t-155 45.5q-84 0 -150.5 -39t-104 -106.5t-37.5 -148.5t37.5 -148.5
t104 -106.5t150.5 -39q71 0 129.5 25t93.5 73.5t35 115.5v17h-240v66zM290 796.5q-38 34.5 -38 95.5h64q0 -38 19 -55t57 -17t57 17t19 55h64q0 -62 -37.5 -96t-102.5 -34q-64 0 -102 34.5z" />
    <glyph glyph-name="Gcommaaccent" unicode="&#x122;" horiz-adv-x="795" 
d="M420 353h310v-66v-287h-70v108q-39 -59 -108 -89.5t-150 -30.5q-103 0 -185.5 48.5t-129.5 131.5t-47 182t47 182t129.5 131.5t185.5 48.5q76 0 143.5 -29.5t115.5 -82.5t69 -120h-76q-28 73 -97 118.5t-155 45.5q-84 0 -150.5 -39t-104 -106.5t-37.5 -148.5t37.5 -148.5
t104 -106.5t150.5 -39q71 0 129.5 25t93.5 73.5t35 115.5v17h-240v66zM461 -70h-66l-10 -170h46z" />
    <glyph glyph-name="Gdotaccent" unicode="&#x120;" horiz-adv-x="795" 
d="M420 353h310v-66v-287h-70v108q-39 -59 -108 -89.5t-150 -30.5q-103 0 -185.5 48.5t-129.5 131.5t-47 182t47 182t129.5 131.5t185.5 48.5q76 0 143.5 -29.5t115.5 -82.5t69 -120h-76q-28 73 -97 118.5t-155 45.5q-84 0 -150.5 -39t-104 -106.5t-37.5 -148.5t37.5 -148.5
t104 -106.5t150.5 -39q71 0 129.5 25t93.5 73.5t35 115.5v17h-240v66zM347 870h90v-90h-90v90z" />
    <glyph glyph-name="H" unicode="H" 
d="M550 700v-700h-70v327h-330v-327h-70v700h70v-307h330v307h70z" />
    <glyph glyph-name="Hbar" unicode="&#x126;" horiz-adv-x="680" 
d="M640 512h-65v-512h-70v327h-330v-327h-70v512h-65v56h65v132h70v-132h330v132h70v-132h65v-56zM505 512h-330v-119h330v119z" />
    <glyph glyph-name="I" unicode="I" horiz-adv-x="230" 
d="M150 700v-700h-70v700h70z" />
    <glyph glyph-name="Iacute" unicode="&#xcd;" horiz-adv-x="230" 
d="M150 700v-700h-70v700h70zM129 770l96 130h-80l-80 -130h64z" />
    <glyph glyph-name="Icircumflex" unicode="&#xce;" horiz-adv-x="230" 
d="M150 700v-700h-70v700h70zM185 770l-70 87l-70 -87h-75l106 130h74h4l106 -130h-75z" />
    <glyph glyph-name="Idieresis" unicode="&#xcf;" horiz-adv-x="230" 
d="M150 700v-700h-70v700h70zM-25 860h80v-80h-80v80zM175 860h80v-80h-80v80z" />
    <glyph glyph-name="Idotaccent" unicode="&#x130;" horiz-adv-x="230" 
d="M150 700v-700h-70v700h70zM70 870h90v-90h-90v90z" />
    <glyph glyph-name="Igrave" unicode="&#xcc;" horiz-adv-x="230" 
d="M150 700v-700h-70v700h70zM75 900h-80l96 -130h64z" />
    <glyph glyph-name="Imacron" unicode="&#x12a;" horiz-adv-x="230" 
d="M150 700v-700h-70v700h70zM-15 838h260v-58h-260v58z" />
    <glyph glyph-name="Iogonek" unicode="&#x12e;" horiz-adv-x="230" 
d="M181 -146v-55q-27 -11 -59 -11q-39 0 -60.5 21t-21.5 55q0 31 11 67t29 70v699h70v-700q-24 -45 -34.5 -70t-10.5 -54q0 -31 34 -31q21 0 42 9z" />
    <glyph glyph-name="J" unicode="J" horiz-adv-x="530" 
d="M131 11.5q-50 23.5 -80.5 71t-30.5 115.5v10h70v-10q0 -72 42 -107t108 -35t108 35t42 107v502h70v-502q0 -68 -30.5 -115.5t-80.5 -71t-109 -23.5t-109 23.5z" />
    <glyph glyph-name="K" unicode="K" horiz-adv-x="580" 
d="M478 0l-328 339v-339h-70v700h70v-320l318 320h92l-336 -340l346 -360h-92z" />
    <glyph glyph-name="Kcommaaccent" unicode="&#x136;" horiz-adv-x="580" 
d="M478 0l-328 339v-339h-70v700h70v-320l318 320h92l-336 -340l346 -360h-92zM341 -70h-66l-10 -170h46z" />
    <glyph glyph-name="L" unicode="L" horiz-adv-x="490" 
d="M470 66v-66h-390v700h70v-634h320z" />
    <glyph glyph-name="Lacute" unicode="&#x139;" horiz-adv-x="490" 
d="M470 66v-66h-390v700h70v-634h320zM146 770l96 130h-80l-80 -130h64z" />
    <glyph glyph-name="Lcaron" unicode="&#x13d;" horiz-adv-x="490" 
d="M470 66v-66h-390v700h70v-634h320zM302 530h-46l10 170h66z" />
    <glyph glyph-name="Lcommaaccent" unicode="&#x13b;" horiz-adv-x="490" 
d="M470 66v-66h-390v700h70v-634h320zM319 -70h-66l-10 -170h46z" />
    <glyph glyph-name="Lslash" unicode="&#x141;" horiz-adv-x="510" 
d="M490 66v-66h-390v248l-60 -39v63l60 39v389h70v-343l170 112v-63l-170 -112v-228h320z" />
    <glyph glyph-name="M" unicode="M" horiz-adv-x="800" 
d="M720 0h-70v582l-215 -461h-70l-215 461v-582h-70v700h70h18l232 -500l232 500h88v-700z" />
    <glyph glyph-name="N" unicode="N" 
d="M550 700v-700h-60l-340 560v-560h-70v700h60l340 -560v560h70z" />
    <glyph glyph-name="Nacute" unicode="&#x143;" 
d="M550 700v-700h-60l-340 560v-560h-70v700h60l340 -560v560h70zM329 770l96 130h-80l-80 -130h64z" />
    <glyph glyph-name="Ncaron" unicode="&#x147;" 
d="M550 700v-700h-60l-340 560v-560h-70v700h60l340 -560v560h70zM460 900l-106 -130h-74h-4l-106 130h75l70 -87l70 87h75z" />
    <glyph glyph-name="Ncommaaccent" unicode="&#x145;" 
d="M550 700v-700h-60l-340 560v-560h-70v700h60l340 -560v560h70zM349 -70h-66l-10 -170h46z" />
    <glyph glyph-name="Eng" unicode="&#x14a;" 
d="M550 700v-700q0 -108 -57.5 -154t-152.5 -46v68q69 0 104.5 27t35.5 105v16l-330 544v-560h-70v700h60l340 -560v560h70z" />
    <glyph glyph-name="Ntilde" unicode="&#xd1;" 
d="M550 700v-700h-60l-340 560v-560h-70v700h60l340 -560v560h70zM194.5 866q19.5 29 51.5 29q33 0 70 -28q23 -17 36.5 -25t22.5 -8q11 0 16.5 13t5.5 43h58q0 -57 -19 -86t-51 -29q-33 0 -70 28q-23 17 -36.5 25t-23.5 8q-22 0 -22 -56h-58q0 57 19.5 86z" />
    <glyph glyph-name="O" unicode="O" horiz-adv-x="804" 
d="M219 36.5q-83 48.5 -131 131.5t-48 182t48 182t131 131.5t183 48.5t183 -48.5t131 -131.5t48 -182t-48 -182t-131 -131.5t-183 -48.5t-183 48.5zM550 95.5q67 39.5 105.5 106.5t38.5 148t-38.5 148t-105.5 106.5t-148 39.5t-148 -39.5t-105.5 -106.5t-38.5 -148
t38.5 -148t105.5 -106.5t148 -39.5t148 39.5z" />
    <glyph glyph-name="Oacute" unicode="&#xd3;" horiz-adv-x="804" 
d="M219 36.5q-83 48.5 -131 131.5t-48 182t48 182t131 131.5t183 48.5t183 -48.5t131 -131.5t48 -182t-48 -182t-131 -131.5t-183 -48.5t-183 48.5zM550 95.5q67 39.5 105.5 106.5t38.5 148t-38.5 148t-105.5 106.5t-148 39.5t-148 -39.5t-105.5 -106.5t-38.5 -148
t38.5 -148t105.5 -106.5t148 -39.5t148 39.5zM416 770l96 130h-80l-80 -130h64z" />
    <glyph glyph-name="Ocircumflex" unicode="&#xd4;" horiz-adv-x="804" 
d="M219 36.5q-83 48.5 -131 131.5t-48 182t48 182t131 131.5t183 48.5t183 -48.5t131 -131.5t48 -182t-48 -182t-131 -131.5t-183 -48.5t-183 48.5zM550 95.5q67 39.5 105.5 106.5t38.5 148t-38.5 148t-105.5 106.5t-148 39.5t-148 -39.5t-105.5 -106.5t-38.5 -148
t38.5 -148t105.5 -106.5t148 -39.5t148 39.5zM472 770l-70 87l-70 -87h-75l106 130h74h4l106 -130h-75z" />
    <glyph glyph-name="Odieresis" unicode="&#xd6;" horiz-adv-x="804" 
d="M219 36.5q-83 48.5 -131 131.5t-48 182t48 182t131 131.5t183 48.5t183 -48.5t131 -131.5t48 -182t-48 -182t-131 -131.5t-183 -48.5t-183 48.5zM550 95.5q67 39.5 105.5 106.5t38.5 148t-38.5 148t-105.5 106.5t-148 39.5t-148 -39.5t-105.5 -106.5t-38.5 -148
t38.5 -148t105.5 -106.5t148 -39.5t148 39.5zM262 860h80v-80h-80v80zM462 860h80v-80h-80v80z" />
    <glyph glyph-name="Ograve" unicode="&#xd2;" horiz-adv-x="804" 
d="M219 36.5q-83 48.5 -131 131.5t-48 182t48 182t131 131.5t183 48.5t183 -48.5t131 -131.5t48 -182t-48 -182t-131 -131.5t-183 -48.5t-183 48.5zM550 95.5q67 39.5 105.5 106.5t38.5 148t-38.5 148t-105.5 106.5t-148 39.5t-148 -39.5t-105.5 -106.5t-38.5 -148
t38.5 -148t105.5 -106.5t148 -39.5t148 39.5zM362 900h-80l96 -130h64z" />
    <glyph glyph-name="Ohungarumlaut" unicode="&#x150;" horiz-adv-x="804" 
d="M219 36.5q-83 48.5 -131 131.5t-48 182t48 182t131 131.5t183 48.5t183 -48.5t131 -131.5t48 -182t-48 -182t-131 -131.5t-183 -48.5t-183 48.5zM550 95.5q67 39.5 105.5 106.5t38.5 148t-38.5 148t-105.5 106.5t-148 39.5t-148 -39.5t-105.5 -106.5t-38.5 -148
t38.5 -148t105.5 -106.5t148 -39.5t148 39.5zM350 770l76 130h-74l-70 -130h68zM493 770l86 130h-74l-80 -130h68z" />
    <glyph glyph-name="Omacron" unicode="&#x14c;" horiz-adv-x="804" 
d="M219 36.5q-83 48.5 -131 131.5t-48 182t48 182t131 131.5t183 48.5t183 -48.5t131 -131.5t48 -182t-48 -182t-131 -131.5t-183 -48.5t-183 48.5zM550 95.5q67 39.5 105.5 106.5t38.5 148t-38.5 148t-105.5 106.5t-148 39.5t-148 -39.5t-105.5 -106.5t-38.5 -148
t38.5 -148t105.5 -106.5t148 -39.5t148 39.5zM272 838h260v-58h-260v58z" />
    <glyph glyph-name="Oslash" unicode="&#xd8;" horiz-adv-x="814" 
d="M745.5 491.5q28.5 -67.5 28.5 -141.5q0 -99 -48 -182t-131 -131.5t-183 -48.5q-60 0 -114.5 18t-99.5 51l-48 -57h-70l77 91q-50 50 -78.5 117.5t-28.5 141.5q0 99 48 182t131 131.5t183 48.5q60 0 114.5 -18t99.5 -51l48 57h70l-77 -91q50 -50 78.5 -117.5zM141.5 237.5
q21.5 -52.5 60.5 -93.5l380 447q-77 53 -170 53q-81 0 -148 -39.5t-105.5 -106.5t-38.5 -148q0 -60 21.5 -112.5zM560 95.5q67 39.5 105.5 106.5t38.5 148q0 60 -21.5 112.5t-60.5 93.5l-380 -447q77 -53 170 -53q81 0 148 39.5z" />
    <glyph glyph-name="Otilde" unicode="&#xd5;" horiz-adv-x="804" 
d="M219 36.5q-83 48.5 -131 131.5t-48 182t48 182t131 131.5t183 48.5t183 -48.5t131 -131.5t48 -182t-48 -182t-131 -131.5t-183 -48.5t-183 48.5zM550 95.5q67 39.5 105.5 106.5t38.5 148t-38.5 148t-105.5 106.5t-148 39.5t-148 -39.5t-105.5 -106.5t-38.5 -148
t38.5 -148t105.5 -106.5t148 -39.5t148 39.5zM281.5 866q19.5 29 51.5 29q33 0 70 -28q23 -17 36.5 -25t22.5 -8q11 0 16.5 13t5.5 43h58q0 -57 -19 -86t-51 -29q-33 0 -70 28q-23 17 -36.5 25t-23.5 8q-22 0 -22 -56h-58q0 57 19.5 86z" />
    <glyph glyph-name="OE" unicode="&#x152;" horiz-adv-x="915" 
d="M875 66v-66h-360h-30q-43 -12 -93 -12q-100 0 -180.5 48.5t-126 131.5t-45.5 182t45.5 182t126 131.5t180.5 48.5q49 0 93 -12h70h315v-66h-315v-248h300v-66h-300v-254h320zM485 629q-43 15 -93 15q-81 0 -145.5 -39t-100.5 -106.5t-36 -148.5t36 -148.5t100.5 -106.5
t145.5 -39q49 0 93 15v558z" />
    <glyph glyph-name="P" unicode="P" horiz-adv-x="580" 
d="M435.5 672q48.5 -28 76.5 -76.5t28 -105.5t-28.5 -105t-76.5 -76.5t-105 -28.5h-180v-280h-70v700h70h180q57 0 105.5 -28zM400 365.5q32 19.5 51 52.5t19 72t-19 72t-51 52.5t-70 19.5h-180v-288h180q38 0 70 19.5z" />
    <glyph glyph-name="Thorn" unicode="&#xde;" horiz-adv-x="580" 
d="M435.5 532q48.5 -28 76.5 -76.5t28 -105.5t-28.5 -105t-76.5 -76.5t-105 -28.5h-180v-140h-70v700h70v-140h180q57 0 105.5 -28zM400 225.5q32 19.5 51 52.5t19 72t-19 72t-51 52.5t-70 19.5h-180v-288h180q38 0 70 19.5z" />
    <glyph glyph-name="Q" unicode="Q" horiz-adv-x="809" 
d="M736.5 211.5q-27.5 -65.5 -76.5 -115.5l93 -106l-50 -40l-92 104q-95 -66 -209 -66q-98 0 -181.5 48.5t-132 132t-48.5 181.5t48.5 181.5t132 132t181.5 48.5t181.5 -48.5t132 -132t48.5 -181.5q0 -73 -27.5 -138.5zM566 106l-100 113l50 40l98 -111q38 40 59 92t21 110
q0 80 -39 147.5t-106 107t-147 39.5t-147 -39.5t-106 -107t-39 -147.5t39 -147.5t106 -107t147 -39.5q91 0 164 50z" />
    <glyph glyph-name="R" unicode="R" 
d="M306 280h-156v-280h-70v700h70h180q57 0 105.5 -28t76.5 -76.5t28 -105.5q0 -71 -43.5 -127.5t-110.5 -74.5l254 -288h-88zM150 346h180q38 0 70 19.5t51 52.5t19 72t-19 72t-51 52.5t-70 19.5h-180v-288z" />
    <glyph glyph-name="Racute" unicode="&#x154;" 
d="M306 280h-156v-280h-70v700h70h180q57 0 105.5 -28t76.5 -76.5t28 -105.5q0 -71 -43.5 -127.5t-110.5 -74.5l254 -288h-88zM150 346h180q38 0 70 19.5t51 52.5t19 72t-19 72t-51 52.5t-70 19.5h-180v-288zM294 770l96 130h-80l-80 -130h64z" />
    <glyph glyph-name="Rcaron" unicode="&#x158;" 
d="M306 280h-156v-280h-70v700h70h180q57 0 105.5 -28t76.5 -76.5t28 -105.5q0 -71 -43.5 -127.5t-110.5 -74.5l254 -288h-88zM150 346h180q38 0 70 19.5t51 52.5t19 72t-19 72t-51 52.5t-70 19.5h-180v-288zM425 900l-106 -130h-74h-4l-106 130h75l70 -87l70 87h75z" />
    <glyph glyph-name="Rcommaaccent" unicode="&#x156;" 
d="M306 280h-156v-280h-70v700h70h180q57 0 105.5 -28t76.5 -76.5t28 -105.5q0 -71 -43.5 -127.5t-110.5 -74.5l254 -288h-88zM150 346h180q38 0 70 19.5t51 52.5t19 72t-19 72t-51 52.5t-70 19.5h-180v-288zM384 -70h-66l-10 -170h46z" />
    <glyph glyph-name="S" unicode="S" horiz-adv-x="550" 
d="M161.5 13.5q-55.5 25.5 -88.5 74t-33 115.5h70q0 -70 48.5 -108.5t126.5 -38.5q66 0 110.5 33t44.5 88q0 51 -40 81t-117 59q-80 30 -120.5 50t-71.5 59.5t-31 102.5q0 56 29.5 97.5t77.5 63.5t104 22q59 0 109.5 -23.5t80 -69t29.5 -107.5h-70q0 63 -41.5 97.5
t-107.5 34.5q-60 0 -100.5 -30.5t-40.5 -84.5q0 -38 20 -63.5t51.5 -42.5t82.5 -37q80 -31 121 -51.5t73 -59t32 -98.5q0 -57 -31 -100t-82.5 -66t-111.5 -23q-68 0 -123.5 25.5z" />
    <glyph glyph-name="Sacute" unicode="&#x15a;" horiz-adv-x="550" 
d="M161.5 13.5q-55.5 25.5 -88.5 74t-33 115.5h70q0 -70 48.5 -108.5t126.5 -38.5q66 0 110.5 33t44.5 88q0 51 -40 81t-117 59q-80 30 -120.5 50t-71.5 59.5t-31 102.5q0 56 29.5 97.5t77.5 63.5t104 22q59 0 109.5 -23.5t80 -69t29.5 -107.5h-70q0 63 -41.5 97.5
t-107.5 34.5q-60 0 -100.5 -30.5t-40.5 -84.5q0 -38 20 -63.5t51.5 -42.5t82.5 -37q80 -31 121 -51.5t73 -59t32 -98.5q0 -57 -31 -100t-82.5 -66t-111.5 -23q-68 0 -123.5 25.5zM285 770l96 130h-80l-80 -130h64z" />
    <glyph glyph-name="Scaron" unicode="&#x160;" horiz-adv-x="550" 
d="M161.5 13.5q-55.5 25.5 -88.5 74t-33 115.5h70q0 -70 48.5 -108.5t126.5 -38.5q66 0 110.5 33t44.5 88q0 51 -40 81t-117 59q-80 30 -120.5 50t-71.5 59.5t-31 102.5q0 56 29.5 97.5t77.5 63.5t104 22q59 0 109.5 -23.5t80 -69t29.5 -107.5h-70q0 63 -41.5 97.5
t-107.5 34.5q-60 0 -100.5 -30.5t-40.5 -84.5q0 -38 20 -63.5t51.5 -42.5t82.5 -37q80 -31 121 -51.5t73 -59t32 -98.5q0 -57 -31 -100t-82.5 -66t-111.5 -23q-68 0 -123.5 25.5zM416 900l-106 -130h-74h-4l-106 130h75l70 -87l70 87h75z" />
    <glyph glyph-name="Scedilla" unicode="&#x15e;" horiz-adv-x="550" 
d="M482.5 82.5q-27.5 -41.5 -74.5 -65.5t-102 -28v-34q43 -8 68 -29t25 -52q0 -91 -164 -91q-26 0 -41 1v54q36 -2 48 -2q49 0 74 10t25 28q0 20 -23.5 29.5t-69.5 11.5v75q-91 10 -149.5 66.5t-58.5 146.5h70q0 -70 48.5 -108.5t126.5 -38.5q66 0 110.5 33t44.5 88
q0 51 -40 81t-117 59q-80 30 -120.5 50t-71.5 59.5t-31 102.5q0 56 29.5 97.5t77.5 63.5t104 22q59 0 109.5 -23.5t80 -69t29.5 -107.5h-70q0 63 -41.5 97.5t-107.5 34.5q-60 0 -100.5 -30.5t-40.5 -84.5q0 -38 20 -63.5t51.5 -42.5t82.5 -37q80 -31 121 -51.5t73 -59
t32 -98.5q0 -53 -27.5 -94.5z" />
    <glyph glyph-name="Scommaaccent" unicode="&#x218;" horiz-adv-x="550" 
d="M161.5 13.5q-55.5 25.5 -88.5 74t-33 115.5h70q0 -70 48.5 -108.5t126.5 -38.5q66 0 110.5 33t44.5 88q0 51 -40 81t-117 59q-80 30 -120.5 50t-71.5 59.5t-31 102.5q0 56 29.5 97.5t77.5 63.5t104 22q59 0 109.5 -23.5t80 -69t29.5 -107.5h-70q0 63 -41.5 97.5
t-107.5 34.5q-60 0 -100.5 -30.5t-40.5 -84.5q0 -38 20 -63.5t51.5 -42.5t82.5 -37q80 -31 121 -51.5t73 -59t32 -98.5q0 -57 -31 -100t-82.5 -66t-111.5 -23q-68 0 -123.5 25.5zM328 -70h-66l-10 -170h46z" />
    <glyph glyph-name="T" unicode="T" horiz-adv-x="500" 
d="M480 634h-195v-634h-70v634h-195v66h265h195v-66z" />
    <glyph glyph-name="Tbar" unicode="&#x166;" horiz-adv-x="500" 
d="M285 634v-252h145v-64h-145v-318h-70v318h-145v64h145v252h-195v66h265h195v-66h-195z" />
    <glyph glyph-name="Tcaron" unicode="&#x164;" horiz-adv-x="500" 
d="M480 634h-195v-634h-70v634h-195v66h265h195v-66zM395 900l-106 -130h-74h-4l-106 130h75l70 -87l70 87h75z" />
    <glyph glyph-name="uni0162" unicode="&#x162;" horiz-adv-x="500" 
d="M480 634h-195v-634h-70v634h-195v66h265h195v-66zM284 -70h-66l-10 -170h46z" />
    <glyph glyph-name="uni021A" unicode="&#x21a;" horiz-adv-x="500" 
d="M480 634h-195v-634h-70v634h-195v66h265h195v-66zM284 -70h-66l-10 -170h46z" />
    <glyph glyph-name="U" unicode="U" horiz-adv-x="620" 
d="M187.5 13.5q-54.5 25.5 -86 75.5t-31.5 119v492h70v-492q0 -74 46 -113t124 -39t124 39t46 113v492h70v-492q0 -69 -31.5 -119t-86 -75.5t-122.5 -25.5t-122.5 25.5z" />
    <glyph glyph-name="Uacute" unicode="&#xda;" horiz-adv-x="620" 
d="M187.5 13.5q-54.5 25.5 -86 75.5t-31.5 119v492h70v-492q0 -74 46 -113t124 -39t124 39t46 113v492h70v-492q0 -69 -31.5 -119t-86 -75.5t-122.5 -25.5t-122.5 25.5zM324 770l96 130h-80l-80 -130h64z" />
    <glyph glyph-name="Ucircumflex" unicode="&#xdb;" horiz-adv-x="620" 
d="M187.5 13.5q-54.5 25.5 -86 75.5t-31.5 119v492h70v-492q0 -74 46 -113t124 -39t124 39t46 113v492h70v-492q0 -69 -31.5 -119t-86 -75.5t-122.5 -25.5t-122.5 25.5zM380 770l-70 87l-70 -87h-75l106 130h74h4l106 -130h-75z" />
    <glyph glyph-name="Udieresis" unicode="&#xdc;" horiz-adv-x="620" 
d="M187.5 13.5q-54.5 25.5 -86 75.5t-31.5 119v492h70v-492q0 -74 46 -113t124 -39t124 39t46 113v492h70v-492q0 -69 -31.5 -119t-86 -75.5t-122.5 -25.5t-122.5 25.5zM170 860h80v-80h-80v80zM370 860h80v-80h-80v80z" />
    <glyph glyph-name="Ugrave" unicode="&#xd9;" horiz-adv-x="620" 
d="M187.5 13.5q-54.5 25.5 -86 75.5t-31.5 119v492h70v-492q0 -74 46 -113t124 -39t124 39t46 113v492h70v-492q0 -69 -31.5 -119t-86 -75.5t-122.5 -25.5t-122.5 25.5zM270 900h-80l96 -130h64z" />
    <glyph glyph-name="Uhungarumlaut" unicode="&#x170;" horiz-adv-x="620" 
d="M187.5 13.5q-54.5 25.5 -86 75.5t-31.5 119v492h70v-492q0 -74 46 -113t124 -39t124 39t46 113v492h70v-492q0 -69 -31.5 -119t-86 -75.5t-122.5 -25.5t-122.5 25.5zM258 770l76 130h-74l-70 -130h68zM401 770l86 130h-74l-80 -130h68z" />
    <glyph glyph-name="Umacron" unicode="&#x16a;" horiz-adv-x="620" 
d="M187.5 13.5q-54.5 25.5 -86 75.5t-31.5 119v492h70v-492q0 -74 46 -113t124 -39t124 39t46 113v492h70v-492q0 -69 -31.5 -119t-86 -75.5t-122.5 -25.5t-122.5 25.5zM180 838h260v-58h-260v58z" />
    <glyph glyph-name="Uogonek" unicode="&#x172;" horiz-adv-x="620" 
d="M550 700v-492q0 -53 -19 -95t-54 -71q-67 -61 -94 -97t-27 -69q0 -31 34 -31q21 0 42 9v-55q-27 -11 -59 -11q-39 0 -60.5 21t-21.5 55q0 28 16.5 61.5t46.5 65.5q-21 -3 -44 -3q-68 0 -122.5 25.5t-86 75.5t-31.5 119v492h70v-492q0 -74 46 -113t124 -39t124 39t46 113
v492h70z" />
    <glyph glyph-name="Uring" unicode="&#x16e;" horiz-adv-x="620" 
d="M187.5 13.5q-54.5 25.5 -86 75.5t-31.5 119v492h70v-492q0 -74 46 -113t124 -39t124 39t46 113v492h70v-492q0 -69 -31.5 -119t-86 -75.5t-122.5 -25.5t-122.5 25.5zM233.5 778.5q-29.5 28.5 -29.5 71.5t29.5 71.5t76.5 28.5t76.5 -28.5t29.5 -71.5t-29.5 -71.5
t-76.5 -28.5t-76.5 28.5zM348.5 814.5q13.5 13.5 13.5 35.5t-13.5 35.5t-38.5 13.5q-24 0 -37.5 -13.5t-13.5 -35.5t13.5 -35.5t37.5 -13.5q25 0 38.5 13.5z" />
    <glyph glyph-name="V" unicode="V" horiz-adv-x="608" 
d="M10 700h74l220 -613l220 613h74l-258 -700h-72z" />
    <glyph glyph-name="W" unicode="W" horiz-adv-x="860" 
d="M850 700l-218 -700h-92l-110 354l-110 -354h-92l-218 700h68l196 -629l122 391l-74 238h68l196 -629l196 629h68z" />
    <glyph glyph-name="Wacute" unicode="&#x1e82;" horiz-adv-x="860" 
d="M850 700l-218 -700h-92l-110 354l-110 -354h-92l-218 700h68l196 -629l122 391l-74 238h68l196 -629l196 629h68zM444 770l96 130h-80l-80 -130h64z" />
    <glyph glyph-name="Wcircumflex" unicode="&#x174;" horiz-adv-x="860" 
d="M850 700l-218 -700h-92l-110 354l-110 -354h-92l-218 700h68l196 -629l122 391l-74 238h68l196 -629l196 629h68zM500 770l-70 87l-70 -87h-75l106 130h74h4l106 -130h-75z" />
    <glyph glyph-name="Wdieresis" unicode="&#x1e84;" horiz-adv-x="860" 
d="M850 700l-218 -700h-92l-110 354l-110 -354h-92l-218 700h68l196 -629l122 391l-74 238h68l196 -629l196 629h68zM290 860h80v-80h-80v80zM490 860h80v-80h-80v80z" />
    <glyph glyph-name="Wgrave" unicode="&#x1e80;" horiz-adv-x="860" 
d="M850 700l-218 -700h-92l-110 354l-110 -354h-92l-218 700h68l196 -629l122 391l-74 238h68l196 -629l196 629h68zM390 900h-80l96 -130h64z" />
    <glyph glyph-name="X" unicode="X" horiz-adv-x="570" 
d="M473 0l-188 300l-188 -300h-77l227 362l-212 338h77l173 -276l173 276h77l-211 -338l226 -362h-77z" />
    <glyph glyph-name="Y" unicode="Y" horiz-adv-x="575" 
d="M322 326v-326h-70v328l-242 372h79l199 -305l198 305h79z" />
    <glyph glyph-name="Yacute" unicode="&#xdd;" horiz-adv-x="575" 
d="M322 326v-326h-70v328l-242 372h79l199 -305l198 305h79zM298 770l96 130h-80l-80 -130h64z" />
    <glyph glyph-name="Ycircumflex" unicode="&#x176;" horiz-adv-x="575" 
d="M322 326v-326h-70v328l-242 372h79l199 -305l198 305h79zM354 770l-70 87l-70 -87h-75l106 130h74h4l106 -130h-75z" />
    <glyph glyph-name="Ydieresis" unicode="&#x178;" horiz-adv-x="575" 
d="M322 326v-326h-70v328l-242 372h79l199 -305l198 305h79zM144 860h80v-80h-80v80zM344 860h80v-80h-80v80z" />
    <glyph glyph-name="Ygrave" unicode="&#x1ef2;" horiz-adv-x="575" 
d="M322 326v-326h-70v328l-242 372h79l199 -305l198 305h79zM244 900h-80l96 -130h64z" />
    <glyph glyph-name="Z" unicode="Z" horiz-adv-x="520" 
d="M490 66v-66h-450v66l362 568h-352v66h430v-66l-362 -568h372z" />
    <glyph glyph-name="Zacute" unicode="&#x179;" horiz-adv-x="520" 
d="M490 66v-66h-450v66l362 568h-352v66h430v-66l-362 -568h372zM279 770l96 130h-80l-80 -130h64z" />
    <glyph glyph-name="Zcaron" unicode="&#x17d;" horiz-adv-x="520" 
d="M490 66v-66h-450v66l362 568h-352v66h430v-66l-362 -568h372zM410 900l-106 -130h-74h-4l-106 130h75l70 -87l70 87h75z" />
    <glyph glyph-name="Zdotaccent" unicode="&#x17b;" horiz-adv-x="520" 
d="M490 66v-66h-450v66l362 568h-352v66h430v-66l-362 -568h372zM220 870h90v-90h-90v90z" />
    <glyph glyph-name="a" unicode="a" horiz-adv-x="498" 
d="M387.5 461.5q52.5 -50.5 52.5 -136.5v-325h-66v56q-25 -35 -65 -51.5t-90 -16.5q-48 0 -88.5 18.5t-65.5 54.5t-25 88t25 88t65.5 54.5t88.5 18.5q49 0 89.5 -16.5t65.5 -48.5v80q0 63 -35.5 93t-88.5 30q-52 0 -88 -26.5t-36 -76.5h-66q0 48 24 86t67.5 59.5t98.5 21.5
q85 0 137.5 -50.5zM334.5 78q39.5 28 39.5 71q0 45 -39 72t-100 27q-64 0 -96.5 -27t-32.5 -72t32.5 -72t96.5 -27q60 0 99.5 28z" />
    <glyph glyph-name="aacute" unicode="&#xe1;" horiz-adv-x="498" 
d="M387.5 461.5q52.5 -50.5 52.5 -136.5v-325h-66v56q-25 -35 -65 -51.5t-90 -16.5q-48 0 -88.5 18.5t-65.5 54.5t-25 88t25 88t65.5 54.5t88.5 18.5q49 0 89.5 -16.5t65.5 -48.5v80q0 63 -35.5 93t-88.5 30q-52 0 -88 -26.5t-36 -76.5h-66q0 48 24 86t67.5 59.5t98.5 21.5
q85 0 137.5 -50.5zM334.5 78q39.5 28 39.5 71q0 45 -39 72t-100 27q-64 0 -96.5 -27t-32.5 -72t32.5 -72t96.5 -27q60 0 99.5 28zM266 570l96 130h-80l-80 -130h64z" />
    <glyph glyph-name="abreve" unicode="&#x103;" horiz-adv-x="498" 
d="M387.5 461.5q52.5 -50.5 52.5 -136.5v-325h-66v56q-25 -35 -65 -51.5t-90 -16.5q-48 0 -88.5 18.5t-65.5 54.5t-25 88t25 88t65.5 54.5t88.5 18.5q49 0 89.5 -16.5t65.5 -48.5v80q0 63 -35.5 93t-88.5 30q-52 0 -88 -26.5t-36 -76.5h-66q0 48 24 86t67.5 59.5t98.5 21.5
q85 0 137.5 -50.5zM334.5 78q39.5 28 39.5 71q0 45 -39 72t-100 27q-64 0 -96.5 -27t-32.5 -72t32.5 -72t96.5 -27q60 0 99.5 28zM150 596.5q-38 34.5 -38 95.5h64q0 -38 19 -55t57 -17t57 17t19 55h64q0 -62 -37.5 -96t-102.5 -34q-64 0 -102 34.5z" />
    <glyph glyph-name="acircumflex" unicode="&#xe2;" horiz-adv-x="498" 
d="M387.5 461.5q52.5 -50.5 52.5 -136.5v-325h-66v56q-25 -35 -65 -51.5t-90 -16.5q-48 0 -88.5 18.5t-65.5 54.5t-25 88t25 88t65.5 54.5t88.5 18.5q49 0 89.5 -16.5t65.5 -48.5v80q0 63 -35.5 93t-88.5 30q-52 0 -88 -26.5t-36 -76.5h-66q0 48 24 86t67.5 59.5t98.5 21.5
q85 0 137.5 -50.5zM334.5 78q39.5 28 39.5 71q0 45 -39 72t-100 27q-64 0 -96.5 -27t-32.5 -72t32.5 -72t96.5 -27q60 0 99.5 28zM322 570l-70 87l-70 -87h-75l106 130h74h4l106 -130h-75z" />
    <glyph glyph-name="adieresis" unicode="&#xe4;" horiz-adv-x="498" 
d="M387.5 461.5q52.5 -50.5 52.5 -136.5v-325h-66v56q-25 -35 -65 -51.5t-90 -16.5q-48 0 -88.5 18.5t-65.5 54.5t-25 88t25 88t65.5 54.5t88.5 18.5q49 0 89.5 -16.5t65.5 -48.5v80q0 63 -35.5 93t-88.5 30q-52 0 -88 -26.5t-36 -76.5h-66q0 48 24 86t67.5 59.5t98.5 21.5
q85 0 137.5 -50.5zM334.5 78q39.5 28 39.5 71q0 45 -39 72t-100 27q-64 0 -96.5 -27t-32.5 -72t32.5 -72t96.5 -27q60 0 99.5 28zM112 660h80v-80h-80v80zM312 660h80v-80h-80v80z" />
    <glyph glyph-name="agrave" unicode="&#xe0;" horiz-adv-x="498" 
d="M387.5 461.5q52.5 -50.5 52.5 -136.5v-325h-66v56q-25 -35 -65 -51.5t-90 -16.5q-48 0 -88.5 18.5t-65.5 54.5t-25 88t25 88t65.5 54.5t88.5 18.5q49 0 89.5 -16.5t65.5 -48.5v80q0 63 -35.5 93t-88.5 30q-52 0 -88 -26.5t-36 -76.5h-66q0 48 24 86t67.5 59.5t98.5 21.5
q85 0 137.5 -50.5zM334.5 78q39.5 28 39.5 71q0 45 -39 72t-100 27q-64 0 -96.5 -27t-32.5 -72t32.5 -72t96.5 -27q60 0 99.5 28zM212 700h-80l96 -130h64z" />
    <glyph glyph-name="amacron" unicode="&#x101;" horiz-adv-x="498" 
d="M387.5 461.5q52.5 -50.5 52.5 -136.5v-325h-66v56q-25 -35 -65 -51.5t-90 -16.5q-48 0 -88.5 18.5t-65.5 54.5t-25 88t25 88t65.5 54.5t88.5 18.5q49 0 89.5 -16.5t65.5 -48.5v80q0 63 -35.5 93t-88.5 30q-52 0 -88 -26.5t-36 -76.5h-66q0 48 24 86t67.5 59.5t98.5 21.5
q85 0 137.5 -50.5zM334.5 78q39.5 28 39.5 71q0 45 -39 72t-100 27q-64 0 -96.5 -27t-32.5 -72t32.5 -72t96.5 -27q60 0 99.5 28zM122 638h260v-58h-260v58z" />
    <glyph glyph-name="aogonek" unicode="&#x105;" horiz-adv-x="498" 
d="M385 -65q-21 -34 -21 -59q0 -31 34 -31q21 0 42 9v-55q-27 -11 -59 -11q-39 0 -60.5 21t-21.5 55q0 30 18.5 68t56.5 80v44q-25 -35 -65 -51.5t-90 -16.5q-48 0 -88.5 18.5t-65.5 54.5t-25 88t25 88t65.5 54.5t88.5 18.5q49 0 89.5 -16.5t65.5 -48.5v80q0 63 -35.5 93
t-88.5 30q-52 0 -88 -26.5t-36 -76.5h-66q0 48 24 86t67.5 59.5t98.5 21.5q85 0 137.5 -50.5t52.5 -136.5v-325q-34 -31 -55 -65zM334.5 78q39.5 28 39.5 71q0 45 -39 72t-100 27q-64 0 -96.5 -27t-32.5 -72t32.5 -72t96.5 -27q60 0 99.5 28z" />
    <glyph glyph-name="aring" unicode="&#xe5;" horiz-adv-x="498" 
d="M387.5 461.5q52.5 -50.5 52.5 -136.5v-325h-66v56q-25 -35 -65 -51.5t-90 -16.5q-48 0 -88.5 18.5t-65.5 54.5t-25 88t25 88t65.5 54.5t88.5 18.5q49 0 89.5 -16.5t65.5 -48.5v80q0 63 -35.5 93t-88.5 30q-52 0 -88 -26.5t-36 -76.5h-66q0 48 24 86t67.5 59.5t98.5 21.5
q85 0 137.5 -50.5zM334.5 78q39.5 28 39.5 71q0 45 -39 72t-100 27q-64 0 -96.5 -27t-32.5 -72t32.5 -72t96.5 -27q60 0 99.5 28zM175.5 578.5q-29.5 28.5 -29.5 71.5t29.5 71.5t76.5 28.5t76.5 -28.5t29.5 -71.5t-29.5 -71.5t-76.5 -28.5t-76.5 28.5zM290.5 614.5
q13.5 13.5 13.5 35.5t-13.5 35.5t-38.5 13.5q-24 0 -37.5 -13.5t-13.5 -35.5t13.5 -35.5t37.5 -13.5q25 0 38.5 13.5z" />
    <glyph glyph-name="atilde" unicode="&#xe3;" horiz-adv-x="498" 
d="M387.5 461.5q52.5 -50.5 52.5 -136.5v-325h-66v56q-25 -35 -65 -51.5t-90 -16.5q-48 0 -88.5 18.5t-65.5 54.5t-25 88t25 88t65.5 54.5t88.5 18.5q49 0 89.5 -16.5t65.5 -48.5v80q0 63 -35.5 93t-88.5 30q-52 0 -88 -26.5t-36 -76.5h-66q0 48 24 86t67.5 59.5t98.5 21.5
q85 0 137.5 -50.5zM334.5 78q39.5 28 39.5 71q0 45 -39 72t-100 27q-64 0 -96.5 -27t-32.5 -72t32.5 -72t96.5 -27q60 0 99.5 28zM131.5 666q19.5 29 51.5 29q33 0 70 -28q23 -17 36.5 -25t22.5 -8q11 0 16.5 13t5.5 43h58q0 -57 -19 -86t-51 -29q-33 0 -70 28
q-23 17 -36.5 25t-23.5 8q-22 0 -22 -56h-58q0 57 19.5 86z" />
    <glyph glyph-name="ae" unicode="&#xe6;" horiz-adv-x="840" 
d="M715 475.5q48 -36.5 71.5 -96.5t23.5 -131q0 -11 -2 -31h-66h-301q8 -78 48.5 -121.5t109.5 -43.5q48 0 79.5 23.5t40.5 61.5h73q-13 -67 -65 -108t-129 -41q-63 0 -108.5 26.5t-72.5 75.5q-21 -48 -69.5 -75t-113.5 -27q-83 0 -138.5 42t-55.5 119q0 52 25 88t65.5 54.5
t88.5 18.5q47 0 88 -15t67 -40v70q0 63 -35.5 93t-88.5 30q-52 0 -88 -26.5t-36 -76.5h-66q0 47 24 85.5t66 60t95 21.5q61 0 107 -26.5t68 -75.5q28 49 73 75.5t105 26.5q69 0 117 -36.5zM743 281q-5 80 -44 123.5t-99 43.5q-73 0 -112.5 -45t-46.5 -122h302zM337.5 77.5
q36.5 27.5 36.5 71.5q0 45 -39 72t-100 27q-64 0 -96.5 -27t-32.5 -72q0 -44 35 -71.5t97 -27.5q63 0 99.5 27.5z" />
    <glyph glyph-name="b" unicode="b" horiz-adv-x="636" 
d="M467 477.5q59 -34.5 94 -94.5t35 -133t-35 -133t-94 -94.5t-129 -34.5q-65 0 -117.5 29.5t-84.5 80.5v-98h-66v700h66v-298q32 51 84.5 80.5t117.5 29.5q70 0 129 -34.5zM433 78.5q45 26.5 71 71.5t26 100t-26 100t-71 71.5t-100 26.5t-100 -26.5t-71 -71.5t-26 -100
t26 -100t71 -71.5t100 -26.5t100 26.5z" />
    <glyph glyph-name="c" unicode="c" horiz-adv-x="573" 
d="M455.5 35.5q-66.5 -47.5 -152.5 -47.5q-74 0 -134 34.5t-94.5 94.5t-34.5 133t34.5 133t94.5 94.5t134 34.5q86 0 152 -47.5t88 -124.5h-70q-20 49 -66 78.5t-104 29.5q-55 0 -100 -26.5t-71 -71.5t-26 -100t26 -100t71 -71.5t100 -26.5q59 0 105 30t65 78h70
q-21 -77 -87.5 -124.5z" />
    <glyph glyph-name="cacute" unicode="&#x107;" horiz-adv-x="573" 
d="M455.5 35.5q-66.5 -47.5 -152.5 -47.5q-74 0 -134 34.5t-94.5 94.5t-34.5 133t34.5 133t94.5 94.5t134 34.5q86 0 152 -47.5t88 -124.5h-70q-20 49 -66 78.5t-104 29.5q-55 0 -100 -26.5t-71 -71.5t-26 -100t26 -100t71 -71.5t100 -26.5q59 0 105 30t65 78h70
q-21 -77 -87.5 -124.5zM306 570l96 130h-80l-80 -130h64z" />
    <glyph glyph-name="ccaron" unicode="&#x10d;" horiz-adv-x="573" 
d="M455.5 35.5q-66.5 -47.5 -152.5 -47.5q-74 0 -134 34.5t-94.5 94.5t-34.5 133t34.5 133t94.5 94.5t134 34.5q86 0 152 -47.5t88 -124.5h-70q-20 49 -66 78.5t-104 29.5q-55 0 -100 -26.5t-71 -71.5t-26 -100t26 -100t71 -71.5t100 -26.5q59 0 105 30t65 78h70
q-21 -77 -87.5 -124.5zM437 700l-106 -130h-74h-4l-106 130h75l70 -87l70 87h75z" />
    <glyph glyph-name="ccedilla" unicode="&#xe7;" horiz-adv-x="573" 
d="M408 82q46 30 65 78h70q-19 -70 -78 -116.5t-136 -54.5v-34q43 -8 68 -29t25 -52q0 -91 -164 -91q-26 0 -41 1v54q36 -2 48 -2q49 0 74 10t25 28q0 20 -23.5 29.5t-69.5 11.5v75q-67 7 -119.5 43t-82 92.5t-29.5 124.5q0 73 34.5 133t94.5 94.5t134 34.5q86 0 152 -47.5
t88 -124.5h-70q-20 49 -66 78.5t-104 29.5q-55 0 -100 -26.5t-71 -71.5t-26 -100t26 -100t71 -71.5t100 -26.5q59 0 105 30z" />
    <glyph glyph-name="cdotaccent" unicode="&#x10b;" horiz-adv-x="573" 
d="M455.5 35.5q-66.5 -47.5 -152.5 -47.5q-74 0 -134 34.5t-94.5 94.5t-34.5 133t34.5 133t94.5 94.5t134 34.5q86 0 152 -47.5t88 -124.5h-70q-20 49 -66 78.5t-104 29.5q-55 0 -100 -26.5t-71 -71.5t-26 -100t26 -100t71 -71.5t100 -26.5q59 0 105 30t65 78h70
q-21 -77 -87.5 -124.5zM247 670h90v-90h-90v90z" />
    <glyph glyph-name="d" unicode="d" horiz-adv-x="636" 
d="M566 700v-700h-66v98q-32 -51 -84.5 -80.5t-117.5 -29.5q-70 0 -129 34.5t-94 94.5t-35 133t35 133t94 94.5t129 34.5q65 0 117.5 -29.5t84.5 -80.5v298h66zM403 78.5q45 26.5 71 71.5t26 100t-26 100t-71 71.5t-100 26.5t-100 -26.5t-71 -71.5t-26 -100t26 -100
t71 -71.5t100 -26.5t100 26.5z" />
    <glyph glyph-name="eth" unicode="&#xf0;" horiz-adv-x="586" 
d="M546 230q0 -72 -34.5 -127t-93 -85t-125.5 -30t-125.5 30t-93 85t-34.5 127q0 69 34 123t90 83.5t119 29.5q43 0 80 -16l-89 119l-112 -69v60l82 50l-67 90h77l43 -57l112 69v-60l-82 -50l173 -232q46 -62 46 -140zM386 73.5q43 21.5 68.5 62t25.5 94.5q0 63 -30 103
q-53 71 -155 71q-53 0 -96.5 -21.5t-68 -61t-24.5 -91.5q0 -54 25.5 -94.5t68.5 -62t93 -21.5t93 21.5z" />
    <glyph glyph-name="dcaron" unicode="&#x10f;" horiz-adv-x="702" 
d="M500 700h66v-700h-66v98q-32 -51 -84.5 -80.5t-117.5 -29.5q-70 0 -129 34.5t-94 94.5t-35 133t35 133t94 94.5t129 34.5q65 0 117.5 -29.5t84.5 -80.5v298zM712 700l-30 -170h-46l10 170h66zM403 78.5q45 26.5 71 71.5t26 100t-26 100t-71 71.5t-100 26.5t-100 -26.5
t-71 -71.5t-26 -100t26 -100t71 -71.5t100 -26.5t100 26.5z" />
    <glyph glyph-name="dcroat" unicode="&#x111;" horiz-adv-x="646" 
d="M636 576h-70v-576h-66v98q-32 -51 -84.5 -80.5t-117.5 -29.5q-70 0 -129 34.5t-94 94.5t-35 133t35 133t94 94.5t129 34.5q65 0 117.5 -29.5t84.5 -80.5v174h-184v54h184v70h66v-70h70v-54zM403 78.5q45 26.5 71 71.5t26 100t-26 100t-71 71.5t-100 26.5t-100 -26.5
t-71 -71.5t-26 -100t26 -100t71 -71.5t100 -26.5t100 26.5z" />
    <glyph glyph-name="e" unicode="e" horiz-adv-x="569" 
d="M425 475.5q55 -36.5 84.5 -97t29.5 -130.5q0 -11 -2 -31h-66h-363q10 -76 61.5 -120.5t127.5 -44.5q54 0 94 23.5t57 61.5h73q-21 -66 -82 -107.5t-143 -41.5q-75 0 -133.5 34t-90.5 93.5t-32 134.5q0 73 32 133t90 94.5t134 34.5q74 0 129 -36.5zM167.5 402
q-50.5 -46 -59.5 -121h363q-9 79 -58 123t-117 44q-78 0 -128.5 -46z" />
    <glyph glyph-name="eacute" unicode="&#xe9;" horiz-adv-x="569" 
d="M425 475.5q55 -36.5 84.5 -97t29.5 -130.5q0 -11 -2 -31h-66h-363q10 -76 61.5 -120.5t127.5 -44.5q54 0 94 23.5t57 61.5h73q-21 -66 -82 -107.5t-143 -41.5q-75 0 -133.5 34t-90.5 93.5t-32 134.5q0 73 32 133t90 94.5t134 34.5q74 0 129 -36.5zM167.5 402
q-50.5 -46 -59.5 -121h363q-9 79 -58 123t-117 44q-78 0 -128.5 -46zM309 570l96 130h-80l-80 -130h64z" />
    <glyph glyph-name="ecaron" unicode="&#x11b;" horiz-adv-x="569" 
d="M425 475.5q55 -36.5 84.5 -97t29.5 -130.5q0 -11 -2 -31h-66h-363q10 -76 61.5 -120.5t127.5 -44.5q54 0 94 23.5t57 61.5h73q-21 -66 -82 -107.5t-143 -41.5q-75 0 -133.5 34t-90.5 93.5t-32 134.5q0 73 32 133t90 94.5t134 34.5q74 0 129 -36.5zM167.5 402
q-50.5 -46 -59.5 -121h363q-9 79 -58 123t-117 44q-78 0 -128.5 -46zM440 700l-106 -130h-74h-4l-106 130h75l70 -87l70 87h75z" />
    <glyph glyph-name="ecircumflex" unicode="&#xea;" horiz-adv-x="569" 
d="M425 475.5q55 -36.5 84.5 -97t29.5 -130.5q0 -11 -2 -31h-66h-363q10 -76 61.5 -120.5t127.5 -44.5q54 0 94 23.5t57 61.5h73q-21 -66 -82 -107.5t-143 -41.5q-75 0 -133.5 34t-90.5 93.5t-32 134.5q0 73 32 133t90 94.5t134 34.5q74 0 129 -36.5zM167.5 402
q-50.5 -46 -59.5 -121h363q-9 79 -58 123t-117 44q-78 0 -128.5 -46zM365 570l-70 87l-70 -87h-75l106 130h74h4l106 -130h-75z" />
    <glyph glyph-name="edieresis" unicode="&#xeb;" horiz-adv-x="569" 
d="M425 475.5q55 -36.5 84.5 -97t29.5 -130.5q0 -11 -2 -31h-66h-363q10 -76 61.5 -120.5t127.5 -44.5q54 0 94 23.5t57 61.5h73q-21 -66 -82 -107.5t-143 -41.5q-75 0 -133.5 34t-90.5 93.5t-32 134.5q0 73 32 133t90 94.5t134 34.5q74 0 129 -36.5zM167.5 402
q-50.5 -46 -59.5 -121h363q-9 79 -58 123t-117 44q-78 0 -128.5 -46zM155 660h80v-80h-80v80zM355 660h80v-80h-80v80z" />
    <glyph glyph-name="edotaccent" unicode="&#x117;" horiz-adv-x="569" 
d="M425 475.5q55 -36.5 84.5 -97t29.5 -130.5q0 -11 -2 -31h-66h-363q10 -76 61.5 -120.5t127.5 -44.5q54 0 94 23.5t57 61.5h73q-21 -66 -82 -107.5t-143 -41.5q-75 0 -133.5 34t-90.5 93.5t-32 134.5q0 73 32 133t90 94.5t134 34.5q74 0 129 -36.5zM167.5 402
q-50.5 -46 -59.5 -121h363q-9 79 -58 123t-117 44q-78 0 -128.5 -46zM250 670h90v-90h-90v90z" />
    <glyph glyph-name="egrave" unicode="&#xe8;" horiz-adv-x="569" 
d="M425 475.5q55 -36.5 84.5 -97t29.5 -130.5q0 -11 -2 -31h-66h-363q10 -76 61.5 -120.5t127.5 -44.5q54 0 94 23.5t57 61.5h73q-21 -66 -82 -107.5t-143 -41.5q-75 0 -133.5 34t-90.5 93.5t-32 134.5q0 73 32 133t90 94.5t134 34.5q74 0 129 -36.5zM167.5 402
q-50.5 -46 -59.5 -121h363q-9 79 -58 123t-117 44q-78 0 -128.5 -46zM255 700h-80l96 -130h64z" />
    <glyph glyph-name="emacron" unicode="&#x113;" horiz-adv-x="569" 
d="M425 475.5q55 -36.5 84.5 -97t29.5 -130.5q0 -11 -2 -31h-66h-363q10 -76 61.5 -120.5t127.5 -44.5q54 0 94 23.5t57 61.5h73q-21 -66 -82 -107.5t-143 -41.5q-75 0 -133.5 34t-90.5 93.5t-32 134.5q0 73 32 133t90 94.5t134 34.5q74 0 129 -36.5zM167.5 402
q-50.5 -46 -59.5 -121h363q-9 79 -58 123t-117 44q-78 0 -128.5 -46zM165 638h260v-58h-260v58z" />
    <glyph glyph-name="eogonek" unicode="&#x119;" horiz-adv-x="569" 
d="M425 475.5q55 -36.5 84.5 -97t29.5 -130.5q0 -11 -2 -31h-66h-363q10 -76 61.5 -120.5t127.5 -44.5q54 0 94 23.5t57 61.5h73q-20 -61 -72 -101q-99 -111 -99 -160q0 -31 34 -31q21 0 42 9v-55q-27 -11 -59 -11q-39 0 -60.5 21t-21.5 55q0 27 15.5 61t47.5 68
q-28 -5 -52 -5q-75 0 -133.5 34t-90.5 93.5t-32 134.5q0 73 32 133t90 94.5t134 34.5q74 0 129 -36.5zM167.5 402q-50.5 -46 -59.5 -121h363q-9 79 -58 123t-117 44q-78 0 -128.5 -46z" />
    <glyph glyph-name="f" unicode="f" horiz-adv-x="315" 
d="M292 649q-61 0 -91 -31.5t-30 -97.5v-20h144v-64h-144v-436h-66v436h-85v64h85v20q0 92 48 142.5t138 50.5q16 0 24 -1v-64q-8 1 -23 1z" />
    <glyph glyph-name="g" unicode="g" horiz-adv-x="636" 
d="M566 500v-480q0 -73 -34 -125.5t-91 -79.5t-126 -27q-61 0 -116 25t-89 68t-34 94h66q0 -27 21.5 -56t61 -48t90.5 -19q89 0 137 45t48 123v78q-32 -51 -84.5 -80.5t-117.5 -29.5q-70 0 -129 34.5t-94 94.5t-35 133t35 133t94 94.5t129 34.5q65 0 117.5 -29.5t84.5 -80.5
v98h66zM403 78.5q45 26.5 71 71.5t26 100t-26 100t-71 71.5t-100 26.5t-100 -26.5t-71 -71.5t-26 -100t26 -100t71 -71.5t100 -26.5t100 26.5z" />
    <glyph glyph-name="gbreve" unicode="&#x11f;" horiz-adv-x="636" 
d="M566 500v-480q0 -73 -34 -125.5t-91 -79.5t-126 -27q-61 0 -116 25t-89 68t-34 94h66q0 -27 21.5 -56t61 -48t90.5 -19q89 0 137 45t48 123v78q-32 -51 -84.5 -80.5t-117.5 -29.5q-70 0 -129 34.5t-94 94.5t-35 133t35 133t94 94.5t129 34.5q65 0 117.5 -29.5t84.5 -80.5
v98h66zM403 78.5q45 26.5 71 71.5t26 100t-26 100t-71 71.5t-100 26.5t-100 -26.5t-71 -71.5t-26 -100t26 -100t71 -71.5t100 -26.5t100 26.5zM206 596.5q-38 34.5 -38 95.5h64q0 -38 19 -55t57 -17t57 17t19 55h64q0 -62 -37.5 -96t-102.5 -34q-64 0 -102 34.5z" />
    <glyph glyph-name="gcommaaccent" unicode="&#x123;" horiz-adv-x="636" 
d="M566 500v-480q0 -73 -34 -125.5t-91 -79.5t-126 -27q-61 0 -116 25t-89 68t-34 94h66q0 -27 21.5 -56t61 -48t90.5 -19q89 0 137 45t48 123v78q-32 -51 -84.5 -80.5t-117.5 -29.5q-70 0 -129 34.5t-94 94.5t-35 133t35 133t94 94.5t129 34.5q65 0 117.5 -29.5t84.5 -80.5
v98h66zM403 78.5q45 26.5 71 71.5t26 100t-26 100t-71 71.5t-100 26.5t-100 -26.5t-71 -71.5t-26 -100t26 -100t71 -71.5t100 -26.5t100 26.5zM269 590h66l10 170h-46z" />
    <glyph glyph-name="gdotaccent" unicode="&#x121;" horiz-adv-x="636" 
d="M566 500v-480q0 -73 -34 -125.5t-91 -79.5t-126 -27q-61 0 -116 25t-89 68t-34 94h66q0 -27 21.5 -56t61 -48t90.5 -19q89 0 137 45t48 123v78q-32 -51 -84.5 -80.5t-117.5 -29.5q-70 0 -129 34.5t-94 94.5t-35 133t35 133t94 94.5t129 34.5q65 0 117.5 -29.5t84.5 -80.5
v98h66zM403 78.5q45 26.5 71 71.5t26 100t-26 100t-71 71.5t-100 26.5t-100 -26.5t-71 -71.5t-26 -100t26 -100t71 -71.5t100 -26.5t100 26.5zM263 670h90v-90h-90v90z" />
    <glyph glyph-name="h" unicode="h" horiz-adv-x="518" 
d="M375.5 489.5q38.5 -22.5 61.5 -64.5t23 -98v-327h-66v327q0 58 -32 89.5t-84 31.5q-59 0 -100.5 -40t-41.5 -126v-282h-66v700h66v-266q52 78 154 78q47 0 85.5 -22.5z" />
    <glyph glyph-name="hbar" unicode="&#x127;" horiz-adv-x="528" 
d="M385.5 489.5q38.5 -22.5 61.5 -64.5t23 -98v-327h-66v327q0 58 -32 89.5t-84 31.5q-59 0 -100.5 -40t-41.5 -126v-282h-66v576h-70v54h70v70h66v-70h144v-54h-144v-142q52 78 154 78q47 0 85.5 -22.5z" />
    <glyph glyph-name="i" unicode="i" horiz-adv-x="206" 
d="M70 700h66v-100h-66v100zM70 500h66v-500h-66v500z" />
    <glyph glyph-name="dotlessi" unicode="&#x131;" horiz-adv-x="206" 
d="M70 500h66v-500h-66v500z" />
    <glyph glyph-name="iacute" unicode="&#xed;" horiz-adv-x="206" 
d="M137 570l66 130h-80l-50 -130h64zM70 500h66v-500h-66v500z" />
    <glyph glyph-name="icircumflex" unicode="&#xee;" horiz-adv-x="206" 
d="M228 570h-75l-50 76l-50 -76h-75l86 130h74h4zM70 500h66v-500h-66v500z" />
    <glyph glyph-name="idieresis" unicode="&#xef;" horiz-adv-x="206" 
d="M-7 660h80v-80h-80v80zM133 660h80v-80h-80v80zM70 500h66v-500h-66v500z" />
    <glyph glyph-name="i.loclTRK" horiz-adv-x="206" 
d="M70 500h66v-500h-66v500zM58 670h90v-90h-90v90z" />
    <glyph glyph-name="igrave" unicode="&#xec;" horiz-adv-x="206" 
d="M84 700h-80l66 -130h64zM70 0v500h66v-500h-66z" />
    <glyph glyph-name="imacron" unicode="&#x12b;" horiz-adv-x="206" 
d="M3 638h200v-58h-200v58zM70 500h66v-500h-66v500z" />
    <glyph glyph-name="iogonek" unicode="&#x12f;" horiz-adv-x="206" 
d="M136 600h-66v100h66v-100zM171 -146v-55q-27 -11 -59 -11q-38 0 -60 25.5t-22 60.5q0 28 8.5 57.5t31.5 73.5v495h66v-500q-41 -66 -41 -114q0 -17 9.5 -29t24.5 -12q21 0 42 9z" />
    <glyph glyph-name="j" unicode="j" horiz-adv-x="230" 
d="M160 700v-100h-66v100h66zM94 500h66v-540q0 -84 -40.5 -128.5t-116.5 -44.5q-15 0 -23 1v64q8 -1 22 -1q47 0 69.5 26t22.5 83v540z" />
    <glyph glyph-name="k" unicode="k" horiz-adv-x="494" 
d="M386 0l-250 241v-241h-66v700h66v-422l240 222h88l-260 -240l270 -260h-88z" />
    <glyph glyph-name="kcommaaccent" unicode="&#x137;" horiz-adv-x="494" 
d="M386 0l-250 241v-241h-66v700h66v-422l240 222h88l-260 -240l270 -260h-88zM299 -70h-66l-10 -170h46z" />
    <glyph glyph-name="l" unicode="l" horiz-adv-x="206" 
d="M70 720h66v-720h-66v720z" />
    <glyph glyph-name="lacute" unicode="&#x13a;" horiz-adv-x="206" 
d="M70 720h66v-720h-66v720zM134 770l96 130h-80l-80 -130h64z" />
    <glyph glyph-name="lcaron" unicode="&#x13e;" horiz-adv-x="272" 
d="M70 720h66v-720h-66v720zM282 720h-66l-10 -170h46z" />
    <glyph glyph-name="lcommaaccent" unicode="&#x13c;" horiz-adv-x="206" 
d="M70 720h66v-720h-66v720zM137 -70h-66l-10 -170h46z" />
    <glyph glyph-name="lslash" unicode="&#x142;" horiz-adv-x="240" 
d="M220 397l-67 -46v-351h-66v306l-67 -46v63l67 46v351h66v-306l67 46v-63z" />
    <glyph glyph-name="m" unicode="m" horiz-adv-x="768" 
d="M631 492q36 -20 57.5 -60t21.5 -95v-337h-66v337q0 56 -28 83.5t-71 27.5q-47 0 -84.5 -34.5t-37.5 -111.5v-302h-66v337q0 56 -28 83.5t-71 27.5q-47 0 -84.5 -34.5t-37.5 -111.5v-302h-66v500h66v-58q48 70 134 70q42 0 78 -22t56 -62q49 84 148 84q43 0 79 -20z" />
    <glyph glyph-name="n" unicode="n" horiz-adv-x="518" 
d="M375.5 489.5q38.5 -22.5 61.5 -64.5t23 -98v-327h-66v327q0 58 -32 89.5t-84 31.5q-59 0 -100.5 -40t-41.5 -126v-282h-66v500h66v-66q52 78 154 78q47 0 85.5 -22.5z" />
    <glyph glyph-name="nacute" unicode="&#x144;" horiz-adv-x="518" 
d="M375.5 489.5q38.5 -22.5 61.5 -64.5t23 -98v-327h-66v327q0 58 -32 89.5t-84 31.5q-59 0 -100.5 -40t-41.5 -126v-282h-66v500h66v-66q52 78 154 78q47 0 85.5 -22.5zM279 570l96 130h-80l-80 -130h64z" />
    <glyph glyph-name="ncaron" unicode="&#x148;" horiz-adv-x="518" 
d="M375.5 489.5q38.5 -22.5 61.5 -64.5t23 -98v-327h-66v327q0 58 -32 89.5t-84 31.5q-59 0 -100.5 -40t-41.5 -126v-282h-66v500h66v-66q52 78 154 78q47 0 85.5 -22.5zM410 700l-106 -130h-74h-4l-106 130h75l70 -87l70 87h75z" />
    <glyph glyph-name="ncommaaccent" unicode="&#x146;" horiz-adv-x="518" 
d="M375.5 489.5q38.5 -22.5 61.5 -64.5t23 -98v-327h-66v327q0 58 -32 89.5t-84 31.5q-59 0 -100.5 -40t-41.5 -126v-282h-66v500h66v-66q52 78 154 78q47 0 85.5 -22.5zM302 -70h-66l-10 -170h46z" />
    <glyph glyph-name="eng" unicode="&#x14b;" horiz-adv-x="518" 
d="M375.5 489.5q38.5 -22.5 61.5 -64.5t23 -98v-367q0 -84 -40.5 -128.5t-116.5 -44.5q-15 0 -23 1v64q8 -1 22 -1q47 0 69.5 26t22.5 83v367q0 58 -32 89.5t-84 31.5q-59 0 -100.5 -40t-41.5 -126v-282h-66v500h66v-66q52 78 154 78q47 0 85.5 -22.5z" />
    <glyph glyph-name="ntilde" unicode="&#xf1;" horiz-adv-x="518" 
d="M375.5 489.5q38.5 -22.5 61.5 -64.5t23 -98v-327h-66v327q0 58 -32 89.5t-84 31.5q-59 0 -100.5 -40t-41.5 -126v-282h-66v500h66v-66q52 78 154 78q47 0 85.5 -22.5zM144.5 666q19.5 29 51.5 29q33 0 70 -28q23 -17 36.5 -25t22.5 -8q11 0 16.5 13t5.5 43h58
q0 -57 -19 -86t-51 -29q-33 0 -70 28q-23 17 -36.5 25t-23.5 8q-22 0 -22 -56h-58q0 57 19.5 86z" />
    <glyph glyph-name="o" unicode="o" horiz-adv-x="606" 
d="M170.5 22.5q-60.5 34.5 -95.5 94.5t-35 133t35 133t95.5 94.5t132.5 34.5t132.5 -34.5t95.5 -94.5t35 -133t-35 -133t-95.5 -94.5t-132.5 -34.5t-132.5 34.5zM403 78.5q45 26.5 71 71.5t26 100t-26 100t-71 71.5t-100 26.5t-100 -26.5t-71 -71.5t-26 -100t26 -100
t71 -71.5t100 -26.5t100 26.5z" />
    <glyph glyph-name="oacute" unicode="&#xf3;" horiz-adv-x="606" 
d="M170.5 22.5q-60.5 34.5 -95.5 94.5t-35 133t35 133t95.5 94.5t132.5 34.5t132.5 -34.5t95.5 -94.5t35 -133t-35 -133t-95.5 -94.5t-132.5 -34.5t-132.5 34.5zM403 78.5q45 26.5 71 71.5t26 100t-26 100t-71 71.5t-100 26.5t-100 -26.5t-71 -71.5t-26 -100t26 -100
t71 -71.5t100 -26.5t100 26.5zM317 570l96 130h-80l-80 -130h64z" />
    <glyph glyph-name="ocircumflex" unicode="&#xf4;" horiz-adv-x="606" 
d="M170.5 22.5q-60.5 34.5 -95.5 94.5t-35 133t35 133t95.5 94.5t132.5 34.5t132.5 -34.5t95.5 -94.5t35 -133t-35 -133t-95.5 -94.5t-132.5 -34.5t-132.5 34.5zM403 78.5q45 26.5 71 71.5t26 100t-26 100t-71 71.5t-100 26.5t-100 -26.5t-71 -71.5t-26 -100t26 -100
t71 -71.5t100 -26.5t100 26.5zM373 570l-70 87l-70 -87h-75l106 130h74h4l106 -130h-75z" />
    <glyph glyph-name="odieresis" unicode="&#xf6;" horiz-adv-x="606" 
d="M170.5 22.5q-60.5 34.5 -95.5 94.5t-35 133t35 133t95.5 94.5t132.5 34.5t132.5 -34.5t95.5 -94.5t35 -133t-35 -133t-95.5 -94.5t-132.5 -34.5t-132.5 34.5zM403 78.5q45 26.5 71 71.5t26 100t-26 100t-71 71.5t-100 26.5t-100 -26.5t-71 -71.5t-26 -100t26 -100
t71 -71.5t100 -26.5t100 26.5zM163 660h80v-80h-80v80zM363 660h80v-80h-80v80z" />
    <glyph glyph-name="ograve" unicode="&#xf2;" horiz-adv-x="606" 
d="M170.5 22.5q-60.5 34.5 -95.5 94.5t-35 133t35 133t95.5 94.5t132.5 34.5t132.5 -34.5t95.5 -94.5t35 -133t-35 -133t-95.5 -94.5t-132.5 -34.5t-132.5 34.5zM403 78.5q45 26.5 71 71.5t26 100t-26 100t-71 71.5t-100 26.5t-100 -26.5t-71 -71.5t-26 -100t26 -100
t71 -71.5t100 -26.5t100 26.5zM263 700h-80l96 -130h64z" />
    <glyph glyph-name="ohungarumlaut" unicode="&#x151;" horiz-adv-x="606" 
d="M170.5 22.5q-60.5 34.5 -95.5 94.5t-35 133t35 133t95.5 94.5t132.5 34.5t132.5 -34.5t95.5 -94.5t35 -133t-35 -133t-95.5 -94.5t-132.5 -34.5t-132.5 34.5zM403 78.5q45 26.5 71 71.5t26 100t-26 100t-71 71.5t-100 26.5t-100 -26.5t-71 -71.5t-26 -100t26 -100
t71 -71.5t100 -26.5t100 26.5zM251 570l76 130h-74l-70 -130h68zM394 570l86 130h-74l-80 -130h68z" />
    <glyph glyph-name="omacron" unicode="&#x14d;" horiz-adv-x="606" 
d="M170.5 22.5q-60.5 34.5 -95.5 94.5t-35 133t35 133t95.5 94.5t132.5 34.5t132.5 -34.5t95.5 -94.5t35 -133t-35 -133t-95.5 -94.5t-132.5 -34.5t-132.5 34.5zM403 78.5q45 26.5 71 71.5t26 100t-26 100t-71 71.5t-100 26.5t-100 -26.5t-71 -71.5t-26 -100t26 -100
t71 -71.5t100 -26.5t100 26.5zM173 638h260v-58h-260v58z" />
    <glyph glyph-name="oslash" unicode="&#xf8;" horiz-adv-x="606" 
d="M546 352q20 -48 20 -102q0 -73 -35 -133t-95.5 -94.5t-132.5 -34.5q-85 0 -152 47l-30 -35h-60l55 65q-36 35 -56 83t-20 102q0 73 35 133t95.5 94.5t132.5 34.5q85 0 152 -47l30 35h60l-55 -65q36 -35 56 -83zM158 114l255 301q-49 33 -110 33q-55 0 -100 -26.5
t-71 -71.5t-26 -100q0 -77 52 -136zM403 78.5q45 26.5 71 71.5t26 100q0 78 -52 136l-255 -301q49 -33 110 -33q55 0 100 26.5z" />
    <glyph glyph-name="otilde" unicode="&#xf5;" horiz-adv-x="606" 
d="M170.5 22.5q-60.5 34.5 -95.5 94.5t-35 133t35 133t95.5 94.5t132.5 34.5t132.5 -34.5t95.5 -94.5t35 -133t-35 -133t-95.5 -94.5t-132.5 -34.5t-132.5 34.5zM403 78.5q45 26.5 71 71.5t26 100t-26 100t-71 71.5t-100 26.5t-100 -26.5t-71 -71.5t-26 -100t26 -100
t71 -71.5t100 -26.5t100 26.5zM182.5 666q19.5 29 51.5 29q33 0 70 -28q23 -17 36.5 -25t22.5 -8q11 0 16.5 13t5.5 43h58q0 -57 -19 -86t-51 -29q-33 0 -70 28q-23 17 -36.5 25t-23.5 8q-22 0 -22 -56h-58q0 57 19.5 86z" />
    <glyph glyph-name="oe" unicode="&#x153;" horiz-adv-x="1029" 
d="M883.5 475.5q55.5 -36.5 85.5 -97t30 -130.5q0 -11 -2 -31h-66h-363q10 -76 61.5 -120.5t127.5 -44.5q54 0 94 23.5t57 61.5h73q-21 -66 -83 -107.5t-144 -41.5q-81 0 -138.5 38.5t-84.5 106.5q-31 -66 -91 -105.5t-137 -39.5q-75 0 -135 34.5t-94 94.5t-34 133t34 133
t94 94.5t135 34.5q77 0 137.5 -39.5t90.5 -105.5q27 67 84.5 106t138.5 39q74 0 129.5 -36.5zM403 78.5q45 26.5 71 71.5t26 100t-26 100t-71 71.5t-100 26.5q-57 0 -102 -26t-70 -71.5t-25 -100.5t25 -100.5t70 -71.5t102 -26q55 0 100 26.5zM627.5 402
q-50.5 -46 -59.5 -121h363q-9 79 -58 123t-117 44q-78 0 -128.5 -46z" />
    <glyph glyph-name="p" unicode="p" horiz-adv-x="636" 
d="M467 477.5q59 -34.5 94 -94.5t35 -133t-35 -133t-94 -94.5t-129 -34.5q-65 0 -117.5 29.5t-84.5 80.5v-298h-66v700h66v-98q32 51 84.5 80.5t117.5 29.5q70 0 129 -34.5zM433 78.5q45 26.5 71 71.5t26 100t-26 100t-71 71.5t-100 26.5t-100 -26.5t-71 -71.5t-26 -100
t26 -100t71 -71.5t100 -26.5t100 26.5z" />
    <glyph glyph-name="thorn" unicode="&#xfe;" horiz-adv-x="636" 
d="M467 477.5q59 -34.5 94 -94.5t35 -133t-35 -133t-94 -94.5t-129 -34.5q-65 0 -117.5 29.5t-84.5 80.5v-298h-66v900h66v-298q32 51 84.5 80.5t117.5 29.5q70 0 129 -34.5zM433 78.5q45 26.5 71 71.5t26 100t-26 100t-71 71.5t-100 26.5t-100 -26.5t-71 -71.5t-26 -100
t26 -100t71 -71.5t100 -26.5t100 26.5z" />
    <glyph glyph-name="q" unicode="q" horiz-adv-x="636" 
d="M566 500v-700h-66v298q-32 -51 -84.5 -80.5t-117.5 -29.5q-70 0 -129 34.5t-94 94.5t-35 133t35 133t94 94.5t129 34.5q65 0 117.5 -29.5t84.5 -80.5v98h66zM403 78.5q45 26.5 71 71.5t26 100t-26 100t-71 71.5t-100 26.5t-100 -26.5t-71 -71.5t-26 -100t26 -100
t71 -71.5t100 -26.5t100 26.5z" />
    <glyph glyph-name="r" unicode="r" horiz-adv-x="314" 
d="M294 508v-64q-68 0 -113 -40t-45 -126v-278h-66v500h66v-76q51 84 158 84z" />
    <glyph glyph-name="racute" unicode="&#x155;" horiz-adv-x="314" 
d="M294 508v-64q-68 0 -113 -40t-45 -126v-278h-66v500h66v-76q51 84 158 84zM196 570l96 130h-80l-80 -130h64z" />
    <glyph glyph-name="rcaron" unicode="&#x159;" horiz-adv-x="314" 
d="M294 508v-64q-68 0 -113 -40t-45 -126v-278h-66v500h66v-76q51 84 158 84zM327 700l-106 -130h-74h-4l-106 130h75l70 -87l70 87h75z" />
    <glyph glyph-name="rcommaaccent" unicode="&#x157;" horiz-adv-x="314" 
d="M294 508v-64q-68 0 -113 -40t-45 -126v-278h-66v500h66v-76q51 84 158 84zM137 -70h-66l-10 -170h46z" />
    <glyph glyph-name="s" unicode="s" horiz-adv-x="460" 
d="M137.5 325.5q16.5 -16.5 41 -26t68.5 -21.5q54 -14 87.5 -28t57 -42.5t23.5 -76.5q0 -41 -23 -73.5t-65 -51t-97 -18.5q-84 0 -134.5 42.5t-50.5 114.5h66q0 -49 33 -71t86 -22q51 0 85 19.5t34 59.5q0 27 -16.5 43.5t-41 26t-68.5 21.5q-54 14 -87.5 28t-57 42.5
t-23.5 76.5q0 40 22.5 73t62.5 51.5t90 18.5q77 0 126 -43t49 -114h-66q0 48 -31.5 70.5t-77.5 22.5q-44 0 -76.5 -20t-32.5 -59q0 -27 16.5 -43.5z" />
    <glyph glyph-name="sacute" unicode="&#x15b;" horiz-adv-x="460" 
d="M137.5 325.5q16.5 -16.5 41 -26t68.5 -21.5q54 -14 87.5 -28t57 -42.5t23.5 -76.5q0 -41 -23 -73.5t-65 -51t-97 -18.5q-84 0 -134.5 42.5t-50.5 114.5h66q0 -49 33 -71t86 -22q51 0 85 19.5t34 59.5q0 27 -16.5 43.5t-41 26t-68.5 21.5q-54 14 -87.5 28t-57 42.5
t-23.5 76.5q0 40 22.5 73t62.5 51.5t90 18.5q77 0 126 -43t49 -114h-66q0 48 -31.5 70.5t-77.5 22.5q-44 0 -76.5 -20t-32.5 -59q0 -27 16.5 -43.5zM244 570l96 130h-80l-80 -130h64z" />
    <glyph glyph-name="scaron" unicode="&#x161;" horiz-adv-x="460" 
d="M137.5 325.5q16.5 -16.5 41 -26t68.5 -21.5q54 -14 87.5 -28t57 -42.5t23.5 -76.5q0 -41 -23 -73.5t-65 -51t-97 -18.5q-84 0 -134.5 42.5t-50.5 114.5h66q0 -49 33 -71t86 -22q51 0 85 19.5t34 59.5q0 27 -16.5 43.5t-41 26t-68.5 21.5q-54 14 -87.5 28t-57 42.5
t-23.5 76.5q0 40 22.5 73t62.5 51.5t90 18.5q77 0 126 -43t49 -114h-66q0 48 -31.5 70.5t-77.5 22.5q-44 0 -76.5 -20t-32.5 -59q0 -27 16.5 -43.5zM375 700l-106 -130h-74h-4l-106 130h75l70 -87l70 87h75z" />
    <glyph glyph-name="scedilla" unicode="&#x15f;" horiz-adv-x="460" 
d="M372.5 35q-42.5 -39 -113.5 -46v-34q43 -8 68 -29t25 -52q0 -91 -164 -91q-26 0 -41 1v54q36 -2 48 -2q49 0 74 10t25 28q0 20 -23.5 29.5t-69.5 11.5v74q-72 8 -114 49.5t-42 106.5h66q0 -49 33 -71t86 -22q51 0 85 19.5t34 59.5q0 27 -16.5 43.5t-41 26t-68.5 21.5
q-54 14 -87.5 28t-57 42.5t-23.5 76.5q0 40 22.5 73t62.5 51.5t90 18.5q77 0 126 -43t49 -114h-66q0 48 -31.5 70.5t-77.5 22.5q-44 0 -76.5 -20t-32.5 -59q0 -27 16.5 -43.5t41 -26t68.5 -21.5q54 -14 87.5 -28t57 -42.5t23.5 -76.5q0 -57 -42.5 -96z" />
    <glyph glyph-name="scommaaccent" unicode="&#x219;" horiz-adv-x="460" 
d="M137.5 325.5q16.5 -16.5 41 -26t68.5 -21.5q54 -14 87.5 -28t57 -42.5t23.5 -76.5q0 -41 -23 -73.5t-65 -51t-97 -18.5q-84 0 -134.5 42.5t-50.5 114.5h66q0 -49 33 -71t86 -22q51 0 85 19.5t34 59.5q0 27 -16.5 43.5t-41 26t-68.5 21.5q-54 14 -87.5 28t-57 42.5
t-23.5 76.5q0 40 22.5 73t62.5 51.5t90 18.5q77 0 126 -43t49 -114h-66q0 48 -31.5 70.5t-77.5 22.5q-44 0 -76.5 -20t-32.5 -59q0 -27 16.5 -43.5zM281 -70h-66l-10 -170h46z" />
    <glyph glyph-name="germandbls" unicode="&#xdf;" horiz-adv-x="496" 
d="M279 57l19 -1q51 0 81.5 21t30.5 64q0 33 -19 62t-56 69q-35 38 -52 63.5t-17 53.5q0 19 10 35.5t30 40.5q23 27 35.5 49t12.5 51q0 42 -28 62.5t-71 20.5q-49 0 -84 -27.5t-35 -95.5v-525h-66v525q0 90 52.5 138.5t132.5 48.5q75 0 120 -41t45 -106q0 -38 -15 -65.5
t-42 -58.5q-16 -18 -23.5 -29.5t-7.5 -22.5q0 -19 13.5 -37.5t41.5 -46.5q42 -42 65.5 -78.5t23.5 -85.5q0 -65 -46.5 -105t-126.5 -40q-16 0 -24 1v60z" />
    <glyph glyph-name="t" unicode="t" horiz-adv-x="315" 
d="M295 436h-104v-436h-66v436h-105v64h105v160h66v-160h104v-64z" />
    <glyph glyph-name="tbar" unicode="&#x167;" horiz-adv-x="315" 
d="M191 436v-109h77v-54h-77v-273h-66v273h-77v54h77v109h-105v64h105v160h66v-160h104v-64h-104z" />
    <glyph glyph-name="tcaron" unicode="&#x165;" horiz-adv-x="322" 
d="M292 560h-46l10 160h66zM191 500h104v-64h-104v-436h-66v436h-105v64h105v160h66v-160z" />
    <glyph glyph-name="uni0163" unicode="&#x163;" horiz-adv-x="315" 
d="M295 436h-104v-436h-66v436h-105v64h105v160h66v-160h104v-64zM192 -70h-66l-10 -170h46z" />
    <glyph glyph-name="uni021B" unicode="&#x21b;" horiz-adv-x="315" 
d="M295 436h-104v-436h-66v436h-105v64h105v160h66v-160h104v-64zM192 -70h-66l-10 -170h46z" />
    <glyph glyph-name="u" unicode="u" horiz-adv-x="518" 
d="M448 500v-500h-66v66q-52 -78 -154 -78q-47 0 -85.5 22.5t-61.5 64.5t-23 98v327h66v-327q0 -58 32 -89.5t84 -31.5q59 0 100.5 40t41.5 126v282h66z" />
    <glyph glyph-name="uacute" unicode="&#xfa;" horiz-adv-x="518" 
d="M448 500v-500h-66v66q-52 -78 -154 -78q-47 0 -85.5 22.5t-61.5 64.5t-23 98v327h66v-327q0 -58 32 -89.5t84 -31.5q59 0 100.5 40t41.5 126v282h66zM266 570l96 130h-80l-80 -130h64z" />
    <glyph glyph-name="ucircumflex" unicode="&#xfb;" horiz-adv-x="518" 
d="M448 500v-500h-66v66q-52 -78 -154 -78q-47 0 -85.5 22.5t-61.5 64.5t-23 98v327h66v-327q0 -58 32 -89.5t84 -31.5q59 0 100.5 40t41.5 126v282h66zM322 570l-70 87l-70 -87h-75l106 130h74h4l106 -130h-75z" />
    <glyph glyph-name="udieresis" unicode="&#xfc;" horiz-adv-x="518" 
d="M448 500v-500h-66v66q-52 -78 -154 -78q-47 0 -85.5 22.5t-61.5 64.5t-23 98v327h66v-327q0 -58 32 -89.5t84 -31.5q59 0 100.5 40t41.5 126v282h66zM112 660h80v-80h-80v80zM312 660h80v-80h-80v80z" />
    <glyph glyph-name="ugrave" unicode="&#xf9;" horiz-adv-x="518" 
d="M448 500v-500h-66v66q-52 -78 -154 -78q-47 0 -85.5 22.5t-61.5 64.5t-23 98v327h66v-327q0 -58 32 -89.5t84 -31.5q59 0 100.5 40t41.5 126v282h66zM212 700h-80l96 -130h64z" />
    <glyph glyph-name="uhungarumlaut" unicode="&#x171;" horiz-adv-x="518" 
d="M448 500v-500h-66v66q-52 -78 -154 -78q-47 0 -85.5 22.5t-61.5 64.5t-23 98v327h66v-327q0 -58 32 -89.5t84 -31.5q59 0 100.5 40t41.5 126v282h66zM200 570l76 130h-74l-70 -130h68zM343 570l86 130h-74l-80 -130h68z" />
    <glyph glyph-name="umacron" unicode="&#x16b;" horiz-adv-x="518" 
d="M448 500v-500h-66v66q-52 -78 -154 -78q-47 0 -85.5 22.5t-61.5 64.5t-23 98v327h66v-327q0 -58 32 -89.5t84 -31.5q59 0 100.5 40t41.5 126v282h66zM122 638h260v-58h-260v58z" />
    <glyph glyph-name="uogonek" unicode="&#x173;" horiz-adv-x="518" 
d="M393 -65q-21 -34 -21 -59q0 -31 34 -31q21 0 42 9v-55q-27 -11 -59 -11q-39 0 -60.5 21t-21.5 55q0 60 75 147v55q-52 -78 -154 -78q-47 0 -85.5 22.5t-61.5 64.5t-23 98v327h66v-327q0 -58 32 -89.5t84 -31.5q59 0 100.5 40t41.5 126v282h66v-500q-34 -31 -55 -65z" />
    <glyph glyph-name="uring" unicode="&#x16f;" horiz-adv-x="518" 
d="M448 500v-500h-66v66q-52 -78 -154 -78q-47 0 -85.5 22.5t-61.5 64.5t-23 98v327h66v-327q0 -58 32 -89.5t84 -31.5q59 0 100.5 40t41.5 126v282h66zM175.5 578.5q-29.5 28.5 -29.5 71.5t29.5 71.5t76.5 28.5t76.5 -28.5t29.5 -71.5t-29.5 -71.5t-76.5 -28.5t-76.5 28.5z
M290.5 614.5q13.5 13.5 13.5 35.5t-13.5 35.5t-38.5 13.5q-24 0 -37.5 -13.5t-13.5 -35.5t13.5 -35.5t37.5 -13.5q25 0 38.5 13.5z" />
    <glyph glyph-name="v" unicode="v" horiz-adv-x="470" 
d="M460 500l-185 -500h-66h-14l-185 500h70l155 -428l155 428h70z" />
    <glyph glyph-name="w" unicode="w" horiz-adv-x="680" 
d="M670 500l-174 -500h-62h-10l-83 239l-85 -239h-62h-10l-174 500h70l141 -424l88 254l-59 170h70l140 -422l140 422h70z" />
    <glyph glyph-name="wacute" unicode="&#x1e83;" horiz-adv-x="680" 
d="M670 500l-174 -500h-62h-10l-83 239l-85 -239h-62h-10l-174 500h70l141 -424l88 254l-59 170h70l140 -422l140 422h70zM354 570l96 130h-80l-80 -130h64z" />
    <glyph glyph-name="wcircumflex" unicode="&#x175;" horiz-adv-x="680" 
d="M670 500l-174 -500h-62h-10l-83 239l-85 -239h-62h-10l-174 500h70l141 -424l88 254l-59 170h70l140 -422l140 422h70zM410 570l-70 87l-70 -87h-75l106 130h74h4l106 -130h-75z" />
    <glyph glyph-name="wdieresis" unicode="&#x1e85;" horiz-adv-x="680" 
d="M670 500l-174 -500h-62h-10l-83 239l-85 -239h-62h-10l-174 500h70l141 -424l88 254l-59 170h70l140 -422l140 422h70zM200 660h80v-80h-80v80zM400 660h80v-80h-80v80z" />
    <glyph glyph-name="wgrave" unicode="&#x1e81;" horiz-adv-x="680" 
d="M670 500l-174 -500h-62h-10l-83 239l-85 -239h-62h-10l-174 500h70l141 -424l88 254l-59 170h70l140 -422l140 422h70zM300 700h-80l96 -130h64z" />
    <glyph glyph-name="x" unicode="x" horiz-adv-x="453" 
d="M358 0l-133 205l-133 -205h-72l169 260l-156 240h72l120 -185l120 185h72l-156 -240l169 -260h-72z" />
    <glyph glyph-name="y" unicode="y" horiz-adv-x="470" 
d="M460 500l-249 -700h-70l72 204l-203 496h70l166 -404l144 404h70z" />
    <glyph glyph-name="yacute" unicode="&#xfd;" horiz-adv-x="470" 
d="M460 500l-249 -700h-70l72 204l-203 496h70l166 -404l144 404h70zM249 570l96 130h-80l-80 -130h64z" />
    <glyph glyph-name="ycircumflex" unicode="&#x177;" horiz-adv-x="470" 
d="M460 500l-249 -700h-70l72 204l-203 496h70l166 -404l144 404h70zM305 570l-70 87l-70 -87h-75l106 130h74h4l106 -130h-75z" />
    <glyph glyph-name="ydieresis" unicode="&#xff;" horiz-adv-x="470" 
d="M460 500l-249 -700h-70l72 204l-203 496h70l166 -404l144 404h70zM95 660h80v-80h-80v80zM295 660h80v-80h-80v80z" />
    <glyph glyph-name="ygrave" unicode="&#x1ef3;" horiz-adv-x="470" 
d="M460 500l-249 -700h-70l72 204l-203 496h70l166 -404l144 404h70zM195 700h-80l96 -130h64z" />
    <glyph glyph-name="z" unicode="z" horiz-adv-x="450" 
d="M420 64v-64h-380v44l278 392h-268v64h360v-44l-278 -392h288z" />
    <glyph glyph-name="zacute" unicode="&#x17a;" horiz-adv-x="450" 
d="M420 64v-64h-380v44l278 392h-268v64h360v-44l-278 -392h288zM246 570l96 130h-80l-80 -130h64z" />
    <glyph glyph-name="zcaron" unicode="&#x17e;" horiz-adv-x="450" 
d="M420 64v-64h-380v44l278 392h-268v64h360v-44l-278 -392h288zM377 700l-106 -130h-74h-4l-106 130h75l70 -87l70 87h75z" />
    <glyph glyph-name="zdotaccent" unicode="&#x17c;" horiz-adv-x="450" 
d="M420 64v-64h-380v44l278 392h-268v64h360v-44l-278 -392h288zM187 670h90v-90h-90v90z" />
    <glyph glyph-name="a.ss01" horiz-adv-x="636" 
d="M566 500v-500h-66v98q-32 -51 -84.5 -80.5t-117.5 -29.5q-70 0 -129 34.5t-94 94.5t-35 133t35 133t94 94.5t129 34.5q65 0 117.5 -29.5t84.5 -80.5v98h66zM403 78.5q45 26.5 71 71.5t26 100t-26 100t-71 71.5t-100 26.5t-100 -26.5t-71 -71.5t-26 -100t26 -100t71 -71.5
t100 -26.5t100 26.5z" />
    <glyph glyph-name="aacute.ss01" horiz-adv-x="636" 
d="M566 500v-500h-66v98q-32 -51 -84.5 -80.5t-117.5 -29.5q-70 0 -129 34.5t-94 94.5t-35 133t35 133t94 94.5t129 34.5q65 0 117.5 -29.5t84.5 -80.5v98h66zM403 78.5q45 26.5 71 71.5t26 100t-26 100t-71 71.5t-100 26.5t-100 -26.5t-71 -71.5t-26 -100t26 -100t71 -71.5
t100 -26.5t100 26.5zM314 570l96 130h-80l-80 -130h64z" />
    <glyph glyph-name="abreve.ss01" horiz-adv-x="636" 
d="M566 500v-500h-66v98q-32 -51 -84.5 -80.5t-117.5 -29.5q-70 0 -129 34.5t-94 94.5t-35 133t35 133t94 94.5t129 34.5q65 0 117.5 -29.5t84.5 -80.5v98h66zM403 78.5q45 26.5 71 71.5t26 100t-26 100t-71 71.5t-100 26.5t-100 -26.5t-71 -71.5t-26 -100t26 -100t71 -71.5
t100 -26.5t100 26.5zM198 596.5q-38 34.5 -38 95.5h64q0 -38 19 -55t57 -17t57 17t19 55h64q0 -62 -37.5 -96t-102.5 -34q-64 0 -102 34.5z" />
    <glyph glyph-name="acircumflex.ss01" horiz-adv-x="636" 
d="M566 500v-500h-66v98q-32 -51 -84.5 -80.5t-117.5 -29.5q-70 0 -129 34.5t-94 94.5t-35 133t35 133t94 94.5t129 34.5q65 0 117.5 -29.5t84.5 -80.5v98h66zM403 78.5q45 26.5 71 71.5t26 100t-26 100t-71 71.5t-100 26.5t-100 -26.5t-71 -71.5t-26 -100t26 -100t71 -71.5
t100 -26.5t100 26.5zM370 570l-70 87l-70 -87h-75l106 130h74h4l106 -130h-75z" />
    <glyph glyph-name="adieresis.ss01" horiz-adv-x="636" 
d="M566 500v-500h-66v98q-32 -51 -84.5 -80.5t-117.5 -29.5q-70 0 -129 34.5t-94 94.5t-35 133t35 133t94 94.5t129 34.5q65 0 117.5 -29.5t84.5 -80.5v98h66zM403 78.5q45 26.5 71 71.5t26 100t-26 100t-71 71.5t-100 26.5t-100 -26.5t-71 -71.5t-26 -100t26 -100t71 -71.5
t100 -26.5t100 26.5zM160 660h80v-80h-80v80zM360 660h80v-80h-80v80z" />
    <glyph glyph-name="agrave.ss01" horiz-adv-x="636" 
d="M566 500v-500h-66v98q-32 -51 -84.5 -80.5t-117.5 -29.5q-70 0 -129 34.5t-94 94.5t-35 133t35 133t94 94.5t129 34.5q65 0 117.5 -29.5t84.5 -80.5v98h66zM403 78.5q45 26.5 71 71.5t26 100t-26 100t-71 71.5t-100 26.5t-100 -26.5t-71 -71.5t-26 -100t26 -100t71 -71.5
t100 -26.5t100 26.5zM260 700h-80l96 -130h64z" />
    <glyph glyph-name="amacron.ss01" horiz-adv-x="636" 
d="M566 500v-500h-66v98q-32 -51 -84.5 -80.5t-117.5 -29.5q-70 0 -129 34.5t-94 94.5t-35 133t35 133t94 94.5t129 34.5q65 0 117.5 -29.5t84.5 -80.5v98h66zM403 78.5q45 26.5 71 71.5t26 100t-26 100t-71 71.5t-100 26.5t-100 -26.5t-71 -71.5t-26 -100t26 -100t71 -71.5
t100 -26.5t100 26.5zM170 638h260v-58h-260v58z" />
    <glyph glyph-name="aogonek.ss01" horiz-adv-x="636" 
d="M511 -65q-21 -34 -21 -59q0 -31 34 -31q21 0 42 9v-55q-27 -11 -59 -11q-39 0 -60.5 21t-21.5 55q0 30 18.5 68t56.5 80v86q-32 -51 -84.5 -80.5t-117.5 -29.5q-70 0 -129 34.5t-94 94.5t-35 133t35 133t94 94.5t129 34.5q65 0 117.5 -29.5t84.5 -80.5v98h66v-500
q-34 -31 -55 -65zM403 78.5q45 26.5 71 71.5t26 100t-26 100t-71 71.5t-100 26.5t-100 -26.5t-71 -71.5t-26 -100t26 -100t71 -71.5t100 -26.5t100 26.5z" />
    <glyph glyph-name="aring.ss01" horiz-adv-x="636" 
d="M566 500v-500h-66v98q-32 -51 -84.5 -80.5t-117.5 -29.5q-70 0 -129 34.5t-94 94.5t-35 133t35 133t94 94.5t129 34.5q65 0 117.5 -29.5t84.5 -80.5v98h66zM403 78.5q45 26.5 71 71.5t26 100t-26 100t-71 71.5t-100 26.5t-100 -26.5t-71 -71.5t-26 -100t26 -100t71 -71.5
t100 -26.5t100 26.5zM223.5 578.5q-29.5 28.5 -29.5 71.5t29.5 71.5t76.5 28.5t76.5 -28.5t29.5 -71.5t-29.5 -71.5t-76.5 -28.5t-76.5 28.5zM338.5 614.5q13.5 13.5 13.5 35.5t-13.5 35.5t-38.5 13.5q-24 0 -37.5 -13.5t-13.5 -35.5t13.5 -35.5t37.5 -13.5q25 0 38.5 13.5z
" />
    <glyph glyph-name="atilde.ss01" horiz-adv-x="636" 
d="M566 500v-500h-66v98q-32 -51 -84.5 -80.5t-117.5 -29.5q-70 0 -129 34.5t-94 94.5t-35 133t35 133t94 94.5t129 34.5q65 0 117.5 -29.5t84.5 -80.5v98h66zM403 78.5q45 26.5 71 71.5t26 100t-26 100t-71 71.5t-100 26.5t-100 -26.5t-71 -71.5t-26 -100t26 -100t71 -71.5
t100 -26.5t100 26.5zM179.5 666q19.5 29 51.5 29q33 0 70 -28q23 -17 36.5 -25t22.5 -8q11 0 16.5 13t5.5 43h58q0 -57 -19 -86t-51 -29q-33 0 -70 28q-23 17 -36.5 25t-23.5 8q-22 0 -22 -56h-58q0 57 19.5 86z" />
    <glyph glyph-name="ae.ss01" horiz-adv-x="1029" 
d="M887.5 475.5q54.5 -36.5 83 -97t28.5 -130.5q0 -11 -2 -31h-66h-363q10 -76 61.5 -120.5t127.5 -44.5q54 0 94 23.5t57 61.5h73q-22 -67 -79 -108t-138 -41q-69 0 -119 28.5t-79 80.5v-97h-66v98q-32 -51 -84.5 -80.5t-117.5 -29.5q-70 0 -129 34.5t-94 94.5t-35 133
t35 133t94 94.5t129 34.5q65 0 117.5 -29.5t84.5 -80.5v98h66v-99q29 52 78.5 81.5t114.5 29.5q74 0 128.5 -36.5zM403 78.5q45 26.5 71 71.5t26 100t-26 100t-71 71.5t-100 26.5t-100 -26.5t-71 -71.5t-26 -100t26 -100t71 -71.5t100 -26.5t100 26.5zM627.5 402
q-50.5 -46 -59.5 -121h363q-9 79 -58 123t-117 44q-78 0 -128.5 -46z" />
    <glyph glyph-name="y.ss01" horiz-adv-x="518" 
d="M448 500v-525q0 -86 -52.5 -136.5t-137.5 -50.5q-55 0 -98.5 21.5t-67.5 59.5t-24 86h66q0 -50 36 -76.5t88 -26.5q53 0 88.5 30t35.5 93v91q-52 -78 -154 -78q-47 0 -85.5 22.5t-61.5 64.5t-23 98v327h66v-327q0 -58 32 -89.5t84 -31.5q59 0 100.5 40t41.5 126v282h66z
" />
    <glyph glyph-name="yacute.ss01" horiz-adv-x="518" 
d="M448 500v-525q0 -86 -52.5 -136.5t-137.5 -50.5q-55 0 -98.5 21.5t-67.5 59.5t-24 86h66q0 -50 36 -76.5t88 -26.5q53 0 88.5 30t35.5 93v91q-52 -78 -154 -78q-47 0 -85.5 22.5t-61.5 64.5t-23 98v327h66v-327q0 -58 32 -89.5t84 -31.5q59 0 100.5 40t41.5 126v282h66z
M267 570l96 130h-80l-80 -130h64z" />
    <glyph glyph-name="ycircumflex.ss01" horiz-adv-x="518" 
d="M448 500v-525q0 -86 -52.5 -136.5t-137.5 -50.5q-55 0 -98.5 21.5t-67.5 59.5t-24 86h66q0 -50 36 -76.5t88 -26.5q53 0 88.5 30t35.5 93v91q-52 -78 -154 -78q-47 0 -85.5 22.5t-61.5 64.5t-23 98v327h66v-327q0 -58 32 -89.5t84 -31.5q59 0 100.5 40t41.5 126v282h66z
M323 570l-70 87l-70 -87h-75l106 130h74h4l106 -130h-75z" />
    <glyph glyph-name="ydieresis.ss01" horiz-adv-x="518" 
d="M448 500v-525q0 -86 -52.5 -136.5t-137.5 -50.5q-55 0 -98.5 21.5t-67.5 59.5t-24 86h66q0 -50 36 -76.5t88 -26.5q53 0 88.5 30t35.5 93v91q-52 -78 -154 -78q-47 0 -85.5 22.5t-61.5 64.5t-23 98v327h66v-327q0 -58 32 -89.5t84 -31.5q59 0 100.5 40t41.5 126v282h66z
M113 660h80v-80h-80v80zM313 660h80v-80h-80v80z" />
    <glyph glyph-name="ygrave.ss01" horiz-adv-x="518" 
d="M448 500v-525q0 -86 -52.5 -136.5t-137.5 -50.5q-55 0 -98.5 21.5t-67.5 59.5t-24 86h66q0 -50 36 -76.5t88 -26.5q53 0 88.5 30t35.5 93v91q-52 -78 -154 -78q-47 0 -85.5 22.5t-61.5 64.5t-23 98v327h66v-327q0 -58 32 -89.5t84 -31.5q59 0 100.5 40t41.5 126v282h66z
M213 700h-80l96 -130h64z" />
    <glyph glyph-name="f_f_j" horiz-adv-x="781" 
d="M711 -40q0 -84 -40.5 -128.5t-116.5 -44.5q-15 0 -23 1v64q8 -1 22 -1q47 0 69.5 26t22.5 83v476h-204v-436h-66v436h-85h-119v-436h-66v436h-85v64h85v20q0 92 48 142.5t138 50.5q16 0 24 -1v-64q-8 1 -23 1q-61 0 -91 -31.5t-30 -97.5v-20h144h60v30q0 96 53.5 144
t156.5 48q42 0 96 -12v-60q-47 8 -96 8q-75 0 -109.5 -29t-34.5 -99v-30h270v-540z" />
    <glyph glyph-name="f_j" horiz-adv-x="511" 
d="M441 -40q0 -84 -40.5 -128.5t-116.5 -44.5q-15 0 -23 1v64q8 -1 22 -1q47 0 69.5 26t22.5 83v476h-204v-436h-66v436h-85v64h85v20q0 96 53.5 144t156.5 48q42 0 96 -12v-60q-47 8 -96 8q-75 0 -109.5 -29t-34.5 -99v-20h270v-540z" />
    <glyph glyph-name="ordfeminine" unicode="&#xaa;" horiz-adv-x="280" 
d="M213 686.5q27 -25.5 27 -67.5v-163h-49v25q-25 -31 -76 -31q-35 0 -60 22.5t-25 58.5t25 58t60 22q49 0 76 -29v37q0 21 -13.5 33t-37.5 12t-37.5 -9.5t-13.5 -25.5h-49q0 38 27 60.5t73 22.5t73 -25.5zM170 502q21 10 21 29q0 20 -20.5 29t-42.5 9t-35.5 -10.5
t-13.5 -27.5t13.5 -28t35.5 -11q21 0 42 10z" />
    <glyph glyph-name="ordmasculine" unicode="&#xba;" horiz-adv-x="323" 
d="M68 487.5q-38 37.5 -38 93.5t38 93.5t94 37.5t93.5 -37.5t37.5 -93.5t-37.5 -93.5t-93.5 -37.5t-94 37.5zM221 520.5q22 22.5 22 60.5t-22 60.5t-59 22.5t-59.5 -23t-22.5 -60t22.5 -60t59.5 -23t59 22.5z" />
    <glyph glyph-name="uni0410" unicode="&#x410;" 
d="M481 172h-332l-65 -172h-74l269 700h72l269 -700h-74zM456 238l-141 375l-141 -375h282z" />
    <glyph glyph-name="uni0411" unicode="&#x411;" horiz-adv-x="585" 
d="M445 391.5q48 -28.5 76.5 -76.5t28.5 -105t-28 -105.5t-76.5 -76.5t-105.5 -28h-230h-30v700h70h340v-66h-340v-214h190q57 0 105 -28.5zM410 85.5q32 19.5 51 52.5t19 72t-19 72t-51 52.5t-70 19.5h-190v-288h190q38 0 70 19.5z" />
    <glyph glyph-name="uni0412" unicode="&#x412;" horiz-adv-x="685" 
d="M613.5 359.5q36.5 -57.5 36.5 -129.5q0 -62 -29 -115t-79.5 -84t-112.5 -31h-339h-10v700h70h209q54 0 95 -23t63.5 -62t22.5 -86q0 -46 -24 -86q61 -26 97.5 -83.5zM150 634v-174h280h15q25 28 25 69q0 45 -29.5 75t-81.5 30h-209zM503.5 88q36.5 22 56.5 59.5t20 82.5
q0 46 -19.5 83t-56 59t-84.5 22h-270v-328h269q48 0 84.5 22z" />
    <glyph glyph-name="uni0413" unicode="&#x413;" horiz-adv-x="490" 
d="M470 634h-320v-634h-70v700h390v-66z" />
    <glyph glyph-name="uni0403" unicode="&#x403;" horiz-adv-x="490" 
d="M470 634h-320v-634h-70v700h390v-66zM290 769l96 130h-80l-80 -130h64z" />
    <glyph glyph-name="uni0490" unicode="&#x490;" horiz-adv-x="490" 
d="M470 820v-150v-36h-320v-634h-70v700h320v120h70z" />
    <glyph glyph-name="uni0414" unicode="&#x414;" horiz-adv-x="660" 
d="M625 66v-66v-144h-70v144h-75h-395v-144h-70v180v30h57q33 39 51 97t18 153v384h409v-634h75zM480 66v568h-269v-320q0 -166 -56 -248h325z" />
    <glyph glyph-name="uni0415" unicode="&#x415;" horiz-adv-x="520" 
d="M480 66v-66h-370h-30v700h70h325v-66h-325v-248h300v-66h-300v-254h330z" />
    <glyph glyph-name="uni0401" unicode="&#x401;" horiz-adv-x="520" 
d="M480 66v-66h-370h-30v700h70h325v-66h-325v-248h300v-66h-300v-254h330zM138 860h80v-80h-80v80zM338 860h80v-80h-80v80z" />
    <glyph glyph-name="uni0416" unicode="&#x416;" horiz-adv-x="850" 
d="M748 0l-288 342v-342h-70v342l-288 -342h-82l301 360l-291 340h82l278 -323v323h70v-323l278 323h82l-291 -340l301 -360h-82z" />
    <glyph glyph-name="uni0417" unicode="&#x417;" horiz-adv-x="530" 
d="M480.5 334q29.5 -52 29.5 -116t-29.5 -116.5t-85 -83t-130.5 -30.5t-130.5 30.5t-85 83t-29.5 116.5h70q0 -71 46 -117.5t129 -46.5t129 46.5t46 117.5q0 46 -19.5 83t-56 59t-84.5 22h-50v62h50q25 0 44 -4q56 43 56 101q0 46 -31.5 75.5t-89.5 29.5t-89.5 -29.5
t-31.5 -75.5h-70q0 47 23 86t66.5 62t101.5 23t101.5 -23t66.5 -62t23 -86q0 -70 -52 -126q53 -29 82.5 -81z" />
    <glyph glyph-name="uni0418" unicode="&#x418;" 
d="M480 560l-340 -560h-60v700h70v-560l340 560h60v-700h-70v560z" />
    <glyph glyph-name="uni0419" unicode="&#x419;" 
d="M480 560l-340 -560h-60v700h70v-560l340 560h60v-700h-70v560zM195 838h260v-58h-260v58z" />
    <glyph glyph-name="uni041A" unicode="&#x41a;" horiz-adv-x="580" 
d="M478 0l-328 339v-339h-70v700h70v-320l318 320h92l-336 -340l346 -360h-92z" />
    <glyph glyph-name="uni040C" unicode="&#x40c;" horiz-adv-x="580" 
d="M478 0l-328 339v-339h-70v700h70v-320l318 320h92l-336 -340l346 -360h-92zM300 769l96 130h-80l-80 -130h64z" />
    <glyph glyph-name="uni041B" unicode="&#x41b;" horiz-adv-x="645" 
d="M15 61q16 -2 23 -2q61 0 92 58t31 194v389h404v-700h-70v634h-264v-325q0 -172 -47.5 -241.5t-140.5 -69.5q-19 0 -28 1v62z" />
    <glyph glyph-name="uni041C" unicode="&#x41c;" horiz-adv-x="800" 
d="M720 0h-70v582l-215 -461h-70l-215 461v-582h-70v700h70h18l232 -500l232 500h88v-700z" />
    <glyph glyph-name="uni041D" unicode="&#x41d;" 
d="M550 700v-700h-70v327h-330v-327h-70v700h70v-307h330v307h70z" />
    <glyph glyph-name="uni041E" unicode="&#x41e;" horiz-adv-x="804" 
d="M219 36.5q-83 48.5 -131 131.5t-48 182t48 182t131 131.5t183 48.5t183 -48.5t131 -131.5t48 -182t-48 -182t-131 -131.5t-183 -48.5t-183 48.5zM550 95.5q67 39.5 105.5 106.5t38.5 148t-38.5 148t-105.5 106.5t-148 39.5t-148 -39.5t-105.5 -106.5t-38.5 -148
t38.5 -148t105.5 -106.5t148 -39.5t148 39.5z" />
    <glyph glyph-name="uni041F" unicode="&#x41f;" 
d="M550 0h-70v634h-330v-634h-70v700h70h400v-700z" />
    <glyph glyph-name="uni0420" unicode="&#x420;" horiz-adv-x="580" 
d="M435.5 672q48.5 -28 76.5 -76.5t28 -105.5t-28.5 -105t-76.5 -76.5t-105 -28.5h-180v-280h-70v700h70h180q57 0 105.5 -28zM400 365.5q32 19.5 51 52.5t19 72t-19 72t-51 52.5t-70 19.5h-180v-288h180q38 0 70 19.5z" />
    <glyph glyph-name="uni0421" unicode="&#x421;" horiz-adv-x="765" 
d="M218 36.5q-84 48.5 -131 131.5t-47 182t47 182t131 131.5t189 48.5q76 0 143.5 -29.5t115.5 -82.5t69 -120h-76q-28 73 -97 118.5t-155 45.5t-154 -39t-105.5 -106.5t-37.5 -148.5t37.5 -148.5t105.5 -106.5t154 -39t155 45.5t97 118.5h76q-21 -67 -69 -120t-115.5 -82.5
t-143.5 -29.5q-105 0 -189 48.5z" />
    <glyph glyph-name="uni0422" unicode="&#x422;" horiz-adv-x="500" 
d="M480 634h-195v-634h-70v634h-195v66h265h195v-66z" />
    <glyph glyph-name="uni0423" unicode="&#x423;" horiz-adv-x="570" 
d="M560 700l-233 -547q-33 -79 -82.5 -116.5t-120.5 -37.5l-20 1v64q8 -1 24 -1q46 0 76.5 23t52.5 73l14 33l-241 508h72l202 -430l184 430h72z" />
    <glyph glyph-name="uni040E" unicode="&#x40e;" horiz-adv-x="570" 
d="M560 700l-233 -547q-33 -79 -82.5 -116.5t-120.5 -37.5l-20 1v64q8 -1 24 -1q46 0 76.5 23t52.5 73l14 33l-241 508h72l202 -430l184 430h72zM156 837h260v-58h-260v58z" />
    <glyph glyph-name="uni0424" unicode="&#x424;" horiz-adv-x="804" 
d="M681.5 156q-92.5 -70 -244.5 -77v-79h-70v79q-152 7 -244.5 77t-92.5 194t92.5 194t244.5 77v79h70v-79q152 -7 244.5 -77t92.5 -194t-92.5 -194zM172 201.5q72 -52.5 195 -58.5v414q-123 -6 -195 -58.5t-72 -148.5t72 -148.5zM632 201.5q72 52.5 72 148.5t-72 148.5
t-195 58.5v-414q123 6 195 58.5z" />
    <glyph glyph-name="uni0425" unicode="&#x425;" horiz-adv-x="570" 
d="M473 0l-188 300l-188 -300h-77l227 362l-212 338h77l173 -276l173 276h77l-211 -338l226 -362h-77z" />
    <glyph glyph-name="uni0427" unicode="&#x427;" horiz-adv-x="605" 
d="M525 700v-700h-70v285q-80 -35 -170 -35q-67 0 -116.5 26t-76.5 71t-27 103v250h70v-250q0 -61 39.5 -97.5t110.5 -36.5q90 0 170 35v349h70z" />
    <glyph glyph-name="uni0426" unicode="&#x426;" horiz-adv-x="660" 
d="M625 66v-210h-70v144h-475v700h70v-634h330v634h70v-634h75z" />
    <glyph glyph-name="uni0428" unicode="&#x428;" horiz-adv-x="910" 
d="M830 700v-700h-750v700h70v-634h270v634h70v-634h270v634h70z" />
    <glyph glyph-name="uni0429" unicode="&#x429;" horiz-adv-x="940" 
d="M905 66v-210h-70v144h-755v700h70v-634h270v634h70v-634h270v634h70v-634h75z" />
    <glyph glyph-name="uni040F" unicode="&#x40f;" 
d="M550 700v-700h-70h-130v-144h-70v144h-170h-30v700h70v-634h330v634h70z" />
    <glyph glyph-name="uni042C" unicode="&#x42c;" horiz-adv-x="580" 
d="M435 391.5q48 -28.5 76.5 -76.5t28.5 -105t-28 -105.5t-76.5 -76.5t-105.5 -28h-220h-30v700h70v-280h180q57 0 105 -28.5zM400 85.5q32 19.5 51 52.5t19 72t-19 72t-51 52.5t-70 19.5h-180v-288h180q38 0 70 19.5z" />
    <glyph glyph-name="uni042A" unicode="&#x42a;" horiz-adv-x="690" 
d="M190 634h-190v66h260v-280h180q57 0 105 -28.5t76.5 -76.5t28.5 -105t-28 -105.5t-76.5 -76.5t-105.5 -28h-250v634zM440 66q38 0 70 19.5t51 52.5t19 72t-19 72t-51 52.5t-70 19.5h-180v-288h180z" />
    <glyph glyph-name="uni042B" unicode="&#x42b;" horiz-adv-x="765" 
d="M80 700h70v-280h180q57 0 105 -28.5t76.5 -76.5t28.5 -105t-28 -105.5t-76.5 -76.5t-105.5 -28h-250v700zM615 700h70v-700h-70v700zM330 66q38 0 70 19.5t51 52.5t19 72t-19 72t-51 52.5t-70 19.5h-180v-288h180z" />
    <glyph glyph-name="uni0409" unicode="&#x409;" horiz-adv-x="955" 
d="M810.5 374q48.5 -26 76.5 -72t28 -102q0 -57 -28 -102.5t-76 -71.5t-106 -26h-200h-30v634h-244v-325q0 -172 -47.5 -241.5t-140.5 -69.5q-19 0 -28 1v62q16 -2 23 -2q61 0 92 58t31 194v389h384v-300h160q57 0 105.5 -26zM804.5 103.5q40.5 37.5 40.5 96.5
q0 58 -40.5 96t-99.5 38h-160v-268h160q59 0 99.5 37.5z" />
    <glyph glyph-name="uni040A" unicode="&#x40a;" horiz-adv-x="940" 
d="M795.5 374q48.5 -26 76.5 -72t28 -102q0 -57 -28 -102.5t-76 -71.5t-106 -26h-200h-30v334h-310v-334h-70v700h70v-300h310v300h70v-300h160q57 0 105.5 -26zM789.5 103.5q40.5 37.5 40.5 96.5q0 58 -40.5 96t-99.5 38h-160v-268h160q59 0 99.5 37.5z" />
    <glyph glyph-name="uni0405" unicode="&#x405;" horiz-adv-x="550" 
d="M161.5 13.5q-55.5 25.5 -88.5 74t-33 115.5h70q0 -70 48.5 -108.5t126.5 -38.5q66 0 110.5 33t44.5 88q0 51 -40 81t-117 59q-80 30 -120.5 50t-71.5 59.5t-31 102.5q0 56 29.5 97.5t77.5 63.5t104 22q59 0 109.5 -23.5t80 -69t29.5 -107.5h-70q0 63 -41.5 97.5
t-107.5 34.5q-60 0 -100.5 -30.5t-40.5 -84.5q0 -38 20 -63.5t51.5 -42.5t82.5 -37q80 -31 121 -51.5t73 -59t32 -98.5q0 -57 -31 -100t-82.5 -66t-111.5 -23q-68 0 -123.5 25.5z" />
    <glyph glyph-name="uni0404" unicode="&#x404;" horiz-adv-x="755" 
d="M553.5 100.5q66.5 44.5 95.5 119.5h76q-32 -105 -120.5 -168.5t-212.5 -63.5q-103 0 -183 48.5t-124.5 131t-44.5 182.5t44.5 182.5t124.5 131t183 48.5q124 0 212.5 -63.5t120.5 -168.5h-76q-29 75 -95.5 119.5t-161.5 44.5q-78 0 -139.5 -34t-97.5 -93.5t-43 -133.5
h383v-66h-383q7 -74 43 -133.5t97.5 -93.5t139.5 -34q95 0 161.5 44.5z" />
    <glyph glyph-name="uni042D" unicode="&#x42d;" horiz-adv-x="755" 
d="M546 663.5q80 -48.5 124.5 -131t44.5 -182.5t-44.5 -182.5t-124.5 -131t-183 -48.5q-124 0 -212.5 63.5t-120.5 168.5h76q29 -75 95.5 -119.5t161.5 -44.5q78 0 139.5 34t97.5 93.5t43 133.5h-383v66h383q-7 74 -43 133.5t-97.5 93.5t-139.5 34q-95 0 -161.5 -44.5
t-95.5 -119.5h-76q32 105 120.5 168.5t212.5 63.5q103 0 183 -48.5z" />
    <glyph glyph-name="uni0406" unicode="&#x406;" horiz-adv-x="230" 
d="M150 700v-700h-70v700h70z" />
    <glyph glyph-name="uni0407" unicode="&#x407;" horiz-adv-x="230" 
d="M150 700v-700h-70v700h70zM-25 860h80v-80h-80v80zM175 860h80v-80h-80v80z" />
    <glyph glyph-name="uni0408" unicode="&#x408;" horiz-adv-x="530" 
d="M131 11.5q-50 23.5 -80.5 71t-30.5 115.5v10h70v-10q0 -72 42 -107t108 -35t108 35t42 107v502h70v-502q0 -68 -30.5 -115.5t-80.5 -71t-109 -23.5t-109 23.5z" />
    <glyph glyph-name="uni040B" unicode="&#x40b;" horiz-adv-x="663" 
d="M550.5 423q52.5 -49 52.5 -141v-282h-70v282q0 65 -31.5 95.5t-86.5 30.5q-65 0 -140 -33v-375h-70v634h-185v66h255h225v-66h-225v-196q71 34 139 34q84 0 136.5 -49z" />
    <glyph glyph-name="uni042E" unicode="&#x42e;" horiz-adv-x="1040" 
d="M821 663.5q83 -48.5 131 -131.5t48 -182t-48 -182t-131 -131.5t-183 -48.5q-96 0 -175.5 45t-128 122.5t-53.5 171.5h-131v-327h-70v700h70v-307h132q10 89 59 162t126.5 115t170.5 42q100 0 183 -48.5zM786 95.5q67 39.5 105.5 106.5t38.5 148t-38.5 148t-105.5 106.5
t-148 39.5t-148 -39.5t-105.5 -106.5t-38.5 -148t38.5 -148t105.5 -106.5t148 -39.5t148 39.5z" />
    <glyph glyph-name="uni042F" unicode="&#x42f;" horiz-adv-x="620" 
d="M540 0h-70v280h-116l-246 -280h-88l248 281q-52 5 -95 34.5t-68 75.5t-25 99q0 57 28 105.5t76.5 76.5t105.5 28h250v-700zM470 346v288h-180q-38 0 -70 -19.5t-51 -52.5t-19 -72t19 -72t51 -52.5t70 -19.5h180z" />
    <glyph glyph-name="uni0402" unicode="&#x402;" horiz-adv-x="658" 
d="M550.5 423q52.5 -49 52.5 -141v-118q0 -84 -40.5 -128.5t-116.5 -44.5q-15 0 -23 1v64q8 -1 22 -1q46 0 67 26t21 83v118q0 65 -31.5 95.5t-86.5 30.5q-65 0 -140 -33v-375h-70v634h-185v66h255h225v-66h-225v-196q71 34 139 34q84 0 136.5 -49z" />
    <glyph glyph-name="uni0414.loclBGR" horiz-adv-x="700" 
d="M675 66v-66v-144h-70v144h-465h-45v-144h-70v180v30h64l225 634h72l225 -634h64zM537 66l-187 547l-187 -547h374z" />
    <glyph glyph-name="uni041B.loclBGR" horiz-adv-x="608" 
d="M340 700l258 -700h-74l-220 613l-220 -613h-74l258 700h72z" />
    <glyph glyph-name="uni0424.loclBGR" horiz-adv-x="844" 
d="M760.5 168.5q-43.5 -79.5 -122.5 -126t-181 -53.5v-89h-70v89q-102 7 -181 53.5t-122.5 126t-43.5 181.5t43.5 181.5t122.5 126t181 53.5v89h70v-89q102 -7 181 -53.5t122.5 -126t43.5 -181.5t-43.5 -181.5zM144.5 201q34.5 -65 97 -103t145.5 -45v594q-83 -7 -145.5 -45
t-97 -103t-34.5 -149t34.5 -149zM602.5 98q62.5 38 97 103t34.5 149t-34.5 149t-97 103t-145.5 45v-594q83 7 145.5 45z" />
    <glyph glyph-name="uni0414.ss01" horiz-adv-x="660" 
d="M625 66v-66h-145h-465v66h57q33 39 51 97t18 153v384h409v-634h75zM480 66v568h-269v-320q0 -166 -56 -248h325z" />
    <glyph glyph-name="uni0426.ss01" horiz-adv-x="660" 
d="M625 66v-66h-545v700h70v-634h330v634h70v-634h75z" />
    <glyph glyph-name="uni0429.ss01" horiz-adv-x="940" 
d="M905 66v-66h-825v700h70v-634h270v634h70v-634h270v634h70v-634h75z" />
    <glyph glyph-name="uni0414.loclBGR.ss01" horiz-adv-x="700" 
d="M675 66v-66h-115h-494h-41v66h64l225 634h72l225 -634h64zM537 66l-187 547l-187 -547h374z" />
    <glyph glyph-name="uni0430" unicode="&#x430;" horiz-adv-x="498" 
d="M387.5 461.5q52.5 -50.5 52.5 -136.5v-325h-66v56q-25 -35 -65 -51.5t-90 -16.5q-48 0 -88.5 18.5t-65.5 54.5t-25 88t25 88t65.5 54.5t88.5 18.5q49 0 89.5 -16.5t65.5 -48.5v80q0 63 -35.5 93t-88.5 30q-52 0 -88 -26.5t-36 -76.5h-66q0 48 24 86t67.5 59.5t98.5 21.5
q85 0 137.5 -50.5zM334.5 78q39.5 28 39.5 71q0 45 -39 72t-100 27q-64 0 -96.5 -27t-32.5 -72t32.5 -72t96.5 -27q60 0 99.5 28z" />
    <glyph glyph-name="uni0431" unicode="&#x431;" horiz-adv-x="567" 
d="M164.5 20.5q-57.5 32.5 -91 92t-33.5 137.5q0 91 37 156t86.5 104t123.5 83q60 36 86 57.5t26 49.5h68q0 -38 -19.5 -66t-48 -48t-81.5 -49q-73 -40 -118.5 -75t-72.5 -89q36 43 79.5 62.5t89.5 19.5q66 0 121 -30t87.5 -83t32.5 -120t-32 -120t-87.5 -83.5t-125.5 -30.5
t-127.5 32.5zM384.5 75.5q40.5 21.5 63.5 60t23 86.5t-24 86.5t-66 60.5t-94 22q-45 0 -86 -19.5t-67 -56.5t-26 -87t24.5 -90t66.5 -62t93 -22q52 0 92.5 21.5z" />
    <glyph glyph-name="uni0432" unicode="&#x432;" horiz-adv-x="525" 
d="M478 245.5q22 -36.5 22 -82.5q0 -70 -46.5 -116.5t-133.5 -46.5h-250v262v176v62h200q73 0 116.5 -39.5t43.5 -99.5q0 -32 -15 -59q41 -20 63 -56.5zM136 322h184q11 0 31 -2q13 20 13 41q0 39 -27 59t-67 18h-134v-116zM404 89q30 27 30 74t-30 73t-84 26h-184v-200h184
q54 0 84 27z" />
    <glyph glyph-name="uni0433" unicode="&#x433;" horiz-adv-x="375" 
d="M370 436h-234v-436h-66v500h300v-64z" />
    <glyph glyph-name="uni0453" unicode="&#x453;" horiz-adv-x="375" 
d="M370 436h-234v-436h-66v500h300v-64zM210 570l96 130h-80l-80 -130h64z" />
    <glyph glyph-name="uni0491" unicode="&#x491;" horiz-adv-x="375" 
d="M370 604v-168h-234v-436h-66v500h234v104h66z" />
    <glyph glyph-name="uni0434" unicode="&#x434;" horiz-adv-x="570" 
d="M540 64v-64v-144h-66v144h-70h-318v-144h-66v180v28h61q26 34 38.5 76.5t12.5 112.5v247h66h225h47v-436h70zM404 64v372h-206v-183q0 -115 -37 -189h243z" />
    <glyph glyph-name="uni0435" unicode="&#x435;" horiz-adv-x="569" 
d="M425 475.5q55 -36.5 84.5 -97t29.5 -130.5q0 -11 -2 -31h-66h-363q10 -76 61.5 -120.5t127.5 -44.5q54 0 94 23.5t57 61.5h73q-21 -66 -82 -107.5t-143 -41.5q-75 0 -133.5 34t-90.5 93.5t-32 134.5q0 73 32 133t90 94.5t134 34.5q74 0 129 -36.5zM167.5 402
q-50.5 -46 -59.5 -121h363q-9 79 -58 123t-117 44q-78 0 -128.5 -46z" />
    <glyph glyph-name="uni0451" unicode="&#x451;" horiz-adv-x="569" 
d="M425 475.5q55 -36.5 84.5 -97t29.5 -130.5q0 -11 -2 -31h-66h-363q10 -76 61.5 -120.5t127.5 -44.5q54 0 94 23.5t57 61.5h73q-21 -66 -82 -107.5t-143 -41.5q-75 0 -133.5 34t-90.5 93.5t-32 134.5q0 73 32 133t90 94.5t134 34.5q74 0 129 -36.5zM167.5 402
q-50.5 -46 -59.5 -121h363q-9 79 -58 123t-117 44q-78 0 -128.5 -46zM155 660h80v-80h-80v80zM355 660h80v-80h-80v80z" />
    <glyph glyph-name="uni0436" unicode="&#x436;" horiz-adv-x="674" 
d="M574 0l-204 241v-241h-66v241l-204 -241h-80l224 260l-214 240h80l194 -222v222h66v-222l194 222h80l-214 -240l224 -260h-80z" />
    <glyph glyph-name="uni0437" unicode="&#x437;" horiz-adv-x="420" 
d="M381 225.5q19 -34.5 19 -74.5q0 -45 -22.5 -82t-65.5 -59t-102 -22t-102 22t-65.5 59t-22.5 82h66q0 -46 34 -72.5t90 -26.5t90 26.5t34 72.5t-34 72.5t-90 26.5h-35v60h35q25 0 53 -5q36 27 36 64q0 39 -26.5 59t-67.5 20q-42 0 -68 -20.5t-26 -62.5h-66q0 65 43.5 106
t116.5 41q48 0 84.5 -19t56 -52t19.5 -72q0 -25 -10 -48t-28 -40q35 -21 54 -55.5z" />
    <glyph glyph-name="uni0438" unicode="&#x438;" horiz-adv-x="530" 
d="M460 500v-500h-66v380l-268 -380h-56v500h66v-380l268 380h56z" />
    <glyph glyph-name="uni0439" unicode="&#x439;" horiz-adv-x="530" 
d="M460 500v-500h-66v380l-268 -380h-56v500h66v-380l268 380h56zM135 638h260v-58h-260v58z" />
    <glyph glyph-name="uni043A" unicode="&#x43a;" horiz-adv-x="494" 
d="M386 0l-250 241v-241h-66v500h66v-222l240 222h88l-260 -240l270 -260h-88z" />
    <glyph glyph-name="uni045C" unicode="&#x45c;" horiz-adv-x="494" 
d="M386 0l-250 241v-241h-66v500h66v-222l240 222h88l-260 -240l270 -260h-88zM260 570l96 130h-80l-80 -130h64z" />
    <glyph glyph-name="uni043B" unicode="&#x43b;" horiz-adv-x="530" 
d="M460 0h-66v436h-206v-223q0 -117 -42 -165.5t-116 -48.5l-20 1v62q6 -1 18 -1q47 0 70.5 34t23.5 118v287h66h272v-500z" />
    <glyph glyph-name="uni043C" unicode="&#x43c;" 
d="M560 0h-66v390l-153 -289h-52l-153 289v-390h-66v500h66h10l169 -321l169 321h76v-500z" />
    <glyph glyph-name="uni043D" unicode="&#x43d;" horiz-adv-x="531" 
d="M460 500v-500h-66v218h-258v-218h-66v500h66v-218h258v218h66z" />
    <glyph glyph-name="uni043E" unicode="&#x43e;" horiz-adv-x="606" 
d="M170.5 22.5q-60.5 34.5 -95.5 94.5t-35 133t35 133t95.5 94.5t132.5 34.5t132.5 -34.5t95.5 -94.5t35 -133t-35 -133t-95.5 -94.5t-132.5 -34.5t-132.5 34.5zM403 78.5q45 26.5 71 71.5t26 100t-26 100t-71 71.5t-100 26.5t-100 -26.5t-71 -71.5t-26 -100t26 -100
t71 -71.5t100 -26.5t100 26.5z" />
    <glyph glyph-name="uni043F" unicode="&#x43f;" horiz-adv-x="530" 
d="M460 0h-66v436h-258v-436h-66v500h66h324v-500z" />
    <glyph glyph-name="uni0440" unicode="&#x440;" horiz-adv-x="636" 
d="M467 477.5q59 -34.5 94 -94.5t35 -133t-35 -133t-94 -94.5t-129 -34.5q-65 0 -117.5 29.5t-84.5 80.5v-298h-66v700h66v-98q32 51 84.5 80.5t117.5 29.5q70 0 129 -34.5zM433 78.5q45 26.5 71 71.5t26 100t-26 100t-71 71.5t-100 26.5t-100 -26.5t-71 -71.5t-26 -100
t26 -100t71 -71.5t100 -26.5t100 26.5z" />
    <glyph glyph-name="uni0441" unicode="&#x441;" horiz-adv-x="573" 
d="M455.5 35.5q-66.5 -47.5 -152.5 -47.5q-74 0 -134 34.5t-94.5 94.5t-34.5 133t34.5 133t94.5 94.5t134 34.5q86 0 152 -47.5t88 -124.5h-70q-20 49 -66 78.5t-104 29.5q-55 0 -100 -26.5t-71 -71.5t-26 -100t26 -100t71 -71.5t100 -26.5q59 0 105 30t65 78h70
q-21 -77 -87.5 -124.5z" />
    <glyph glyph-name="uni0442" unicode="&#x442;" horiz-adv-x="400" 
d="M390 436h-157v-436h-66v436h-157v64h223h157v-64z" />
    <glyph glyph-name="uni0443" unicode="&#x443;" horiz-adv-x="480" 
d="M470 500l-194 -546q-27 -75 -81 -117t-121 -37v62l13 -1q42 0 74.5 29t48.5 76l13 37l-203 497h70l166 -405l144 405h70z" />
    <glyph glyph-name="uni045E" unicode="&#x45e;" horiz-adv-x="480" 
d="M470 500l-194 -546q-27 -75 -81 -117t-121 -37v62l13 -1q42 0 74.5 29t48.5 76l13 37l-203 497h70l166 -405l144 405h70zM113 638h260v-58h-260v58z" />
    <glyph glyph-name="uni0444" unicode="&#x444;" horiz-adv-x="670" 
d="M597.5 124q-32.5 -57 -92 -92.5t-137.5 -42.5v-189h-66v189q-78 7 -137.5 42.5t-92 92.5t-32.5 126t32.5 126t92 92.5t137.5 42.5v189h66v-189q78 -7 137.5 -42.5t92 -92.5t32.5 -126t-32.5 -126zM159 117.5q53 -54.5 143 -63.5v392q-90 -9 -143 -63.5t-53 -132.5
t53 -132.5zM511 117.5q53 54.5 53 132.5t-53 132.5t-143 63.5v-392q90 9 143 63.5z" />
    <glyph glyph-name="uni0445" unicode="&#x445;" horiz-adv-x="453" 
d="M358 0l-133 205l-133 -205h-72l169 260l-156 240h72l120 -185l120 185h72l-156 -240l169 -260h-72z" />
    <glyph glyph-name="uni0447" unicode="&#x447;" horiz-adv-x="500" 
d="M430 500v-500h-66v190q-57 -30 -133 -30q-85 0 -133 44t-48 126v170h66v-170q0 -108 115 -108q67 0 133 29v249h66z" />
    <glyph glyph-name="uni0446" unicode="&#x446;" horiz-adv-x="560" 
d="M530 64v-208h-66v144h-394v500h66v-436h248v436h66v-436h80z" />
    <glyph glyph-name="uni0448" unicode="&#x448;" horiz-adv-x="750" 
d="M680 500v-500h-66h-272h-229h-43v500h66v-436h206v436h66v-436h206v436h66z" />
    <glyph glyph-name="uni0449" unicode="&#x449;" horiz-adv-x="780" 
d="M750 64v-64v-144h-66v144h-70h-272h-229h-43v500h66v-436h206v436h66v-436h206v436h66v-436h70z" />
    <glyph glyph-name="uni045F" unicode="&#x45f;" horiz-adv-x="530" 
d="M460 500v-500h-66h-96v-144h-66v144h-119h-43v500h66v-436h258v436h66z" />
    <glyph glyph-name="uni044C" unicode="&#x44c;" horiz-adv-x="470" 
d="M356.5 290.5q38.5 -19.5 61 -55t22.5 -80.5t-22.5 -80.5t-61 -55t-83.5 -19.5h-169h-34v500h66v-190h137q45 0 83.5 -19.5zM344.5 89q29.5 25 29.5 66t-29.5 66t-71.5 25h-137v-182h137q42 0 71.5 25z" />
    <glyph glyph-name="uni044A" unicode="&#x44a;" horiz-adv-x="540" 
d="M426.5 290.5q38.5 -19.5 61 -55t22.5 -80.5t-22.5 -80.5t-61 -55t-83.5 -19.5h-169h-34v436h-140v64h180h26v-190h137q45 0 83.5 -19.5zM414.5 89q29.5 25 29.5 66t-29.5 66t-71.5 25h-137v-182h137q42 0 71.5 25z" />
    <glyph glyph-name="uni044B" unicode="&#x44b;" horiz-adv-x="646" 
d="M356.5 290.5q38.5 -19.5 61 -55t22.5 -80.5t-22.5 -80.5t-61 -55t-83.5 -19.5h-169h-34v500h66v-190h137q45 0 83.5 -19.5zM344.5 89q29.5 25 29.5 66t-29.5 66t-71.5 25h-137v-182h137q42 0 71.5 25zM510 500h66v-500h-66v500z" />
    <glyph glyph-name="uni0459" unicode="&#x459;" horiz-adv-x="759" 
d="M684 251q45 -39 45 -106t-45 -106t-112 -39h-154h-34v436h-196v-223q0 -117 -42 -165.5t-116 -48.5l-20 1v62q6 -1 18 -1q47 0 70.5 34t23.5 118v287h66h215h47v-210h122q67 0 112 -39zM637.5 84.5q25.5 20.5 25.5 60.5t-25.5 60.5t-65.5 20.5h-122v-162h122
q40 0 65.5 20.5z" />
    <glyph glyph-name="uni045A" unicode="&#x45a;" horiz-adv-x="759" 
d="M684 251q45 -39 45 -106t-45 -106t-112 -39h-154h-34v226h-248v-226h-66v500h66v-210h248v210h66v-210h122q67 0 112 -39zM637.5 84.5q25.5 20.5 25.5 60.5t-25.5 60.5t-65.5 20.5h-122v-162h122q40 0 65.5 20.5z" />
    <glyph glyph-name="uni0455" unicode="&#x455;" horiz-adv-x="460" 
d="M137.5 325.5q16.5 -16.5 41 -26t68.5 -21.5q54 -14 87.5 -28t57 -42.5t23.5 -76.5q0 -41 -23 -73.5t-65 -51t-97 -18.5q-84 0 -134.5 42.5t-50.5 114.5h66q0 -49 33 -71t86 -22q51 0 85 19.5t34 59.5q0 27 -16.5 43.5t-41 26t-68.5 21.5q-54 14 -87.5 28t-57 42.5
t-23.5 76.5q0 40 22.5 73t62.5 51.5t90 18.5q77 0 126 -43t49 -114h-66q0 48 -31.5 70.5t-77.5 22.5q-44 0 -76.5 -20t-32.5 -59q0 -27 16.5 -43.5z" />
    <glyph glyph-name="uni0454" unicode="&#x454;" horiz-adv-x="570" 
d="M403.5 82q47.5 30 66.5 78h70q-21 -77 -88.5 -124.5t-155.5 -47.5q-73 0 -131.5 34.5t-91.5 94.5t-33 133t33 133t91.5 94.5t131.5 34.5q88 0 155 -47.5t89 -124.5h-70q-20 49 -67 78.5t-107 29.5q-73 0 -125 -47t-63 -119h249v-64h-249q11 -72 63 -119t125 -47
q60 0 107.5 30z" />
    <glyph glyph-name="uni044D" unicode="&#x44d;" horiz-adv-x="570" 
d="M405.5 477.5q58.5 -34.5 91.5 -94.5t33 -133t-33 -133t-91.5 -94.5t-131.5 -34.5q-88 0 -155.5 47.5t-88.5 124.5h70q19 -48 66.5 -78t107.5 -30q73 0 125 47t63 119h-249v64h249q-11 72 -63 119t-125 47q-60 0 -107 -29.5t-67 -78.5h-70q22 77 89 124.5t155 47.5
q73 0 131.5 -34.5z" />
    <glyph glyph-name="uni0456" unicode="&#x456;" horiz-adv-x="206" 
d="M70 700h66v-100h-66v100zM70 500h66v-500h-66v500z" />
    <glyph glyph-name="uni0457" unicode="&#x457;" horiz-adv-x="206" 
d="M70 500h66v-500h-66v500zM-37 660h80v-80h-80v80zM163 660h80v-80h-80v80z" />
    <glyph glyph-name="uni0458" unicode="&#x458;" horiz-adv-x="230" 
d="M160 700v-100h-66v100h66zM94 500h66v-540q0 -84 -40.5 -128.5t-116.5 -44.5q-15 0 -23 1v64q8 -1 22 -1q47 0 69.5 26t22.5 83v540z" />
    <glyph glyph-name="uni045B" unicode="&#x45b;" horiz-adv-x="528" 
d="M385.5 489.5q38.5 -22.5 61.5 -64.5t23 -98v-327h-66v327q0 58 -32 89.5t-84 31.5q-59 0 -100.5 -40t-41.5 -126v-282h-66v576h-70v54h70v70h66v-70h144v-54h-144v-142q52 78 154 78q47 0 85.5 -22.5z" />
    <glyph glyph-name="uni044E" unicode="&#x44e;" horiz-adv-x="800" 
d="M629.5 477.5q60.5 -34.5 95.5 -94.5t35 -133t-35 -133t-95.5 -94.5t-132.5 -34.5q-66 0 -122.5 30t-92 82.5t-42.5 117.5h-104v-218h-66v500h66v-218h104q7 65 42.5 117.5t92 82.5t122.5 30q72 0 132.5 -34.5zM597 78.5q45 26.5 71 71.5t26 100t-26 100t-71 71.5
t-100 26.5t-100 -26.5t-71 -71.5t-26 -100t26 -100t71 -71.5t100 -26.5t100 26.5z" />
    <glyph glyph-name="uni044F" unicode="&#x44f;" horiz-adv-x="500" 
d="M430 0h-66v192h-90l-170 -192h-84l175 195q-59 9 -97 50t-38 100q0 45 22.5 80.5t61 55t83.5 19.5h203v-500zM364 254v182h-137q-42 0 -71.5 -25t-29.5 -66t29.5 -66t71.5 -25h137z" />
    <glyph glyph-name="uni0452" unicode="&#x452;" horiz-adv-x="525" 
d="M385.5 489.5q38.5 -22.5 61.5 -64.5t23 -98v-367q0 -84 -40.5 -128.5t-116.5 -44.5q-15 0 -23 1v64q8 -1 22 -1q47 0 69.5 26t22.5 83v367q0 58 -32 89.5t-84 31.5q-59 0 -100.5 -40t-41.5 -126v-282h-66v576h-70v54h70v70h66v-70h144v-54h-144v-142q52 78 154 78
q47 0 85.5 -22.5z" />
    <glyph glyph-name="uni0432.loclBGR" horiz-adv-x="570" 
d="M495.5 328q34.5 -52 34.5 -128q0 -100 -60.5 -156t-169.5 -56t-169.5 64t-60.5 178v235q0 114 58 180.5t160 66.5q84 0 133 -46.5t49 -121.5q0 -39 -18 -75.5t-53 -68.5q62 -20 96.5 -72zM176.5 598.5q-40.5 -49.5 -40.5 -133.5v-81l103 21q39 8 82 8q40 29 61.5 62.5
t21.5 68.5q0 45 -31 74.5t-85 29.5q-71 0 -111.5 -49.5zM420.5 91q43.5 39 43.5 109q0 69 -43 108.5t-117 39.5q-33 0 -65 -7l-103 -21v-90q0 -84 43.5 -131t120.5 -47t120.5 39z" />
    <glyph glyph-name="uni0433.loclBGR" horiz-adv-x="450" 
d="M410 145q0 -71 -51.5 -114t-134.5 -43q-87 0 -135.5 36.5t-48.5 101.5q0 48 23.5 77t56.5 43.5t87 30.5q42 12 67 22.5t41.5 27.5t16.5 44q0 39 -30.5 58t-72.5 19q-48 0 -81.5 -23t-33.5 -72h-66q0 71 50.5 115t130.5 44q48 0 86.5 -18t60.5 -50.5t22 -72.5
q0 -48 -23.5 -77t-56.5 -43.5t-87 -30.5q-42 -12 -67 -22.5t-41.5 -27.5t-16.5 -44q0 -42 30.5 -58t87.5 -16q52 0 86 22t34 71h66z" />
    <glyph glyph-name="uni0434.loclBGR" horiz-adv-x="636" 
d="M566 500v-480q0 -73 -34 -125.5t-91 -79.5t-126 -27q-61 0 -116 25t-89 68t-34 94h66q0 -27 21.5 -56t61 -48t90.5 -19q89 0 137 45t48 123v78q-32 -51 -84.5 -80.5t-117.5 -29.5q-70 0 -129 34.5t-94 94.5t-35 133t35 133t94 94.5t129 34.5q65 0 117.5 -29.5t84.5 -80.5
v98h66zM403 78.5q45 26.5 71 71.5t26 100t-26 100t-71 71.5t-100 26.5t-100 -26.5t-71 -71.5t-26 -100t26 -100t71 -71.5t100 -26.5t100 26.5z" />
    <glyph glyph-name="uni0436.loclBGR" horiz-adv-x="674" 
d="M574 0l-204 241v-241h-66v241l-204 -241h-80l224 260l-214 240h80l194 -222v422h66v-422l194 222h80l-214 -240l224 -260h-80z" />
    <glyph glyph-name="uni0438.loclBGR" horiz-adv-x="518" 
d="M448 500v-500h-66v66q-52 -78 -154 -78q-47 0 -85.5 22.5t-61.5 64.5t-23 98v327h66v-327q0 -58 32 -89.5t84 -31.5q59 0 100.5 40t41.5 126v282h66z" />
    <glyph glyph-name="uni0439.loclBGR" horiz-adv-x="518" 
d="M448 500v-500h-66v66q-52 -78 -154 -78q-47 0 -85.5 22.5t-61.5 64.5t-23 98v327h66v-327q0 -58 32 -89.5t84 -31.5q59 0 100.5 40t41.5 126v282h66zM125 638h260v-58h-260v58z" />
    <glyph glyph-name="uni043A.loclBGR" horiz-adv-x="494" 
d="M386 0l-250 241v-241h-66v700h66v-422l240 222h88l-260 -240l270 -260h-88z" />
    <glyph glyph-name="uni043B.loclBGR" horiz-adv-x="470" 
d="M390 0l-155 428l-155 -428h-70l185 500h66h14l185 -500h-70z" />
    <glyph glyph-name="uni043F.loclBGR" horiz-adv-x="518" 
d="M375.5 489.5q38.5 -22.5 61.5 -64.5t23 -98v-327h-66v327q0 58 -32 89.5t-84 31.5q-59 0 -100.5 -40t-41.5 -126v-282h-66v500h66v-66q52 78 154 78q47 0 85.5 -22.5z" />
    <glyph glyph-name="uni0442.loclBGR" horiz-adv-x="768" 
d="M631 492q36 -20 57.5 -60t21.5 -95v-337h-66v337q0 56 -28 83.5t-71 27.5q-47 0 -84.5 -34.5t-37.5 -111.5v-302h-66v337q0 56 -28 83.5t-71 27.5q-47 0 -84.5 -34.5t-37.5 -111.5v-302h-66v500h66v-58q48 70 134 70q42 0 78 -22t56 -62q49 84 148 84q43 0 79 -20z" />
    <glyph glyph-name="uni0446.loclBGR" horiz-adv-x="554" 
d="M524 64v-64v-144h-66v146q-27 4 -45.5 21.5t-26.5 43.5q-28 -43 -67.5 -61t-90.5 -18q-47 0 -85.5 22.5t-61.5 64.5t-23 98v327h66v-327q0 -58 32 -89.5t84 -31.5q59 0 100.5 40t41.5 126v282h66v-400q0 -16 10 -26t27 -10h39z" />
    <glyph glyph-name="uni0448.loclBGR" horiz-adv-x="768" 
d="M698 500v-500h-66v58q-48 -70 -134 -70q-42 0 -78 22t-56 62q-49 -84 -148 -84q-43 0 -79 20t-57.5 60t-21.5 95v337h66v-337q0 -56 28 -83.5t71 -27.5q47 0 84.5 34.5t37.5 111.5v302h66v-337q0 -56 28 -83.5t71 -27.5q47 0 84.5 34.5t37.5 111.5v302h66z" />
    <glyph glyph-name="uni0449.loclBGR" horiz-adv-x="804" 
d="M774 64v-64v-144h-66v146q-25 4 -43.5 19.5t-26.5 39.5q-48 -73 -140 -73q-42 0 -78 22t-56 62q-49 -84 -148 -84q-43 0 -79 20t-57.5 60t-21.5 95v337h66v-337q0 -56 28 -83.5t71 -27.5q47 0 84.5 34.5t37.5 111.5v302h66v-337q0 -56 28 -83.5t71 -27.5q47 0 84.5 34.5
t37.5 111.5v302h66v-400q0 -16 10 -26t27 -10h39z" />
    <glyph glyph-name="uni044C.loclBGR" horiz-adv-x="478" 
d="M396.5 293q51.5 -45 51.5 -125q0 -48 -24.5 -89.5t-69 -66t-101.5 -24.5q-60 0 -104 23.5t-67.5 64.5t-23.5 92v332h66v-162h129q92 0 143.5 -45zM319.5 68.5q29.5 16.5 46 43.5t16.5 56q0 50 -34 78t-95 28h-129v-106q0 -47 35.5 -81.5t93.5 -34.5q37 0 66.5 16.5z" />
    <glyph glyph-name="uni044A.loclBGR" horiz-adv-x="562" 
d="M478.5 293q51.5 -45 51.5 -125q0 -48 -24.5 -89.5t-69 -66t-101.5 -24.5q-60 0 -104 23.5t-67.5 64.5t-23.5 92v268h-140v64h180h26v-162h129q92 0 143.5 -45zM401.5 68.5q29.5 16.5 46 43.5t16.5 56q0 50 -34 78t-95 28h-129v-106q0 -47 35.5 -81.5t93.5 -34.5
q37 0 66.5 16.5z" />
    <glyph glyph-name="uni044E.loclBGR" horiz-adv-x="800" 
d="M629.5 477.5q60.5 -34.5 95.5 -94.5t35 -133t-35 -133t-95.5 -94.5t-132.5 -34.5q-66 0 -122.5 30t-92 82.5t-42.5 117.5h-104v-218h-66v700h66v-418h104q7 65 42.5 117.5t92 82.5t122.5 30q72 0 132.5 -34.5zM597 78.5q45 26.5 71 71.5t26 100t-26 100t-71 71.5
t-100 26.5t-100 -26.5t-71 -71.5t-26 -100t26 -100t71 -71.5t100 -26.5t100 26.5z" />
    <glyph glyph-name="uni0430.ss01" horiz-adv-x="636" 
d="M566 500v-500h-66v98q-32 -51 -84.5 -80.5t-117.5 -29.5q-70 0 -129 34.5t-94 94.5t-35 133t35 133t94 94.5t129 34.5q65 0 117.5 -29.5t84.5 -80.5v98h66zM403 78.5q45 26.5 71 71.5t26 100t-26 100t-71 71.5t-100 26.5t-100 -26.5t-71 -71.5t-26 -100t26 -100t71 -71.5
t100 -26.5t100 26.5z" />
    <glyph glyph-name="uni0443.ss01" horiz-adv-x="518" 
d="M448 500v-525q0 -86 -52.5 -136.5t-137.5 -50.5q-55 0 -98.5 21.5t-67.5 59.5t-24 86h66q0 -50 36 -76.5t88 -26.5q53 0 88.5 30t35.5 93v91q-52 -78 -154 -78q-47 0 -85.5 22.5t-61.5 64.5t-23 98v327h66v-327q0 -58 32 -89.5t84 -31.5q59 0 100.5 40t41.5 126v282h66z
" />
    <glyph glyph-name="uni0394" unicode="&#x394;" 
d="M620 0h-74h-481h-55l269 700h72zM521 66l-206 547l-206 -547h412z" />
    <glyph glyph-name="uni03A9" unicode="&#x3a9;" horiz-adv-x="804" 
d="M723.5 185.5q-40.5 -74.5 -110.5 -119.5h139v-66h-273v66q63 16 111.5 57.5t76 100t27.5 126.5q0 81 -38.5 148t-105.5 106.5t-148 39.5t-148 -39.5t-105.5 -106.5t-38.5 -148q0 -68 27 -126.5t76 -100t112 -57.5v-66h-273v66h139q-71 45 -111 119.5t-40 164.5
q0 99 48 182t131 131.5t183 48.5t183 -48.5t131 -131.5t48 -182q0 -90 -40.5 -164.5z" />
    <glyph glyph-name="pi" unicode="&#x3c0;" horiz-adv-x="620" 
d="M590 436h-83v-436h-66v436h-258v-436h-66v436h-87v64h153h324h83v-64z" />
    <glyph glyph-name="zero" unicode="0" 
d="M171.5 33q-59.5 45 -90.5 126.5t-31 190.5t31 190.5t90.5 126.5t143.5 45t143.5 -45t90.5 -126.5t31 -190.5t-31 -190.5t-90.5 -126.5t-143.5 -45t-143.5 45zM458.5 133q51.5 77 51.5 217t-51.5 217t-143.5 77t-143.5 -77t-51.5 -217t51.5 -217t143.5 -77t143.5 77z" />
    <glyph glyph-name="one" unicode="1" horiz-adv-x="340" 
d="M260 700v-700h-70v623l-175 -94v77l175 94h70z" />
    <glyph glyph-name="two" unicode="2" horiz-adv-x="525" 
d="M40 63l252 254q51 51 79.5 95.5t28.5 89.5q0 67 -41.5 104.5t-99.5 37.5q-65 0 -107 -35t-42 -107h-70q0 68 30.5 115.5t80.5 71t108 23.5q54 0 102.5 -24.5t78.5 -72.5t30 -113q0 -61 -34 -117t-96 -118l-200 -199h345v-68h-445v63z" />
    <glyph glyph-name="three" unicode="3" horiz-adv-x="530" 
d="M435.5 344.5q54.5 -53.5 54.5 -141.5q0 -67 -32.5 -115.5t-86 -74t-116.5 -25.5t-116.5 25.5t-86 74t-32.5 115.5h70q0 -70 46.5 -108.5t118.5 -38.5t118.5 38.5t46.5 108.5t-46.5 108.5t-118.5 38.5v1l-1 -1h-49v46l174 238h-329v66h410v-66l-163 -225
q84 -11 138.5 -64.5z" />
    <glyph glyph-name="four" unicode="4" horiz-adv-x="570" 
d="M555 140h-90v-140h-70v140h-370v66l260 494h77l-260 -494h293v214h70v-214h90v-66z" />
    <glyph glyph-name="five" unicode="5" horiz-adv-x="550" 
d="M391.5 392.5q53.5 -25.5 86 -74t32.5 -115.5t-32.5 -115.5t-86 -74t-116.5 -25.5t-116.5 25.5t-86 74t-32.5 115.5h70q0 -70 46.5 -108.5t118.5 -38.5t118.5 38.5t46.5 108.5t-46.5 108.5t-118.5 38.5h-200l25 350h385v-66h-321l-15 -216h126q63 0 116.5 -25.5z" />
    <glyph glyph-name="six" unicode="6" horiz-adv-x="530" 
d="M385.5 421q53.5 -29 84 -82t30.5 -120t-30.5 -120t-84 -82t-120.5 -29t-120.5 29t-84 82t-30.5 120q0 79 43 140l229 341h79l-172 -256q27 6 56 6q67 0 120.5 -29zM384.5 101q45.5 45 45.5 118t-45.5 118t-119.5 45t-119.5 -45t-45.5 -118t45.5 -118t119.5 -45t119.5 45z
" />
    <glyph glyph-name="seven" unicode="7" horiz-adv-x="490" 
d="M450 700v-66l-264 -634h-73l264 634h-357v66h430z" />
    <glyph glyph-name="eight" unicode="8" horiz-adv-x="548" 
d="M476.5 291.5q31.5 -44.5 31.5 -101.5q0 -64 -31.5 -109.5t-84.5 -69t-118 -23.5t-118 23.5t-84.5 69t-31.5 109.5q0 57 31.5 101.5t84.5 69.5q-43 24 -68 64.5t-25 92.5q0 63 30 107t78.5 65.5t102.5 21.5t102.5 -21.5t78.5 -65.5t30 -107q0 -52 -25 -92.5t-68 -64.5
q53 -25 84.5 -69.5zM173.5 613q-40.5 -31 -40.5 -95q0 -60 41.5 -93t99.5 -33t99.5 33t41.5 93q0 64 -40.5 95t-100.5 31t-100.5 -31zM393 90.5q45 34.5 45 99.5t-45 99.5t-119 34.5t-119 -34.5t-45 -99.5t45 -99.5t119 -34.5t119 34.5z" />
    <glyph glyph-name="nine" unicode="9" horiz-adv-x="530" 
d="M457 341l-229 -341h-79l172 256q-27 -6 -56 -6q-67 0 -120.5 29t-84 82t-30.5 120t30.5 120t84 82t120.5 29t120.5 -29t84 -82t30.5 -120q0 -79 -43 -140zM145.5 363q45.5 -45 119.5 -45t119.5 45t45.5 118t-45.5 118t-119.5 45t-119.5 -45t-45.5 -118t45.5 -118z" />
    <glyph glyph-name="zero.sinf" horiz-adv-x="410" 
d="M76.5 -114q-46.5 58 -46.5 154t46.5 154t128.5 58t128.5 -58t46.5 -154t-46.5 -154t-128.5 -58t-128.5 58zM288 -73q30 39 30 113t-30 113t-83 39t-83 -39t-30 -113t30 -113t83 -39t83 39z" />
    <glyph glyph-name="one.sinf" horiz-adv-x="247" 
d="M187 240v-400h-62v332l-105 -57v68l105 57h62z" />
    <glyph glyph-name="two.sinf" horiz-adv-x="340" 
d="M30 -109l168 154q20 18 31 41t11 44q0 28 -19.5 45t-52.5 17q-36 0 -56 -17.5t-20 -49.5h-62q0 58 38.5 92.5t99.5 34.5q60 0 97 -35t37 -87q0 -69 -62 -125l-118 -105h188v-60h-280v51z" />
    <glyph glyph-name="three.sinf" horiz-adv-x="352" 
d="M289 33.5q28 -30.5 28 -76.5q0 -58 -40 -93.5t-106 -35.5t-106 35.5t-40 93.5h62q0 -32 22 -50.5t62 -18.5t62 18.5t22 50.5q0 31 -22.5 50t-61.5 19h-35v47l90 107h-184v60h258v-60l-89 -106q50 -10 78 -40.5z" />
    <glyph glyph-name="four.sinf" horiz-adv-x="354" 
d="M334 -85h-51v-75h-62v75h-206v58l149 267h67l-148 -267h138v96h62v-96h51v-58z" />
    <glyph glyph-name="five.sinf" horiz-adv-x="341" 
d="M272 53.5q39 -36.5 39 -96.5q0 -59 -38 -94t-105 -35t-105 35t-38 94h62q0 -31 21.5 -50t59.5 -19t59.5 19t21.5 50q0 34 -21.5 53.5t-59.5 19.5h-125l15 210h237v-58h-182l-6 -92h63q63 0 102 -36.5z" />
    <glyph glyph-name="six.sinf" horiz-adv-x="335" 
d="M242.5 88.5q33.5 -18.5 53 -50t19.5 -70.5t-19.5 -71t-53 -50.5t-75.5 -18.5q-41 0 -75 18.5t-53 50.5t-19 71q0 38 19 70v1l4 5l125 196h75l-92 -134q5 1 16 1q42 0 75.5 -18.5zM229.5 -89.5q23.5 22.5 23.5 57.5t-23.5 57t-62.5 22t-62 -22t-23 -57t23.5 -57.5
t61.5 -22.5q39 0 62.5 22.5z" />
    <glyph glyph-name="seven.sinf" horiz-adv-x="296" 
d="M276 240v-50l-148 -350h-66l146 340h-198v60h266z" />
    <glyph glyph-name="eight.sinf" horiz-adv-x="335" 
d="M293.5 7.5q17.5 -27.5 17.5 -61.5q0 -54 -39.5 -86t-103.5 -32t-104 32t-40 86q0 35 17.5 62t48.5 42q-24 15 -38.5 37.5t-14.5 50.5q0 53 37.5 83.5t93.5 30.5q55 0 92.5 -30.5t37.5 -83.5q0 -28 -14.5 -50.5t-38.5 -36.5q31 -16 48.5 -43.5zM117 179q-18 -15 -18 -41
q0 -27 18 -43t51 -16q32 0 50 16t18 43q0 26 -17.5 41t-50.5 15t-51 -15zM227.5 -94q21.5 18 21.5 48t-22 47.5t-59 17.5q-40 0 -61 -17t-21 -48q0 -30 21.5 -48t60.5 -18q38 0 59.5 18z" />
    <glyph glyph-name="nine.sinf" horiz-adv-x="335" 
d="M296 41l-4 -5l-125 -196h-75l92 134q-5 -1 -16 -1q-42 0 -75.5 18.5t-53 50t-19.5 70.5t19.5 71t53 50.5t75.5 18.5q41 0 75 -18.5t53 -50.5t19 -71q0 -38 -19 -70v-1zM105.5 55q23.5 -22 62.5 -22t62 22t23 57t-23.5 57.5t-61.5 22.5q-39 0 -62.5 -22.5t-23.5 -57.5
t23.5 -57z" />
    <glyph glyph-name="zero.tf" horiz-adv-x="570" 
d="M141.5 33q-59.5 45 -90.5 126.5t-31 190.5t31 190.5t90.5 126.5t143.5 45t143.5 -45t90.5 -126.5t31 -190.5t-31 -190.5t-90.5 -126.5t-143.5 -45t-143.5 45zM428.5 133q51.5 77 51.5 217t-51.5 217t-143.5 77t-143.5 -77t-51.5 -217t51.5 -217t143.5 -77t143.5 77z" />
    <glyph glyph-name="one.tf" horiz-adv-x="570" 
d="M540 66v-66h-260h-240v66h240v557l-205 -114v77l205 114h70v-634h190z" />
    <glyph glyph-name="two.tf" horiz-adv-x="570" 
d="M45 63l253 218q73 62 110 110.5t37 100.5q0 71 -44 111.5t-117 40.5q-44 0 -82.5 -17.5t-62.5 -52t-24 -82.5h-70q0 68 34.5 118t89.5 76t115 26q65 0 117.5 -26.5t83 -76.5t30.5 -117q0 -69 -44 -131.5t-125 -128.5l-201 -164h385v-68h-485v63z" />
    <glyph glyph-name="three.tf" horiz-adv-x="570" 
d="M482.5 346q57.5 -53 57.5 -143q0 -68 -33.5 -116.5t-91.5 -73.5t-130 -25t-130 25t-91.5 73.5t-33.5 116.5h70q0 -71 50 -109t135 -38t135 38t50 109t-50 109t-135 38v1l-1 -1h-49v46l191 238h-366v66h450v-66l-179 -225q94 -10 151.5 -63z" />
    <glyph glyph-name="four.tf" horiz-adv-x="570" 
d="M550 140h-90v-140h-70v140h-370v66l260 494h76l-260 -494h294v194h70v-194h90v-66z" />
    <glyph glyph-name="five.tf" horiz-adv-x="570" 
d="M408.5 393q55.5 -25 88.5 -74t33 -116t-33 -116t-88.5 -74t-123.5 -25t-123.5 25t-88.5 74t-33 116h70q0 -71 48.5 -109t126.5 -38t126.5 38t48.5 109t-48.5 109t-126.5 38h-210l25 350h405v-66h-341l-15 -216h136q68 0 123.5 -25z" />
    <glyph glyph-name="six.tf" horiz-adv-x="570" 
d="M409.5 421q57.5 -29 89 -81.5t31.5 -120.5t-31.5 -120.5t-89 -81.5t-134.5 -29t-134.5 29t-89 81.5t-31.5 120.5q0 81 44 139l244 342h83l-182 -256q30 6 66 6q77 0 134.5 -29zM411.5 100q48.5 44 48.5 119t-48.5 119t-136.5 44t-136.5 -44t-48.5 -119t48.5 -119
t136.5 -44t136.5 44z" />
    <glyph glyph-name="seven.tf" horiz-adv-x="570" 
d="M530 700v-66l-285 -634h-72l284 634h-417v66h490z" />
    <glyph glyph-name="eight.tf" horiz-adv-x="570" 
d="M504 291.5q31 -44.5 31 -101.5q0 -96 -68.5 -149t-181.5 -53t-181.5 53t-68.5 149q0 57 31 101.5t86 69.5q-43 26 -68 66.5t-25 90.5q0 93 64 143.5t162 50.5t162 -50.5t64 -143.5q0 -50 -25 -90.5t-68 -66.5q55 -25 86 -69.5zM170.5 612.5q-41.5 -31.5 -41.5 -94.5
q0 -60 42.5 -93t113.5 -33t113.5 33t42.5 93q0 63 -41.5 94.5t-114.5 31.5t-114.5 -31.5zM418.5 91q46.5 35 46.5 99t-46.5 99t-133.5 35t-133.5 -35t-46.5 -99t46.5 -99t133.5 -35t133.5 35z" />
    <glyph glyph-name="nine.tf" horiz-adv-x="570" 
d="M506 342l-244 -342h-83l182 256q-30 -6 -66 -6q-77 0 -134.5 29t-89 81.5t-31.5 120.5t31.5 120.5t89 81.5t134.5 29t134.5 -29t89 -81.5t31.5 -120.5q0 -81 -44 -139zM158.5 362q48.5 -44 136.5 -44t136.5 44t48.5 119t-48.5 119t-136.5 44t-136.5 -44t-48.5 -119
t48.5 -119z" />
    <glyph glyph-name="fraction" unicode="&#x2044;" horiz-adv-x="220" 
d="M-120 0l400 700h60l-400 -700h-60z" />
    <glyph glyph-name="onehalf" unicode="&#xbd;" horiz-adv-x="807" 
d="M187 700v-400h-62v332l-105 -57v68l105 57h62zM127 0l400 700h60l-400 -700h-60zM497 51l168 154q20 18 31 41t11 44q0 28 -19.5 45t-52.5 17q-36 0 -56 -17.5t-20 -49.5h-62q0 58 38.5 92.5t99.5 34.5q60 0 97 -35t37 -87q0 -69 -62 -125l-118 -105h188v-60h-280v51z
" />
    <glyph glyph-name="onequarter" unicode="&#xbc;" horiz-adv-x="821" 
d="M187 700v-400h-62v332l-105 -57v68l105 57h62zM127 0l400 700h60l-400 -700h-60zM801 75h-51v-75h-62v75h-206v58l149 267h67l-148 -267h138v96h62v-96h51v-58z" />
    <glyph glyph-name="threequarters" unicode="&#xbe;" horiz-adv-x="926" 
d="M289 493.5q28 -30.5 28 -76.5q0 -58 -40 -93.5t-106 -35.5t-106 35.5t-40 93.5h62q0 -32 22 -50.5t62 -18.5t62 18.5t22 50.5q0 31 -22.5 50t-61.5 19h-35v47l90 107h-184v60h258v-60l-89 -106q50 -10 78 -40.5zM232 0l400 700h60l-400 -700h-60zM906 75h-51v-75h-62v75
h-206v58l149 267h67l-148 -267h138v96h62v-96h51v-58z" />
    <glyph glyph-name="oneeighth" unicode="&#x215b;" horiz-adv-x="802" 
d="M187 700v-400h-62v332l-105 -57v68l105 57h62zM127 0l400 700h60l-400 -700h-60zM760.5 167.5q17.5 -27.5 17.5 -61.5q0 -54 -39.5 -86t-103.5 -32t-104 32t-40 86q0 35 17.5 62t48.5 42q-24 15 -38.5 37.5t-14.5 50.5q0 53 37.5 83.5t93.5 30.5q55 0 92.5 -30.5
t37.5 -83.5q0 -28 -14.5 -50.5t-38.5 -36.5q31 -16 48.5 -43.5zM584 339q-18 -15 -18 -41q0 -27 18 -43t51 -16q32 0 50 16t18 43q0 26 -17.5 41t-50.5 15t-51 -15zM694.5 66q21.5 18 21.5 48t-22 47.5t-59 17.5q-40 0 -61 -17t-21 -48q0 -30 21.5 -48t60.5 -18
q38 0 59.5 18z" />
    <glyph glyph-name="threeeighths" unicode="&#x215c;" horiz-adv-x="907" 
d="M289 493.5q28 -30.5 28 -76.5q0 -58 -40 -93.5t-106 -35.5t-106 35.5t-40 93.5h62q0 -32 22 -50.5t62 -18.5t62 18.5t22 50.5q0 31 -22.5 50t-61.5 19h-35v47l90 107h-184v60h258v-60l-89 -106q50 -10 78 -40.5zM232 0l400 700h60l-400 -700h-60zM865.5 167.5
q17.5 -27.5 17.5 -61.5q0 -54 -39.5 -86t-103.5 -32t-104 32t-40 86q0 35 17.5 62t48.5 42q-24 15 -38.5 37.5t-14.5 50.5q0 53 37.5 83.5t93.5 30.5q55 0 92.5 -30.5t37.5 -83.5q0 -28 -14.5 -50.5t-38.5 -36.5q31 -16 48.5 -43.5zM689 339q-18 -15 -18 -41q0 -27 18 -43
t51 -16q32 0 50 16t18 43q0 26 -17.5 41t-50.5 15t-51 -15zM799.5 66q21.5 18 21.5 48t-22 47.5t-59 17.5q-40 0 -61 -17t-21 -48q0 -30 21.5 -48t60.5 -18q38 0 59.5 18z" />
    <glyph glyph-name="fiveeighths" unicode="&#x215d;" horiz-adv-x="896" 
d="M267 513.5q39 -36.5 39 -96.5q0 -59 -38 -94t-105 -35t-105 35t-38 94h62q0 -31 21.5 -50t59.5 -19t59.5 19t21.5 50q0 34 -21.5 53.5t-59.5 19.5h-125l15 210h237v-58h-182l-6 -92h63q63 0 102 -36.5zM221 0l400 700h60l-400 -700h-60zM854.5 167.5
q17.5 -27.5 17.5 -61.5q0 -54 -39.5 -86t-103.5 -32t-104 32t-40 86q0 35 17.5 62t48.5 42q-24 15 -38.5 37.5t-14.5 50.5q0 53 37.5 83.5t93.5 30.5q55 0 92.5 -30.5t37.5 -83.5q0 -28 -14.5 -50.5t-38.5 -36.5q31 -16 48.5 -43.5zM678 339q-18 -15 -18 -41q0 -27 18 -43
t51 -16q32 0 50 16t18 43q0 26 -17.5 41t-50.5 15t-51 -15zM788.5 66q21.5 18 21.5 48t-22 47.5t-59 17.5q-40 0 -61 -17t-21 -48q0 -30 21.5 -48t60.5 -18q38 0 59.5 18z" />
    <glyph glyph-name="seveneighths" unicode="&#x215e;" horiz-adv-x="851" 
d="M276 700v-50l-148 -350h-66l146 340h-198v60h266zM176 0l400 700h60l-400 -700h-60zM809.5 167.5q17.5 -27.5 17.5 -61.5q0 -54 -39.5 -86t-103.5 -32t-104 32t-40 86q0 35 17.5 62t48.5 42q-24 15 -38.5 37.5t-14.5 50.5q0 53 37.5 83.5t93.5 30.5q55 0 92.5 -30.5
t37.5 -83.5q0 -28 -14.5 -50.5t-38.5 -36.5q31 -16 48.5 -43.5zM633 339q-18 -15 -18 -41q0 -27 18 -43t51 -16q32 0 50 16t18 43q0 26 -17.5 41t-50.5 15t-51 -15zM743.5 66q21.5 18 21.5 48t-22 47.5t-59 17.5q-40 0 -61 -17t-21 -48q0 -30 21.5 -48t60.5 -18
q38 0 59.5 18z" />
    <glyph glyph-name="zero.dnom" horiz-adv-x="410" 
d="M76.5 46q-46.5 58 -46.5 154t46.5 154t128.5 58t128.5 -58t46.5 -154t-46.5 -154t-128.5 -58t-128.5 58zM288 87q30 39 30 113t-30 113t-83 39t-83 -39t-30 -113t30 -113t83 -39t83 39z" />
    <glyph glyph-name="one.dnom" horiz-adv-x="247" 
d="M187 400v-400h-62v332l-105 -57v68l105 57h62z" />
    <glyph glyph-name="two.dnom" horiz-adv-x="340" 
d="M30 51l168 154q20 18 31 41t11 44q0 28 -19.5 45t-52.5 17q-36 0 -56 -17.5t-20 -49.5h-62q0 58 38.5 92.5t99.5 34.5q60 0 97 -35t37 -87q0 -69 -62 -125l-118 -105h188v-60h-280v51z" />
    <glyph glyph-name="three.dnom" horiz-adv-x="352" 
d="M289 193.5q28 -30.5 28 -76.5q0 -58 -40 -93.5t-106 -35.5t-106 35.5t-40 93.5h62q0 -32 22 -50.5t62 -18.5t62 18.5t22 50.5q0 31 -22.5 50t-61.5 19h-35v47l90 107h-184v60h258v-60l-89 -106q50 -10 78 -40.5z" />
    <glyph glyph-name="four.dnom" horiz-adv-x="354" 
d="M334 75h-51v-75h-62v75h-206v58l149 267h67l-148 -267h138v96h62v-96h51v-58z" />
    <glyph glyph-name="five.dnom" horiz-adv-x="341" 
d="M267 213.5q39 -36.5 39 -96.5q0 -59 -38 -94t-105 -35t-105 35t-38 94h62q0 -31 21.5 -50t59.5 -19t59.5 19t21.5 50q0 34 -21.5 53.5t-59.5 19.5h-125l15 210h237v-58h-182l-6 -92h63q63 0 102 -36.5z" />
    <glyph glyph-name="six.dnom" horiz-adv-x="335" 
d="M242.5 248.5q33.5 -18.5 53 -50t19.5 -70.5t-19.5 -71t-53 -50.5t-75.5 -18.5q-41 0 -75 18.5t-53 50.5t-19 71q0 38 19 70v1l4 5l125 196h75l-92 -134q5 1 16 1q42 0 75.5 -18.5zM229.5 70.5q23.5 22.5 23.5 57.5t-23.5 57t-62.5 22t-62 -22t-23 -57t23.5 -57.5
t61.5 -22.5q39 0 62.5 22.5z" />
    <glyph glyph-name="seven.dnom" horiz-adv-x="296" 
d="M276 400v-50l-148 -350h-66l146 340h-198v60h266z" />
    <glyph glyph-name="eight.dnom" horiz-adv-x="335" 
d="M293.5 167.5q17.5 -27.5 17.5 -61.5q0 -54 -39.5 -86t-103.5 -32t-104 32t-40 86q0 35 17.5 62t48.5 42q-24 15 -38.5 37.5t-14.5 50.5q0 53 37.5 83.5t93.5 30.5q55 0 92.5 -30.5t37.5 -83.5q0 -28 -14.5 -50.5t-38.5 -36.5q31 -16 48.5 -43.5zM117 339q-18 -15 -18 -41
q0 -27 18 -43t51 -16q32 0 50 16t18 43q0 26 -17.5 41t-50.5 15t-51 -15zM227.5 66q21.5 18 21.5 48t-22 47.5t-59 17.5q-40 0 -61 -17t-21 -48q0 -30 21.5 -48t60.5 -18q38 0 59.5 18z" />
    <glyph glyph-name="nine.dnom" horiz-adv-x="335" 
d="M296 201l-4 -5l-125 -196h-75l92 134q-5 -1 -16 -1q-42 0 -75.5 18.5t-53 50t-19.5 70.5t19.5 71t53 50.5t75.5 18.5q41 0 75 -18.5t53 -50.5t19 -71q0 -38 -19 -70v-1zM105.5 215q23.5 -22 62.5 -22t62 22t23 57t-23.5 57.5t-61.5 22.5q-39 0 -62.5 -22.5t-23.5 -57.5
t23.5 -57z" />
    <glyph glyph-name="zero.numr" horiz-adv-x="410" 
d="M76.5 346q-46.5 58 -46.5 154t46.5 154t128.5 58t128.5 -58t46.5 -154t-46.5 -154t-128.5 -58t-128.5 58zM288 387q30 39 30 113t-30 113t-83 39t-83 -39t-30 -113t30 -113t83 -39t83 39z" />
    <glyph glyph-name="one.numr" horiz-adv-x="247" 
d="M187 700v-400h-62v332l-105 -57v68l105 57h62z" />
    <glyph glyph-name="two.numr" horiz-adv-x="340" 
d="M30 351l168 154q20 18 31 41t11 44q0 28 -19.5 45t-52.5 17q-36 0 -56 -17.5t-20 -49.5h-62q0 58 38.5 92.5t99.5 34.5q60 0 97 -35t37 -87q0 -69 -62 -125l-118 -105h188v-60h-280v51z" />
    <glyph glyph-name="three.numr" horiz-adv-x="352" 
d="M289 493.5q28 -30.5 28 -76.5q0 -58 -40 -93.5t-106 -35.5t-106 35.5t-40 93.5h62q0 -32 22 -50.5t62 -18.5t62 18.5t22 50.5q0 31 -22.5 50t-61.5 19h-35v47l90 107h-184v60h258v-60l-89 -106q50 -10 78 -40.5z" />
    <glyph glyph-name="four.numr" horiz-adv-x="354" 
d="M334 375h-51v-75h-62v75h-206v58l149 267h67l-148 -267h138v96h62v-96h51v-58z" />
    <glyph glyph-name="five.numr" horiz-adv-x="341" 
d="M267 513.5q39 -36.5 39 -96.5q0 -59 -38 -94t-105 -35t-105 35t-38 94h62q0 -31 21.5 -50t59.5 -19t59.5 19t21.5 50q0 34 -21.5 53.5t-59.5 19.5h-125l15 210h237v-58h-182l-6 -92h63q63 0 102 -36.5z" />
    <glyph glyph-name="six.numr" horiz-adv-x="335" 
d="M242.5 548.5q33.5 -18.5 53 -50t19.5 -70.5t-19.5 -71t-53 -50.5t-75.5 -18.5q-41 0 -75 18.5t-53 50.5t-19 71q0 38 19 70v1l4 5l125 196h75l-92 -134q5 1 16 1q42 0 75.5 -18.5zM229.5 370.5q23.5 22.5 23.5 57.5t-23.5 57t-62.5 22t-62 -22t-23 -57t23.5 -57.5
t61.5 -22.5q39 0 62.5 22.5z" />
    <glyph glyph-name="seven.numr" horiz-adv-x="296" 
d="M276 700v-50l-148 -350h-66l146 340h-198v60h266z" />
    <glyph glyph-name="eight.numr" horiz-adv-x="335" 
d="M293.5 467.5q17.5 -27.5 17.5 -61.5q0 -54 -39.5 -86t-103.5 -32t-104 32t-40 86q0 35 17.5 62t48.5 42q-24 15 -38.5 37.5t-14.5 50.5q0 53 37.5 83.5t93.5 30.5q55 0 92.5 -30.5t37.5 -83.5q0 -28 -14.5 -50.5t-38.5 -36.5q31 -16 48.5 -43.5zM117 639q-18 -15 -18 -41
q0 -27 18 -43t51 -16q32 0 50 16t18 43q0 26 -17.5 41t-50.5 15t-51 -15zM227.5 366q21.5 18 21.5 48t-22 47.5t-59 17.5q-40 0 -61 -17t-21 -48q0 -30 21.5 -48t60.5 -18q38 0 59.5 18z" />
    <glyph glyph-name="nine.numr" horiz-adv-x="335" 
d="M296 501l-4 -5l-125 -196h-75l92 134q-5 -1 -16 -1q-42 0 -75.5 18.5t-53 50t-19.5 70.5t19.5 71t53 50.5t75.5 18.5q41 0 75 -18.5t53 -50.5t19 -71q0 -38 -19 -70v-1zM105.5 515q23.5 -22 62.5 -22t62 22t23 57t-23.5 57.5t-61.5 22.5q-39 0 -62.5 -22.5t-23.5 -57.5
t23.5 -57z" />
    <glyph glyph-name="zero.sups" horiz-adv-x="410" 
d="M76.5 506q-46.5 58 -46.5 154t46.5 154t128.5 58t128.5 -58t46.5 -154t-46.5 -154t-128.5 -58t-128.5 58zM288 547q30 39 30 113t-30 113t-83 39t-83 -39t-30 -113t30 -113t83 -39t83 39z" />
    <glyph glyph-name="one.sups" horiz-adv-x="247" 
d="M187 860v-400h-62v332l-105 -57v68l105 57h62z" />
    <glyph glyph-name="two.sups" horiz-adv-x="340" 
d="M30 511l168 154q20 18 31 41t11 44q0 28 -19.5 45t-52.5 17q-36 0 -56 -17.5t-20 -49.5h-62q0 58 38.5 92.5t99.5 34.5q60 0 97 -35t37 -87q0 -69 -62 -125l-118 -105h188v-60h-280v51z" />
    <glyph glyph-name="three.sups" horiz-adv-x="352" 
d="M289 653.5q28 -30.5 28 -76.5q0 -58 -40 -93.5t-106 -35.5t-106 35.5t-40 93.5h62q0 -32 22 -50.5t62 -18.5t62 18.5t22 50.5q0 31 -22.5 50t-61.5 19h-35v47l90 107h-184v60h258v-60l-89 -106q50 -10 78 -40.5z" />
    <glyph glyph-name="four.sups" horiz-adv-x="354" 
d="M334 535h-51v-75h-62v75h-206v58l149 267h67l-148 -267h138v96h62v-96h51v-58z" />
    <glyph glyph-name="five.sups" horiz-adv-x="341" 
d="M267 673.5q39 -36.5 39 -96.5q0 -59 -38 -94t-105 -35t-105 35t-38 94h62q0 -31 21.5 -50t59.5 -19t59.5 19t21.5 50q0 34 -21.5 53.5t-59.5 19.5h-125l15 210h237v-58h-182l-6 -92h63q63 0 102 -36.5z" />
    <glyph glyph-name="six.sups" horiz-adv-x="335" 
d="M242.5 708.5q33.5 -18.5 53 -50t19.5 -70.5t-19.5 -71t-53 -50.5t-75.5 -18.5q-41 0 -75 18.5t-53 50.5t-19 71q0 38 19 70v1l4 5l125 196h75l-92 -134q5 1 16 1q42 0 75.5 -18.5zM229.5 530.5q23.5 22.5 23.5 57.5t-23.5 57t-62.5 22t-62 -22t-23 -57t23.5 -57.5
t61.5 -22.5q39 0 62.5 22.5z" />
    <glyph glyph-name="seven.sups" horiz-adv-x="296" 
d="M276 860v-50l-148 -350h-66l146 340h-198v60h266z" />
    <glyph glyph-name="eight.sups" horiz-adv-x="335" 
d="M293.5 627.5q17.5 -27.5 17.5 -61.5q0 -54 -39.5 -86t-103.5 -32t-104 32t-40 86q0 35 17.5 62t48.5 42q-24 15 -38.5 37.5t-14.5 50.5q0 53 37.5 83.5t93.5 30.5q55 0 92.5 -30.5t37.5 -83.5q0 -28 -14.5 -50.5t-38.5 -36.5q31 -16 48.5 -43.5zM117 799q-18 -15 -18 -41
q0 -27 18 -43t51 -16q32 0 50 16t18 43q0 26 -17.5 41t-50.5 15t-51 -15zM227.5 526q21.5 18 21.5 48t-22 47.5t-59 17.5q-40 0 -61 -17t-21 -48q0 -30 21.5 -48t60.5 -18q38 0 59.5 18z" />
    <glyph glyph-name="nine.sups" horiz-adv-x="335" 
d="M296 661l-4 -5l-125 -196h-75l92 134q-5 -1 -16 -1q-42 0 -75.5 18.5t-53 50t-19.5 70.5t19.5 71t53 50.5t75.5 18.5q41 0 75 -18.5t53 -50.5t19 -71q0 -38 -19 -70v-1zM105.5 675q23.5 -22 62.5 -22t62 22t23 57t-23.5 57.5t-61.5 22.5q-39 0 -62.5 -22.5t-23.5 -57.5
t23.5 -57z" />
    <glyph glyph-name="asterisk" unicode="*" horiz-adv-x="392" 
d="M332 554l-91 3l52 -75l-51 -30l-46 81l-46 -81l-51 30l52 75l-91 -3v56l91 -3l-52 75l51 30l46 -81l46 81l51 -30l-52 -75l91 3v-56z" />
    <glyph glyph-name="backslash" unicode="\" horiz-adv-x="530" 
d="M40 800h50l400 -900h-50z" />
    <glyph glyph-name="periodcentered" unicode="&#xb7;" horiz-adv-x="230" 
d="M70 395h90v-90h-90v90z" />
    <glyph glyph-name="bullet" unicode="&#x2022;" horiz-adv-x="300" 
d="M79.5 279.5q-29.5 29.5 -29.5 71.5q0 41 29.5 70t71.5 29q41 0 70 -29t29 -70q0 -42 -29 -71.5t-70 -29.5q-42 0 -71.5 29.5z" />
    <glyph glyph-name="colon" unicode=":" horiz-adv-x="230" 
d="M70 90h90v-90h-90v90zM70 500h90v-90h-90v90z" />
    <glyph glyph-name="comma" unicode="," horiz-adv-x="230" 
d="M160 90v-90q0 -56 -23 -89.5t-67 -40.5v40q22 8 33.5 26.5t11.5 63.5h-45v90h90z" />
    <glyph glyph-name="ellipsis" unicode="&#x2026;" horiz-adv-x="610" 
d="M70 90h90v-90h-90v90zM260 90h90v-90h-90v90zM450 90h90v-90h-90v90z" />
    <glyph glyph-name="exclam" unicode="!" horiz-adv-x="230" 
d="M75 500v200h80v-200l-15 -310h-50zM70 90h90v-90h-90v90z" />
    <glyph glyph-name="exclamdown" unicode="&#xa1;" horiz-adv-x="230" 
d="M160 500v-90h-90v90h90zM140 310l15 -310v-200h-80v200l15 310h50z" />
    <glyph glyph-name="numbersign" unicode="#" horiz-adv-x="599" 
d="M440 410l-20 -120h120l-10 -60h-120l-30 -180h-64l30 180h-132l-30 -180h-64l30 180h-120l10 60h120l20 120h-121l10 60h121l30 180h64l-30 -180h132l30 180h64l-30 -180h119l-10 -60h-119zM376 410h-132l-20 -120h132z" />
    <glyph glyph-name="period" unicode="." horiz-adv-x="230" 
d="M70 90h90v-90h-90v90z" />
    <glyph glyph-name="question" unicode="?" horiz-adv-x="535" 
d="M228 268.5q15 34.5 35.5 59t56.5 58.5q43 41 64 71t21 70q0 58 -39.5 87.5t-101.5 29.5q-68 0 -111 -33.5t-43 -98.5h-70q0 64 31 109t82 68t111 23q56 0 104.5 -21t77.5 -63t29 -101q0 -53 -24.5 -90t-73.5 -84q-32 -31 -50.5 -52.5t-31 -49t-12.5 -61.5h-70
q0 44 15 78.5zM203 90h90v-90h-90v90z" />
    <glyph glyph-name="questiondown" unicode="&#xbf;" horiz-adv-x="535" 
d="M332 410h-90v90h90v-90zM307 231.5q-15 -34.5 -35.5 -59t-56.5 -58.5q-43 -41 -64 -71t-21 -70q0 -58 39.5 -87.5t101.5 -29.5q68 0 111 33.5t43 98.5h70q0 -64 -31 -109t-82 -68t-111 -23q-56 0 -104.5 21t-77.5 63t-29 101q0 53 24.5 90t73.5 84q32 31 50.5 52.5t31 49
t12.5 61.5h70q0 -44 -15 -78.5z" />
    <glyph glyph-name="quotedbl" unicode="&#x22;" horiz-adv-x="310" 
d="M50 700h70l-10 -200h-50zM190 700h70l-10 -200h-50z" />
    <glyph glyph-name="quotesingle" unicode="'" horiz-adv-x="170" 
d="M50 700h70l-10 -200h-50z" />
    <glyph glyph-name="semicolon" unicode=";" horiz-adv-x="230" 
d="M160 90v-90q0 -56 -23 -89.5t-67 -40.5v40q22 8 33.5 26.5t11.5 63.5h-45v90h90zM70 500h90v-90h-90v90z" />
    <glyph glyph-name="slash" unicode="/" horiz-adv-x="530" 
d="M40 -100l400 900h50l-400 -900h-50z" />
    <glyph glyph-name="underscore" unicode="_" horiz-adv-x="520" 
d="M40 -77h440v-64h-440v64z" />
    <glyph glyph-name="braceleft" unicode="{" horiz-adv-x="354" 
d="M307 -109q-74 0 -113.5 41t-39.5 122v167q0 42 -11.5 63t-33.5 28t-59 7v64q37 0 59 7t33.5 28t11.5 63v167q0 81 39.5 122t113.5 41q18 0 27 -1v-64q-20 2 -28 2q-45 0 -65.5 -22.5t-20.5 -77.5v-167q0 -57 -19.5 -87.5t-58.5 -42.5q39 -12 58.5 -42.5t19.5 -87.5v-167
q0 -55 20.5 -77.5t65.5 -22.5q8 0 28 2v-64q-9 -1 -27 -1z" />
    <glyph glyph-name="braceright" unicode="}" horiz-adv-x="354" 
d="M20 -44q20 -2 28 -2q45 0 65.5 22.5t20.5 77.5v167q0 57 19.5 87.5t58.5 42.5q-39 12 -58.5 42.5t-19.5 87.5v167q0 55 -20.5 77.5t-65.5 22.5q-8 0 -28 -2v64q9 1 27 1q74 0 113.5 -41t39.5 -122v-167q0 -42 11.5 -63t33.5 -28t59 -7v-64q-37 0 -59 -7t-33.5 -28
t-11.5 -63v-167q0 -81 -39.5 -122t-113.5 -41q-18 0 -27 1v64z" />
    <glyph glyph-name="bracketleft" unicode="[" horiz-adv-x="260" 
d="M126 736v-772h134v-64h-190h-10v900h66h134v-64h-134z" />
    <glyph glyph-name="bracketright" unicode="]" horiz-adv-x="260" 
d="M200 -100h-66h-134v64h134v772h-134v64h200v-900z" />
    <glyph glyph-name="parenleft" unicode="(" horiz-adv-x="266" 
d="M60 350q0 230 110 450h66q-110 -220 -110 -450t110 -450h-66q-110 220 -110 450z" />
    <glyph glyph-name="parenright" unicode=")" horiz-adv-x="266" 
d="M30 -100q110 220 110 450t-110 450h66q110 -220 110 -450t-110 -450h-66z" />
    <glyph glyph-name="emdash" unicode="&#x2014;" horiz-adv-x="760" 
d="M80 341h600v-64h-600v64z" />
    <glyph glyph-name="endash" unicode="&#x2013;" horiz-adv-x="660" 
d="M80 341h500v-64h-500v64z" />
    <glyph glyph-name="hyphen" unicode="-" horiz-adv-x="520" 
d="M80 341h360v-64h-360v64z" />
    <glyph glyph-name="guillemotleft" unicode="&#xab;" horiz-adv-x="492" 
d="M152 309l110 -180h-82l-110 180l110 180h82zM312 309l110 -180h-82l-110 180l110 180h82z" />
    <glyph glyph-name="guillemotright" unicode="&#xbb;" horiz-adv-x="492" 
d="M262 309l-110 -180h-82l110 180l-110 180h82zM422 309l-110 -180h-82l110 180l-110 180h82z" />
    <glyph glyph-name="guilsinglleft" unicode="&#x2039;" horiz-adv-x="332" 
d="M152 309l110 -180h-82l-110 180l110 180h82z" />
    <glyph glyph-name="guilsinglright" unicode="&#x203a;" horiz-adv-x="332" 
d="M262 309l-110 -180h-82l110 180l-110 180h82z" />
    <glyph glyph-name="quotedblbase" unicode="&#x201e;" horiz-adv-x="370" 
d="M160 90v-90q0 -56 -23 -89.5t-67 -40.5v40q22 8 33.5 26.5t11.5 63.5h-45v90h90zM300 90v-90q0 -56 -23 -89.5t-67 -40.5v40q22 8 33.5 26.5t11.5 63.5h-45v90h90z" />
    <glyph glyph-name="quotedblleft" unicode="&#x201c;" horiz-adv-x="370" 
d="M93 664.5q23 33.5 67 40.5v-40q-22 -8 -33.5 -26.5t-11.5 -63.5h45v-90h-90v90q0 56 23 89.5zM266.5 638.5q-11.5 -18.5 -11.5 -63.5h45v-90h-90v90q0 56 23 89.5t67 40.5v-40q-22 -8 -33.5 -26.5z" />
    <glyph glyph-name="quotedblright" unicode="&#x201d;" horiz-adv-x="370" 
d="M160 700v-90q0 -56 -23 -89.5t-67 -40.5v40q22 8 33.5 26.5t11.5 63.5h-45v90h90zM300 700v-90q0 -56 -23 -89.5t-67 -40.5v40q22 8 33.5 26.5t11.5 63.5h-45v90h90z" />
    <glyph glyph-name="quoteleft" unicode="&#x2018;" horiz-adv-x="230" 
d="M126.5 638.5q-11.5 -18.5 -11.5 -63.5h45v-90h-90v90q0 56 23 89.5t67 40.5v-40q-22 -8 -33.5 -26.5z" />
    <glyph glyph-name="quoteright" unicode="&#x2019;" horiz-adv-x="230" 
d="M160 700v-90q0 -56 -23 -89.5t-67 -40.5v40q22 8 33.5 26.5t11.5 63.5h-45v90h90z" />
    <glyph glyph-name="quotesinglbase" unicode="&#x201a;" horiz-adv-x="230" 
d="M160 90v-90q0 -56 -23 -89.5t-67 -40.5v40q22 8 33.5 26.5t11.5 63.5h-45v90h90z" />
    <glyph glyph-name="cent" unicode="&#xa2;" horiz-adv-x="573" 
d="M408 182q46 30 65 78h70q-21 -77 -87.5 -124.5t-152.5 -47.5q-33 0 -68 8l-31 -96h-50l36 112q-69 30 -109.5 94t-40.5 144q0 73 34.5 133t94.5 94.5t134 34.5q27 0 47 -4l30 92h50l-34 -104q54 -20 92.5 -61t54.5 -95h-70q-13 32 -38 56.5t-59 37.5l-121 -376
q23 -6 48 -6q59 0 105 30zM134.5 246q28.5 -47 75.5 -72l120 372q-18 2 -27 2q-55 0 -100 -26.5t-71 -71.5t-26 -100q0 -57 28.5 -104z" />
    <glyph glyph-name="currency" unicode="&#xa4;" horiz-adv-x="552" 
d="M477 277.5q-12 -34.5 -35 -61.5l70 -70l-32 -32l-70 70q-59 -46 -134 -46t-134 46l-70 -70l-32 32l70 70q-47 58 -47 134t47 134l-70 70l32 32l70 -70q59 46 134 46t134 -46l70 70l32 -32l-70 -70q23 -27 35 -61.5t12 -72.5t-12 -72.5zM148.5 275q19.5 -34 53 -53.5
t74.5 -19.5t74.5 19.5t53 53.5t19.5 75t-19.5 75t-53 53.5t-74.5 19.5t-74.5 -19.5t-53 -53.5t-19.5 -75t19.5 -75z" />
    <glyph glyph-name="dollar" unicode="$" horiz-adv-x="550" 
d="M482.5 78.5q-27.5 -40.5 -74.5 -63t-103 -26.5v-89h-60v90q-90 11 -147.5 67t-57.5 146h70q0 -61 36.5 -98t98.5 -46v272q-58 23 -98 46.5t-66 62t-26 94.5q0 76 55 123t135 54v89h60v-90q81 -10 135.5 -62.5t54.5 -135.5h-70q0 54 -33 87.5t-87 41.5v-263
q64 -25 106 -48.5t70.5 -62.5t28.5 -95q0 -53 -27.5 -93.5zM156.5 457.5q31.5 -30.5 88.5 -55.5v241q-53 -6 -86.5 -34t-33.5 -75q0 -46 31.5 -76.5zM402 92q38 30 38 80q0 48 -35.5 79.5t-99.5 56.5v-251q59 5 97 35z" />
    <glyph glyph-name="Euro" unicode="&#x20ac;" horiz-adv-x="620" 
d="M590 234q-14 -115 -78.5 -180.5t-166.5 -65.5q-109 0 -176 74t-84 204h-75v58h70v26q0 23 1 34h-71v58h76q18 126 85 198t174 72q101 0 164.5 -63.5t78.5 -174.5h-71q-12 81 -57 125.5t-115 44.5q-76 0 -124.5 -52t-63.5 -150h253v-58h-259q-1 -11 -1 -34v-26h260v-58
h-254q14 -101 63 -155.5t126 -54.5q72 0 117.5 46.5t56.5 131.5h71z" />
    <glyph glyph-name="florin" unicode="&#x192;" horiz-adv-x="439" 
d="M389 649q-33 0 -54.5 -20.5t-27.5 -57.5l-32 -188h115v-64h-126l-66 -388q-12 -69 -49 -105t-91 -36q-28 0 -58 9v64q26 -10 50 -10q33 0 54.5 20.5t27.5 57.5l66 388h-109v64h120l32 188q12 69 49 105t91 36q28 0 58 -9v-64q-26 10 -50 10z" />
    <glyph glyph-name="uni20BD" unicode="&#x20bd;" horiz-adv-x="590" 
d="M180 280v-94h260v-58h-260v-128h-70v128h-90v58h90v94h-90v66h90v354h70h180q57 0 105.5 -28t76.5 -76.5t28 -105.5t-28.5 -105t-76.5 -76.5t-105 -28.5h-180zM180 346h180q38 0 70 19.5t51 52.5t19 72t-19 72t-51 52.5t-70 19.5h-180v-288z" />
    <glyph glyph-name="sterling" unicode="&#xa3;" horiz-adv-x="585" 
d="M570 68v-68h-530v68h94v211h-74v62h74v161q0 68 29 115.5t76 71t100 23.5q51 0 98 -23.5t77 -71t30 -115.5v-22h-70v22q0 70 -40.5 106t-94.5 36q-57 0 -96 -35.5t-39 -106.5v-161h231v-62h-231v-211h366z" />
    <glyph glyph-name="yen" unicode="&#xa5;" horiz-adv-x="575" 
d="M336 347h167v-58h-181v-60h181v-58h-181v-171h-70v171h-179v58h179v60h-179v58h166l-229 353h79l199 -305l198 305h79z" />
    <glyph glyph-name="cent.tf" horiz-adv-x="570" 
d="M408 182q46 30 65 78h70q-21 -77 -87.5 -124.5t-152.5 -47.5q-33 0 -68 8l-31 -96h-50l36 112q-69 30 -109.5 94t-40.5 144q0 73 34.5 133t94.5 94.5t134 34.5q27 0 47 -4l30 92h50l-34 -104q54 -20 92.5 -61t54.5 -95h-70q-13 32 -38 56.5t-59 37.5l-121 -376
q23 -6 48 -6q59 0 105 30zM134.5 246q28.5 -47 75.5 -72l120 372q-18 2 -27 2q-55 0 -100 -26.5t-71 -71.5t-26 -100q0 -57 28.5 -104z" />
    <glyph glyph-name="dollar.tf" horiz-adv-x="570" 
d="M469 42.5q-61 -48.5 -154 -53.5v-89h-60v90q-96 10 -155.5 66t-59.5 147h70q0 -62 38.5 -99t106.5 -46v271q-62 23 -104 47t-69 62.5t-27 95.5q0 77 57.5 124t142.5 53v89h60v-90q88 -9 144 -61.5t56 -136.5h-70q0 55 -35.5 88.5t-94.5 41.5v-262q68 -26 112.5 -50
t73.5 -62.5t29 -95.5q0 -81 -61 -129.5zM158 457.5q33 -29.5 97 -54.5v240q-58 -6 -94 -33.5t-36 -75.5q0 -47 33 -76.5zM420.5 91q39.5 30 39.5 81q0 47 -37 77t-108 58v-250q66 4 105.5 34z" />
    <glyph glyph-name="Euro.tf" horiz-adv-x="570" 
d="M545 234q-4 -74 -34.5 -130t-81 -86t-114.5 -30q-102 0 -165.5 74.5t-79.5 203.5h-65v58h60v26q0 23 1 34h-61v58h66q17 126 80 198t164 72q63 0 113 -29t80 -83t35 -126h-71q-4 79 -48.5 124.5t-108.5 45.5q-70 0 -115 -52t-59 -150h244v-58h-249q-1 -11 -1 -34v-26h250
v-58h-245q14 -101 59 -155.5t116 -54.5q66 0 110.5 47.5t48.5 130.5h71z" />
    <glyph glyph-name="florin.tf" horiz-adv-x="570" 
d="M485 649q-69 0 -88 -78l-47 -188h150v-64h-166l-96 -388q-36 -141 -146 -141q-29 0 -62 9v64q30 -10 55 -10q68 0 87 78l96 388h-149v64h165l47 188q36 141 147 141q29 0 62 -9v-64q-30 10 -55 10z" />
    <glyph glyph-name="uni20BD.tf" horiz-adv-x="570" 
d="M170 280v-94h240v-58h-240v-128h-70v128h-90v58h90v94h-90v66h90v354h70h160q57 0 105.5 -28t76.5 -76.5t28 -105.5t-28.5 -105t-76.5 -76.5t-105 -28.5h-160zM170 346h160q38 0 70 19.5t51 52.5t19 72t-19 72t-51 52.5t-70 19.5h-160v-288z" />
    <glyph glyph-name="sterling.tf" horiz-adv-x="570" 
d="M530 68v-68h-530v68h94v211h-74v62h74v161q0 68 29 115.5t76 71t100 23.5q51 0 98 -23.5t77 -71t30 -115.5v-22h-70v22q0 70 -40.5 106t-94.5 36q-57 0 -96 -35.5t-39 -106.5v-161h231v-62h-231v-211h366z" />
    <glyph glyph-name="yen.tf" horiz-adv-x="570" 
d="M334 347h167v-58h-181v-60h181v-58h-181v-171h-70v171h-179v58h179v60h-179v58h166l-229 353h77l201 -309l200 309h77z" />
    <glyph glyph-name="approxequal" unicode="&#x2248;" horiz-adv-x="594" 
d="M189 438q-27 0 -43.5 -18.5t-25.5 -53.5l-60 28q16 52 47.5 80t77.5 28q57 0 127 -44q58 -36 94 -36q26 0 42.5 18.5t25.5 53.5l60 -28q-16 -52 -47.5 -80.5t-76.5 -28.5q-55 0 -128 45q-56 36 -93 36zM60 234q16 52 47.5 80t77.5 28q57 0 127 -44q58 -36 94 -36
q26 0 42.5 18.5t25.5 53.5l60 -28q-16 -52 -47.5 -80.5t-76.5 -28.5q-55 0 -128 45q-56 36 -93 36q-27 0 -43.5 -18.5t-25.5 -53.5z" />
    <glyph glyph-name="asciitilde" unicode="~" horiz-adv-x="594" 
d="M534 386q-16 -52 -47.5 -80.5t-76.5 -28.5q-55 0 -128 45q-56 36 -93 36q-27 0 -43.5 -18.5t-25.5 -53.5l-60 28q16 52 47.5 80t77.5 28q57 0 127 -44q58 -36 94 -36q26 0 42.5 18.5t25.5 53.5z" />
    <glyph glyph-name="divide" unicode="&#xf7;" horiz-adv-x="580" 
d="M251 498q-16 16 -16 39t16 39t39 16t39 -16t16 -39t-16 -39t-39 -16t-39 16zM60 382h460v-64h-460v64zM251 124q-16 16 -16 39t16 39t39 16t39 -16t16 -39t-16 -39t-39 -16t-39 16z" />
    <glyph glyph-name="emptyset" unicode="&#x2205;" horiz-adv-x="804" 
d="M735 493q29 -68 29 -143q0 -98 -48.5 -181.5t-132 -132t-181.5 -48.5q-58 0 -111.5 17.5t-98.5 49.5l-62 -75h-70l91 109q-53 50 -82 118t-29 143q0 98 48.5 181.5t132 132t181.5 48.5q58 0 111.5 -17.5t98.5 -49.5l62 75h70l-91 -109q53 -50 82 -118zM123.5 232
q23.5 -56 64.5 -98l387 466q-78 54 -173 54q-83 0 -152 -40.5t-109.5 -110.5t-40.5 -153q0 -62 23.5 -118zM554 86.5q69 40.5 109.5 110.5t40.5 153q0 62 -23.5 118t-64.5 98l-387 -466q78 -54 173 -54q83 0 152 40.5z" />
    <glyph glyph-name="equal" unicode="=" horiz-adv-x="540" 
d="M60 482h420v-64h-420v64zM60 282h420v-64h-420v64z" />
    <glyph glyph-name="greater" unicode="&#x3e;" horiz-adv-x="520" 
d="M460 385v-70l-400 -175v74l325 136l-325 136v74z" />
    <glyph glyph-name="greaterequal" unicode="&#x2265;" horiz-adv-x="520" 
d="M460 444v-66l-400 -156v74l317 115l-317 115v74zM60 164h400v-64h-400v64z" />
    <glyph glyph-name="infinity" unicode="&#x221e;" horiz-adv-x="800" 
d="M666 489q37 -21 58 -57.5t21 -81.5t-21 -81.5t-58 -57.5t-82 -21q-57 0 -101 30.5t-83 79.5q-39 -49 -83 -79.5t-101 -30.5q-45 0 -82 21t-58 57.5t-21 81.5t21 81.5t58 57.5t82 21q57 0 101 -30.5t83 -79.5q39 49 83 79.5t101 30.5q45 0 82 -21zM293.5 277
q35.5 27 68.5 73q-33 46 -68.5 73t-76.5 27q-43 0 -70 -28t-27 -72t27 -72t70 -28q41 0 76.5 27zM654 278q27 28 27 72t-27 72t-70 28q-41 0 -76.5 -27t-68.5 -73q33 -46 68.5 -73t76.5 -27q43 0 70 28z" />
    <glyph glyph-name="integral" unicode="&#x222b;" horiz-adv-x="439" 
d="M0 -138q26 -10 49 -10q32 0 51.5 20.5t25.5 57.5l109 640q12 70 48 105.5t93 35.5q28 0 63 -9v-64q-30 10 -56 10q-69 0 -82 -78l-109 -640q-12 -70 -47 -105.5t-88 -35.5q-27 0 -57 9v64z" />
    <glyph glyph-name="less" unicode="&#x3c;" horiz-adv-x="520" 
d="M460 486l-325 -136l325 -136v-74l-400 175v70l400 175v-74z" />
    <glyph glyph-name="lessequal" unicode="&#x2264;" horiz-adv-x="520" 
d="M460 526l-317 -115l317 -115v-74l-400 156v66l400 156v-74zM60 164h400v-64h-400v64z" />
    <glyph glyph-name="logicalnot" unicode="&#xac;" horiz-adv-x="520" 
d="M460 382v-64v-116h-66v116h-334v64h400z" />
    <glyph glyph-name="uni00B5" unicode="&#xb5;" horiz-adv-x="566" 
d="M536 64v-64h-47q-34 0 -58 18t-33 49q-27 -44 -65.5 -61.5t-88.5 -17.5q-32 0 -60 11.5t-48 33.5v-233h-66v700h66v-327q0 -58 32 -89.5t84 -31.5q59 0 100.5 40t41.5 126v282h66v-400q0 -16 10 -26t27 -10h39z" />
    <glyph glyph-name="minus" unicode="&#x2212;" horiz-adv-x="540" 
d="M60 382h420v-64h-420v64z" />
    <glyph glyph-name="multiply" unicode="&#xd7;" horiz-adv-x="471" 
d="M279 350l142 -142l-45 -42l-140 141l-141 -141l-45 42l142 142l-142 142l45 42l141 -140l140 140l45 -42z" />
    <glyph glyph-name="notequal" unicode="&#x2260;" horiz-adv-x="540" 
d="M325 418l-60 -136h215v-64h-244l-66 -148h-50l66 148h-126v64h155l60 136h-215v64h244l66 148h50l-66 -148h126v-64h-155z" />
    <glyph glyph-name="partialdiff" unicode="&#x2202;" horiz-adv-x="576" 
d="M375.5 667q64.5 -45 102.5 -127t38 -190q0 -114 -34 -195.5t-92.5 -124t-132.5 -42.5q-64 0 -111 28t-71.5 76t-24.5 108q0 68 27 120t78.5 81t123.5 29q42 0 86.5 -13t83.5 -40q-4 74 -30 135.5t-74 98t-113 36.5q-72 0 -131 -35v64q56 36 131 36q79 0 143.5 -45z
M390 120.5q52 68.5 59 189.5q-37 29 -82 42.5t-88 13.5q-75 0 -119 -43t-44 -123q0 -65 36 -106.5t105 -41.5q81 0 133 68.5z" />
    <glyph glyph-name="percent" unicode="%" horiz-adv-x="749" 
d="M135 432q-35 20 -55 54.5t-20 75.5t20 75.5t55 54.5t78 20t78 -20t55 -54.5t20 -75.5t-19.5 -75.5t-54.5 -54.5t-79 -20q-43 0 -78 20zM581 700h78l-492 -700h-77zM277 498q25 26 25 64t-25 64t-64 26t-64 -26t-25 -64t25 -64t64 -26t64 26zM458 8q-35 20 -55 54.5
t-20 75.5t20 75.5t55 54.5t78 20t78 -20t55 -54.5t20 -75.5t-20 -75.5t-55 -54.5t-78 -20t-78 20zM600 74q25 26 25 64t-25 64t-64 26t-64 -26t-25 -64t25 -64t64 -26t64 26z" />
    <glyph glyph-name="perthousand" unicode="&#x2030;" horiz-adv-x="1089" 
d="M135 432q-35 20 -55 54.5t-20 75.5t20 75.5t55 54.5t78 20t78 -20t55 -54.5t20 -75.5t-19.5 -75.5t-54.5 -54.5t-79 -20q-43 0 -78 20zM581 700h78l-492 -700h-77zM277 498q25 26 25 64t-25 64t-64 26t-64 -26t-25 -64t25 -64t64 -26t64 26zM458 8q-35 20 -55 54.5
t-20 75.5t20 75.5t55 54.5t78 20t78 -20t55 -54.5t20 -75.5t-20 -75.5t-55 -54.5t-78 -20t-78 20zM818 8q-35 20 -55 54.5t-20 75.5t20 75.5t55 54.5t78 20t78 -20t55 -54.5t20 -75.5t-20 -75.5t-55 -54.5t-78 -20t-78 20zM600 74q25 26 25 64t-25 64t-64 26t-64 -26
t-25 -64t25 -64t64 -26t64 26zM960 74q25 26 25 64t-25 64t-64 26t-64 -26t-25 -64t25 -64t64 -26t64 26z" />
    <glyph glyph-name="plus" unicode="+" horiz-adv-x="540" 
d="M480 318h-178v-178h-64v178h-178v64h178v178h64v-178h178v-64z" />
    <glyph glyph-name="plusminus" unicode="&#xb1;" horiz-adv-x="540" 
d="M480 447v-64h-178v-163h-64v163h-178v64h178v163h64v-163h178zM60 154h420v-64h-420v64z" />
    <glyph glyph-name="product" unicode="&#x220f;" horiz-adv-x="640" 
d="M80 700h480v-900h-66v836h-348v-836h-66v900z" />
    <glyph glyph-name="radical" unicode="&#x221a;" horiz-adv-x="644" 
d="M148 236h-88v64h126l127 -220l241 720h70l-269 -800h-70z" />
    <glyph glyph-name="summation" unicode="&#x2211;" horiz-adv-x="540" 
d="M50 -135l240 395l-225 374v66h430v-64h-355l227 -376l-241 -396h384v-64h-460v65z" />
    <glyph glyph-name="arrowup" unicode="&#x2191;" horiz-adv-x="720" 
d="M660 310l-267 267v-577h-66v577l-267 -267v90l300 300l300 -300v-90z" />
    <glyph glyph-name="uni2197" unicode="&#x2197;" horiz-adv-x="638" 
d="M578 587v-424l-63 -63v377l-408 -408l-47 47l408 408h-377l63 63h424z" />
    <glyph glyph-name="arrowright" unicode="&#x2192;" horiz-adv-x="820" 
d="M760 350l-300 -300h-90l268 268h-578v64h578l-268 268h90z" />
    <glyph glyph-name="uni2198" unicode="&#x2198;" horiz-adv-x="638" 
d="M578 513v-424h-424l-63 63h377l-408 408l47 47l408 -408v377z" />
    <glyph glyph-name="arrowdown" unicode="&#x2193;" horiz-adv-x="720" 
d="M660 390v-90l-300 -300l-300 300v90l267 -267v577h66v-577z" />
    <glyph glyph-name="uni2199" unicode="&#x2199;" horiz-adv-x="638" 
d="M170 152h377l-63 -63h-424v424l63 63v-377l408 408l47 -47z" />
    <glyph glyph-name="arrowleft" unicode="&#x2190;" horiz-adv-x="820" 
d="M760 318h-578l268 -268h-90l-300 300l300 300h90l-268 -268h578v-64z" />
    <glyph glyph-name="uni2196" unicode="&#x2196;" horiz-adv-x="638" 
d="M531 69l-408 408v-377l-63 63v424h424l63 -63h-377l408 -408z" />
    <glyph glyph-name="arrowboth" unicode="&#x2194;" horiz-adv-x="1040" 
d="M980 350l-249 -250h-90l217 218h-676l217 -218h-90l-249 250l249 250h90l-217 -218h676l-217 218h90z" />
    <glyph glyph-name="arrowupdn" unicode="&#x2195;" horiz-adv-x="620" 
d="M343 687v-674l217 216v-90l-250 -249l-250 249v90l217 -216v674l-217 -216v90l250 249l250 -249v-90z" />
    <glyph glyph-name="lozenge" unicode="&#x25ca;" horiz-adv-x="540" 
d="M50 350l186 350h68l186 -350l-186 -350h-68zM419 350l-149 279l-149 -279l149 -279z" />
    <glyph glyph-name="bar" unicode="|" horiz-adv-x="226" 
d="M80 720h66v-920h-66v920z" />
    <glyph glyph-name="brokenbar" unicode="&#xa6;" horiz-adv-x="226" 
d="M80 720h66v-370h-66v370zM80 170h66v-370h-66v370z" />
    <glyph glyph-name="at" unicode="@" horiz-adv-x="794" 
d="M590 562.5q80 -49.5 122 -128.5t42 -164q0 -72 -21 -120t-53.5 -70t-69.5 -22q-42 0 -72 21.5t-40 64.5q-20 -25 -48.5 -39.5t-62.5 -14.5q-46 0 -83 21t-58 58t-21 81t21 81t58 58t83 21q32 0 59 -12.5t47 -35.5v41h62v-216q0 -96 65 -96q44 0 74 43.5t30 135.5
q0 88 -42.5 160t-115.5 113t-162 41q-91 0 -167.5 -43.5t-121.5 -120t-45 -170.5q0 -95 46 -171.5t126 -119.5t180 -43q101 0 174 29v-30q-75 -27 -174 -27q-108 0 -195 46.5t-137 129.5t-50 186q0 99 47.5 182t131 131.5t185.5 48.5q106 0 186 -49.5zM463.5 177.5
q29.5 27.5 29.5 72.5t-29.5 72.5t-72.5 27.5t-73.5 -27.5t-30.5 -72.5t30.5 -72.5t73.5 -27.5t72.5 27.5z" />
    <glyph glyph-name="ampersand" unicode="&#x26;" horiz-adv-x="654" 
d="M539 0l-50 51q-74 -63 -201 -63q-68 0 -122 25.5t-85 72t-31 107.5q0 59 29.5 108t83.5 83q-27 30 -41 62.5t-14 75.5q0 57 28.5 100.5t76 66.5t102.5 23t104 -23t79 -68t30 -109h-70q0 65 -41 98.5t-102 33.5q-59 0 -98 -33t-39 -89q0 -33 17 -62t48 -60l243 -248
q38 65 38 172h70q0 -138 -59 -223l99 -101h-95zM440 100l-230 234q-46 -25 -68 -62t-22 -79q0 -61 46.5 -99t121.5 -38q96 0 152 44z" />
    <glyph glyph-name="paragraph" unicode="&#xb6;" horiz-adv-x="580" 
d="M540 638h-60v-838h-64v838h-112v-838h-64v500q-55 0 -100.5 27t-72.5 73t-27 100q0 55 27 100.5t72.5 72.5t100.5 27h64h176h60v-62z" />
    <glyph glyph-name="copyright" unicode="&#xa9;" horiz-adv-x="804" 
d="M220.5 36.5q-83.5 48.5 -132 132t-48.5 181.5t48.5 181.5t132 132t181.5 48.5t181.5 -48.5t132 -132t48.5 -181.5t-48.5 -181.5t-132 -132t-181.5 -48.5t-181.5 48.5zM568.5 61q76.5 45 121 121.5t44.5 167.5t-44.5 167.5t-121 121.5t-166.5 45t-166.5 -45t-121 -121.5
t-44.5 -167.5t44.5 -167.5t121 -121.5t166.5 -45t166.5 45zM306.5 183.5q-44.5 25.5 -70 69.5t-25.5 97t25.5 97t70 69.5t98.5 25.5q68 0 119 -40t64 -102h-68q-9 38 -42 59t-73 21q-39 0 -68 -18t-45 -48t-16 -64t16 -64t45 -48t68 -18q40 0 73 21t42 59h68
q-13 -62 -64 -102t-119 -40q-54 0 -98.5 25.5z" />
    <glyph glyph-name="registered" unicode="&#xae;" horiz-adv-x="804" 
d="M583.5 663.5q83.5 -48.5 132 -132t48.5 -181.5t-48.5 -181.5t-132 -132t-181.5 -48.5t-181.5 48.5t-132 132t-48.5 181.5t48.5 181.5t132 132t181.5 48.5t181.5 -48.5zM568.5 61q76.5 45 121 121.5t44.5 167.5t-44.5 167.5t-121 121.5t-166.5 45t-166.5 -45t-121 -121.5
t-44.5 -167.5t44.5 -167.5t121 -121.5t166.5 -45t166.5 45zM528 348.5q-18 -27.5 -54 -40.5l112 -143h-71l-105 132h-4h-52v-132h-62v370h62h52q66 0 103 -34.5t37 -84.5q0 -40 -18 -67.5zM354 357h56q35 0 54.5 16t19.5 43t-19.5 43t-54.5 16h-56v-118z" />
    <glyph glyph-name="section" unicode="&#xa7;" horiz-adv-x="510" 
d="M440 31q0 -63 -49 -103t-131 -40q-85 0 -137.5 44.5t-52.5 122.5h66q0 -55 35 -79t89 -24q51 0 82.5 19.5t31.5 59.5q0 38 -33.5 63.5t-103.5 58.5q-10 4 -30 14q-75 36 -116 74t-41 98q0 38 19.5 71t54.5 56q-44 42 -44 103q0 41 21.5 73.5t60.5 51t89 18.5
q78 0 128.5 -45t50.5 -122h-66q0 55 -33 79t-80 24q-44 0 -74.5 -20t-30.5 -59q0 -29 21 -51.5t47.5 -37t88.5 -44.5q75 -38 116 -76t41 -99q0 -37 -18 -69t-50 -56q48 -45 48 -105zM146 275.5q30 -25.5 86 -51.5l27 -12q55 -24 81 -39q54 34 54 88q0 39 -30.5 65t-88.5 53
l-25 12q-50 22 -77 38q-29 -17 -43 -40.5t-14 -49.5q0 -38 30 -63.5z" />
    <glyph glyph-name="trademark" unicode="&#x2122;" horiz-adv-x="464" 
d="M195 663h-57v-163h-40v163h-58v37h155v-37zM424 500h-40v129l-42 -85h-40l-43 86v-130h-40v200h40h7l56 -115l56 115h46v-200z" />
    <glyph glyph-name="degree" unicode="&#xb0;" horiz-adv-x="386" 
d="M115 530q-35 20 -55 54.5t-20 75.5t20 75.5t55 54.5t78 20t78 -20t55 -54.5t20 -75.5t-19.5 -75.5t-54.5 -54.5t-79 -20q-43 0 -78 20zM257 596q25 26 25 64t-25 64t-64 26t-64 -26t-25 -64t25 -64t64 -26t64 26z" />
    <glyph glyph-name="estimated" unicode="&#x212e;" horiz-adv-x="820" 
d="M602.5 662q84.5 -48 131 -130.5t46.5 -181.5q0 -15 -15 -15h-560q-15 0 -15 -15v-192q0 -11 7 -19q84 -89 233 -89q73 0 131.5 25t99.5 72q8 9 18 9h37q6 0 10 -2.5t4 -6.5q0 -5 -5 -10q-52 -55 -127 -86t-168 -31q-117 0 -205.5 48t-136.5 130t-48 182q0 99 46.5 181.5
t131 130.5t192.5 48t192.5 -48zM623 591q-41 43 -95.5 66t-117.5 23t-117.5 -23t-95.5 -66q-7 -8 -7 -19v-192q0 -15 15 -15h410q15 0 15 15v192q0 11 -7 19z" />
    <glyph glyph-name="uni2116" unicode="&#x2116;" horiz-adv-x="966" 
d="M695 432q-35 20 -55 54.5t-20 75.5t20 75.5t55 54.5t78 20t78 -20t55 -54.5t20 -75.5t-19.5 -75.5t-54.5 -54.5t-79 -20q-43 0 -78 20zM550 700v-700h-60l-340 560v-560h-70v700h60l340 -560v560h70zM837 498q25 26 25 64t-25 64t-64 26t-64 -26t-25 -64t25 -64t64 -26
t64 26zM632 342h282v-64h-282v64z" />
    <glyph glyph-name="asciicircum" unicode="^" horiz-adv-x="500" 
d="M460 400h-77l-133 227l-133 -227h-77l176 300h68z" />
    <glyph glyph-name="dagger" unicode="&#x2020;" horiz-adv-x="480" 
d="M420 471h-147v-471h-66v471h-147v64h147v165h66v-165h147v-64z" />
    <glyph glyph-name="daggerdbl" unicode="&#x2021;" horiz-adv-x="480" 
d="M273 471v-242h147v-64h-147v-165h-66v165h-147v64h147v242h-147v64h147v165h66v-165h147v-64h-147z" />
    <glyph glyph-name="uni0308" unicode="&#x308;" horiz-adv-x="0" 
d="M-300 660h80v-80h-80v80zM-100 660h80v-80h-80v80z" />
    <glyph glyph-name="uni0307" unicode="&#x307;" horiz-adv-x="0" 
d="M-115 670h90v-90h-90v90z" />
    <glyph glyph-name="gravecomb" unicode="&#x300;" horiz-adv-x="0" 
d="M-100 700h-80l96 -130h64z" />
    <glyph glyph-name="acutecomb" unicode="&#x301;" horiz-adv-x="0" 
d="M-116 570l96 130h-80l-80 -130h64z" />
    <glyph glyph-name="uni030B" unicode="&#x30b;" horiz-adv-x="0" 
d="M-249 570l76 130h-74l-70 -130h68zM-106 570l86 130h-74l-80 -130h68z" />
    <glyph glyph-name="uni0302" unicode="&#x302;" horiz-adv-x="0" 
d="M-95 570l-70 87l-70 -87h-75l106 130h74h4l106 -130h-75z" />
    <glyph glyph-name="uni030C" unicode="&#x30c;" horiz-adv-x="0" 
d="M-20 700l-106 -130h-74h-4l-106 130h75l70 -87l70 87h75z" />
    <glyph glyph-name="uni0306" unicode="&#x306;" horiz-adv-x="0" 
d="M-262 596.5q-38 34.5 -38 95.5h64q0 -38 19 -55t57 -17t57 17t19 55h64q0 -62 -37.5 -96t-102.5 -34q-64 0 -102 34.5z" />
    <glyph glyph-name="uni030A" unicode="&#x30a;" horiz-adv-x="0" 
d="M-202.5 578.5q-29.5 28.5 -29.5 71.5t29.5 71.5t76.5 28.5t76.5 -28.5t29.5 -71.5t-29.5 -71.5t-76.5 -28.5t-76.5 28.5zM-87.5 614.5q13.5 13.5 13.5 35.5t-13.5 35.5t-38.5 13.5q-24 0 -37.5 -13.5t-13.5 -35.5t13.5 -35.5t37.5 -13.5q25 0 38.5 13.5z" />
    <glyph glyph-name="tildecomb" unicode="&#x303;" horiz-adv-x="0" 
d="M-280.5 666q19.5 29 51.5 29q33 0 70 -28q23 -17 36.5 -25t22.5 -8q11 0 16.5 13t5.5 43h58q0 -57 -19 -86t-51 -29q-33 0 -70 28q-23 17 -36.5 25t-23.5 8q-22 0 -22 -56h-58q0 57 19.5 86z" />
    <glyph glyph-name="uni0304" unicode="&#x304;" horiz-adv-x="0" 
d="M-280 638h260v-58h-260v58z" />
    <glyph glyph-name="uni0312" unicode="&#x312;" horiz-adv-x="0" 
d="M-96 790h66l10 170h-46z" />
    <glyph glyph-name="uni0326" unicode="&#x326;" horiz-adv-x="0" 
d="M-20 -70h-66l-10 -170h46z" />
    <glyph glyph-name="uni0327" unicode="&#x327;" horiz-adv-x="0" 
d="M-45 -74q25 -21 25 -52q0 -91 -164 -91q-26 0 -41 1v54q36 -2 48 -2q49 0 74 10t25 28q0 20 -23.5 29.5t-69.5 11.5v85h58v-45q43 -8 68 -29z" />
    <glyph glyph-name="uni0328" unicode="&#x328;" horiz-adv-x="0" 
d="M-139.5 -191q-21.5 21 -21.5 55q0 31 18.5 66.5t53.5 69.5h69q-34 -31 -55 -65t-21 -59q0 -31 34 -31q21 0 42 9v-55q-27 -11 -59 -11q-39 0 -60.5 21z" />
    <glyph glyph-name="acute" unicode="&#xb4;" horiz-adv-x="200" 
d="M84 570l96 130h-80l-80 -130h64z" />
    <glyph glyph-name="breve" unicode="&#x2d8;" horiz-adv-x="320" 
d="M58 596.5q-38 34.5 -38 95.5h64q0 -38 19 -55t57 -17t57 17t19 55h64q0 -62 -37.5 -96t-102.5 -34q-64 0 -102 34.5z" />
    <glyph glyph-name="caron" unicode="&#x2c7;" horiz-adv-x="330" 
d="M310 700l-106 -130h-74h-4l-106 130h75l70 -87l70 87h75z" />
    <glyph glyph-name="cedilla" unicode="&#xb8;" horiz-adv-x="245" 
d="M200 -74q25 -21 25 -52q0 -91 -164 -91q-26 0 -41 1v54q36 -2 48 -2q49 0 74 10t25 28q0 20 -23.5 29.5t-69.5 11.5v85h58v-45q43 -8 68 -29z" />
    <glyph glyph-name="circumflex" unicode="&#x2c6;" horiz-adv-x="330" 
d="M235 570l-70 87l-70 -87h-75l106 130h74h4l106 -130h-75z" />
    <glyph glyph-name="dieresis" unicode="&#xa8;" horiz-adv-x="320" 
d="M20 660h80v-80h-80v80zM220 660h80v-80h-80v80z" />
    <glyph glyph-name="dotaccent" unicode="&#x2d9;" horiz-adv-x="130" 
d="M20 670h90v-90h-90v90z" />
    <glyph glyph-name="grave" unicode="`" horiz-adv-x="200" 
d="M100 700h-80l96 -130h64z" />
    <glyph glyph-name="hungarumlaut" unicode="&#x2dd;" horiz-adv-x="337" 
d="M88 570l76 130h-74l-70 -130h68zM231 570l86 130h-74l-80 -130h68z" />
    <glyph glyph-name="macron" unicode="&#xaf;" horiz-adv-x="300" 
d="M20 638h260v-58h-260v58z" />
    <glyph glyph-name="ogonek" unicode="&#x2db;" horiz-adv-x="181" 
d="M41.5 -191q-21.5 21 -21.5 55q0 31 18.5 66.5t53.5 69.5h69q-34 -31 -55 -65t-21 -59q0 -31 34 -31q21 0 42 9v-55q-27 -11 -59 -11q-39 0 -60.5 21z" />
    <glyph glyph-name="ring" unicode="&#x2da;" horiz-adv-x="252" 
d="M49.5 578.5q-29.5 28.5 -29.5 71.5t29.5 71.5t76.5 28.5t76.5 -28.5t29.5 -71.5t-29.5 -71.5t-76.5 -28.5t-76.5 28.5zM164.5 614.5q13.5 13.5 13.5 35.5t-13.5 35.5t-38.5 13.5q-24 0 -37.5 -13.5t-13.5 -35.5t13.5 -35.5t37.5 -13.5q25 0 38.5 13.5z" />
    <glyph glyph-name="tilde" unicode="&#x2dc;" horiz-adv-x="320" 
d="M39.5 666q19.5 29 51.5 29q33 0 70 -28q23 -17 36.5 -25t22.5 -8q11 0 16.5 13t5.5 43h58q0 -57 -19 -86t-51 -29q-33 0 -70 28q-23 17 -36.5 25t-23.5 8q-22 0 -22 -56h-58q0 57 19.5 86z" />
    <glyph glyph-name="brevecy" horiz-adv-x="300" 
d="M20 638h260v-58h-260v58z" />
    </font>
</defs>
</svg>
